<svg xmlns="http://www.w3.org/2000/svg" xmlns:xlink="http://www.w3.org/1999/xlink">

	<symbol id="play-01" role="img" viewBox="0 0 512 512">
		<path d="M108.9,11.3C62.8-15.2,25.3,6.5,25.3,59.7v392.6c0,53.2,37.4,74.9,83.6,48.5L452,303.9c46.2-26.5,46.2-69.4,0-95.9 L108.9,11.3z"/>
  </symbol>

  <symbol id="solution-01" role="img" viewBox="0 0 512 512">
  	<path d="m312 372v-80c0-22.091 17.909-40 40-40h-60c-22.091 0-40 17.909-40 40v80c0 22.091 17.909 40 40 40h60c-22.091 0-40-17.909-40-40z" fill="#cee1f2" data-original="#cee1f2" class=""></path>
		<path fill="var(--color-02)" d="m452 232h-160c-33.084 0-60 26.916-60 60v80c0 33.084 26.916 60 60 60h60v40h-20c-11.046 0-20 8.954-20 20s8.954 20 20 20h80c11.046 0 20-8.954 20-20s-8.954-20-20-20h-20v-40h60c33.084 0 60-26.916 60-60v-80c0-33.084-26.916-60-60-60zm20 140c0 11.028-8.972 20-20 20h-160c-11.028 0-20-8.972-20-20v-80c0-11.028 8.972-20 20-20h160c11.028 0 20 8.972 20 20z"/>
		<path fill="var(--color-02)" d="m280 140c0-11.046-8.954-20-20-20h-60.517c-1.262-24.256-4.86-47.748-10.976-67.423 9.68 5.368 18.506 12.35 26.035 20.762 7.367 8.23 20.011 8.931 28.241 1.564s8.931-20.011 1.564-28.241c-26.541-29.654-64.574-46.662-104.347-46.662-77.196 0-140 62.804-140 140s62.804 140 140 140 140-62.804 140-140zm-159.425 20h38.849c-2.545 43.399-12.971 69.987-19.425 78.185-6.453-8.198-16.879-34.786-19.424-78.185zm0-40c2.545-43.399 12.971-69.987 19.425-78.185 6.454 8.198 16.88 34.786 19.425 78.185zm-29.088-67.4c-6.112 19.671-9.708 43.154-10.969 67.4h-38.509c5.907-28.977 24.395-53.421 49.478-67.4zm-49.478 107.4h38.508c1.261 24.247 4.857 47.729 10.969 67.4-25.082-13.979-43.57-38.423-49.477-67.4zm146.504 67.4c6.112-19.671 9.708-43.154 10.969-67.4h38.508c-5.906 28.977-24.394 53.421-49.477 67.4z"/>
		<path fill="var(--color-03)" d="m412 76h-47.214l34.498-34.498c7.811-7.81 7.811-20.474.001-28.284-7.811-7.81-20.474-7.81-28.284 0l-42.428 42.426c-23.394 23.394-23.394 61.459.001 84.853l42.427 42.426c7.811 7.811 20.474 7.811 28.284 0s7.81-20.474-.001-28.284l-38.639-38.639h51.355c33.084 0 60 26.916 60 60 0 11.046 8.954 20 20 20s20-8.954 20-20c0-55.14-44.859-100-100-100z"/>
		<path fill="var(--color-03)" d="m178.426 375.645-42.426-42.427c-7.811-7.811-20.474-7.811-28.284 0s-7.811 20.474 0 28.284l35.207 35.207h-42.923c-33.084 0-60-26.916-60-60 0-11.046-8.954-20-20-20s-20 8.954-20 20c0 55.14 44.86 100 100 100h45.646l-37.931 37.931c-7.811 7.811-7.811 20.474 0 28.284 7.811 7.811 20.474 7.811 28.284 0l42.426-42.426c11.252-11.251 17.575-26.087 17.575-43.789 0-13.577-5.989-29.479-17.574-41.064z"/>
  </symbol>

  <symbol id="solution-02" role="img" viewBox="0 0 512 512">
		<path d="m158.271 177.378h-60c-43.354 0-78.5-35.146-78.5-78.5 0-43.354 35.146-78.5 78.5-78.5h60c-43.354 0-78.5 35.146-78.5 78.5 0 43.354 35.146 78.5 78.5 78.5zm-78.5 236.5c0-43.354 35.146-78.5 78.5-78.5h-60c-43.354 0-78.5 35.146-78.5 78.5 0 43.354 35.146 78.5 78.5 78.5h60c-43.354 0-78.5-35.146-78.5-78.5zm0-157c0-43.354 35.146-78.5 78.5-78.5h-60c-43.354 0-78.5 35.146-78.5 78.5 0 43.354 35.146 78.5 78.5 78.5h60c-43.354 0-78.5-35.146-78.5-78.5z" fill="#cee1f2" data-original="#cee1f2"></path>
		<path fill="var(--color-02)" d="m98.747 237.378c11.046 0 20 8.954 20 20-.98 26.501-39.024 26.494-40 0 0-11.046 8.954-20 20-20zm-20 177c0 11.046 8.954 20 20 20 26.501-.98 26.494-39.023 0-40-11.046 0-20 8.954-20 20zm153.024 78c0-11.046-8.954-20-20-20h-113.5c-77.521-2.951-77.462-114.077 0-117h92.5c26.508-.983 26.488-39.026 0-40h-92.5c-77.521-2.951-77.462-114.077 0-117h141.5c26.508-.983 26.488-39.026 0-40h-141.5c-77.02-2.985-77.957-115.081 0-118h254c45.614-.591 74.372 52.207 49.205 90.158-5.988 9.282-3.318 21.66 5.964 27.648s21.661 3.317 27.648-5.964c42.432-63.923-6.012-152.839-82.817-151.842h-254c-95.045.308-133.504 121.668-59.302 177.898-51.851 37.899-51.904 119.132-.133 157.101-74.421 56.029-34.912 176.815 59.436 177h113.5c11.045.001 19.999-8.954 19.999-19.999zm138-393c0-11.046-8.954-20-20-20h-47c-26.508.983-26.488 39.026 0 40h47c11.046 0 20-8.955 20-20z"/>
		<path fill="var(--color-03)" d="m97.747 79.378c11.046 0 20 8.954 20 20-.98 26.501-39.024 26.494-40 0 0-11.046 8.954-20 20-20zm414.933 353.029.066-153.997c.009-21.375-8.309-41.472-23.42-56.589s-35.205-23.443-56.58-23.443h-101.975c-44.112 0-80 35.888-80 80v154c0 44.112 35.888 80 80 80h101.909c44.097 0 79.985-35.876 80-79.971zm-79.933-194.029c10.688 0 20.734 4.163 28.29 11.722s11.714 17.607 11.71 28.294l-.066 153.998c-.007 22.049-17.951 39.986-40 39.986h-101.91c-22.056 0-40-17.944-40-40v-154c0-22.056 17.944-40 40-40zm18.024 87c0-11.046-8.954-20-20-20h-14c-5.514 0-10-4.486-10-10v-14c-.983-26.508-39.026-26.488-40 0v14c0 27.57 22.43 50 50 50h14c11.046 0 20-8.955 20-20z"/>
  </symbol>

  <symbol id="solution-03" role="img" viewBox="0 0 512 512">
		<path d="m180 412.011h-60c-55.229 0-100-44.772-100-100v-192c0-55.229 44.771-100 100-100h60c-55.229 0-100 44.771-100 100v192c0 55.229 44.771 100 100 100zm231.24-199.931c-8.149-5.399-19.788-3.665-25.686 5.214l-4.438 6.682c-4.17 6.278-11.725 9.407-19.113 7.917l-7.863-1.586c-12.997-2.622-24.466 8.847-21.844 21.844l1.586 7.863c1.49 7.388-1.639 14.943-7.917 19.113l-6.682 4.438c-11.044 7.336-11.044 23.556 0 30.892l6.682 4.438c6.278 4.17 9.407 11.725 7.917 19.113l-1.586 7.863c-2.622 12.997 8.847 24.466 21.844 21.844l7.863-1.586c7.388-1.49 14.943 1.639 19.113 7.917l4.438 6.682c5.898 8.88 17.537 10.614 25.686 5.214-15.575-23.155-25.24-63.355-25.24-86.931 0-23.575 9.665-63.775 25.24-86.931z" fill="#cee1f2" data-original="#cee1f2"></path>
		<path fill="var(--color-02)" d="m512 120.011v36c-1.056 26.536-38.953 26.516-40 0v-36c0-44.112-35.888-80-80-80h-272c-44.112 0-80 35.888-80 80v192c0 44.112 35.888 80 80 80h157c26.536 1.056 26.516 38.953 0 40h-157c-66.168 0-120-53.832-120-120v-192c0-66.168 53.832-120 120-120h272c66.168 0 120 53.832 120 120zm-228 90c0-11.046-8.954-20-20-20h-144c-26.536 1.056-26.516 38.953 0 40h144c11.046 0 20-8.954 20-20zm-164 60c-26.536 1.056-26.516 38.953 0 40h91c26.536-1.056 26.516-38.953 0-40zm392 29c0 12.942-6.437 24.945-17.217 32.106l-5.866 3.896 1.393 6.902c2.56 12.687-1.376 25.725-10.527 34.876-9.152 9.151-22.188 13.085-34.877 10.528l-6.903-1.393-3.896 5.865c-14.695 22.81-49.521 22.806-64.212.001l-3.896-5.866-6.904 1.393c-12.688 2.556-25.725-1.377-34.876-10.528s-13.087-22.189-10.527-34.876l1.393-6.902-5.866-3.897c-22.81-14.693-22.804-49.522 0-64.212l5.866-3.896-1.393-6.902c-2.56-12.688 1.376-25.725 10.528-34.877 9.151-9.152 22.189-13.085 34.876-10.528l6.903 1.393 3.896-5.865c14.695-22.811 49.522-22.805 64.212-.001v.001l3.896 5.865 6.903-1.393c12.686-2.558 25.725 1.376 34.877 10.528s13.087 22.189 10.528 34.876l-1.393 6.902 5.866 3.897c10.779 7.162 17.216 19.165 17.216 32.107zm-41.176 0-4.855-3.226c-13.108-8.706-19.567-24.3-16.456-39.726l1.153-5.714-5.713 1.153c-15.428 3.111-31.022-3.348-39.729-16.456l-3.224-4.855-3.224 4.854c-8.708 13.109-24.302 19.569-39.728 16.457l-5.714-1.153 1.153 5.713c3.112 15.427-3.348 31.021-16.456 39.728l-4.855 3.225 4.855 3.226c13.108 8.706 19.567 24.3 16.456 39.727l-1.153 5.713 5.714-1.152c15.144-3.121 31.046 3.283 39.728 16.457l3.224 4.854 3.224-4.854c8.707-13.108 24.296-19.566 39.728-16.457l5.714 1.152-1.153-5.713c-3.112-15.427 3.348-31.021 16.456-39.728z"/>
		<path fill="var(--color-03)" d="m392 150.011h-272c-26.536-1.056-26.516-38.953 0-40h272c26.536 1.057 26.516 38.954 0 40zm58.394 359.166c12.518-5.414 20.606-17.724 20.606-31.363v-37.803c-1.056-26.536-38.953-26.516-40 0v24.48l-16.431-15.174c-7.662-7.076-19.476-7.076-27.138 0l-16.431 15.175v-24.48c-1.056-26.536-38.953-26.516-40 0v37.803c0 13.639 8.088 25.949 20.606 31.362 12.486 5.4 26.95 2.89 36.885-6.391l12.509-11.551 12.509 11.551c6.457 6.031 14.825 9.202 23.321 9.202 4.577 0 9.192-.921 13.564-2.811z"/>
  </symbol>

  <symbol id="solution-04" role="img" viewBox="0 0 512 512">
		<path d="m82 312.041v-164.082c0-55.206 44.644-99.959 99.716-99.959h-60.716c-55.229 0-100 44.772-100 100v164c0 55.228 44.771 100 100 100h60.716c-55.072 0-99.716-44.753-99.716-99.959z" fill="#c6e1f2" data-original="#c6e1f2"></path>
		<path fill="var(--color-02)" d="m392 432h-272.021c-66.156 0-119.979-53.823-119.979-119.979v-164.021c0-66.168 53.832-120 120-120h134c11.046 0 20 8.954 20 20s-8.954 20-20 20h-134c-44.112 0-80 35.888-80 80v164.021c0 44.1 35.879 79.979 79.979 79.979h272.021c44.112 0 80-35.888 80-80v-73c0-11.046 8.954-20 20-20s20 8.954 20 20v73c0 66.169-53.832 120-120 120zm-131-266c0-34.738-28.262-63-63-63s-63 28.262-63 63 28.262 63 63 63 63-28.262 63-63zm-40 0c0 12.682-10.318 23-23 23s-23-10.318-23-23 10.318-23 23-23 23 10.318 23 23zm151 326c0-11.046-8.954-20-20-20h-192c-11.046 0-20 8.954-20 20s8.954 20 20 20h192c11.046 0 20-8.954 20-20z"/>
		<path fill="var(--color-03)" d="m261 351c-11.046 0-20-8.954-20-20 0-22.056-18.126-40-40.407-40h-11.187c-22.28 0-40.406 17.944-40.406 40 0 11.046-8.954 20-20 20s-20-8.954-20-20c0-44.112 36.07-80 80.407-80h11.187c44.336 0 80.406 35.888 80.406 80 0 11.046-8.954 20-20 20zm89.265-153.017c3.023 0 5.972.872 8.908 2.055 29.109 11.731 46.953 10.962 46.987 10.962 28.051 0 54.474-10.802 74.406-30.42 19.998-19.682 31.16-45.98 31.43-74.048.273-28.48-10.56-55.255-30.505-75.392-19.89-20.081-46.522-31.14-74.991-31.14-28.284 0-54.88 11.125-74.889 31.328-19.984 20.176-30.851 46.845-30.607 75.101l-.004 84.57c0 8.089 4.873 15.382 12.346 18.479 2.475 1.025 5.073 1.523 7.65 1.523 13.235 0 17.44-13.018 29.269-13.018zm55.812-26.983c-10.271 0-20.053-2.278-29.076-6.77-11.426-5.689-24.004-7.43-36-5.505l.002-52.384c0-.064 0-.128-.001-.193-.168-17.539 6.589-34.114 19.028-46.672 12.44-12.559 28.943-19.476 46.47-19.476 17.712 0 34.251 6.85 46.57 19.288 12.375 12.494 19.097 29.136 18.927 46.859-.344 35.768-29.874 64.855-65.857 64.853-.009 0-.022 0-.031 0-.011 0-.021 0-.032 0z"/>
  </symbol>

  <symbol id="how-01" role="img" viewBox="0 0 512 512">
		<path d="m95.992 392v-212c0-78.111 55.976-143.136 130-157.18-9.719-1.844-19.745-2.82-30-2.82-88.367 0-160 71.633-160 160v212c0 58.628 50.457 105.474 110.315 99.482 6.774-.678 13.3-2.081 19.535-4.114-40.493-12.79-69.85-50.649-69.85-95.368z" fill="#cee1f2" data-original="#cee1f2" class=""></path>
		<path fill="var(--color-02)" d="m195.992 0c-99.252 0-180 80.748-180 180v212c0 33.84 14.399 66.279 39.506 88.998 22.112 20.01 51.01 30.986 80.759 30.986 4.003 0 8.022-.199 12.042-.601 30.058-3.009 57.665-17.936 77.736-42.031 19.318-23.192 29.957-52.688 29.957-83.055 0-23.348 12.201-42.922 36.266-58.178 53.214-33.737 83.734-87.724 83.734-148.119 0-99.252-80.748-180-180-180zm74.848 294.336c-35.882 22.749-54.848 54.548-54.848 91.961 0 43.8-31.484 81.262-71.678 85.285-22.99 2.297-45.008-4.887-61.978-20.243-16.742-15.151-26.344-36.779-26.344-59.339v-212c0-77.196 62.804-140 140-140s140 62.804 140 140c0 47.095-23.138 87.7-65.152 114.336z"/>
		<path fill="var(--color-02)" d="m405.29 265.293c-29.539 29.528-45.807 68.845-45.807 110.707s16.268 81.179 45.807 110.707c7.81 7.808 20.473 7.808 28.284-.005 7.81-7.812 7.807-20.475-.005-28.284-21.98-21.973-34.086-51.243-34.086-82.418s12.105-60.445 34.086-82.418c7.812-7.809 7.814-20.472.005-28.284-7.81-7.812-20.473-7.815-28.284-.005z"/>
		<path fill="var(--color-02)" d="m490.135 321.858c-7.812-7.811-20.475-7.81-28.284 0-14.463 14.462-22.427 33.69-22.427 54.142s7.964 39.68 22.427 54.142c7.81 7.81 20.474 7.811 28.284 0 7.811-7.811 7.81-20.474-.001-28.284-6.906-6.907-10.71-16.09-10.71-25.858s3.804-18.951 10.71-25.858c7.81-7.81 7.811-20.474.001-28.284z"/>
		<path fill="var(--color-03)" d="m135.992 331.526c0-13.463 10.07-23.058 16.073-27.579 14.982-11.284 23.927-29.208 23.927-47.947 0-18.74-8.943-36.664-23.925-47.947-6.004-4.522-16.075-14.118-16.075-27.58 0-28.761 16.67-54.027 40.537-61.441 41.218-12.801 79.463 17.265 79.463 56.968 0 20.682-10.472 39.667-28.011 50.783-9.33 5.913-12.1 18.27-6.187 27.6 5.913 9.331 18.273 12.099 27.599 6.187 29.179-18.493 46.599-50.107 46.599-84.569 0-65.705-63.484-116.242-131.328-95.167-42.937 13.336-68.672 56.068-68.672 99.64 0 22.842 11.368 43.984 32.011 59.531 5.077 3.824 7.989 9.654 7.989 15.996 0 6.341-2.913 12.171-7.991 15.996-20.642 15.546-32.009 36.688-32.009 59.53 0 11.046 8.954 20 20 20s20-8.955 20-20.001z"/>
  </symbol>

  <symbol id="how-02" role="img" viewBox="0 0 512 512">
		<path d="m216.029 305.978c-65.319-29.81-108.975-82.871-129.472-113.797-9.49-14.316-8.53-33.025 2.209-46.428 23.86-29.768 75.526-82.41 135.417-113.176 1.698-.873 3.42-1.668 5.158-2.402-.085-.034-.173-.062-.258-.097-20.66-8.372-44.339-8.063-64.9 2.499-59.89 30.767-111.557 83.408-135.417 113.176-10.74 13.403-11.699 32.112-2.209 46.428 24.544 37.031 82.281 105.819 170.672 128.398 4.509 1.152 9.298.156 12.974-2.699s5.826-7.248 5.826-11.902z" fill="#cee1f2" data-original="#cee1f2"></path>
		<path fill="var(--color-02)" d="m212.72 344.303c-46.857-7.985-91.066-28.826-131.4-61.942-36.243-29.757-60.312-62.351-71.434-79.131-14.298-21.571-12.983-49.696 3.273-69.983 28.645-35.739 82.991-88.206 141.885-118.461 25.097-12.892 54.819-14.076 81.55-3.245 12.384 5.018 26.589 5.019 38.973 0 26.729-10.83 56.453-9.647 81.55 3.246 58.894 30.254 113.24 82.721 141.883 118.458 16.258 20.29 17.573 48.415 3.274 69.986-10.44 15.752-42.213 63.689-97.207 99.1-9.288 5.981-21.663 3.299-27.644-5.988-5.979-9.287-3.298-21.664 5.988-27.644 47.942-30.869 76.227-73.544 85.521-87.567 4.653-7.019 4.192-16.211-1.146-22.873-26.178-32.661-75.659-80.517-128.948-107.892-14.733-7.57-32.319-8.208-48.25-1.753-21.928 8.887-47.084 8.887-69.015 0-15.93-6.454-33.517-5.815-48.25 1.753-53.289 27.375-102.77 75.231-128.95 107.895-5.336 6.66-5.797 15.852-1.145 22.87 21.053 31.764 80.366 107.406 176.212 123.741 10.889 1.856 18.211 12.187 16.356 23.076-1.856 10.886-12.188 18.21-23.076 16.354z"/>
		<path fill="var(--color-02)" d="m256.08 227.969c-72.073 0-129.533-42.163-131.944-43.958-5.069-3.774-8.056-9.722-8.056-16.042s2.987-12.268 8.056-16.042c2.411-1.795 59.871-43.958 131.944-43.958s129.533 42.163 131.944 43.958c5.069 3.774 8.056 9.722 8.056 16.042s-2.987 12.268-8.056 16.042c-2.411 1.795-59.871 43.958-131.944 43.958zm-80.363-60.04c19.927 9.631 48.772 20.04 80.363 20.04 31.76 0 60.513-10.351 80.361-19.959-19.932-9.634-48.774-20.041-80.361-20.041-31.76 0-60.514 10.352-80.363 19.96z"/>
		<path fill="var(--color-03)" d="m512.08 447.969c0 33.084-26.916 60-60 60h-116c-33.084 0-60-26.916-60-60v-160c0-8.608 5.509-16.251 13.675-18.974 8.167-2.722 17.16.086 22.325 6.974l54 72h86c33.084 0 60 26.916 60 60zm-196-100v100c0 11.028 8.972 20 20 20h116c11.028 0 20-8.972 20-20v-40c0-11.028-8.972-20-20-20h-96c-6.295 0-12.223-2.964-16-8z"/>
  </symbol>

  <symbol id="how-03" role="img" viewBox="0 0 512 512">
  	<path d="m359 462.528v17.972c-42.349 0-86.538-24.251-116.975-45.355-21.367-14.815-21.367-46.474 0-61.289 30.437-21.105 74.626-45.356 116.975-45.356v17.972c-22.928 6.175-45.066 20.499-61.553 33.374-15.262 11.919-15.262 37.389 0 49.308 16.487 12.876 38.625 27.199 61.553 33.374zm-239-431.028c-55.229 0-100 44.771-100 100v172c0 55.228 44.771 100 100 100l32.665-.197c.045-1.185.091-2.37.134-3.555-42.008-11.848-72.799-50.449-72.799-96.248v-172c0-55.229 44.771-100 100-100z" fill="#cee1f2" data-original="#cee1f2"></path>
  	<path fill="var(--color-02)" d="m146 423.5h-26c-66.168 0-120-53.832-120-120v-172c0-66.168 53.832-120 120-120h272c66.168 0 120 53.832 120 120v162c0 11.046-8.954 20-20 20s-20-8.954-20-20v-162c0-44.112-35.888-80-80-80h-272c-44.112 0-80 35.888-80 80v172c0 44.112 35.888 80 80 80h26c11.046 0 20 8.954 20 20s-8.954 20-20 20zm341.371 28.08c15.422-10.693 24.629-28.293 24.629-47.08s-9.207-36.387-24.629-47.08c-32.185-22.317-80.583-48.92-128.371-48.92s-96.186 26.603-128.371 48.92c-15.422 10.693-24.629 28.293-24.629 47.08s9.207 36.387 24.629 47.08c32.185 22.317 80.583 48.92 128.371 48.92s96.186-26.603 128.371-48.92zm-22.793-61.289c4.717 3.271 7.422 8.449 7.422 14.209s-2.705 10.938-7.422 14.209c-27.495 19.064-68.131 41.791-105.578 41.791s-78.083-22.727-105.578-41.791c-4.717-3.271-7.422-8.449-7.422-14.209s2.705-10.938 7.422-14.209c27.495-19.064 68.131-41.791 105.578-41.791s78.083 22.727 105.578 41.791zm-222.553-16.436h.01z"/>
  	<path fill="var(--color-03)" d="m412 150.5h-312c-11.046 0-20-8.954-20-20s8.954-20 20-20h312c11.046 0 20 8.954 20 20s-8.954 20-20 20zm20 60c0-11.046-8.954-20-20-20h-312c-11.046 0-20 8.954-20 20s8.954 20 20 20h312c11.046 0 20-8.954 20-20zm-72 219c13.807 0 25-11.193 25-25s-11.193-25-25-25-25 11.193-25 25 11.193 25 25 25z"/>
  </symbol>

  <symbol id="how-04" role="img" viewBox="0 0 512 512">
		<path d="m80 392.043v-130c0-55.229 45.402-100 100.63-100h-58c-55.229 0-100 44.771-100 100v130c0 55.228 44.771 100 100 100h58c-55.228 0-100.63-44.771-100.63-100z" fill="#c6e1f2" data-original="#c6e1f2" class=""></path>
		<path fill="var(--color-02)" d="m392 512.5h-272c-66.168 0-120-53.832-120-120v-127c0-66.168 53.832-120 120-120h96c11.046 0 20 8.954 20 20s-8.954 20-20 20h-96c-44.112 0-80 35.888-80 80v127c0 44.112 35.888 80 80 80h272c44.112 0 80-35.888 80-80v-120c0-11.046 8.954-20 20-20s20 8.954 20 20v120c0 66.168-53.832 120-120 120zm20-100c0-11.046-8.954-20-20-20h-266c-11.046 0-20 8.954-20 20s8.954 20 20 20h266c11.046 0 20-8.954 20-20zm-281-187c-13.807 0-25 11.193-25 25s11.193 25 25 25 25-11.193 25-25-11.193-25-25-25zm86 0c-13.807 0-25 11.193-25 25s11.193 25 25 25 25-11.193 25-25-11.193-25-25-25zm-86 86c-13.807 0-25 11.193-25 25s11.193 25 25 25 25-11.193 25-25-11.193-25-25-25zm86 0c-13.807 0-25 11.193-25 25s11.193 25 25 25 25-11.193 25-25-11.193-25-25-25zm86 0c-13.807 0-25 11.193-25 25s11.193 25 25 25 25-11.193 25-25-11.193-25-25-25zm84 0c-13.807 0-25 11.193-25 25s11.193 25 25 25 25-11.193 25-25-11.193-25-25-25z"/>
		<path fill="var(--color-03)" d="m291.998 241.501c-1.998 0-4.018-.3-5.997-.922-8.333-2.62-14.001-10.345-14.001-19.08l.005-99.421c-.284-32.278 12.13-62.743 34.96-85.794 22.855-23.076 53.232-35.784 85.535-35.784 32.52 0 62.939 12.63 85.653 35.563 22.78 23 35.153 53.583 34.841 86.116-.308 32.058-13.056 62.093-35.896 84.572-22.767 22.41-52.952 34.749-84.998 34.749-.035 0-.073 0-.107 0-17.914 0-35.938-4.448-53.559-13.221-3.841-1.912-7.976-2.783-12.072-2.783-14.362 0-23.362 16.005-34.364 16.005zm100.044-40.001h.039c44.21.003 80.494-35.745 80.916-79.705.209-21.777-8.052-42.227-23.263-57.584-15.145-15.29-35.471-23.711-57.234-23.711-21.546 0-41.83 8.499-57.115 23.932-15.285 15.432-23.588 35.804-23.381 57.363 0 .064-.002 65.312-.002 65.312 14.588-3.279 30.206-1.633 44.26 5.364 12.033 5.991 24.062 9.029 35.75 9.029z"/>
  </symbol>

  <symbol id="testimonials-01" role="img" viewBox="0 0 512 512">
		<path d="m80 332v-232c0-44 36-80 80-80h-60c-44 0-80 36-80 80v232c0 44 36 80 80 80h60c-44 0-80-36-80-80z" fill="#cee1f2" data-original="#cee1f2" class=""></path>
		<path fill="var(--color-02)" d="m256 512c-6.295 0-12.223-2.964-16-8l-48-64c-3.757-5.009-9.738-8-16-8h-76c-55.14 0-100-44.86-100-100v-232c0-55.14 44.86-100 100-100h312c55.141 0 100 44.86 100 100v232c0 55.14-44.859 100-100 100h-76c-6.262 0-12.243 2.99-16 8l-48 64c-3.777 5.036-9.705 8-16 8zm-156-472c-33.084 0-60 26.916-60 60v232c0 33.084 26.916 60 60 60h76c18.785 0 36.729 8.972 48 24l32 42.667 32-42.667c11.271-15.028 29.214-24 48-24h76c33.084 0 60-26.916 60-60v-232c0-33.084-26.916-60-60-60z"/>
		<path fill="var(--color-03)" d="m136 200h-40c-11.046 0-20-8.954-20-20v-40c0-33.084 26.916-60 60-60 11.046 0 20 8.954 20 20s-8.954 20-20 20c-11.028 0-20 8.972-20 20v20h20c11.046 0 20 8.954 20 20s-8.954 20-20 20z"/>
		<path fill="var(--color-03)" d="m256 200h-40c-11.046 0-20-8.954-20-20v-40c0-33.084 26.916-60 60-60 11.046 0 20 8.954 20 20s-8.954 20-20 20c-11.028 0-20 8.972-20 20v20h20c11.046 0 20 8.954 20 20s-8.954 20-20 20z"/>
		<path fill="var(--color-03)" d="m256 352c-11.046 0-20-8.954-20-20s8.954-20 20-20c11.028 0 20-8.972 20-20v-20h-20c-11.046 0-20-8.954-20-20s8.954-20 20-20h40c11.046 0 20 8.954 20 20v40c0 33.084-26.916 60-60 60z"/>
		<path fill="var(--color-03)" d="m376 352c-11.046 0-20-8.954-20-20s8.954-20 20-20c11.028 0 20-8.972 20-20v-20h-20c-11.046 0-20-8.954-20-20s8.954-20 20-20h40c11.046 0 20 8.954 20 20v40c0 33.084-26.916 60-60 60z"/>
  </symbol>

	<symbol id="footer-customer" role="img" viewBox="0 0 512 512">
    <path d="M256.1,0C115,0,0,114.9,0,255.9C0,397,115,512,256.1,512S512,397,512,255.9
		C512,114.9,397.2,0,256.1,0z M256.1,46.5c115.9,0,209.4,93.5,209.4,209.4c0,115.9-93.4,209.5-209.4,209.5S46.5,371.9,46.5,255.9
		C46.5,140,140.2,46.5,256.1,46.5z M255.8,139.3c-12.9,0.1-23.2,10.6-23,23.5c0,0.1,0,0.2,0,0.2v69.7H163c-0.8,0-1.6,0-2.4,0
		c-12.9,0.7-22.8,11.6-22.1,24.5c0.7,12.9,11.6,22.8,24.5,22.1h69.7V349c0,12.9,10.4,23.3,23.3,23.3c12.9,0,23.3-10.4,23.3-23.3
		v-69.7H349c12.9,0,23.3-10.4,23.3-23.3c0-12.9-10.4-23.3-23.3-23.3h-69.7V163c0.3-12.8-10-23.5-22.8-23.7
		C256.2,139.3,256,139.3,255.8,139.3z"/>
		
  </symbol>

  <symbol id="footer-membership" role="img" viewBox="0 0 512 512">
	    <path d="M116.5,0C78.2,0,46.5,31.6,46.5,69.9v372.2c0,38.3,31.7,69.9,69.9,69.9h279.1
				c38.3,0,69.9-31.6,69.9-69.9V163c0-6.2-2.5-12.1-6.9-16.5L319,6.9C314.6,2.5,308.8,0,302.6,0L116.5,0z M116.5,46.5h162.8v69.8
				c0,38.3,31.5,69.8,69.8,69.8h69.8v255.9c0,13.3-10.1,23.4-23.4,23.4H116.5c-13.3,0-23.4-10.1-23.4-23.4V69.9
				C93.1,56.6,103.2,46.5,116.5,46.5z M325.8,79.5l60.2,60.1h-36.9c-13.3,0-23.3-10-23.3-23.3V79.5z M160.6,232.7
				c-12.9,0.7-22.8,11.6-22.1,24.5c0.7,12.9,11.6,22.8,24.5,22.1h93.1c12.9,0,23.3-10.4,23.3-23.3c0-12.9-10.4-23.3-23.3-23.3H163
				C162.2,232.7,161.4,232.7,160.6,232.7z M160.6,325.8c-12.8,1-22.5,12.1-21.5,25c0.9,12.4,11.5,21.9,23.9,21.6h186
				c12.8,0.3,23.5-9.9,23.8-22.7c0.3-12.8-9.9-23.5-22.7-23.8c-0.3,0-0.7,0-1,0H163C162.2,325.8,161.4,325.8,160.6,325.8z"/>
  </symbol>

  <symbol id="footer-returns" role="img" viewBox="0 0 512 512">
	  <path d="M256.1,0C115,0,0,114.9,0,255.9C0,397,115,512,256.1,512S512,397,512,255.9
			C512,114.9,397.2,0,256.1,0z M256.1,46.5c115.9,0,209.4,93.5,209.4,209.4c0,115.9-93.4,209.5-209.4,209.5S46.5,371.9,46.5,255.9
			C46.5,140,140.2,46.5,256.1,46.5z M348.8,139.6c-2.4,0-4.8,0.4-7,1.2l-139.6,46.5c-7,2.3-12.5,7.8-14.8,14.8l-46.6,139.4
			c-4.2,12.1,2.3,25.4,14.4,29.6c4.9,1.7,10.3,1.7,15.2,0l139.5-46.6c7-2.3,12.5-7.8,14.8-14.8l46.5-139.6c4-12.2-2.6-25.4-14.8-29.4
			C354,140,351.4,139.6,348.8,139.6z M312.2,199.8l-28.1,84.3l-84.3,28.2l28.2-84.3L312.2,199.8z M256,232.7
			c-12.8,0-23.3,10.4-23.3,23.3c0,12.8,10.4,23.3,23.3,23.3c12.8,0,23.3-10.4,23.3-23.3C279.3,243.1,268.9,232.7,256,232.7z"/>
  </symbol>

  <symbol id="footer-shipping" role="img" viewBox="0 0 512 512">
	  <path d="M209.5,0c-38.3,0-69.8,31.5-69.8,69.8v23.3H69.9C31.7,93.1,0,124.7,0,163v279.1
			C0,480.4,31.7,512,69.9,512h372.2c38.3,0,69.9-31.6,69.9-69.9V163c0-38.3-31.6-69.9-69.9-69.9h-69.8V69.8
			c0-38.3-31.5-69.8-69.8-69.8H209.5z M209.5,46.6h93.1c13.3,0,23.3,10,23.3,23.3v23.3H186.2V69.8C186.2,56.5,196.2,46.6,209.5,46.6z
			 M69.9,139.6h372.2c13.3,0,23.4,10.1,23.4,23.4v77.2L256,324L46.5,240.2V163C46.5,149.7,56.6,139.6,69.9,139.6z M256,232.7
			c-12.8,0-23.3,10.4-23.3,23.3c0,12.8,10.4,23.3,23.3,23.3c12.8,0,23.3-10.4,23.3-23.3C279.3,243.1,268.9,232.7,256,232.7z
			 M46.5,290.3l200.9,80.3c5.5,2.2,11.7,2.2,17.3,0l200.8-80.3v151.8c0,13.3-10.1,23.4-23.4,23.4H69.9c-13.3,0-23.4-10.1-23.4-23.4
			V290.3z"/>
  </symbol>

   <symbol id="footer-facebook" role="img" viewBox="0 0 512 512">
    <path d="M314.829,135.492h70.595c11.423,0,20.682-9.26,20.682-20.682V20.682C406.107,9.26,396.848,0,385.425,0h-70.595 c-76.282,0-138.341,62.06-138.341,138.341v49.913h-49.913c-11.422,0-20.682,9.26-20.682,20.682v94.127 c0,11.423,9.26,20.682,20.682,20.682h49.913v167.572c0,11.423,9.26,20.682,20.682,20.682h94.127 c11.423,0,20.682-9.259,20.682-20.682V323.746h49.913c9.49,0,17.763-6.458,20.065-15.666l23.532-94.127 c1.544-6.179,0.156-12.725-3.763-17.744c-3.919-5.02-9.932-7.954-16.301-7.954H311.98v-49.913 C311.98,136.77,313.258,135.492,314.829,135.492z M291.298,229.619h67.637l-13.191,52.763h-54.447 c-11.423,0-20.682,9.259-20.682,20.682v167.572h-52.763V303.064c0-11.423-9.26-20.682-20.682-20.682h-49.913v-52.763h49.913 c11.422,0,20.682-9.26,20.682-20.682v-70.595c0-53.473,43.503-96.977,96.977-96.977h49.913v52.763h-49.913 c-24.38,0-44.214,19.835-44.214,44.214v70.595C270.615,220.359,279.875,229.619,291.298,229.619z" />
  </symbol>

  <symbol id="footer-twitter" role="img" viewBox="0 0 512 512">
    <path d="M509.738,109.538c-3.027-4.924-8.566-7.715-14.332-7.215l-25.53,2.224l24.403-49.193    c2.906-5.859,1.758-12.918-2.854-17.555c-4.614-4.637-11.666-5.819-17.539-2.943l-64.587,31.631    c-39.903-21.066-89.756-14.813-124.06,16.436c-28.63,26.08-43.679,66.187-40.873,106.183    c-74.829-7.5-138.169-50.331-175.623-119.537c-2.485-4.591-7.144-7.594-12.351-7.963c-5.217-0.363-10.243,1.949-13.349,6.146    c-23.23,31.382-24.86,74.41-6.649,109.809c-5.02-1.268-10.362-2.984-16.286-4.963c-5.075-1.697-10.67-0.61-14.743,2.862    s-6.031,8.823-5.16,14.104c7.206,43.688,32.682,77.264,72.926,97.138c-5.24,1.825-10.587,3.307-16.024,4.44    c-5.402,1.126-9.776,5.078-11.441,10.339c-1.665,5.26-0.363,11.01,3.407,15.039c28.981,30.978,70.845,46.225,100.581,53.539    c-33.81,26.477-70.307,30.908-123.341,29.087c-6.139-0.186-11.795,3.272-14.376,8.837c-2.58,5.566-1.579,12.136,2.544,16.681    c22.108,24.369,102.654,51.847,187.326,53.907c3.349,0.081,6.765,0.125,10.253,0.125c59.451-0.001,138.022-12.745,194.419-69.142    c42.687-42.686,69.387-91.827,79.356-146.053c8.052-43.797,2.963-78.869,0.518-95.725c-0.18-1.239-0.372-2.554-0.528-3.704    l23.881-38.49C512.752,120.672,512.765,114.462,509.738,109.538z"/>
  </symbol>

  <symbol id="footer-pinterest" role="img" viewBox="0 0 512 512">
    <path d="M350,141.8c-22.2-20.7-53-32.1-86.7-32.1c-51.3,0-82.9,20.4-100.3,37.5c-21.6,21.1-34,49.2-34,77.1c0,35,15.2,61.9,40.6,72
			c1.8,0.7,3.5,1,5.3,1c5.6,0,10.2-3.7,11.7-9.4c0.4-1.6,1.1-4.3,1.9-7.1c0.7-2.6,1.4-5.3,1.8-6.9c1.9-7,0.3-10.5-3.9-15.2
			c-7.1-8.1-10.4-17.7-10.4-30.1c0-37.4,28.9-77.2,82.4-77.2c42.4,0,68.7,23.2,68.7,60.6c0,23.8-5.3,45.7-14.9,61.9
			c-6.6,11.2-18.2,24.5-36,24.5c-7.8,0-14.8-3.1-19.1-8.6c-3.8-4.8-5-11-3.4-17.5c1.9-7.8,4.5-15.9,7-23.7c4.6-14.5,9-28.3,9-39.3
			c0-19.2-12.1-32.1-30.2-32.1c-22.8,0-40.7,22.4-40.7,51c0,13.5,3.6,23.8,5.4,28.1c-3.1,12.5-19.5,79.9-22.6,92.7
			c-5.9,24.2-3,52.7-0.8,67.6l0.1,0.7c0.5,4.1,4,7.1,8.3,7.1c2.6,0,5.1-1.2,6.6-3.2l0.2-0.3c7.6-9.4,26.2-33.8,33.3-58.6
			c1.5-5.2,6.5-24.1,9.7-36.6c10.1,9,25.5,14.8,41,14.8c29.5,0,56.1-12.9,74.8-36.2C373,281.5,383,250,383,215.3
			C383,188.1,371,161.3,350,141.8z"/>
		<path d="M256,0C114.6,0,0,114.6,0,256s114.6,256,256,256s256-114.6,256-256S397.4,0,256,0z M256,467.7
			c-116.9,0-211.7-94.8-211.7-211.7S139.1,44.3,256,44.3S467.7,139.1,467.7,256S372.9,467.7,256,467.7z"/>
  </symbol>

  <symbol id="footer-instagram" role="img" viewBox="0 0 512 512">
    <path d="M373.659,0H138.341C62.06,0,0,62.06,0,138.341v235.318C0,449.94,62.06,512,138.341,512h235.318 C449.94,512,512,449.94,512,373.659V138.341C512,62.06,449.94,0,373.659,0z M470.636,373.659 c0,53.473-43.503,96.977-96.977,96.977H138.341c-53.473,0-96.977-43.503-96.977-96.977V138.341 c0-53.473,43.503-96.977,96.977-96.977h235.318c53.473,0,96.977,43.503,96.977,96.977V373.659z" />
    <path d="M370.586,238.141c-3.64-24.547-14.839-46.795-32.386-64.342c-17.547-17.546-39.795-28.746-64.341-32.385 c-11.176-1.657-22.507-1.657-33.682,0c-30.336,4.499-57.103,20.541-75.372,45.172c-18.269,24.631-25.854,54.903-21.355,85.237 c4.499,30.335,20.541,57.102,45.172,75.372c19.996,14.831,43.706,22.619,68.153,22.619c5.667,0,11.375-0.418,17.083-1.265 c30.336-4.499,57.103-20.541,75.372-45.172C367.5,298.747,375.085,268.476,370.586,238.141z M267.791,327.632 c-19.405,2.882-38.77-1.973-54.527-13.66c-15.757-11.687-26.019-28.811-28.896-48.216c-2.878-19.405,1.973-38.77,13.66-54.527 c11.688-15.757,28.811-26.019,48.217-28.897c3.574-0.53,7.173-0.795,10.772-0.795s7.199,0.265,10.773,0.796 c32.231,4.779,57.098,29.645,61.878,61.877C335.608,284.268,307.851,321.692,267.791,327.632z" />
    <path d="M400.049,111.951c-3.852-3.851-9.183-6.058-14.625-6.058c-5.442,0-10.773,2.206-14.625,6.058 c-3.851,3.852-6.058,9.174-6.058,14.625c0,5.451,2.207,10.773,6.058,14.625c3.852,3.851,9.183,6.058,14.625,6.058 c5.442,0,10.773-2.206,14.625-6.058c3.851-3.852,6.058-9.183,6.058-14.625C406.107,121.133,403.9,115.802,400.049,111.951z" />
  </symbol>

  <symbol id="facebook-footer" role="img" viewBox="0 0 512 512">
    <path d="M314.829,135.492h70.595c11.423,0,20.682-9.26,20.682-20.682V20.682C406.107,9.26,396.848,0,385.425,0h-70.595 c-76.282,0-138.341,62.06-138.341,138.341v49.913h-49.913c-11.422,0-20.682,9.26-20.682,20.682v94.127 c0,11.423,9.26,20.682,20.682,20.682h49.913v167.572c0,11.423,9.26,20.682,20.682,20.682h94.127 c11.423,0,20.682-9.259,20.682-20.682V323.746h49.913c9.49,0,17.763-6.458,20.065-15.666l23.532-94.127 c1.544-6.179,0.156-12.725-3.763-17.744c-3.919-5.02-9.932-7.954-16.301-7.954H311.98v-49.913 C311.98,136.77,313.258,135.492,314.829,135.492z M291.298,229.619h67.637l-13.191,52.763h-54.447 c-11.423,0-20.682,9.259-20.682,20.682v167.572h-52.763V303.064c0-11.423-9.26-20.682-20.682-20.682h-49.913v-52.763h49.913 c11.422,0,20.682-9.26,20.682-20.682v-70.595c0-53.473,43.503-96.977,96.977-96.977h49.913v52.763h-49.913 c-24.38,0-44.214,19.835-44.214,44.214v70.595C270.615,220.359,279.875,229.619,291.298,229.619z" />
  </symbol>

  <symbol id="twitter-footer" role="img" viewBox="0 0 512 512">
    <path d="M502.954,47.189c-7.126-4.852-16.515-4.774-23.559,0.196c-15.351,10.828-31.974,19.528-49.557,25.948 c-19.253-17.414-43.615-27.826-69.915-29.656c-31.056-2.16-61.081,7.9-84.561,28.326c-25.59,22.259-40.174,54.444-40.046,88.349 c-85.248-7.609-139.14-61.55-177.09-108.986c-4.598-5.746-11.901-8.619-19.182-7.538c-7.279,1.078-13.438,5.944-16.171,12.777 c-0.948,2.369-23.141,58.799-17.453,127.057c4.761,57.133,30.23,131.964,120.039,181.717 c-32.436,14.756-68.282,21.939-103.953,20.519c-9.576-0.378-18.15,5.859-20.736,15.08c-2.587,9.221,1.497,19.013,9.869,23.665 c51.359,28.532,108.03,43.736,163.889,43.965c0.432,0.002,0.861,0.003,1.294,0.003c54.105-0.001,106.379-13.938,151.246-40.336 c42.898-25.241,78.416-61.759,102.715-105.603c26.162-47.206,39.427-101.75,39.427-162.186c-0.011-3.544-0.186-7.098-0.52-10.638 c20.7-22.885,35.388-50.567,42.719-80.667C513.451,60.803,510.081,52.04,502.954,47.189z M432.297,128.07 c-4.916,4.847-7.088,11.827-5.793,18.607c0.877,4.588,1.329,9.278,1.344,13.874c0,101.956-44.378,186.544-121.756,232.072 c-60.586,35.649-133.037,43.933-203.609,25.057c0.729-0.201,1.459-0.407,2.185-0.615c27.596-7.885,53.63-20.055,77.377-36.174 c6.329-4.296,9.77-11.734,8.946-19.34c-0.825-7.605-5.778-14.134-12.881-16.975C97.757,312.434,53.563,257.594,46.757,181.575 c-2.536-28.334,0.707-54.721,4.766-74.501c16.638,17.909,37.384,37.227,62.129,53.407c42.771,27.966,90.663,42.146,142.346,42.146 c11.423,0,20.682-9.26,20.682-20.682v-21.393c0-0.045,0-0.091,0-0.137c-0.146-21.948,9.268-42.797,25.829-57.202 c15.146-13.175,34.51-19.665,54.543-18.27c20.026,1.393,38.311,10.502,51.487,25.648c5.339,6.138,13.783,8.577,21.567,6.229 c5.725-1.724,11.375-3.645,16.941-5.757C442.599,117.081,437.672,122.769,432.297,128.07z" />
  </symbol>

  <symbol id="linkedin-footer" role="img" viewBox="0 0 512 512">
    <path d="M2.5,510V153.7h137.3V510H2.5z M102.5,472.7V191H39.8v281.7H102.5z" />
    <path d="M375.4,510l0.1-158.1c0.5-23.6-8.8-42.9-24.9-51.7c-5.4-3-11.2-4.5-17.3-4.5c-5.2,0-10.4,1.1-15.5,3.3l-1.1,211H176.1 V153.7h140.6V166c16.6-6,33.6-9.1,50.6-9.1c24.7,0,48.3,6.4,70.2,18.9c44,25.2,72.5,71.8,72.5,118.8V510H375.4z M472.7,472.7V294.6 c0-33.8-21.1-67.7-53.7-86.4c-15.9-9.1-33.8-13.9-51.7-14h-0.3c-20.1,0-40.1,5.8-59.6,17.3L279.4,228V191h-66.1v281.7h66.2l1-194.7 l8.2-5.5c13.7-9.2,29.1-14.1,44.5-14.1c12.4,0,24.2,3,35.1,9c13.7,7.5,25,19.2,32.8,33.8c7.9,14.9,11.9,32.6,11.5,51.1l0,120.3 H472.7z" />
    <path d="M70.9,139.9C32.9,139.9,2,109,2,71c0-38,30.9-69,68.9-69c38,0,68.9,30.9,68.9,69C139.8,109,108.9,139.9,70.9,139.9z M70.9,39.3c-17.4,0-31.6,14.2-31.6,31.7c0,17.5,14.2,31.7,31.6,31.7c17.4,0,31.6-14.2,31.6-31.7C102.5,53.5,88.3,39.3,70.9,39.3z" />
  </symbol>

  <symbol id="instagram-footer" role="img" viewBox="0 0 512 512">
    <path d="M373.659,0H138.341C62.06,0,0,62.06,0,138.341v235.318C0,449.94,62.06,512,138.341,512h235.318 C449.94,512,512,449.94,512,373.659V138.341C512,62.06,449.94,0,373.659,0z M470.636,373.659 c0,53.473-43.503,96.977-96.977,96.977H138.341c-53.473,0-96.977-43.503-96.977-96.977V138.341 c0-53.473,43.503-96.977,96.977-96.977h235.318c53.473,0,96.977,43.503,96.977,96.977V373.659z" />
    <path d="M370.586,238.141c-3.64-24.547-14.839-46.795-32.386-64.342c-17.547-17.546-39.795-28.746-64.341-32.385 c-11.176-1.657-22.507-1.657-33.682,0c-30.336,4.499-57.103,20.541-75.372,45.172c-18.269,24.631-25.854,54.903-21.355,85.237 c4.499,30.335,20.541,57.102,45.172,75.372c19.996,14.831,43.706,22.619,68.153,22.619c5.667,0,11.375-0.418,17.083-1.265 c30.336-4.499,57.103-20.541,75.372-45.172C367.5,298.747,375.085,268.476,370.586,238.141z M267.791,327.632 c-19.405,2.882-38.77-1.973-54.527-13.66c-15.757-11.687-26.019-28.811-28.896-48.216c-2.878-19.405,1.973-38.77,13.66-54.527 c11.688-15.757,28.811-26.019,48.217-28.897c3.574-0.53,7.173-0.795,10.772-0.795s7.199,0.265,10.773,0.796 c32.231,4.779,57.098,29.645,61.878,61.877C335.608,284.268,307.851,321.692,267.791,327.632z" />
    <path d="M400.049,111.951c-3.852-3.851-9.183-6.058-14.625-6.058c-5.442,0-10.773,2.206-14.625,6.058 c-3.851,3.852-6.058,9.174-6.058,14.625c0,5.451,2.207,10.773,6.058,14.625c3.852,3.851,9.183,6.058,14.625,6.058 c5.442,0,10.773-2.206,14.625-6.058c3.851-3.852,6.058-9.183,6.058-14.625C406.107,121.133,403.9,115.802,400.049,111.951z" />
  </symbol>

  <symbol id="footer-phone" role="img" viewBox="0 0 512 512">
    <path d="M421.216,195.504c-5.092-26.101-17.723-49.836-36.526-68.64c-18.804-18.803-42.54-31.434-68.641-36.527 c-11.21-2.189-22.073,5.128-24.261,16.339c-2.187,11.212,5.128,22.073,16.339,24.26c36.847,7.188,65.3,35.642,72.489,72.489 c1.927,9.874,10.581,16.726,20.278,16.726c1.313,0,2.645-0.125,3.984-0.387C416.088,217.577,423.403,206.715,421.216,195.504z" />
    <path d="M511.422,196.929c-5.629-50.096-28.373-97.304-64.042-132.927C411.712,28.378,364.475,5.694,314.371,0.128 c-11.355-1.261-21.578,6.92-22.839,18.272c-1.261,11.353,6.919,21.578,18.272,22.84c84.961,9.438,150.966,75.36,160.512,160.31 c1.188,10.566,10.139,18.374,20.527,18.374c0.771,0,1.552-0.043,2.336-0.131C504.53,218.516,512.698,208.281,511.422,196.929z" />
    <path d="M432.59,312.566c-0.062-0.008-0.124-0.017-0.186-0.025c-20.013-2.639-39.751-7.557-58.619-14.596 c-23.91-8.99-51.103-3.191-69.27,14.772c-0.028,0.028-0.056,0.055-0.083,0.083l-17.148,17.148 c-42.633-26.924-78.756-63.047-105.679-105.679l17.149-17.149c0.027-0.028,0.054-0.055,0.082-0.083 c17.964-18.166,23.762-45.356,14.79-69.223c-7.057-18.914-11.974-38.653-14.614-58.666c-0.007-0.063-0.017-0.127-0.026-0.19 c-4.591-32.478-32.782-56.734-65.548-56.467H66.053c-1.943,0.002-3.912,0.091-5.853,0.267 C24.143,26.016-2.541,58.001,0.718,94.058c0.01,0.108,0.02,0.215,0.032,0.323c7.684,72.354,32.649,142.88,72.197,203.955 c35.892,56.461,84.701,105.269,141.162,141.164c60.792,39.406,130.99,64.369,203.013,72.196c0.127,0.015,0.254,0.027,0.38,0.038 c1.961,0.176,3.949,0.266,5.921,0.266c0.083,0,0.165,0,0.247,0.001c36.204-0.148,65.538-29.722,65.391-65.841v-67.233 C489.746,345.714,465.515,317.211,432.59,312.566z M447.698,378.695v67.548c0.055,13.396-10.8,24.338-24.19,24.393 c-0.715-0.004-1.425-0.027-2.135-0.086c-65.578-7.161-129.488-29.914-184.837-65.808c-0.053-0.035-0.107-0.069-0.161-0.103 c-51.429-32.68-95.885-77.137-128.565-128.565c-0.032-0.051-0.064-0.101-0.097-0.153C71.683,220.306,48.928,156.086,41.902,90.193 C40.779,76.91,50.63,65.155,63.923,63.954c0.717-0.064,1.443-0.098,2.145-0.098h67.463c0.146-0.001,0.294-0.003,0.443-0.002 c12.021,0,22.322,8.905,24.044,20.819c3.05,23.063,8.721,45.806,16.871,67.649c3.319,8.832,1.189,18.869-5.427,25.591 l-28.517,28.517c-6.583,6.582-7.956,16.753-3.354,24.847c33.837,59.508,83.177,108.847,142.685,142.685 c8.094,4.6,18.264,3.23,24.848-3.355l28.512-28.512c6.72-6.621,16.765-8.752,25.642-5.415 c21.799,8.134,44.547,13.805,67.61,16.855c12.18,1.757,21.122,12.339,20.816,24.647 C447.7,378.353,447.698,378.524,447.698,378.695z" />
  </symbol>

  <symbol id="footer-mail" role="img" viewBox="0 0 512 512">
    <path d="M256,141.176c-63.306,0-114.809,51.503-114.809,114.809S192.694,370.795,256,370.795s114.809-51.503,114.809-114.809 S319.306,141.176,256,141.176z M256,329.43c-40.498,0-73.445-32.947-73.445-73.445c0-40.498,32.947-73.445,73.445-73.445 c40.499,0,73.445,32.947,73.445,73.445C329.445,296.483,296.499,329.43,256,329.43z" />
    <path d="M437.008,74.97C388.656,26.623,324.375,0,256,0c-0.005,0-0.013,0-0.017,0C187.603,0.004,123.318,26.637,74.97,74.992 C26.62,123.347-0.005,187.637,0,256.017c0.004,68.379,26.637,132.666,74.992,181.014C123.344,485.377,187.625,512.001,256,512 c0.004,0,0.012,0,0.017,0c55.945-0.004,111.216-18.738,155.631-52.752c9.07-6.945,10.792-19.927,3.846-28.995 c-6.945-9.069-19.926-10.794-28.995-3.846c-37.24,28.518-83.58,44.224-130.486,44.228c-0.006,0-0.006,0-0.014,0 c-57.324,0-111.224-22.324-151.761-62.856c-40.542-40.536-62.871-94.435-62.875-151.766 C41.357,137.663,137.636,41.372,255.986,41.364c0.007,0,0.006,0,0.014,0c118.34,0,214.628,96.279,214.636,214.622v23.532 c0,27.523-22.39,49.913-49.913,49.913c-27.523,0-49.913-22.391-49.913-49.913v-23.532c0-11.422-9.259-20.682-20.682-20.682 s-20.682,9.26-20.682,20.682v23.532c0,50.33,40.947,91.278,91.278,91.278S512,329.848,512,279.518v-23.534 C511.995,187.604,485.362,123.318,437.008,74.97z" />
  </symbol>

  <symbol id="footer-location" role="img" viewBox="0 0 512 512">
    <path d="M406.766,62.449C366.495,22.178,312.951,0,256,0S145.505,22.178,105.234,62.449 c-40.272,40.271-62.449,93.814-62.449,150.766c0,37.656,10.972,76.863,32.609,116.532c16.825,30.846,40.15,62.102,69.326,92.898 c49.17,51.903,97.763,84.519,99.808,85.881C248.001,510.842,252,512,256,512c4,0,7.999-1.158,11.473-3.474 c2.045-1.363,50.638-33.978,99.808-85.881c29.176-30.795,52.501-62.051,69.326-92.898c21.637-39.669,32.609-78.876,32.609-116.532 C469.215,156.263,447.038,102.72,406.766,62.449z M256.001,465.903C215.826,436.156,84.15,329.739,84.15,213.215 c0-94.759,77.091-171.851,171.85-171.851s171.85,77.092,171.851,171.851C427.851,329.748,296.159,436.168,256.001,465.903z" />
    <path d="M256,128.355c-46.791,0-84.86,38.068-84.86,84.86c0,46.791,38.068,84.86,84.86,84.86c46.792,0,84.861-38.068,84.86-84.86 C340.86,166.423,302.791,128.355,256,128.355z M256,256.71c-23.983,0-43.495-19.512-43.495-43.495 c0-23.983,19.512-43.495,43.495-43.495c23.984,0,43.495,19.512,43.495,43.495C299.495,237.198,279.984,256.71,256,256.71z" />
  </symbol>

  <symbol id="footer-time" role="img" viewBox="0 0 512 512">
    <path d="M279.3,246.4v-130c0-12.9-10.4-23.3-23.3-23.3s-23.3,10.4-23.3,23.3l0,0V256c0,6.2,2.4,12.1,6.8,16.5l69.8,69.8
			c9.1,9.1,23.8,9.2,32.9,0.1c9.1-9.1,9.2-23.8,0.1-32.9c0,0-0.1-0.1-0.1-0.1L279.3,246.4z"/>
		<path d="M491.9,156.3C465.9,95,417,46.1,355.7,20.1c-63.7-26.8-135.6-26.8-199.3,0C95,46.1,46.1,95,20.1,156.3
			c-26.8,63.7-26.8,135.6,0,199.3C46.1,417,95,465.9,156.3,491.9c63.7,26.8,135.6,26.8,199.3,0c61.4-26,110.2-74.8,136.2-136.2
			C518.7,291.9,518.7,220.1,491.9,156.3L491.9,156.3z M256,465.5c-115.5,0-209.5-94-209.5-209.5S140.5,46.5,256,46.5
			s209.5,94,209.5,209.5S371.5,465.5,256,465.5z"/>
  </symbol>

  <symbol id="footer-features" role="img" viewBox="0 0 512 512">
    <path d="M479.057,206.509c-5.988-4.845-15.953-12.927-17.201-16.757c-1.269-3.978,2.01-16.778,3.978-24.395
			c4.718-18.386,10.6-41.258-2.581-59.263c-13.118-17.878-36.709-19.444-55.666-20.714c-7.85-0.55-21.01-1.418-24.332-3.83
			c-3.364-2.433-8.421-14.895-11.446-22.364c-7.469-18.513-15.974-39.502-36.73-46.188c-20.65-6.749-39.523,5.205-56.132,15.72
			c-7.321,4.612-18.344,11.595-22.956,11.595c-4.422,0-15.318-7.088-22.554-11.785c-15.974-10.389-35.947-23.253-56.999-16.101
			c-20.714,7.046-29.134,27.907-36.603,46.272c-3.004,7.405-7.998,19.761-11.425,22.279c-3.343,2.475-16.736,3.364-24.734,3.893
			c-19.994,1.354-42.654,2.878-55.391,20.904c-12.504,17.709-6.898,39.544-1.947,58.819c1.947,7.659,5.247,20.481,4.062,24.31
			c-1.269,3.66-11.129,11.764-17.011,16.609C18.513,217.787,0,233.041,0,255.892c0,22.702,18.154,37.788,32.731,49.89
			c6.326,5.247,15.868,13.181,17.159,17.117c1.269,3.893-2.031,16.545-4.02,24.099c-4.824,18.555-10.854,41.66,2.835,59.813
			c13.351,17.646,36.836,19.211,55.73,20.481c7.85,0.55,20.989,1.396,24.332,3.83s8.379,14.874,11.404,22.343
			c7.49,18.513,15.974,39.502,36.751,46.209c4.168,1.375,8.294,1.968,12.314,1.968c15.911,0,30.594-9.309,43.839-17.646
			c7.299-4.612,18.302-11.595,22.914-11.595c4.507,0,15.339,6.898,22.491,11.468c15.868,10.092,35.672,22.745,56.682,15.551
			c20.692-7.046,29.113-27.886,36.582-46.293c3.004-7.384,7.998-19.761,11.425-22.279c3.364-2.475,16.672-3.364,24.628-3.893
			c19.846-1.354,42.358-2.856,55.286-20.608c13.012-17.836,7.426-39.904,2.497-59.348c-1.925-7.596-5.141-20.269-3.978-24.078
			c1.269-3.66,11.129-11.764,16.99-16.609C493.487,294.04,512,278.764,512,255.913C512,233.253,493.72,218.421,479.057,206.509z
			 M451.7,273.686c-12.377,10.177-25.178,20.735-30.214,35.863c-5.141,15.403-0.952,31.906,3.089,47.859
			c1.968,7.786,5.268,20.798,4.824,23.485c-3.216,2.412-16.482,3.322-24.416,3.83c-15.72,1.058-33.535,2.243-46.801,11.975
			c-13.139,9.627-19.508,25.347-25.665,40.539c-3.004,7.49-8.082,20.036-10.177,21.941c-3.851,0-14.62-6.919-21.073-11.023
			c-13.308-8.463-28.394-18.09-45.257-18.09c-16.884,0-32.097,9.648-45.553,18.154c-6.517,4.105-17.434,11.044-19.761,11.552
			c-3.279-2.349-8.273-14.747-11.277-22.152c-6.22-15.382-12.652-31.271-25.918-40.814c-13.181-9.5-29.981-10.621-46.251-11.7
			c-7.638-0.508-21.877-1.46-24.459-3.216c-1.312-3.745,2.01-16.545,4.02-24.162c3.914-15.086,8.379-32.181,3.343-47.796
			c-5.057-15.593-18.492-26.786-30.362-36.646c-5.797-4.824-16.609-13.816-17.519-17.074c0.952-3.978,12.06-13.139,18.026-18.026
			c12.377-10.198,25.178-20.756,30.214-35.884c5.184-15.509,0.91-32.139-3.195-48.219c-1.989-7.765-5.332-20.756-5.078-23.231
			c3.237-2.327,16.397-3.216,24.268-3.745c16.524-1.1,33.641-2.264,46.907-11.975c13.139-9.627,19.508-25.326,25.665-40.517
			c3.004-7.511,8.104-20.037,10.05-21.92c3.914,0.063,14.789,7.13,21.285,11.341c13.414,8.717,28.648,18.598,45.595,18.598
			c16.863,0,32.118-9.648,45.532-18.132c6.517-4.126,17.434-11.044,19.762-11.552c3.258,2.349,8.273,14.747,11.277,22.152
			c6.22,15.361,12.652,31.25,25.918,40.792c13.181,9.521,30.002,10.642,46.294,11.721c8.04,0.55,21.518,1.46,24.035,2.983
			c1.291,3.724-1.989,16.588-3.978,24.247c-3.872,15.149-8.273,32.308-3.216,47.965c5.099,15.763,18.746,26.828,30.785,36.582
			c5.501,4.485,15.636,12.674,17.201,16.609C468.119,260.124,457.476,268.904,451.7,273.686z"/>
			<path d="M350.608,176.19c-9.013-7.532-22.322-6.305-29.79,2.645l-94.343,112.793l-40.137-40.115
			c-8.273-8.273-21.645-8.273-29.917,0c-8.273,8.273-8.273,21.645,0,29.917l56.492,56.492c3.956,3.999,9.352,6.199,14.959,6.199
			c0.296,0,0.614,0,0.91-0.042c5.966-0.254,11.489-3.004,15.297-7.553L353.252,205.98C360.742,197.01,359.579,183.68,350.608,176.19
			z"/>
  </symbol>

  <symbol id="footer-pricing" role="img" viewBox="0 0 512 512">
    <path d="M278.622,224.006V110.243c24.336,4.105,47.283,14.091,66.901,29.087c3.911,2.682,8.5,4.137,13.251,4.201
			c15.222,0,27.633-12.249,27.794-27.471c0.032-6.528-2.521-12.798-7.11-17.452c-28.344-24.272-63.895-38.589-101.159-40.722V19.749
			c0-10.892-8.823-19.715-19.715-19.715c-0.226-0.032-0.453-0.032-0.679-0.032c-11.053-0.162-20.167,8.662-20.329,19.747v36.844
			c-72.718,5.171-122.166,50.095-122.166,109.885c0,73.364,62.376,93.726,122.166,109.885V405.64
			c-31.544-4.234-61.277-17.323-85.646-37.813c-4.589-3.652-10.278-5.688-16.16-5.817c-14.899,1.034-26.372,13.509-26.179,28.441
			c-0.032,6.528,2.521,12.798,7.11,17.452c33.386,30.057,76.306,47.348,121.197,48.802v35.551c0,0.226,0.032,0.453,0.032,0.679
			c0.517,11.053,9.922,19.585,20.975,19.036c10.892,0,19.715-8.823,19.715-19.715v-36.197
			c88.231-5.817,123.782-59.467,123.782-116.349C402.404,263.436,338.413,240.166,278.622,224.006z M237.9,213.664
			c-35.228-10.342-62.699-21.007-62.699-51.064s24.886-51.711,62.699-54.619V213.664z M278.622,406.286V288.645
			c36.521,10.342,64.961,24.239,64.638,58.174C343.26,371.382,326.454,400.469,278.622,406.286z"/>
  </symbol>

  <symbol id="footer-articles" role="img" viewBox="0 0 384 384">
    <path d="M128.041,0H42.626C19.081,0,0,19.084,0,42.626v85.414c0,23.545,19.084,42.626,42.626,42.626h85.414
			c23.545,0,42.626-19.084,42.626-42.626V42.626C170.667,19.081,151.582,0,128.041,0z M128,128H42.667V42.667H128V128z"/>
			<path d="M341.374,0h-85.414c-23.545,0-42.626,19.084-42.626,42.626v85.414c0,23.545,19.084,42.626,42.626,42.626h85.414
			c23.545,0,42.626-19.084,42.626-42.626V42.626C384,19.081,364.916,0,341.374,0z M341.333,128H256V42.667h85.333V128z"/>
			<path d="M128.041,213.333H42.626C19.081,213.333,0,232.418,0,255.959v85.414C0,364.919,19.084,384,42.626,384h85.414
			c23.545,0,42.626-19.084,42.626-42.626v-85.414C170.667,232.414,151.582,213.333,128.041,213.333z M128,341.333H42.667V256H128
			V341.333z"/>
			<path d="M341.374,213.333h-85.414c-23.545,0-42.626,19.084-42.626,42.626v85.414c0,23.545,19.084,42.626,42.626,42.626h85.414
			C364.919,384,384,364.916,384,341.374v-85.414C384,232.414,364.916,213.333,341.374,213.333z M341.333,341.333H256V256h85.333
			V341.333z"/>
  </symbol>

  <symbol id="footer-resources" role="img" viewBox="0 0 330 330">
    <path d="M165,0C74.019,0,0,74.02,0,165.001C0,255.982,74.019,330,165,330s165-74.018,165-164.999C330,74.02,255.981,0,165,0z
		 M165,300c-74.44,0-135-60.56-135-134.999C30,90.562,90.56,30,165,30s135,60.562,135,135.001C300,239.44,239.439,300,165,300z"/>
		 <path d="M164.998,70c-11.026,0-19.996,8.976-19.996,20.009c0,11.023,8.97,19.991,19.996,19.991
		c11.026,0,19.996-8.968,19.996-19.991C184.994,78.976,176.024,70,164.998,70z"/>
		<path d="M165,140c-8.284,0-15,6.716-15,15v90c0,8.284,6.716,15,15,15c8.284,0,15-6.716,15-15v-90C180,146.716,173.284,140,165,140z
		"/>
  </symbol>

</svg>