<svg xmlns="http://www.w3.org/2000/svg" xmlns:xlink="http://www.w3.org/1999/xlink">

	<symbol id="play-01" role="img" viewBox="0 0 512 512">
    <path d="M108.9,11.3C62.8-15.2,25.3,6.5,25.3,59.7v392.6c0,53.2,37.4,74.9,83.6,48.5L452,303.9c46.2-26.5,46.2-69.4,0-95.9 L108.9,11.3z"/>
  </symbol>

	<symbol id="cases-01" role="img" viewBox="0 0 512 512">
		<path fill="var(--color-02)" d="M195.148,173.109c0,7.766,0.56,15.396,1.625,22.857c18.18-8.038,38.199-12.495,59.228-12.495   s41.048,4.457,59.228,12.495c1.065-7.461,1.625-15.091,1.625-22.857c0-51.139-23.927-96.505-60.853-124.829   C219.074,76.606,195.148,121.971,195.148,173.109z"/>
		<path fill="var(--color-02)" d="M255.999,297.94c-31.318-24.024-53.279-60.307-59.228-101.973   c-47.204,20.871-81.979,65.926-89.71,120.075c18.18,8.038,38.199,12.495,59.228,12.495   C199.904,328.536,230.943,317.16,255.999,297.94z"/>
		<path fill="var(--color-02)" d="M315.228,195.967c-5.949,41.666-27.91,77.949-59.228,101.974   c25.056,19.221,56.096,30.596,89.71,30.596c21.03,0,41.048-4.457,59.228-12.495C397.206,261.893,362.431,216.837,315.228,195.967z"/>
		<path fill="var(--color-02)" d="M196.772,195.967c5.949,41.666,27.91,77.949,59.228,101.974   c31.318-24.024,53.279-60.307,59.228-101.973c-18.18-8.038-38.199-12.495-59.228-12.495S214.951,187.929,196.772,195.967z"/>
		<path fill="var(--color-01)" d="M345.7,2c-36.1,0-70.4,11.7-99.3,33.8c-42,32.2-67,83.5-67,137.3c0,2.2,0,4.4,0.1,6.5c0,0.7,0.1,1.4,0.1,2.1
			c0.1,1.5,0.1,2.9,0.3,4.4c0,0.2,0,0.3,0,0.5c-1.3,0.7-2.6,1.4-3.9,2.1c-0.2,0.1-0.4,0.2-0.5,0.3c-1.3,0.7-2.5,1.4-3.7,2.2
			c-0.5,0.3-0.9,0.6-1.3,0.8c-1,0.6-1.9,1.2-2.9,1.8c-0.5,0.3-1,0.6-1.4,0.9c-1,0.6-1.9,1.3-2.9,2c-0.4,0.3-0.8,0.6-1.2,0.8
			c-2.7,1.9-5.3,3.9-7.9,5.9c-0.4,0.3-0.7,0.6-1.1,0.9c-0.9,0.8-1.9,1.5-2.8,2.3c-0.4,0.3-0.8,0.7-1.2,1c-0.9,0.8-1.8,1.6-2.7,2.4
			c-0.3,0.3-0.7,0.6-1,0.9c-1.1,1-2.3,2.1-3.4,3.2c-0.1,0.1-0.1,0.1-0.2,0.2c-1.2,1.2-2.4,2.4-3.5,3.6c-0.3,0.3-0.5,0.5-0.8,0.8
			c-0.9,0.9-1.8,1.9-2.6,2.8c-0.3,0.4-0.7,0.7-1,1.1c-0.8,0.9-1.6,1.8-2.4,2.7c-0.3,0.4-0.6,0.7-0.9,1.1c-0.9,1.1-1.9,2.2-2.8,3.4
			c-0.1,0.2-0.3,0.3-0.4,0.5c-1.1,1.3-2.1,2.7-3.1,4c-0.2,0.2-0.3,0.5-0.5,0.7c-0.8,1.1-1.6,2.2-2.4,3.3c-0.3,0.4-0.5,0.8-0.8,1.2
			c-0.7,1-1.4,2-2,3c-0.3,0.4-0.5,0.8-0.8,1.2c-0.7,1.1-1.5,2.3-2.2,3.4c-0.2,0.3-0.3,0.5-0.5,0.8c-0.9,1.4-1.7,2.9-2.6,4.4
			c-0.1,0.2-0.2,0.4-0.3,0.6c-0.7,1.2-1.4,2.5-2.1,3.8c-0.2,0.4-0.4,0.9-0.7,1.3c-0.6,1.1-1.1,2.1-1.6,3.2c-0.2,0.5-0.5,0.9-0.7,1.4
			c-0.6,1.1-1.1,2.3-1.6,3.4c-0.2,0.4-0.3,0.7-0.5,1.1c-0.7,1.5-1.4,3.1-2,4.6c-0.1,0.1-0.1,0.2-0.1,0.4c-0.6,1.4-1.1,2.8-1.7,4.2
			c-0.2,0.5-0.4,0.9-0.5,1.4c-0.4,1.1-0.8,2.2-1.2,3.3c-0.2,0.5-0.4,1.1-0.6,1.6c-0.4,1.1-0.7,2.2-1.1,3.4c-0.2,0.5-0.3,1-0.5,1.4
			c-0.5,1.6-1,3.2-1.4,4.8c-39.7-25.1-64.5-70-64.5-119.2c0-77,60.5-139.7,134.8-139.7c8.7,0,15.7-7,15.7-15.7S175,2,166.3,2
			C74.6,2,0,78.7,0,173.1c0,68.5,39.5,130.3,100.7,157.3c20.8,9.2,42.8,13.8,65.6,13.8c2.1,0,4.3,0,6.4-0.1c0.7,0,1.4-0.1,2.1-0.1
			c1.4-0.1,2.9-0.2,4.3-0.3c0.8-0.1,1.6-0.1,2.5-0.2c1.3-0.1,2.6-0.2,3.9-0.4c0.9-0.1,1.7-0.2,2.6-0.3c1.2-0.2,2.5-0.3,3.7-0.5
			c0.9-0.1,1.7-0.3,2.6-0.4c1.2-0.2,2.5-0.4,3.7-0.7c0.8-0.2,1.7-0.3,2.5-0.5c1.3-0.3,2.5-0.6,3.8-0.9c0.8-0.2,1.6-0.4,2.4-0.6
			c1.4-0.3,2.7-0.7,4-1.1c0.7-0.2,1.3-0.4,2-0.6c1.8-0.5,3.5-1.1,5.3-1.7c0.2-0.1,0.5-0.2,0.7-0.2c2-0.7,4-1.4,5.9-2.2
			c0.5-0.2,1.1-0.4,1.6-0.7c1.4-0.6,2.8-1.1,4.2-1.7c0.7-0.3,1.4-0.6,2.1-0.9c1.2-0.5,2.4-1.1,3.7-1.7c0.8-0.4,1.5-0.7,2.2-1.1
			c1.2-0.6,2.3-1.2,3.4-1.8c0.8-0.4,1.5-0.8,2.3-1.2c1.1-0.6,2.2-1.2,3.3-1.9c0.7-0.4,1.5-0.9,2.2-1.3c1.1-0.7,2.2-1.4,3.3-2.1
			c0.7-0.4,1.4-0.9,2.1-1.3c0.3-0.2,0.6-0.4,0.8-0.5c0.3,0.2,0.6,0.4,0.8,0.5c0.7,0.5,1.4,0.9,2.1,1.3c1.1,0.7,2.2,1.4,3.3,2.1
			c0.7,0.4,1.5,0.9,2.2,1.3c1.1,0.6,2.2,1.3,3.3,1.9c0.8,0.4,1.5,0.8,2.3,1.2c1.1,0.6,2.3,1.2,3.4,1.8c0.7,0.4,1.5,0.7,2.2,1.1
			c1.2,0.6,2.4,1.1,3.7,1.7c0.7,0.3,1.4,0.6,2.1,0.9c1.4,0.6,2.8,1.2,4.2,1.7c0.5,0.2,1.1,0.4,1.6,0.7c2,0.8,3.9,1.5,5.9,2.2
			c0.2,0.1,0.5,0.2,0.7,0.2c1.7,0.6,3.5,1.1,5.3,1.7c0.7,0.2,1.3,0.4,2,0.6c1.3,0.4,2.7,0.8,4,1.1c0.8,0.2,1.6,0.4,2.4,0.6
			c1.3,0.3,2.5,0.6,3.8,0.9c0.8,0.2,1.7,0.3,2.5,0.5c1.2,0.2,2.5,0.5,3.7,0.7c0.9,0.1,1.7,0.3,2.6,0.4c1.2,0.2,2.5,0.4,3.7,0.5
			c0.9,0.1,1.7,0.2,2.6,0.3c1.3,0.2,2.6,0.3,3.9,0.4c0.8,0.1,1.6,0.2,2.5,0.2c1.4,0.1,2.9,0.2,4.3,0.3c0.7,0,1.4,0.1,2.1,0.1
			c2.1,0.1,4.3,0.1,6.4,0.1c1.7,0,3.5,0,5.2-0.1c0.5,0,1,0,1.5-0.1c1.3-0.1,2.6-0.1,3.9-0.2c0.5,0,0.9-0.1,1.4-0.1
			c1.7-0.1,3.4-0.3,5.1-0.4c0.2,0,0.4,0,0.6-0.1c1.5-0.2,3-0.3,4.5-0.6c0.5-0.1,1-0.1,1.5-0.2c1.3-0.2,2.6-0.4,3.9-0.6
			c0.4-0.1,0.8-0.1,1.3-0.2c1.7-0.3,3.3-0.6,5-1c0.3-0.1,0.7-0.1,1-0.2c1.3-0.3,2.7-0.6,4-0.9c0.5-0.1,1-0.3,1.5-0.4
			c1.3-0.3,2.6-0.7,3.9-1.1c0.3-0.1,0.6-0.1,0.8-0.2c0,0.3,0,0.7,0,1c0,77-60.5,139.7-134.8,139.7c-55.6,0-104.8-34.6-125.3-88.1
			c-3.1-8.1-12.2-12.2-20.3-9c-8.1,3.1-12.2,12.2-9,20.3c12.1,31.5,32.8,58.4,60,77.8c27.9,19.9,60.6,30.5,94.7,30.5
			c91.7,0,166.3-76.8,166.3-171.2c0-8.4-0.6-16.8-1.8-25.1c0,0,0,0,0,0c-0.3-1.8-0.5-3.5-0.8-5.3c-0.1-0.6-0.2-1.1-0.3-1.7
			c-0.2-1.2-0.4-2.3-0.7-3.5c-0.1-0.7-0.3-1.4-0.4-2c-0.2-1.1-0.5-2.1-0.7-3.1c-0.2-0.7-0.4-1.4-0.5-2.1c-0.3-1-0.5-2-0.8-3
			c-0.2-0.7-0.4-1.4-0.6-2.2c-0.3-1-0.6-1.9-0.9-2.9c-0.2-0.7-0.5-1.5-0.7-2.2c-0.3-0.9-0.6-1.9-0.9-2.8c-0.2-0.7-0.5-1.4-0.8-2.2
			c-0.3-0.9-0.7-1.9-1-2.8c-0.3-0.7-0.5-1.4-0.8-2.1c-0.4-0.9-0.7-1.9-1.1-2.8c-0.3-0.7-0.6-1.4-0.9-2.1c-0.4-0.9-0.8-1.9-1.2-2.8
			c-0.3-0.7-0.6-1.3-0.9-2c-0.4-0.9-0.9-1.9-1.3-2.8c-0.3-0.6-0.6-1.3-0.9-1.9c-0.5-1-1-1.9-1.5-2.9c-0.3-0.6-0.6-1.2-0.9-1.8
			c-0.5-1-1.1-2-1.7-3c-0.3-0.5-0.6-1-0.9-1.5c-0.7-1.2-1.4-2.3-2.1-3.5c-0.2-0.3-0.4-0.7-0.6-1c-1.8-3-3.7-5.9-5.7-8.7
			c-0.3-0.4-0.6-0.8-0.8-1.2c-0.7-1-1.5-2-2.2-3c-0.4-0.5-0.7-1-1.1-1.5c-0.7-0.9-1.4-1.8-2.1-2.7c-0.4-0.5-0.8-1-1.3-1.6
			c-0.7-0.8-1.3-1.6-2-2.5c-0.5-0.5-0.9-1.1-1.4-1.6c-0.7-0.8-1.3-1.6-2-2.3c-0.5-0.5-1-1.1-1.5-1.6c-0.7-0.7-1.4-1.5-2.1-2.2
			c-0.5-0.5-1-1-1.5-1.6c-0.7-0.7-1.4-1.4-2.1-2.1c-0.5-0.5-1-1-1.6-1.5c-0.7-0.7-1.4-1.4-2.2-2.1c-0.5-0.5-1.1-1-1.6-1.5
			c-0.7-0.7-1.5-1.3-2.3-2c-0.5-0.5-1.1-1-1.6-1.4c-0.8-0.7-1.6-1.3-2.3-1.9c-0.5-0.5-1.1-0.9-1.7-1.4c-0.8-0.7-1.6-1.3-2.5-1.9
			c-0.5-0.4-1.1-0.8-1.6-1.3c-0.9-0.7-1.8-1.3-2.7-1.9c-0.5-0.4-1-0.7-1.5-1.1c-1.1-0.7-2.1-1.5-3.2-2.2c-0.4-0.2-0.7-0.5-1.1-0.7
			c-1.4-0.9-2.9-1.9-4.4-2.8c-0.3-0.2-0.6-0.4-0.9-0.6c-1.2-0.7-2.3-1.4-3.5-2.1c-0.6-0.3-1.1-0.6-1.7-0.9c-0.8-0.5-1.6-0.9-2.5-1.4
			c0-0.2,0-0.3,0-0.5c0.1-1.5,0.2-2.9,0.3-4.4c0-0.7,0.1-1.4,0.1-2.1c0.1-2.2,0.1-4.4,0.1-6.5c0-1.6,0-3.1-0.1-4.7c0-0.5,0-1-0.1-1.5
			c0-1.1-0.1-2.1-0.1-3.2c0-0.6-0.1-1.2-0.1-1.8c-0.1-1-0.1-1.9-0.2-2.9c0-0.6-0.1-1.2-0.2-1.9c-0.1-1-0.2-1.9-0.3-2.9
			c-0.1-0.6-0.1-1.2-0.2-1.8c-0.1-1-0.3-2-0.4-3c-0.1-0.6-0.1-1.1-0.2-1.7c-0.2-1.2-0.4-2.4-0.6-3.6c-0.1-0.3-0.1-0.7-0.2-1
			c-0.3-1.5-0.6-3-0.9-4.5c-0.1-0.5-0.2-0.9-0.3-1.4c-0.2-1-0.4-2.1-0.7-3.1c-0.1-0.6-0.3-1.2-0.4-1.8c-0.2-0.9-0.4-1.8-0.7-2.8
			c-0.2-0.6-0.3-1.2-0.5-1.9c-0.2-0.9-0.5-1.8-0.7-2.7c-0.2-0.6-0.4-1.2-0.5-1.9c-0.3-0.9-0.5-1.8-0.8-2.7c-0.2-0.6-0.4-1.2-0.6-1.7
			c-0.3-1-0.7-2-1-3c-0.2-0.5-0.3-0.9-0.5-1.4c-0.5-1.4-1-2.9-1.6-4.3c-0.2-0.4-0.3-0.8-0.5-1.2c-0.4-1-0.8-2.1-1.2-3.1
			c-0.2-0.6-0.5-1.1-0.7-1.7c-0.4-0.9-0.7-1.7-1.1-2.6c-0.3-0.6-0.5-1.2-0.8-1.8c-0.4-0.8-0.8-1.6-1.1-2.4c-0.3-0.6-0.6-1.2-0.9-1.8
			c-0.4-0.8-0.8-1.6-1.2-2.4c-0.3-0.6-0.6-1.1-0.9-1.7c-0.5-0.9-0.9-1.7-1.4-2.6c-0.3-0.5-0.5-1-0.8-1.4c-0.7-1.3-1.5-2.6-2.2-3.9
			c-0.1-0.2-0.3-0.4-0.4-0.7c-0.7-1.1-1.4-2.2-2.1-3.3c-0.3-0.5-0.6-0.9-0.9-1.4c-0.5-0.8-1.1-1.7-1.6-2.5c-0.3-0.5-0.7-1-1-1.5
			c-0.5-0.8-1.1-1.5-1.6-2.3c-0.4-0.5-0.7-1-1.1-1.5c-0.5-0.8-1.1-1.5-1.7-2.3c-0.4-0.5-0.7-1-1.1-1.5c-0.6-0.8-1.2-1.6-1.9-2.4
			c-0.3-0.4-0.7-0.8-1-1.3c-0.8-1-1.7-2-2.5-3c-0.1-0.2-0.3-0.4-0.4-0.5c-1-1.2-2-2.3-3.1-3.5c-0.3-0.3-0.6-0.6-0.9-0.9
			c-0.8-0.8-1.5-1.6-2.3-2.5c-0.4-0.4-0.8-0.8-1.1-1.2c-0.5-0.5-0.9-0.9-1.4-1.4c19.5-10.9,41.3-16.6,63.9-16.6
			c74.3,0,134.8,62.7,134.8,139.7c0,27.1-7.5,53.5-21.7,76.1c-4.6,7.4-2.4,17.1,4.9,21.7c7.4,4.6,17.1,2.4,21.7-4.9
			c17.4-27.7,26.6-59.8,26.6-92.8C512,78.7,437.4,2,345.7,2z M210.9,169.1c0-0.4,0-0.9,0-1.3c0-0.9,0.1-1.8,0.1-2.7
			c0-0.5,0.1-1,0.1-1.6c0.1-0.8,0.1-1.6,0.2-2.4c0-0.6,0.1-1.1,0.1-1.7c0.1-0.8,0.1-1.5,0.2-2.3c0.1-0.6,0.1-1.1,0.2-1.7
			c0.1-0.7,0.2-1.5,0.3-2.2c0.1-0.6,0.2-1.1,0.2-1.7c0.1-0.7,0.2-1.5,0.3-2.2c0.1-0.6,0.2-1.1,0.3-1.7c0.1-0.8,0.3-1.5,0.4-2.2
			c0.1-0.5,0.2-1.1,0.3-1.6c0.2-0.8,0.3-1.6,0.5-2.4c0.1-0.5,0.2-1,0.3-1.4c0.2-0.9,0.4-1.8,0.7-2.7c0.1-0.3,0.2-0.7,0.2-1
			c0.3-1.2,0.7-2.5,1-3.7c0.1-0.4,0.2-0.7,0.3-1.1c0.3-0.9,0.5-1.7,0.8-2.6c0.2-0.5,0.3-1,0.5-1.5c0.2-0.7,0.5-1.5,0.7-2.2
			c0.2-0.5,0.4-1,0.6-1.6c0.2-0.7,0.5-1.4,0.8-2.1c0.2-0.5,0.4-1.1,0.6-1.6c0.3-0.7,0.5-1.3,0.8-2c0.2-0.5,0.4-1.1,0.7-1.6
			c0.3-0.7,0.6-1.3,0.8-1.9c0.2-0.5,0.5-1,0.7-1.6c0.3-0.6,0.6-1.3,0.9-1.9c0.2-0.5,0.5-1,0.7-1.5c0.3-0.7,0.7-1.3,1-2
			c0.2-0.5,0.5-1,0.7-1.4c0.4-0.7,0.8-1.4,1.1-2.1c0.2-0.4,0.5-0.8,0.7-1.3c0.6-1.1,1.2-2.1,1.9-3.2c0.1-0.2,0.3-0.5,0.4-0.7
			c0.5-0.9,1.1-1.7,1.6-2.6c0.3-0.4,0.5-0.8,0.8-1.2c0.4-0.7,0.8-1.3,1.3-1.9c0.3-0.5,0.6-0.9,0.9-1.4c0.4-0.6,0.8-1.2,1.2-1.8
			c0.3-0.5,0.7-0.9,1-1.4c0.4-0.6,0.8-1.1,1.3-1.7c0.3-0.5,0.7-0.9,1.1-1.4c0.4-0.6,0.9-1.1,1.3-1.7c0.4-0.5,0.7-0.9,1.1-1.3
			c0.4-0.5,0.9-1.1,1.4-1.6c0.4-0.4,0.7-0.9,1.1-1.3c0.5-0.5,1-1.1,1.4-1.6c0.4-0.4,0.7-0.8,1.1-1.2c0.5-0.6,1.1-1.1,1.6-1.7
			c0.3-0.4,0.7-0.7,1-1.1c0.7-0.7,1.3-1.3,2-2c0.2-0.2,0.5-0.5,0.7-0.7c0.9-0.9,1.8-1.7,2.7-2.5c0.9,0.8,1.8,1.7,2.7,2.5
			c0.2,0.2,0.5,0.5,0.7,0.7c0.7,0.7,1.3,1.3,2,2c0.4,0.4,0.7,0.7,1,1.1c0.5,0.6,1.1,1.1,1.6,1.7c0.4,0.4,0.7,0.8,1.1,1.2
			c0.5,0.5,1,1.1,1.4,1.6c0.4,0.4,0.8,0.9,1.1,1.3c0.5,0.5,0.9,1.1,1.4,1.6c0.4,0.4,0.7,0.9,1.1,1.3c0.4,0.5,0.9,1.1,1.3,1.7
			c0.4,0.5,0.7,0.9,1.1,1.4c0.4,0.6,0.8,1.1,1.3,1.7c0.3,0.5,0.7,0.9,1,1.4c0.4,0.6,0.8,1.2,1.2,1.8c0.3,0.4,0.6,0.9,0.9,1.4
			c0.4,0.6,0.9,1.3,1.3,1.9c0.3,0.4,0.5,0.8,0.8,1.2c0.5,0.9,1.1,1.7,1.6,2.6c0.1,0.2,0.3,0.5,0.4,0.7c0.6,1.1,1.3,2.1,1.9,3.2
			c0.2,0.4,0.5,0.8,0.7,1.3c0.4,0.7,0.8,1.4,1.1,2.1c0.3,0.5,0.5,1,0.7,1.4c0.3,0.7,0.7,1.3,1,2c0.2,0.5,0.5,1,0.7,1.5
			c0.3,0.6,0.6,1.3,0.9,1.9c0.2,0.5,0.5,1,0.7,1.6c0.3,0.6,0.6,1.3,0.8,1.9c0.2,0.5,0.4,1.1,0.7,1.6c0.3,0.7,0.5,1.3,0.8,2
			c0.2,0.5,0.4,1.1,0.6,1.6c0.3,0.7,0.5,1.4,0.8,2.1c0.2,0.5,0.4,1,0.6,1.6c0.3,0.7,0.5,1.5,0.7,2.2c0.2,0.5,0.3,1,0.5,1.5
			c0.3,0.9,0.5,1.7,0.8,2.6c0.1,0.4,0.2,0.7,0.3,1.1c0.4,1.2,0.7,2.5,1,3.7c0.1,0.3,0.2,0.7,0.2,1c0.2,0.9,0.5,1.8,0.7,2.7
			c0.1,0.5,0.2,1,0.3,1.4c0.2,0.8,0.3,1.6,0.5,2.4c0.1,0.5,0.2,1.1,0.3,1.6c0.1,0.7,0.3,1.5,0.4,2.2c0.1,0.6,0.2,1.1,0.3,1.7
			c0.1,0.7,0.2,1.5,0.3,2.2c0.1,0.6,0.2,1.1,0.2,1.7c0.1,0.7,0.2,1.5,0.3,2.2c0.1,0.6,0.1,1.1,0.2,1.7c0.1,0.8,0.2,1.5,0.2,2.3
			c0,0.6,0.1,1.1,0.1,1.7c0.1,0.8,0.1,1.6,0.2,2.4c0,0.5,0.1,1,0.1,1.6c0,0.9,0.1,1.8,0.1,2.7c0,0.4,0,0.9,0,1.3c0,1.3,0.1,2.7,0.1,4
			c0,0.3,0,0.7,0,1c-0.3-0.1-0.5-0.1-0.8-0.2c-1.3-0.4-2.6-0.7-3.9-1.1c-0.5-0.1-1-0.3-1.5-0.4c-1.4-0.3-2.7-0.7-4.1-0.9
			c-0.3-0.1-0.6-0.1-1-0.2c-1.7-0.4-3.3-0.7-5-1c-0.4-0.1-0.8-0.1-1.2-0.2c-1.3-0.2-2.6-0.4-3.9-0.6c-0.5-0.1-1-0.1-1.5-0.2
			c-1.5-0.2-3-0.4-4.5-0.6c-0.2,0-0.4,0-0.6-0.1c-1.7-0.2-3.4-0.3-5.1-0.4c-0.5,0-0.9-0.1-1.4-0.1c-1.3-0.1-2.6-0.2-3.9-0.2
			c-0.5,0-1,0-1.5-0.1c-1.7-0.1-3.4-0.1-5.2-0.1c-1.7,0-3.5,0-5.2,0.1c-0.5,0-1,0-1.5,0.1c-1.3,0.1-2.6,0.1-3.9,0.2
			c-0.5,0-0.9,0.1-1.4,0.1c-1.7,0.1-3.4,0.3-5.1,0.4c-0.2,0-0.4,0-0.6,0.1c-1.5,0.2-3,0.4-4.5,0.6c-0.5,0.1-1,0.1-1.5,0.2
			c-1.3,0.2-2.6,0.4-3.9,0.6c-0.4,0.1-0.8,0.1-1.2,0.2c-1.7,0.3-3.3,0.6-5,1c-0.3,0.1-0.6,0.1-1,0.2c-1.4,0.3-2.7,0.6-4.1,0.9
			c-0.5,0.1-1,0.2-1.5,0.4c-1.3,0.3-2.6,0.7-3.9,1.1c-0.3,0.1-0.5,0.1-0.8,0.2c0-0.3,0-0.7,0-1C210.9,171.8,210.9,170.4,210.9,169.1z
			 M331.8,223.4c0.1,0.1,0.3,0.2,0.4,0.3c1.5,1.1,3,2.2,4.5,3.3c0.3,0.3,0.7,0.5,1,0.8c1.5,1.2,3.1,2.5,4.6,3.8
			c0.2,0.2,0.4,0.4,0.7,0.6c1.3,1.2,2.7,2.4,3.9,3.6c0.3,0.3,0.6,0.5,0.8,0.8c1.4,1.4,2.8,2.8,4.2,4.2c0.3,0.3,0.5,0.5,0.7,0.8
			c1.2,1.3,2.4,2.6,3.6,4c0.2,0.2,0.4,0.5,0.6,0.7c1.3,1.5,2.5,3,3.8,4.6c0.3,0.3,0.5,0.7,0.8,1c1.1,1.5,2.2,2.9,3.3,4.4
			c0.1,0.2,0.2,0.3,0.4,0.5c1.1,1.6,2.2,3.3,3.3,5c0.2,0.4,0.5,0.8,0.7,1.1c1.1,1.7,2.1,3.4,3.1,5.1c0,0,0,0.1,0,0.1
			c1,1.8,1.9,3.5,2.9,5.3c0.2,0.4,0.4,0.8,0.6,1.2c0.9,1.8,1.8,3.6,2.6,5.4c0.1,0.2,0.1,0.3,0.2,0.5c0.8,1.7,1.5,3.4,2.2,5.2
			c0.2,0.4,0.3,0.9,0.5,1.3c0.7,1.9,1.4,3.7,2.1,5.6c0.1,0.3,0.2,0.6,0.3,0.9c0.6,1.7,1.1,3.4,1.6,5.1c0.1,0.4,0.3,0.8,0.4,1.3
			c0.5,1.9,1,3.8,1.5,5.8c0,0.1,0.1,0.3,0.1,0.4c-0.2,0.1-0.5,0.2-0.7,0.3c-0.6,0.2-1.1,0.4-1.7,0.5c-1.4,0.4-2.8,0.9-4.3,1.3
			c-0.7,0.2-1.3,0.4-2,0.5c-1.5,0.4-3,0.7-4.5,1.1c-0.5,0.1-1,0.2-1.5,0.3c-2,0.4-4,0.8-6,1.1c-0.4,0.1-0.9,0.1-1.3,0.2
			c-1.6,0.2-3.2,0.4-4.8,0.6c-0.7,0.1-1.3,0.1-2,0.2c-1.5,0.1-2.9,0.3-4.4,0.3c-0.6,0-1.3,0.1-1.9,0.1c-2.1,0.1-4.1,0.2-6.2,0.2
			c-1.6,0-3.3,0-4.9-0.1c-0.5,0-1,0-1.5-0.1c-1.2-0.1-2.3-0.1-3.5-0.2c-0.5,0-1.1-0.1-1.6-0.1c-1.3-0.1-2.5-0.2-3.8-0.4
			c-0.4,0-0.7-0.1-1.1-0.1c-1.6-0.2-3.2-0.4-4.8-0.7c-0.4-0.1-0.8-0.1-1.2-0.2c-1.2-0.2-2.4-0.4-3.7-0.7c-0.5-0.1-1-0.2-1.6-0.3
			c-1.1-0.2-2.3-0.5-3.4-0.8c-0.5-0.1-0.9-0.2-1.4-0.3c-1.6-0.4-3.1-0.8-4.7-1.3c-0.1,0-0.2-0.1-0.2-0.1c-1.5-0.4-2.9-0.9-4.4-1.4
			c-0.5-0.2-0.9-0.3-1.4-0.5c-1.1-0.4-2.2-0.8-3.3-1.2c-0.5-0.2-1-0.4-1.5-0.6c-1.2-0.5-2.4-1-3.6-1.5c-0.3-0.1-0.6-0.3-0.9-0.4
			c-1.5-0.6-3-1.3-4.4-2c-0.4-0.2-0.7-0.4-1.1-0.6c-1.1-0.5-2.2-1.1-3.3-1.7c-0.5-0.3-1-0.5-1.4-0.8c-0.4-0.2-0.8-0.5-1.2-0.7
			c0.2-0.2,0.4-0.4,0.6-0.6c0.9-0.9,1.9-1.9,2.8-2.8c0.3-0.4,0.7-0.7,1-1.1c1-1,1.9-2,2.8-3.1c0.2-0.2,0.4-0.4,0.6-0.7
			c1.1-1.3,2.2-2.5,3.3-3.8c0.3-0.3,0.5-0.6,0.8-0.9c0.8-1,1.7-2,2.5-3.1c0.3-0.4,0.6-0.7,0.9-1.1c0.9-1.2,1.8-2.4,2.7-3.7
			c0.1-0.1,0.2-0.2,0.3-0.4c1-1.4,2-2.8,2.9-4.2c0.2-0.3,0.5-0.7,0.7-1c0.7-1.1,1.5-2.2,2.2-3.3c0.2-0.4,0.5-0.7,0.7-1.1
			c1.8-2.9,3.5-5.8,5.1-8.7c0.2-0.4,0.4-0.8,0.6-1.1c0.6-1.2,1.2-2.3,1.8-3.5c0.2-0.4,0.4-0.8,0.6-1.1c0.8-1.5,1.5-3.1,2.2-4.6
			c0-0.1,0.1-0.1,0.1-0.2c0.7-1.5,1.3-2.9,1.9-4.4c0.2-0.4,0.4-0.9,0.5-1.3c0.5-1.2,1-2.4,1.5-3.7c0.1-0.4,0.3-0.8,0.4-1.2
			c0.6-1.6,1.2-3.2,1.7-4.8c0.1-0.2,0.1-0.4,0.2-0.7c0.5-1.4,0.9-2.8,1.4-4.2c0.1-0.5,0.3-0.9,0.4-1.4c0.4-1.3,0.8-2.6,1.1-3.9
			c0.1-0.3,0.2-0.5,0.2-0.8c0.2,0.1,0.4,0.2,0.5,0.3C328.6,221.2,330.2,222.3,331.8,223.4z M227.5,297.6c-1.1,0.6-2.2,1.1-3.3,1.7
			c-0.4,0.2-0.7,0.4-1.1,0.6c-1.5,0.7-2.9,1.4-4.4,2c-0.3,0.1-0.6,0.3-0.9,0.4c-1.2,0.5-2.4,1-3.6,1.5c-0.5,0.2-1,0.4-1.5,0.6
			c-1.1,0.4-2.2,0.8-3.3,1.2c-0.5,0.2-0.9,0.3-1.4,0.5c-1.4,0.5-2.9,1-4.4,1.4c-0.1,0-0.2,0.1-0.2,0.1c-1.5,0.5-3.1,0.9-4.7,1.3
			c-0.5,0.1-0.9,0.2-1.4,0.3c-1.1,0.3-2.3,0.5-3.4,0.8c-0.5,0.1-1,0.2-1.6,0.3c-1.2,0.2-2.4,0.5-3.7,0.7c-0.4,0.1-0.8,0.1-1.2,0.2
			c-1.6,0.3-3.2,0.5-4.8,0.7c-0.4,0-0.7,0.1-1.1,0.1c-1.3,0.1-2.5,0.3-3.8,0.4c-0.5,0-1.1,0.1-1.6,0.1c-1.2,0.1-2.3,0.2-3.5,0.2
			c-0.5,0-1,0.1-1.5,0.1c-1.6,0.1-3.3,0.1-4.9,0.1c-2.1,0-4.1-0.1-6.2-0.2c-0.6,0-1.3-0.1-1.9-0.1c-1.5-0.1-2.9-0.2-4.4-0.3
			c-0.7-0.1-1.3-0.1-2-0.2c-1.6-0.2-3.2-0.4-4.8-0.6c-0.4-0.1-0.9-0.1-1.3-0.2c-2-0.3-4-0.7-6-1.1c-0.5-0.1-1-0.2-1.5-0.3
			c-1.5-0.3-3-0.7-4.5-1.1c-0.7-0.2-1.3-0.3-2-0.5c-1.4-0.4-2.9-0.8-4.3-1.3c-0.6-0.2-1.1-0.3-1.7-0.5c-0.2-0.1-0.5-0.2-0.7-0.3
			c0-0.1,0.1-0.3,0.1-0.4c0.5-1.9,1-3.9,1.5-5.8c0.1-0.4,0.2-0.8,0.4-1.3c0.5-1.7,1-3.4,1.6-5.1c0.1-0.3,0.2-0.6,0.3-0.9
			c0.6-1.9,1.3-3.8,2.1-5.6c0.2-0.4,0.3-0.9,0.5-1.3c0.7-1.7,1.4-3.5,2.2-5.2c0.1-0.2,0.1-0.3,0.2-0.5c0.8-1.8,1.7-3.6,2.6-5.4
			c0.2-0.4,0.4-0.8,0.6-1.2c0.9-1.8,1.9-3.6,2.9-5.3c0,0,0-0.1,0-0.1c1-1.7,2-3.4,3.1-5.1c0.2-0.4,0.5-0.8,0.7-1.1
			c1.1-1.7,2.2-3.3,3.3-5c0.1-0.2,0.2-0.3,0.4-0.5c1.1-1.5,2.2-3,3.3-4.4c0.3-0.3,0.5-0.7,0.8-1c1.2-1.6,2.5-3.1,3.8-4.6
			c0.2-0.2,0.4-0.5,0.6-0.7c1.2-1.3,2.4-2.7,3.6-4c0.2-0.3,0.5-0.5,0.7-0.8c1.4-1.4,2.8-2.8,4.2-4.2c0.3-0.3,0.6-0.5,0.8-0.8
			c1.3-1.2,2.6-2.4,3.9-3.6c0.2-0.2,0.4-0.4,0.7-0.6c1.5-1.3,3-2.6,4.6-3.8c0.3-0.3,0.7-0.5,1-0.8c1.5-1.1,2.9-2.3,4.5-3.3
			c0.1-0.1,0.3-0.2,0.4-0.3c1.6-1.1,3.3-2.3,4.9-3.3c0.2-0.1,0.4-0.2,0.5-0.3c0.1,0.3,0.2,0.5,0.2,0.8c0.4,1.3,0.7,2.6,1.1,3.9
			c0.1,0.5,0.3,0.9,0.4,1.4c0.4,1.4,0.9,2.8,1.4,4.2c0.1,0.2,0.1,0.4,0.2,0.7c0.6,1.6,1.1,3.2,1.7,4.8c0.1,0.4,0.3,0.8,0.4,1.2
			c0.5,1.2,1,2.5,1.5,3.7c0.2,0.4,0.4,0.9,0.5,1.3c0.6,1.5,1.3,3,1.9,4.4c0,0.1,0.1,0.1,0.1,0.2c0.7,1.5,1.4,3.1,2.2,4.6
			c0.2,0.4,0.4,0.8,0.6,1.1c0.6,1.2,1.2,2.4,1.8,3.5c0.2,0.4,0.4,0.8,0.6,1.1c1.6,3,3.3,5.9,5.1,8.7c0.2,0.4,0.5,0.7,0.7,1.1
			c0.7,1.1,1.4,2.2,2.2,3.3c0.2,0.3,0.5,0.7,0.7,1c0.9,1.4,1.9,2.8,2.9,4.2c0.1,0.1,0.2,0.2,0.3,0.4c0.9,1.2,1.8,2.5,2.7,3.7
			c0.3,0.4,0.6,0.7,0.9,1.1c0.8,1,1.6,2.1,2.5,3.1c0.3,0.3,0.5,0.6,0.8,0.9c1.1,1.3,2.2,2.6,3.3,3.8c0.2,0.2,0.4,0.4,0.6,0.7
			c0.9,1,1.9,2.1,2.8,3.1c0.3,0.4,0.7,0.7,1,1.1c0.9,1,1.8,1.9,2.8,2.8c0.2,0.2,0.4,0.4,0.6,0.6c-0.4,0.2-0.8,0.5-1.2,0.7
			C228.4,297.1,228,297.4,227.5,297.6z M217.1,205.1c1.4-0.4,2.9-0.9,4.3-1.3c0.6-0.2,1.3-0.4,1.9-0.5c1.5-0.4,3-0.8,4.6-1.1
			c0.5-0.1,1-0.2,1.5-0.3c2-0.4,4-0.8,6-1.1c0.4-0.1,0.9-0.1,1.3-0.2c1.6-0.2,3.2-0.4,4.8-0.6c0.7-0.1,1.3-0.1,2-0.2
			c1.5-0.1,2.9-0.3,4.4-0.3c0.6,0,1.3-0.1,1.9-0.1c2.1-0.1,4.1-0.2,6.2-0.2c2.1,0,4.1,0.1,6.2,0.2c0.6,0,1.3,0.1,1.9,0.1
			c1.5,0.1,3,0.2,4.4,0.3c0.7,0.1,1.3,0.1,2,0.2c1.6,0.2,3.2,0.4,4.8,0.6c0.4,0.1,0.9,0.1,1.3,0.2c2,0.3,4,0.7,6,1.1
			c0.5,0.1,1,0.2,1.5,0.3c1.5,0.3,3.1,0.7,4.6,1.1c0.6,0.2,1.3,0.3,1.9,0.5c1.4,0.4,2.9,0.8,4.3,1.3c0.6,0.2,1.1,0.3,1.7,0.5
			c0.2,0.1,0.5,0.2,0.7,0.3c-0.1,0.3-0.1,0.5-0.2,0.8c-0.2,0.6-0.3,1.3-0.5,1.9c-0.4,1.4-0.7,2.8-1.1,4.2c-0.2,0.7-0.4,1.3-0.6,2
			c-0.5,1.5-0.9,3-1.4,4.5c-0.2,0.5-0.3,0.9-0.5,1.4c-0.7,1.9-1.4,3.8-2.1,5.7c-0.2,0.5-0.4,0.9-0.6,1.4c-0.6,1.4-1.2,2.9-1.8,4.3
			c-0.3,0.6-0.6,1.2-0.9,1.9c-0.6,1.3-1.3,2.6-1.9,3.9c-0.3,0.5-0.5,1.1-0.8,1.6c-0.9,1.8-1.9,3.6-2.9,5.3c-0.1,0.2-0.2,0.3-0.3,0.5
			c-0.9,1.6-1.9,3.2-2.9,4.7c-0.3,0.5-0.7,1.1-1.1,1.6c-0.8,1.2-1.6,2.4-2.4,3.6c-0.4,0.5-0.8,1.1-1.1,1.6c-1,1.3-2,2.7-3,4
			c-0.2,0.3-0.5,0.6-0.7,0.9c-1.3,1.6-2.6,3.1-3.9,4.7c-0.4,0.4-0.7,0.8-1.1,1.2c-1,1.1-2,2.3-3.1,3.4c-0.5,0.5-0.9,1-1.4,1.4
			c-1.1,1.1-2.1,2.1-3.2,3.2c-0.4,0.4-0.8,0.8-1.2,1.2c-0.2,0.1-0.3,0.3-0.5,0.4c-0.2-0.1-0.3-0.3-0.5-0.4c-0.4-0.4-0.8-0.8-1.2-1.2
			c-1.1-1-2.2-2.1-3.2-3.2c-0.5-0.5-0.9-1-1.4-1.4c-1.1-1.1-2.1-2.2-3.1-3.4c-0.4-0.4-0.7-0.8-1.1-1.2c-1.3-1.5-2.6-3.1-3.9-4.7
			c-0.2-0.3-0.5-0.6-0.7-0.9c-1-1.3-2-2.6-3-4c-0.4-0.5-0.8-1.1-1.1-1.6c-0.8-1.2-1.6-2.4-2.4-3.6c-0.4-0.5-0.7-1.1-1.1-1.6
			c-1-1.6-2-3.1-2.9-4.7c-0.1-0.2-0.2-0.3-0.3-0.5c-1-1.8-2-3.5-2.9-5.3c-0.3-0.5-0.6-1.1-0.8-1.6c-0.7-1.3-1.3-2.6-1.9-3.9
			c-0.3-0.6-0.6-1.2-0.9-1.9c-0.6-1.4-1.2-2.8-1.8-4.3c-0.2-0.5-0.4-0.9-0.6-1.4c-0.8-1.9-1.5-3.8-2.1-5.7c-0.2-0.5-0.3-0.9-0.5-1.4
			c-0.5-1.5-1-3-1.4-4.5c-0.2-0.7-0.4-1.3-0.6-2c-0.4-1.4-0.8-2.8-1.1-4.2c-0.2-0.6-0.3-1.3-0.5-1.9c-0.1-0.3-0.1-0.5-0.2-0.8
			c0.2-0.1,0.5-0.2,0.7-0.3C215.9,205.5,216.5,205.3,217.1,205.1z"/>
  </symbol>

  <symbol id="cases-02" role="img" viewBox="0 0 512 512">
  	<path fill="var(--color-02)" d="M322.621,179.646c-29.505,17.193-29.787,62.187-45.043,80.218  c-15.256,18.048-78.742-26.519-76.834-54.009c1.891-27.491-7.002-24.043-12.083-28.344c-3.234-2.731,13.974-37.696,12.343-58.445  c17.01-6.758,35.576-12.005,54.997-12.005c30.404,0,58.688,10.649,82.258,26.285C339.646,151.911,337.344,171.072,322.621,179.646z"/>
  	<path fill="var(--color-01)" d="M266.976,279.233c-21.36,0-47.574-17.669-62.892-34.086c-9.041-9.691-19.588-24.555-18.491-40.344  c0.451-6.554,0.125-10.023-0.166-11.662c-1.738-0.799-4.151-1.987-6.58-4.042c-9.115-7.693-5.869-17.7-0.957-32.846  c3.462-10.676,8.696-26.813,7.973-35.995c-0.524-6.642,3.342-12.848,9.533-15.309c22.153-8.801,41.978-13.078,60.604-13.078  c30.89,0,62.239,9.966,90.656,28.818c3.908,2.593,6.401,6.847,6.749,11.524c2.24,29.938-5.546,50.312-23.139,60.559  c-13.237,7.713-19.134,25.314-24.837,42.335c-4.381,13.073-8.517,25.424-16.252,34.569  C285.491,274.033,278.644,279.233,266.976,279.233z M205.419,169.864c8.784,6.966,11.779,18.13,10.477,37.034  c-0.144,2.06,1.847,8.36,10.397,17.524c13.397,14.36,32.119,24.378,40.61,24.433c3.583-5.084,6.7-14.383,9.72-23.399  c6.786-20.255,15.23-45.462,38.349-58.934c6.674-3.887,8.45-14.416,8.436-24.585c-21.617-12.903-44.779-19.69-67.409-19.69  c-12.414,0-25.364,2.406-40.18,7.509c-1.414,12.364-5.688,25.547-9.034,35.866C206.357,166.942,205.879,168.415,205.419,169.864z"/>
  	<path fill="var(--color-02)" d="M256,405.376c-45.095-0.199-86.178-22.433-113.349-54.272c18.323-22.533,56.807-13.123,68.087-36.08  C230.043,275.728,291.536,352.407,256,405.376z"/>
  	<path fill="var(--color-01)" d="M256,420.565c-0.023,0-0.044,0-0.067,0c-47.188-0.208-92.688-21.932-124.836-59.6  c-4.759-5.576-4.856-13.755-0.231-19.442c12.092-14.872,29.587-19.24,43.641-22.749c12.341-3.082,20.034-5.234,22.595-10.447  c6.024-12.259,16.369-19.29,28.388-19.29c16.305,0,33.553,13.347,45.01,34.833c12.519,23.473,18.596,59.435-1.89,89.968  C265.791,418.043,261.061,420.565,256,420.565z M165.572,353.096c22.85,21.224,52.099,34.428,81.746,36.73  c7.98-17.815,3.755-37.835-3.62-51.663c-7.187-13.479-15.312-18.301-17.875-18.717c-0.314,0.337-0.854,1.048-1.455,2.275  c-8.911,18.139-27.538,22.79-42.502,26.526C176.072,349.694,170.443,351.099,165.572,353.096z"/>
  	<path fill="var(--color-02)" d="M402.392,273.483c-3.935,33.761-17.461,64.058-40.116,87.049  c-25.966-5.339-31.127-28.732-45.254-44.913c-33.167-37.992,27.322-46.53,61.022-46.53  C387.29,269.09,394.537,270.661,402.392,273.483z"/>
  	<path fill="var(--color-01)" d="M362.277,375.72c-1.018,0-2.043-0.102-3.061-0.311c-24.65-5.07-35.442-22.293-44.115-36.133   c-3.155-5.032-6.135-9.788-9.522-13.667c-16.213-18.572-14.776-33.118-10.716-42.053c11.727-25.803,57.149-29.657,83.182-29.657   c10.345,0,19.161,1.581,29.48,5.287c6.647,2.386,10.771,9.039,9.953,16.053c-4.402,37.772-19.75,70.951-44.384,95.951   C370.211,374.119,366.3,375.72,362.277,375.72z M322.592,295.993c0.067,0.614,0.664,3.67,5.872,9.637   c4.968,5.69,8.735,11.702,12.378,17.516c6.003,9.578,10.367,16.11,16.94,19.775c13.568-16.148,22.902-35.954,27.447-58.205   c-2.303-0.301-4.645-0.437-7.184-0.437C345.341,284.278,325.065,291.716,322.592,295.993z"/>
  	<path fill="var(--color-01)" d="M256,512c-68.38,0-132.668-26.63-181.019-74.981S0,324.38,0,256S26.63,123.332,74.981,74.981   S187.62,0,256,0s132.668,26.63,181.019,74.981c5.931,5.931,5.931,15.549,0,21.482c-5.933,5.931-15.548,5.928-21.482,0   C372.924,53.847,316.266,30.378,256,30.378S139.076,53.847,96.463,96.463C53.847,139.076,30.378,195.734,30.378,256   s23.469,116.924,66.085,159.537c42.615,42.616,99.271,66.085,159.537,66.085s116.924-23.469,159.537-66.085   c42.616-42.615,66.085-99.271,66.085-159.537c0-8.387,6.802-15.189,15.189-15.189S512,247.613,512,256   c0,68.381-26.628,132.668-74.981,181.019C388.668,485.37,324.38,512,256,512z"/>
		<path fill="var(--color-01)" d="M256,420.13c-0.371,0-0.728-0.005-1.088-0.017c-47.695-0.299-92.811-21.292-123.815-57.624  C105.801,332.848,91.87,295.03,91.87,256.002c0-33.515,10.037-65.754,29.025-93.226c18.541-26.827,44.302-47.349,74.499-59.35  c19.301-7.667,39.691-11.554,60.606-11.554c32.395,0,63.744,9.437,90.656,27.292c46.008,30.533,73.474,81.687,73.474,136.839  c0,6.385-0.378,12.861-1.124,19.246c-4.194,35.957-20.565,70.032-46.099,95.946c-5.889,5.978-15.505,6.047-21.48,0.158  c-5.977-5.887-6.045-15.505-0.158-21.48c20.809-21.119,34.15-48.872,37.563-78.148c0.609-5.222,0.919-10.512,0.919-15.724  c0-44.946-22.389-86.637-59.892-111.526c-21.916-14.539-47.457-22.226-73.86-22.226c-17.057,0-33.676,3.165-49.389,9.408  c-51.248,20.367-84.363,69.176-84.363,124.342c0,31.804,11.349,62.622,31.956,86.769c25.325,29.676,62.19,46.796,101.146,46.968  c0.202,0.002,0.404,0.006,0.605,0.015c8.348,0.049,15.165,6.831,15.165,15.189C271.121,413.329,264.387,420.13,256,420.13z"/>
		<circle fill="var(--color-02)" cx="85.727" cy="85.727" r="37.774"/>
		<path fill="var(--color-01)" d="M85.723,138.686c-14.147,0-27.448-5.509-37.452-15.513c-20.651-20.651-20.651-54.252,0-74.902  c10.004-10.004,23.305-15.513,37.452-15.513c14.146,0,27.447,5.509,37.45,15.513c20.651,20.651,20.651,54.252,0,74.902  C113.169,133.176,99.868,138.686,85.723,138.686z M85.723,63.135c-6.035,0-11.705,2.35-15.971,6.615  c-8.807,8.807-8.807,23.133,0,31.94c4.267,4.267,9.937,6.615,15.971,6.615c6.033,0,11.703-2.35,15.97-6.615  c8.807-8.807,8.807-23.133,0-31.94C97.426,65.485,91.754,63.135,85.723,63.135z"/>
		<circle fill="var(--color-02)" cx="426.282" cy="426.282" r="37.774"/>
		<path fill="var(--color-01)" d="M426.279,479.243c-14.147,0-27.448-5.509-37.452-15.513c-20.651-20.651-20.651-54.252,0-74.902  c10.004-10.004,23.305-15.513,37.452-15.513c14.146,0,27.447,5.509,37.45,15.513c20.651,20.651,20.651,54.252,0,74.902  C453.727,473.734,440.426,479.243,426.279,479.243z M426.279,403.693c-6.035,0-11.705,2.35-15.971,6.615  c-8.807,8.807-8.807,23.133,0,31.94c4.267,4.267,9.937,6.615,15.971,6.615c6.033,0,11.703-2.35,15.97-6.615  c8.807-8.807,8.807-23.133,0-31.94C437.984,406.042,432.312,403.693,426.279,403.693z"/>
		<circle fill="var(--color-02)" cx="426.282" cy="85.727" r="37.774"/>
		<path fill="var(--color-01)" d="M426.279,138.686c-14.147,0-27.448-5.509-37.452-15.513c-20.651-20.651-20.651-54.252,0-74.902  c10.004-10.004,23.305-15.513,37.452-15.513c14.146,0,27.447,5.509,37.45,15.513c20.651,20.651,20.651,54.252,0,74.902  C453.727,133.176,440.426,138.686,426.279,138.686z M426.279,63.135c-6.035,0-11.705,2.35-15.971,6.615  c-8.807,8.807-8.807,23.133,0,31.94c4.267,4.267,9.937,6.615,15.971,6.615c6.033,0,11.703-2.35,15.97-6.615  c8.807-8.807,8.807-23.133,0-31.94C437.984,65.485,432.312,63.135,426.279,63.135z"/>
		<circle fill="var(--color-02)" cx="85.727" cy="426.282" r="37.774"/>
		<path fill="var(--color-01)" d="M85.723,479.243c-14.147,0-27.448-5.509-37.452-15.513c-20.651-20.651-20.651-54.252,0-74.902  c10.004-10.004,23.305-15.513,37.452-15.513c14.146,0,27.447,5.509,37.45,15.513c20.651,20.651,20.651,54.252,0,74.902  C113.169,473.734,99.868,479.243,85.723,479.243z M85.723,403.693c-6.035,0-11.705,2.35-15.971,6.615  c-8.807,8.807-8.807,23.133,0,31.94c4.267,4.267,9.937,6.615,15.971,6.615c6.033,0,11.703-2.35,15.97-6.615  c8.807-8.807,8.807-23.133,0-31.94C97.426,406.042,91.754,403.693,85.723,403.693z"/>
  </symbol>

  <symbol id="cases-03" role="img" viewBox="0 0 512 512">
  	<path fill="var(--color-01)" d="M256.001,495.949c-64.093,0-124.349-24.958-169.669-70.279   c-45.321-45.32-70.279-105.576-70.279-169.669S41.011,131.65,86.33,86.33s105.577-70.278,169.671-70.278   S380.35,41.011,425.67,86.332c6.645,6.645,6.645,17.421,0,24.068c-6.647,6.645-17.419,6.644-24.068,0   c-38.892-38.892-90.6-60.31-145.603-60.31S149.289,71.508,110.397,110.4s-60.31,90.6-60.31,145.603s21.418,106.711,60.31,145.603   s90.6,60.31,145.603,60.31s106.711-21.418,145.603-60.31c40.863-40.863,62.764-97.427,60.089-155.192   c-0.436-9.39,6.824-17.351,16.211-17.787c9.324-0.456,17.351,6.822,17.787,16.211c3.118,67.308-22.404,133.219-70.021,180.836   C380.35,470.991,320.094,495.949,256.001,495.949z"/>
		<path fill="var(--color-01)" d="M413.635,430.652c-4.357,0-8.71-1.663-12.033-4.984L86.33,110.398   c-6.645-6.645-6.645-17.421,0-24.068c6.647-6.644,17.419-6.644,24.068,0L425.67,401.602c6.645,6.645,6.645,17.421,0,24.068   C422.346,428.992,417.991,430.652,413.635,430.652z"/>
		<path fill="var(--color-01)" d="M98.365,430.652c-4.357,0-8.71-1.663-12.033-4.984c-6.645-6.645-6.645-17.421,0-24.068   l175.685-175.685c6.647-6.644,17.419-6.644,24.068,0c6.645,6.645,6.645,17.421,0,24.068L110.398,425.67   C107.075,428.992,102.72,430.652,98.365,430.652z"/>
		<path fill="var(--color-02)" d="M163.439,115.497l-47.942,47.942c-11.56,11.56-30.305,11.56-41.865,0L25.69,115.497  c-11.56-11.56-11.56-30.305,0-41.865L73.632,25.69c11.56-11.56,30.305-11.56,41.865,0l47.942,47.942  C175,85.192,175,103.937,163.439,115.497z"/>
		<path fill="var(--color-01)" d="M94.563,189.128c-12.452,0-24.16-4.85-32.966-13.655L13.655,127.53C4.85,118.725,0,107.017,0,94.563  s4.85-24.16,13.655-32.966l47.942-47.942C70.404,4.85,82.112,0,94.563,0s24.162,4.85,32.966,13.655l47.942,47.942  c8.807,8.807,13.655,20.515,13.655,32.966s-4.85,24.16-13.655,32.966l-47.942,47.942  C118.725,184.278,107.017,189.128,94.563,189.128z M94.563,34.035c-3.363,0-6.523,1.31-8.899,3.688L37.723,85.665  c-4.908,4.908-4.908,12.891,0,17.799l47.942,47.942c2.376,2.377,5.538,3.688,8.899,3.688c3.361,0,6.523-1.31,8.898-3.688  l47.944-47.942c4.908-4.908,4.908-12.891,0-17.799l-47.942-47.942C101.086,35.346,97.926,34.035,94.563,34.035z"/>
		<path fill="var(--color-02)" d="M304.133,304.133L304.133,304.133c-26.583,26.583-69.684,26.583-96.267,0l0,0  c-26.583-26.583-26.583-69.684,0-96.265l0,0c26.583-26.583,69.684-26.583,96.265,0l0,0  C330.717,234.45,330.717,277.55,304.133,304.133z"/>
		<path fill="var(--color-01)" d="M256.001,341.089c-22.727,0-44.094-8.851-60.166-24.922c-33.176-33.176-33.176-87.157,0-120.333  c16.071-16.07,37.439-24.922,60.166-24.922s44.094,8.851,60.166,24.922c33.176,33.176,33.176,87.157,0,120.333  C300.095,332.236,278.728,341.089,256.001,341.089z M256.001,204.948c-13.636,0-26.457,5.309-36.099,14.953  c-19.905,19.904-19.905,52.293,0,72.199c9.642,9.644,22.463,14.953,36.099,14.953c13.636,0,26.457-5.309,36.099-14.953  c19.905-19.904,19.905-52.293,0-72.199C282.456,210.258,269.635,204.948,256.001,204.948z"/>
		<path fill="var(--color-02)" d="M486.312,438.368L438.37,486.31c-11.56,11.56-30.305,11.56-41.865,0l-47.942-47.942  c-11.56-11.56-11.56-30.305,0-41.865l47.942-47.942c11.56-11.56,30.305-11.56,41.865,0l47.942,47.942  C497.872,408.065,497.872,426.808,486.312,438.368z"/>
		<path fill="var(--color-01)" d="M417.437,512c-12.452,0-24.16-4.85-32.966-13.655l-47.942-47.942  c-8.807-8.807-13.655-20.515-13.655-32.966s4.85-24.16,13.655-32.966l47.942-47.942c8.807-8.807,20.515-13.655,32.966-13.655  c12.452,0,24.16,4.85,32.966,13.655l47.942,47.942c8.807,8.807,13.655,20.515,13.655,32.966s-4.85,24.16-13.655,32.966  l-47.942,47.942C441.596,507.152,429.888,512,417.437,512z M417.437,356.908c-3.363,0-6.523,1.31-8.899,3.688l-47.942,47.942  c-4.908,4.908-4.908,12.891,0,17.799l47.942,47.942c2.376,2.377,5.538,3.688,8.899,3.688c3.361,0,6.523-1.31,8.898-3.688  l47.942-47.942c4.908-4.908,4.908-12.891,0-17.799l-47.942-47.942C423.959,358.217,420.798,356.908,417.437,356.908z"/>
		<path fill="var(--color-02)" d="M396.503,163.439l-47.942-47.942c-11.56-11.56-11.56-30.305,0-41.865l47.942-47.942  c11.56-11.56,30.305-11.56,41.865,0l47.942,47.942c11.56,11.56,11.56,30.305,0,41.865l-47.942,47.942  C426.808,175,408.065,175,396.503,163.439z"/>
		<path fill="var(--color-01)" d="M417.437,189.128c-12.452,0-24.16-4.85-32.966-13.655l-47.942-47.944  c-8.807-8.807-13.655-20.515-13.655-32.966s4.85-24.16,13.655-32.966l47.942-47.942C393.277,4.85,404.983,0,417.437,0  c12.453,0,24.16,4.85,32.966,13.655l47.942,47.942C507.152,70.404,512,82.112,512,94.563s-4.85,24.16-13.655,32.966l-47.942,47.942  C441.596,184.278,429.888,189.128,417.437,189.128z M417.437,34.035c-3.363,0-6.523,1.31-8.899,3.688l-47.942,47.942  c-4.908,4.908-4.908,12.891,0,17.799l47.942,47.942c2.376,2.377,5.538,3.688,8.899,3.688c3.361,0,6.523-1.31,8.898-3.688  l47.942-47.942c4.908-4.908,4.908-12.891,0-17.799l-47.942-47.942C423.959,35.346,420.798,34.035,417.437,34.035z"/>
		<path fill="var(--color-02)" d="M73.632,486.312L25.69,438.37c-11.56-11.56-11.56-30.305,0-41.865l47.942-47.942  c11.56-11.56,30.305-11.56,41.865,0l47.942,47.942c11.56,11.56,11.56,30.305,0,41.865l-47.942,47.942  C103.937,497.872,85.192,497.872,73.632,486.312z"/>
		<path fill="var(--color-01)" d="M94.563,512c-12.452,0-24.16-4.85-32.966-13.655l-47.942-47.942C4.85,441.596,0,429.888,0,417.437  c0-12.452,4.85-24.16,13.655-32.966l47.942-47.942c8.807-8.807,20.515-13.655,32.966-13.655s24.16,4.85,32.966,13.655l47.942,47.942  c8.807,8.807,13.655,20.515,13.655,32.966c0,12.452-4.85,24.16-13.655,32.966l-47.942,47.942  C118.725,507.152,107.017,512,94.563,512z M94.563,356.908c-3.363,0-6.523,1.31-8.899,3.688l-47.942,47.942  c-4.908,4.908-4.908,12.891,0,17.799l47.942,47.942c2.376,2.377,5.538,3.688,8.899,3.688c3.361,0,6.523-1.31,8.898-3.688  l47.942-47.942c4.908-4.908,4.908-12.891,0-17.799l-47.942-47.942C101.086,358.217,97.926,356.908,94.563,356.908z"/>

  </symbol>

	<symbol id="cases-04" role="img" viewBox="0 0 512 512">
		<circle fill="var(--color-02)" cx="255.999" cy="256" r="112.533"/>
    <path fill="var(--color-01)" d="M256.001,382.601c-69.807,0-126.6-56.793-126.6-126.6s56.793-126.6,126.6-126.6   s126.6,56.793,126.6,126.6S325.808,382.601,256.001,382.601z M256.001,157.535c-54.295,0-98.467,44.172-98.467,98.467   s44.172,98.467,98.467,98.467s98.467-44.172,98.467-98.467S310.295,157.535,256.001,157.535z"/>
    <path fill="var(--color-01)" d="M279.385,512.001h-46.77c-16.208,0-29.394-13.186-29.394-29.394v-19.214   c-19.925-5.042-38.866-12.891-56.545-23.432l-13.593,13.594c-5.493,5.493-14.4,5.493-19.894,0c-5.494-5.493-5.493-14.4,0-19.895   l21.552-21.552c4.755-4.753,12.207-5.48,17.79-1.73c20.54,13.797,43.238,23.202,67.465,27.956   c6.599,1.296,11.357,7.08,11.357,13.804v30.468c0,0.695,0.565,1.26,1.26,1.26h46.77c0.695,0,1.26-0.565,1.26-1.26v-30.468   c0-6.724,4.759-12.508,11.357-13.804c24.227-4.755,46.926-14.16,67.465-27.956c5.583-3.749,13.037-3.023,17.79,1.73l21.552,21.552   c0.491,0.492,1.29,0.491,1.781,0l33.072-33.072c0.491-0.491,0.491-1.29,0-1.781l-21.552-21.552   c-4.753-4.755-5.479-12.208-1.73-17.79c13.797-20.54,23.202-43.238,27.956-67.465c1.296-6.599,7.08-11.357,13.804-11.357h30.468   c0.695,0,1.26-0.565,1.26-1.26v-46.77c0-0.695-0.565-1.26-1.26-1.26h-30.468c-6.724,0-12.508-4.759-13.804-11.357   c-4.755-24.227-14.16-46.926-27.956-67.465c-3.749-5.582-3.023-13.036,1.73-17.79l21.552-21.552c5.493-5.493,14.4-5.493,19.895,0   c5.494,5.493,5.493,14.4,0,19.894l-13.594,13.593c10.542,17.678,18.389,36.62,23.432,56.545h19.214   c16.208,0,29.394,13.186,29.394,29.394v46.77c0,16.208-13.186,29.394-29.394,29.394h-19.214   c-5.042,19.925-12.891,38.866-23.432,56.545l13.594,13.593c11.46,11.46,11.46,30.107,0,41.568l-33.072,33.072   c-11.46,11.46-30.107,11.459-41.568,0l-13.593-13.594c-17.678,10.542-36.62,18.389-56.545,23.432v19.214   C308.779,498.816,295.593,512.001,279.385,512.001z"/>
    <path fill="var(--color-01)" d="M68.392,402.931c-3.6,0-7.201-1.373-9.947-4.12c-5.493-5.493-5.493-14.4,0-19.895l13.594-13.593   c-10.542-17.678-18.389-36.62-23.432-56.545H29.394C13.186,308.78,0,295.593,0,279.386v-46.77   c0-16.208,13.186-29.394,29.394-29.394h19.214c5.041-19.925,12.891-38.866,23.432-56.545l-13.594-13.593   c-11.46-11.46-11.46-30.107,0-41.568l33.072-33.072c11.46-11.46,30.107-11.459,41.568,0l13.593,13.594   c17.678-10.54,36.618-18.389,56.545-23.432V29.394c-0.001-16.208,13.183-29.394,29.391-29.394h46.77   c16.208,0,29.394,13.186,29.394,29.394v19.214c19.927,5.043,38.868,12.892,56.545,23.432l13.593-13.594   c5.493-5.493,14.4-5.493,19.895,0s5.493,14.4,0,19.894L377.26,99.892c-4.755,4.753-12.208,5.48-17.79,1.73   c-20.539-13.795-43.237-23.2-67.465-27.956c-6.599-1.296-11.357-7.08-11.357-13.804V29.394c0-0.695-0.565-1.26-1.26-1.26h-46.77   c-0.695,0-1.26,0.565-1.26,1.26v30.468c0,6.724-4.759,12.508-11.357,13.804c-24.228,4.755-46.928,14.161-67.465,27.956   c-5.582,3.75-13.036,3.024-17.79-1.73L113.19,78.339c-0.491-0.494-1.29-0.492-1.781,0l-33.071,33.072   c-0.491,0.491-0.491,1.29,0,1.781l21.552,21.552c4.753,4.755,5.479,12.208,1.73,17.79c-13.797,20.54-23.202,43.238-27.956,67.465   c-1.296,6.599-7.08,11.357-13.804,11.357H29.392c-0.695,0-1.26,0.565-1.26,1.26v46.77c0,0.695,0.565,1.26,1.26,1.26h30.468   c6.724,0,12.508,4.759,13.804,11.357c4.755,24.227,14.16,46.926,27.956,67.465c3.749,5.582,3.023,13.036-1.73,17.79l-21.552,21.552   C75.591,401.558,71.992,402.931,68.392,402.931z"/>
  </symbol>

  <symbol id="trimplement-logo--small" role="img" viewBox="0 0 512 512">
    <path d="M483.3,452.9c-17.8-69-45.4-126.1-82.2-169.6c-1.2-1.5-2.5-2.8-3.8-4.2C371.7,326.3,263.7,484.3,0,410.9
			c0,0,130,194.6,483.8,43.9L483.3,452.9z"/>
		<path d="M291.5,7.5L290,8.9c-50.7,49.9-86.1,102.5-105.3,156.2c-0.6,1.8-1.1,3.5-1.7,5.3
			c53.7-1.2,244,13.8,312.4,279.4C495.4,449.8,598.3,239.6,291.5,7.5z"/>
		<path d="M3.3,398.8c68.5,19.1,131.6,23.6,187.5,13.4c1.9-0.3,3.6-0.8,5.5-1.2c-27.9-46.1-110-218.9,85-411
			c0,0-233,15.7-279.8,398.3L3.3,398.8z"/>
  </symbol>

  <symbol id="facebook-01" role="img" viewBox="0 0 512 512">
    <path d="M301.5,104.9c4.4-4.4,10.3-6.9,16.6-6.9h62.1c9.9,0,18-8.1,18-18V18c0-9.9-8.1-18-18-18h-62.1
			c-66.9,0.1-121.4,54.6-121.4,121.5v64.8h-64.8c-9.9,0-18,8.1-18,18v62.1c0,9.9,8.1,18,18,18h64.8V494c0,9.9,8.1,18,18,18h62.1
			c9.9,0,18-8.1,18-18V284.3h64.8c7.7,0,14.6-4.9,17-12.3l20.7-62.1c1.5-4.5,1.2-9.4-1-13.7c-2.1-4.3-5.8-7.5-10.4-9
			c-1.8-0.6-3.7-0.9-5.7-0.9h-85.5v-64.8C294.7,115.2,297.1,109.3,301.5,104.9z"/>
  </symbol>

  <symbol id="linkedin-01" role="img" viewBox="0 0 512 512">
  	<path d="M61.813,5.424c33.545,0,61.793,28.248,61.793,61.793c0,35.31-30.014,62.676-61.793,61.793   C29.151,129.893,0.02,102.527,0.02,67.217C-0.863,32.789,27.386,5.424,61.813,5.424"/>
  	<path d="M96.241,508.596H25.62c-9.71,0-17.655-7.945-17.655-17.655V181.976   c0-9.71,7.062-17.655,16.772-17.655h71.503c9.71,0,17.655,7.945,17.655,17.655v309.848   C113.896,500.651,105.951,508.596,96.241,508.596"/>
  	<path d="M511.137,272.017c0-65.324-48.552-116.524-113.876-116.524h-18.538   c-35.31,0-69.738,16.772-88.276,44.138c-6.179,6.179-8.828,8.828-8.828,8.828v-35.31c0-3.531-5.297-8.828-8.828-8.828h-88.276   c-3.531,0-8.828,3.531-8.828,7.945v329.269c0,3.531,5.297,7.062,8.828,7.062h97.103c3.531,0,8.828-3.531,8.828-7.062V310.858   c0-32.662,24.717-60.028,57.379-60.91c16.772,0,31.779,6.179,43.255,17.655c10.593,10.593,15.007,25.6,15.007,42.372v189.793   c0,3.531,5.297,8.828,8.828,8.828h88.276c3.531,0,8.828-5.297,8.828-8.828V272.017H511.137z"/>
  </symbol>

  <symbol id="twitter-01" role="img" viewBox="0 0 512 512">
    <path d="M487.84,92.931c-3.262-3.567-8.514-4.494-12.8-2.261c-4.406,2.002-8.964,3.65-13.632,4.928  c7.28-9.316,12.777-19.897,16.213-31.211c1.513-5.693-1.876-11.535-7.569-13.048c-3.04-0.808-6.281-0.233-8.857,1.571  c-16.219,8.777-33.458,15.52-51.328,20.075c-36.787-34.722-92.823-39.05-134.507-10.389c-32.109,21.71-49.786,59.232-46.08,97.813  c-69.603-5.931-133.642-40.422-176.896-95.275c-2.222-2.688-5.584-4.168-9.067-3.989c-3.532,0.212-6.728,2.162-8.533,5.205  c-14.68,23.997-18.933,52.944-11.776,80.149c3.67,13.978,9.961,27.132,18.539,38.763c-3.864-1.892-7.5-4.218-10.837-6.933  c-4.575-3.711-11.292-3.011-15.004,1.564c-1.54,1.899-2.382,4.269-2.383,6.714c0.634,39.467,22.306,75.588,56.832,94.72  c-4.658-0.572-9.256-1.557-13.739-2.944c-5.641-1.697-11.59,1.5-13.287,7.141c-0.74,2.461-0.567,5.107,0.487,7.451  c14.985,33.567,44.943,58.084,80.811,66.133c-34.173,19.28-73.523,27.381-112.533,23.168c-5.058-0.646-9.85,2.429-11.371,7.296  c-1.568,4.829,0.484,10.093,4.907,12.587c47.765,28.38,102.102,43.82,157.653,44.8c53.294-0.195,105.345-16.113,149.632-45.76  c84.544-56.107,137.237-156.843,129.899-246.976c18.077-13.381,33.758-29.725,46.379-48.341  C491.587,101.802,491.114,96.488,487.84,92.931z"/>
  </symbol>

  <symbol id="xing-01" role="img" viewBox="0 0 512 512">
    <path d="M499.9,5.3C498,2,494.5,0,490.7,0H384c-3.8,0-7.4,2-9.3,5.4L204.1,304c-1.8,3.3-1.8,7.2,0,10.5l106.7,192
			c1.9,3.4,5.4,5.5,9.3,5.5h106.7c5.9,0,10.7-4.8,10.7-10.7c0-1.8-0.5-3.6-1.3-5.2L332.2,309.3L499.9,16
			C501.8,12.7,501.8,8.6,499.9,5.3z"/>
		<path d="M222.5,197.2l-64-106.7c-1.9-3.2-5.4-5.2-9.2-5.2H42.7C36.8,85.3,32,90.1,32,96c0,1.9,0.5,3.8,1.5,5.5
			l60.8,101.3L12.1,346.7c-2.9,5.1-1.1,11.6,4,14.6c1.6,0.9,3.4,1.4,5.3,1.4H128c3.8,0,7.4-2,9.3-5.4L222.6,208
			C224.5,204.6,224.5,200.5,222.5,197.2z"/>
  </symbol>

</svg>