<?xml version="1.0" encoding="utf-8"?>
<!-- Generator: Adobe Illustrator 20.1.0, SVG Export Plug-In . SVG Version: 6.00 Build 0)  -->
<svg version="1.1" id="Слой_1" xmlns="http://www.w3.org/2000/svg" xmlns:xlink="http://www.w3.org/1999/xlink" x="0px" y="0px"
	 viewBox="0 0 88.8 59" style="enable-background:new 0 0 88.8 59;" xml:space="preserve">
<style type="text/css">
	.st0{display:none;}
	.st1{display:inline;}
	.st2{fill:#4287C4;}
	.st3{fill:#2165AB;}
	.st4{fill:#2C3675;}
	.st5{fill:#0C569A;}
	.st6{fill:#1A4B9A;}
	.st7{fill:#3DB9E9;}
	.st8{fill:#88D3E6;}
	.st9{fill:#5DC9EB;}
	.st10{fill:#A7DDE8;}
	.st11{fill:#A0DBED;}
	.st12{fill:#449FD6;}
	.st13{fill:#FECF3B;}
	.st14{fill:#FAF188;}
	.st15{fill:#F58853;}
	.st16{fill:#F9A338;}
	.st17{fill:#C75C33;}
	.st18{fill:#E26233;}
	.st19{fill:#F58636;}
	.st20{fill:#F79A46;}
	.st21{fill:#D76334;}
	.st22{fill:#EA6B34;}
	.st23{fill:#F8A251;}
	.st24{fill:#F37B34;}
	.st25{fill:#ED4230;}
	.st26{fill:#E33930;}
	.st27{fill:#CF3330;}
	.st28{fill:#EF5331;}
	.st29{fill:#274382;}
	.st30{fill:#273A6D;}
	.st31{fill:#FDE43C;}
	.st32{fill:#E6803E;}
	.st33{fill:#F37B35;}
	.st34{fill:#3A69AE;}
	.st35{fill:#2A3F92;}
	.st36{fill:#CF5A33;}
	.st37{fill:#F58D46;}
	.st38{fill:#FFFFFF;}
	.st39{fill:#F2F2F3;}
	.st40{fill:#E6E6E6;}
	.st41{fill:#86D2E2;}
	.st42{fill:#73C7EE;}
	.st43{fill:#2B3D86;}
	.st44{fill:#4EA1D6;}
	.st45{fill:#459ED5;}
	.st46{fill:#2B3C7F;}
	.st47{fill:#2B5DA6;}
	.st48{fill:#3C73B5;}
	.st49{fill:#94D7EB;}
</style>
<g class="st0">
	<g class="st1">
		<polygon class="st2" points="42.5,15.8 32.7,16 28.1,16.1 22.9,24.3 25.4,24.2 25.4,24.3 40.2,18.3 		"/>
		<polygon class="st3" points="36,22.6 40.2,18.3 25.4,24.3 22.8,28.5 29.2,29.6 		"/>
		<polygon class="st4" points="12.9,44.3 13.9,45.3 20.8,38.2 16.1,39.2 		"/>
		<polygon class="st4" points="9.3,50.2 13.9,45.3 12.9,44.3 		"/>
		<polygon class="st5" points="22.8,28.5 21.3,30.7 23.8,35.1 29.2,29.6 		"/>
		<polygon class="st6" points="19.4,33.8 16.1,39.2 20.8,38.2 22.6,36.3 23.8,35.1 21.3,30.7 		"/>
		<polygon class="st7" points="24.4,16.1 17.2,16.2 17,16.1 5.1,19.2 3.1,22 9.1,24.3 		"/>
		<polygon class="st7" points="8.7,24.5 9.3,24.5 9.5,24.5 9.1,24.3 		"/>
		<polygon class="st8" points="17.3,16 21.1,10.7 12.2,9.2 11,10.9 17,16.1 		"/>
		<polygon class="st9" points="11,10.9 5.9,18.1 5.1,19.2 17,16.1 		"/>
		<polygon class="st2" points="3.1,22 1.2,24.6 8.7,24.5 9.1,24.3 		"/>
		<polygon class="st10" points="28.2,0.7 18.9,0 22,9.4 		"/>
		<polygon class="st11" points="22,9.4 18.9,0 18.8,0 12.2,9.2 21.1,10.7 		"/>
		<polygon class="st12" points="24.4,16.1 9.1,24.3 9.5,24.5 22.9,24.3 28.1,16.1 		"/>
		<polygon class="st7" points="17.2,16.2 17.3,16 17,16.1 		"/>
	</g>
	<g class="st1">
		<polygon class="st13" points="14.1,48.3 18.4,49.4 14.1,54.5 		"/>
		<polygon class="st14" points="14.1,48.3 11.1,51.9 14.1,54.5 		"/>
		<polygon class="st13" points="14.1,48.3 11.1,51.9 8.8,49.9 		"/>
		<polygon class="st15" points="14.1,48.3 11.8,46.4 8.8,49.9 		"/>
		<polygon class="st14" points="14.1,48.3 18.4,49.4 17.5,44.3 		"/>
		<polygon class="st13" points="14.1,48.3 11.8,46.4 17.5,44.3 		"/>
		<polygon class="st16" points="15.2,42.4 11.8,46.4 17.5,44.3 		"/>
		<polygon class="st17" points="9.5,44.4 7.7,40.3 3.4,45.4 		"/>
		<polygon class="st18" points="9.5,44.4 6.5,48 3.4,45.4 		"/>
		<polygon class="st19" points="9.5,44.4 6.5,48 8.8,49.9 		"/>
		<polygon class="st20" points="9.5,44.4 11.8,46.4 8.8,49.9 		"/>
		<polygon class="st21" points="9.5,44.4 7.7,40.3 12.9,40.4 		"/>
		<polygon class="st22" points="9.5,44.4 11.8,46.4 12.9,40.4 		"/>
		<polygon class="st15" points="15.2,42.4 11.8,46.4 12.9,40.4 		"/>
		<rect x="5.5" y="54.4" transform="matrix(0.6497 -0.7601 0.7601 0.6497 -38.8645 26.5228)" class="st17" width="7.6" height="2"/>
		<rect x="-0.6" y="49.2" transform="matrix(0.65 -0.7599 0.7599 0.65 -37.018 20.0191)" class="st17" width="7.6" height="2"/>
	</g>
</g>
<g class="st0">
	<g class="st1">
		<g>
			<polygon class="st23" points="2.8,7.1 2.8,10.2 4.7,8.6 			"/>
			<polygon class="st24" points="2.8,7.1 7.9,3.5 4.7,8.6 			"/>
			<polygon class="st25" points="9.8,7.5 7.9,3.5 4.7,8.6 			"/>
			<polygon class="st26" points="9.8,7.5 7.9,3.5 12.7,1.2 			"/>
			<polygon class="st27" points="9.8,7.5 13.6,5.5 12.7,1.2 			"/>
			<polygon class="st26" points="17.6,4.6 13.6,5.5 12.7,1.2 			"/>
			<polygon class="st28" points="17.6,4.6 17.8,0.1 12.7,1.2 			"/>
			<polygon class="st23" points="17.6,4.6 17.8,0.1 20.7,4.4 			"/>
			<polygon class="st24" points="22.8,0 17.8,0.1 20.7,4.4 			"/>
			<polygon class="st23" points="22.8,0 23.8,4.5 20.7,4.4 			"/>
			<polygon class="st24" points="22.8,0 23.8,4.5 26.5,0.6 			"/>
			<polygon class="st28" points="27.5,5.5 23.8,4.5 26.5,0.6 			"/>
			<polygon class="st25" points="27.5,5.5 31.5,2.3 26.5,0.6 			"/>
			<polygon class="st26" points="27.5,5.5 31.5,2.3 31.9,7.6 			"/>
			<polygon class="st27" points="35.8,4.8 31.5,2.3 31.9,7.6 			"/>
			<polygon class="st26" points="35.8,4.8 34.6,9.7 31.9,7.6 			"/>
			<polygon class="st25" points="35.8,4.8 34.6,9.7 38.8,7.5 			"/>
			<polygon class="st28" points="36,10.7 34.6,9.7 38.8,7.5 			"/>
			<polygon class="st24" points="36,10.7 39,9.4 38.8,7.5 			"/>
			<polygon class="st23" points="36,10.7 39,9.4 37.5,10.9 			"/>
			<polygon class="st24" points="4.7,11.1 2.8,10.2 4.7,8.6 			"/>
			<polygon class="st28" points="4.7,11.1 9.8,7.5 4.7,8.6 			"/>
		</g>
		<g>
			<polygon class="st24" points="22.2,7.8 18.7,7.9 20.7,10.9 			"/>
			<g>
				<polygon class="st23" points="8.2,12.8 8.2,15 9.5,13.9 				"/>
				<polygon class="st24" points="8.2,12.8 11.7,10.3 9.5,13.9 				"/>
				<polygon class="st25" points="13.1,13.1 11.7,10.3 9.5,13.9 				"/>
				<polygon class="st26" points="13.1,13.1 11.7,10.3 15.2,8.7 				"/>
				<polygon class="st27" points="13.1,13.1 15.8,11.7 15.2,8.7 				"/>
				<polygon class="st26" points="18.6,11.1 15.8,11.7 15.2,8.7 				"/>
				<polygon class="st28" points="18.6,11.1 18.7,7.9 15.2,8.7 				"/>
				<polygon class="st23" points="18.6,11.1 18.7,7.9 20.7,10.9 				"/>
				<polygon class="st23" points="22.2,7.8 22.9,11 20.7,10.9 				"/>
				<polygon class="st24" points="22.2,7.8 22.9,11 24.8,8.2 				"/>
				<polygon class="st28" points="25.6,11.7 22.9,11 24.8,8.2 				"/>
				<polygon class="st25" points="25.6,11.7 28.3,9.4 24.8,8.2 				"/>
				<polygon class="st26" points="25.6,11.7 28.3,9.4 28.6,13.2 				"/>
				<polygon class="st27" points="31.3,11.2 28.3,9.4 28.6,13.2 				"/>
				<polygon class="st26" points="31.3,11.2 30.5,14.6 28.6,13.2 				"/>
				<polygon class="st25" points="31.3,11.2 30.5,14.6 33.4,13.1 				"/>
				<polygon class="st28" points="31.5,15.3 30.5,14.6 33.4,13.1 				"/>
				<polygon class="st24" points="31.5,15.3 33.6,14.4 33.4,13.1 				"/>
				<polygon class="st23" points="31.5,15.3 33.6,14.4 32.5,15.4 				"/>
				<polygon class="st24" points="9.5,15.6 8.2,15 9.5,13.9 				"/>
				<polygon class="st28" points="9.5,15.6 13.1,13.1 9.5,13.9 				"/>
			</g>
		</g>
	</g>
	<g class="st1">
		<g>
			<polygon class="st6" points="1,59 1,50.6 8.8,59 			"/>
			<polygon class="st3" points="8.8,50.6 1,50.6 8.8,59 			"/>
			<polygon class="st29" points="16.7,59 16.7,50.6 8.8,59 			"/>
			<polygon class="st6" points="8.8,50.6 16.7,50.6 8.8,59 			"/>
			<polygon class="st9" points="1,42.2 1,33.9 8.8,42.2 			"/>
			<polygon class="st7" points="9.8,33.9 1,33.9 8.8,42.2 			"/>
			<polygon class="st12" points="9.8,33.9 1,33.9 8.8,26.7 			"/>
			<polygon class="st7" points="9.8,33.9 16.7,33.9 8.8,26.7 			"/>
			<polygon class="st9" points="15,20.8 16.7,33.9 8.8,26.7 			"/>
			<polygon class="st8" points="15,20.8 16.7,33.9 25.6,33.9 			"/>
			<polygon class="st10" points="15,20.8 20.8,15 25.6,33.9 			"/>
			<polygon class="st8" points="28.4,22.3 20.8,15 25.6,33.9 			"/>
			<polygon class="st9" points="28.4,22.3 32.3,33.9 25.6,33.9 			"/>
			<polygon class="st7" points="28.4,22.3 32.3,33.9 41.3,33.9 			"/>
			<polygon class="st7" points="16.7,42.2 16.7,33.9 8.8,42.2 			"/>
			<polygon class="st8" points="9.8,33.9 16.7,33.9 8.8,42.2 			"/>
			<polygon class="st7" points="16.7,42.2 16.7,33.9 25.6,42.2 			"/>
			<polygon class="st9" points="25.6,33.9 16.7,33.9 25.6,42.2 			"/>
			<polygon class="st9" points="33.4,42.2 32.3,33.9 25.6,42.2 			"/>
			<polygon class="st2" points="33.4,42.2 32.3,33.9 41.3,42.2 			"/>
			<polygon class="st3" points="41.3,33.9 32.3,33.9 41.3,42.2 			"/>
			<polygon class="st8" points="25.6,33.9 32.3,33.9 25.6,42.2 			"/>
			<polygon class="st12" points="1,42.2 1,50.6 8.8,42.2 			"/>
			<polygon class="st2" points="8.8,50.6 1,50.6 8.8,42.2 			"/>
			<polygon class="st12" points="16.7,42.2 16.7,50.6 8.8,42.2 			"/>
			<rect x="16.7" y="42.2" class="st3" width="9" height="3.1"/>
			<polygon class="st3" points="8.8,50.6 16.7,50.6 8.8,42.2 			"/>
			<polygon class="st29" points="25.6,59 25.6,50.6 33.4,59 			"/>
			<polygon class="st3" points="33.4,50.6 25.6,50.6 33.4,59 			"/>
			<polygon class="st30" points="41.3,59 41.3,50.6 33.4,59 			"/>
			<polygon class="st29" points="33.4,50.6 41.3,50.6 33.4,59 			"/>
			<polygon class="st8" points="25.6,42.2 25.6,50.6 33.4,42.2 			"/>
			<polygon class="st2" points="33.4,50.6 25.6,50.6 33.4,42.2 			"/>
			<polygon class="st3" points="41.3,42.2 41.3,50.6 33.4,42.2 			"/>
			<polygon class="st6" points="33.4,50.6 41.3,50.6 33.4,42.2 			"/>
		</g>
		<polygon class="st3" points="32.3,25.7 32.3,21.2 34.8,21.2 34.7,28 		"/>
	</g>
</g>
<g>
	<g>
		<g>
			<polygon class="st31" points="0.1,26.1 0.1,37.5 15.4,26.2 			"/>
			<polygon class="st13" points="15.5,37.7 0.1,37.5 15.4,26.2 			"/>
			<polygon class="st20" points="15.5,37.7 0.1,37.5 0.1,45.2 			"/>
			<polygon class="st15" points="15.5,37.7 16.8,47.6 0.1,45.2 			"/>
			<polygon class="st18" points="15.5,37.7 16.8,47.6 33.8,41.6 			"/>
			<polygon class="st32" points="44.6,47.6 16.8,47.6 33.8,41.6 			"/>
			<polygon class="st20" points="44.6,47.6 16.8,47.6 30.7,51.2 			"/>
			<polygon class="st33" points="44.6,47.6 62.5,51.2 30.7,51.2 			"/>
			<polygon class="st18" points="0.1,51.2 16.8,47.6 30.7,51.2 			"/>
			<polygon class="st9" points="0.1,51.2 10.7,59 30.7,51.2 			"/>
			<polygon class="st7" points="25.5,59 10.7,59 30.7,51.2 			"/>
			<polygon class="st12" points="25.5,59 37.5,59 30.7,51.2 			"/>
			<polygon class="st34" points="48.1,51.2 37.5,59 30.7,51.2 			"/>
			<polygon class="st35" points="48.1,51.2 37.5,59 54.6,59 			"/>
			<polygon class="st34" points="48.1,51.2 67.5,51.2 54.6,59 			"/>
			<polygon class="st12" points="74.4,59 67.5,51.2 54.6,59 			"/>
			<polygon class="st9" points="74.4,59 67.5,51.2 84.7,51.2 			"/>
			<polygon class="st8" points="74.4,59 88.8,59 84.7,51.2 			"/>
			<polygon class="st34" points="88.8,51.2 88.8,59 84.7,51.2 			"/>
			<polygon class="st8" points="0.1,51.2 10.7,59 0,59 			"/>
			<polygon class="st32" points="15.5,37.7 32,31.9 33.8,41.6 			"/>
			<polygon class="st15" points="44.6,37.7 32,31.9 33.8,41.6 			"/>
			<polygon class="st18" points="44.6,37.7 44.6,47.6 33.8,41.6 			"/>
			<polygon class="st15" points="44.6,37.7 44.6,47.6 62.5,45.2 			"/>
			<polygon class="st20" points="62.5,51.2 44.6,47.6 62.5,45.2 			"/>
			<polygon class="st32" points="62.5,51.2 78.1,45.2 62.5,45.2 			"/>
			<polygon class="st18" points="62.5,51.2 78.1,45.2 88.8,51.2 			"/>
			<polygon class="st32" points="0.1,51.2 16.8,47.6 0.1,45.2 			"/>
			<polygon class="st20" points="15.5,37.7 24,26.1 15.4,26.2 			"/>
			<polygon class="st15" points="15.5,37.7 24,26.1 32,31.9 			"/>
			<polygon class="st13" points="44.6,26.1 24,26.1 32,31.9 			"/>
			<polygon class="st32" points="44.6,26.1 44.6,37.7 32,31.9 			"/>
			<polygon class="st18" points="44.6,26.1 44.6,37.7 60.4,34.8 			"/>
			<polygon class="st32" points="62.5,45.2 44.6,37.7 60.4,34.8 			"/>
			<polygon class="st36" points="44.6,26.1 67.5,26.1 60.4,34.8 			"/>
			<polygon class="st37" points="82,33 67.5,26.1 60.4,34.8 			"/>
			<polygon class="st20" points="82,33 78.1,45.2 60.4,34.8 			"/>
			<polygon class="st15" points="62.5,45.2 78.1,45.2 60.4,34.8 			"/>
			<polygon class="st18" points="82,33 67.5,26.1 88.8,26.1 			"/>
			<polygon class="st32" points="82,33 88.8,40 88.8,26.1 			"/>
			<polygon class="st15" points="82,33 88.8,40 78.1,45.2 			"/>
			<polygon class="st20" points="88.8,51.2 88.8,40 78.1,45.2 			"/>
			<rect x="78.5" y="53" class="st38" width="4.2" height="4.2"/>
			<rect x="72.8" y="53" class="st38" width="4.2" height="4.2"/>
			<rect x="67.1" y="53" class="st38" width="4.2" height="4.2"/>
		</g>
		<rect x="1.9" y="53.9" class="st31" width="64.2" height="1.7"/>
	</g>
	<g>
		<polygon class="st38" points="3.9,37.5 3.9,40 12.1,37.5 		"/>
		<polygon class="st39" points="23.2,40 3.9,40 12.1,37.5 		"/>
		<polygon class="st40" points="23.2,40 35.9,37.6 12.1,37.5 		"/>
		<polygon class="st38" points="23.2,40 35.9,37.6 47.6,40 		"/>
		<polygon class="st39" points="59.2,37.5 35.9,37.6 47.6,40 		"/>
		<polygon class="st40" points="59.2,37.5 71.9,40 47.6,40 		"/>
		<polygon class="st38" points="59.2,37.5 71.9,40 78.9,37.6 		"/>
		<polygon class="st39" points="84.7,40 71.9,40 78.9,37.6 		"/>
		<polygon class="st40" points="84.7,40 84.7,37.6 78.9,37.6 		"/>
	</g>
	<g>
		<polygon class="st38" points="3.9,41.4 3.9,43.9 12.1,41.4 		"/>
		<polygon class="st39" points="23.2,43.9 3.9,43.9 12.1,41.4 		"/>
		<polygon class="st40" points="23.2,43.9 35.9,41.5 12.1,41.4 		"/>
		<polygon class="st38" points="23.2,43.9 35.9,41.5 47.6,43.9 		"/>
		<polygon class="st39" points="59.2,41.4 35.9,41.5 47.6,43.9 		"/>
		<polygon class="st40" points="59.2,41.4 71.9,43.9 47.6,43.9 		"/>
		<polygon class="st38" points="59.2,41.4 71.9,43.9 78.9,41.5 		"/>
		<polygon class="st39" points="84.7,43.9 71.9,43.9 78.9,41.5 		"/>
		<polygon class="st40" points="84.7,43.9 84.7,41.5 78.9,41.5 		"/>
	</g>
	<g>
		<polygon class="st38" points="3.9,45.2 3.9,47.7 12.1,45.2 		"/>
		<polygon class="st39" points="23.2,47.7 3.9,47.7 12.1,45.2 		"/>
		<polygon class="st40" points="23.2,47.7 35.9,45.3 12.1,45.2 		"/>
		<polygon class="st38" points="23.2,47.7 35.9,45.3 47.6,47.7 		"/>
		<polygon class="st39" points="59.2,45.2 35.9,45.3 47.6,47.7 		"/>
		<polygon class="st40" points="59.2,45.2 71.9,47.7 47.6,47.7 		"/>
		<polygon class="st38" points="59.2,45.2 71.9,47.7 78.9,45.3 		"/>
		<polygon class="st39" points="84.7,47.7 71.9,47.7 78.9,45.3 		"/>
		<polygon class="st40" points="84.7,47.7 84.7,45.3 78.9,45.3 		"/>
	</g>
</g>
<polygon class="st41" points="58,5.1 55.3,4.4 55.2,4.6 53,9.4 58,10.5 "/>
<polygon class="st3" points="58,18.2 58,16 55.2,17.4 "/>
<polyline class="st42" points="58,0 55.3,4.4 58,5.1 58,0 "/>
<polygon class="st3" points="53,13.9 53,13.9 55.2,17.4 55.2,17.4 58,16 58,13 "/>
<polygon class="st7" points="58,10.5 53,9.4 53,9.4 53,13.9 58,13 "/>
<polygon class="st2" points="58,5.1 60.7,4.4 60.8,4.6 63,9.4 58,10.5 "/>
<polygon class="st4" points="58,18.2 58,16 60.8,17.4 "/>
<polyline class="st7" points="58,0 60.7,4.4 58,5.1 58,0 "/>
<polygon class="st43" points="63,13.9 63,13.9 60.8,17.4 60.8,17.4 58,16 58,13 "/>
<polygon class="st3" points="58,10.5 63,9.4 63,9.4 63,13.9 58,13 "/>
<g>
	<g>
		<polygon class="st44" points="38.1,8 36.9,6.8 36.5,7.1 36.7,8.8 		"/>
		<polygon class="st7" points="40.8,2.3 39.3,1.8 38.5,4.7 40.4,3.9 		"/>
		<polygon class="st11" points="43.2,8.6 43.6,7.1 42.5,6.8 41.9,8.3 		"/>
		<polygon class="st9" points="38.9,7.5 39.6,7.7 40.6,4.7 40.1,5 40.4,3.9 38.5,4.7 38.1,6.1 36.9,6.8 38.1,8 		"/>
		<polygon class="st7" points="41.9,8.3 42.5,6.8 40.9,6.4 42.5,5.4 41.7,4.1 40.6,4.7 39.6,7.7 		"/>
		<polygon class="st45" points="36.7,8.8 36.5,7.1 34.1,8.4 35.4,9.5 		"/>
		<path class="st2" d="M26,9.9c0.1,0.6,0.2,1.2,0.3,1.7l0.9,0.3l2.6-1L26,9.9z"/>
		<path class="st46" d="M25.5,9.8l-0.4,1.5l1.2,0.3c-0.1-0.5-0.2-1.1-0.3-1.7L25.5,9.8z"/>
		<path class="st45" d="M27.2,11.9l0.6,0.2l-0.4,0.3l3.1,0.3l0.1-0.3l1.1-0.7c0.1-0.5,0.1-1.3,0.2-2l-2.1,1.2L27.2,11.9z"/>
		<path class="st47" d="M35.4,9.5l-1.3-1.1l-2.2,1.3c-0.1,0.7-0.1,1.4-0.2,2L35.4,9.5z"/>
		<polygon class="st7" points="27.9,16.2 29.4,16.6 28.6,13.5 		"/>
		<polygon class="st48" points="26.1,13 26.9,14.4 28.6,13.5 30.3,13.3 30.5,12.6 27.4,12.3 		"/>
		<polygon class="st49" points="29.4,16.6 29.4,16.6 30.3,13.3 28.6,13.5 		"/>
	</g>
	<g>
		<polygon class="st44" points="33.6,13 35.2,12.5 35.2,12 33.6,11.3 		"/>
		<polygon class="st7" points="37.2,18.2 38.4,17 36.3,14.9 36,17 		"/>
		<polygon class="st11" points="30.5,17 31.7,18.2 32.5,17.3 31.5,16.1 		"/>
		<polygon class="st9" points="33.6,13.9 33.1,14.4 35.2,16.8 35.2,16.2 36,17 36.3,14.9 35.2,13.9 35.2,12.5 33.6,13 		"/>
		<polygon class="st7" points="31.5,16.1 32.5,17.3 33.6,16.2 33.6,18 35.2,18 35.2,16.8 33.1,14.4 		"/>
		<polygon class="st45" points="33.6,11.3 35.2,12 35.2,9.3 33.6,9.9 		"/>
		<path class="st2" d="M38,1.5c-0.6-0.2-1.2-0.4-1.6-0.6l-0.7,0.7l-0.4,2.7L38,1.5z"/>
		<path class="st46" d="M38.4,1.1L37.2,0l-0.8,0.8C36.8,1,37.4,1.3,38,1.5L38.4,1.1z"/>
		<path class="st45" d="M35.7,1.5L35.2,2V1.5L33.4,4l0.2,0.2v1.3c0.4,0.3,1,0.7,1.6,1.1V4.2L35.7,1.5z"/>
		<path class="st47" d="M33.6,9.9l1.6-0.6V6.7c-0.6-0.4-1.2-0.8-1.6-1.1V9.9z"/>
		<polygon class="st7" points="31.7,0 30.5,1.1 33.6,2 		"/>
		<polygon class="st48" points="35.2,0 33.6,0 33.6,2 32.9,3.5 33.4,4 35.2,1.5 		"/>
		<polygon class="st49" points="30.5,1.1 30.5,1.1 32.9,3.5 33.6,2 		"/>
	</g>
	<g>
		<polygon class="st44" points="37.3,11.8 37.7,10.1 37.3,9.9 35.9,10.9 		"/>
		<polygon class="st7" points="43.6,11.2 43.2,9.7 40.3,10.5 42,11.7 		"/>
		<polygon class="st11" points="39.3,16.5 40.8,16.1 40.5,14.9 38.9,15.2 		"/>
		<polygon class="st9" points="38.1,12.2 38.3,12.9 41.4,12.3 40.9,12 42,11.7 40.3,10.5 38.9,10.8 37.7,10.1 37.3,11.8 		"/>
		<polygon class="st7" points="38.9,15.2 40.5,14.9 40.1,13.4 41.7,14.3 42.5,12.9 41.4,12.3 38.3,12.9 		"/>
		<polygon class="st45" points="35.9,10.9 37.3,9.9 34.9,8.5 34.6,10.2 		"/>
		<path class="st2" d="M29.6,2.2c-0.5,0.4-1,0.8-1.4,1.1l0.3,0.9L30.6,6L29.6,2.2z"/>
		<path class="st46" d="M29.4,1.8l-1.5,0.4l0.3,1.2c0.4-0.3,0.9-0.7,1.4-1.1L29.4,1.8z"/>
		<path class="st45" d="M28.5,4.3l0.2,0.6l-0.4-0.3l1.3,2.9l0.3-0.1l1.1,0.7c0.5-0.2,1.1-0.5,1.8-0.8L30.6,6L28.5,4.3z"/>
		<path class="st47" d="M34.6,10.2l0.3-1.7l-2.2-1.3c-0.6,0.3-1.3,0.6-1.8,0.8L34.6,10.2z"/>
		<polygon class="st7" points="25.1,7 25.5,8.5 27.8,6.3 		"/>
		<polygon class="st48" points="26.9,3.9 26.1,5.3 27.8,6.3 28.8,7.7 29.5,7.5 28.2,4.6 		"/>
		<polygon class="st49" points="25.5,8.5 25.5,8.5 28.8,7.7 27.8,6.3 		"/>
	</g>
</g>
</svg>
