<?xml version="1.0" encoding="utf-8"?>
<!-- Generator: Adobe Illustrator 20.1.0, SVG Export Plug-In . SVG Version: 6.00 Build 0)  -->
<svg version="1.1" id="Слой_1" xmlns="http://www.w3.org/2000/svg" xmlns:xlink="http://www.w3.org/1999/xlink" x="0px" y="0px"
	 viewBox="0 0 42.5 59" style="enable-background:new 0 0 42.5 59;" xml:space="preserve">
<style type="text/css">
	.st0{fill:#4287C4;}
	.st1{fill:#2165AB;}
	.st2{fill:#2C3675;}
	.st3{fill:#0C569A;}
	.st4{fill:#1A4B9A;}
	.st5{fill:#3DB9E9;}
	.st6{fill:#88D3E6;}
	.st7{fill:#5DC9EB;}
	.st8{fill:#A7DDE8;}
	.st9{fill:#A0DBED;}
	.st10{fill:#449FD6;}
	.st11{fill:#FECF3B;}
	.st12{fill:#FAF188;}
	.st13{fill:#F58853;}
	.st14{fill:#F9A338;}
	.st15{fill:#C75C33;}
	.st16{fill:#E26233;}
	.st17{fill:#F58636;}
	.st18{fill:#F79A46;}
	.st19{fill:#D76334;}
	.st20{fill:#EA6B34;}
</style>
<g>
	<g>
		<polygon class="st0" points="42.5,15.8 32.7,16 28.1,16.1 22.9,24.3 25.4,24.2 25.4,24.3 40.2,18.3 		"/>
		<polygon class="st1" points="36,22.6 40.2,18.3 25.4,24.3 22.8,28.5 29.2,29.6 		"/>
		<polygon class="st2" points="12.9,44.3 13.9,45.3 20.8,38.2 16.1,39.2 		"/>
		<polygon class="st2" points="9.3,50.2 13.9,45.3 12.9,44.3 		"/>
		<polygon class="st3" points="22.8,28.5 21.3,30.7 23.8,35.1 29.2,29.6 		"/>
		<polygon class="st4" points="19.4,33.8 16.1,39.2 20.8,38.2 22.6,36.3 23.8,35.1 21.3,30.7 		"/>
		<polygon class="st5" points="24.4,16.1 17.2,16.2 17,16.1 5.1,19.2 3.1,22 9.1,24.3 		"/>
		<polygon class="st5" points="8.7,24.5 9.3,24.5 9.5,24.5 9.1,24.3 		"/>
		<polygon class="st6" points="17.3,16 21.1,10.7 12.2,9.2 11,10.9 17,16.1 		"/>
		<polygon class="st7" points="11,10.9 5.9,18.1 5.1,19.2 17,16.1 		"/>
		<polygon class="st0" points="3.1,22 1.2,24.6 8.7,24.5 9.1,24.3 		"/>
		<polygon class="st8" points="28.2,0.7 18.9,0 22,9.4 		"/>
		<polygon class="st9" points="22,9.4 18.9,0 18.8,0 12.2,9.2 21.1,10.7 		"/>
		<polygon class="st10" points="24.4,16.1 9.1,24.3 9.5,24.5 22.9,24.3 28.1,16.1 		"/>
		<polygon class="st5" points="17.2,16.2 17.3,16 17,16.1 		"/>
	</g>
	<g>
		<polygon class="st11" points="14.1,48.3 18.4,49.4 14.1,54.5 		"/>
		<polygon class="st12" points="14.1,48.3 11.1,51.9 14.1,54.5 		"/>
		<polygon class="st11" points="14.1,48.3 11.1,51.9 8.8,49.9 		"/>
		<polygon class="st13" points="14.1,48.3 11.8,46.4 8.8,49.9 		"/>
		<polygon class="st12" points="14.1,48.3 18.4,49.4 17.5,44.3 		"/>
		<polygon class="st11" points="14.1,48.3 11.8,46.4 17.5,44.3 		"/>
		<polygon class="st14" points="15.2,42.4 11.8,46.4 17.5,44.3 		"/>
		<polygon class="st15" points="9.5,44.4 7.7,40.3 3.4,45.4 		"/>
		<polygon class="st16" points="9.5,44.4 6.5,48 3.4,45.4 		"/>
		<polygon class="st17" points="9.5,44.4 6.5,48 8.8,49.9 		"/>
		<polygon class="st18" points="9.5,44.4 11.8,46.4 8.8,49.9 		"/>
		<polygon class="st19" points="9.5,44.4 7.7,40.3 12.9,40.4 		"/>
		<polygon class="st20" points="9.5,44.4 11.8,46.4 12.9,40.4 		"/>
		<polygon class="st13" points="15.2,42.4 11.8,46.4 12.9,40.4 		"/>
		<rect x="5.5" y="54.4" transform="matrix(0.6497 -0.7601 0.7601 0.6497 -38.8645 26.5228)" class="st15" width="7.6" height="2"/>
		<rect x="-0.6" y="49.2" transform="matrix(0.65 -0.7599 0.7599 0.65 -37.018 20.0191)" class="st15" width="7.6" height="2"/>
	</g>
</g>
</svg>
