<?xml version="1.0" encoding="utf-8"?>
<!-- Generator: Adobe Illustrator 20.1.0, SVG Export Plug-In . SVG Version: 6.00 Build 0)  -->
<svg version="1.1" id="Слой_1" xmlns="http://www.w3.org/2000/svg" xmlns:xlink="http://www.w3.org/1999/xlink" x="0px" y="0px"
	 viewBox="0 0 42.5 59" style="enable-background:new 0 0 42.5 59;" xml:space="preserve">
<style type="text/css">
	.st0{display:none;}
	.st1{display:inline;}
	.st2{fill:#4287C4;}
	.st3{fill:#2165AB;}
	.st4{fill:#2C3675;}
	.st5{fill:#0C569A;}
	.st6{fill:#1A4B9A;}
	.st7{fill:#3DB9E9;}
	.st8{fill:#88D3E6;}
	.st9{fill:#5DC9EB;}
	.st10{fill:#A7DDE8;}
	.st11{fill:#A0DBED;}
	.st12{fill:#449FD6;}
	.st13{fill:#FECF3B;}
	.st14{fill:#FAF188;}
	.st15{fill:#F58853;}
	.st16{fill:#F9A338;}
	.st17{fill:#C75C33;}
	.st18{fill:#E26233;}
	.st19{fill:#F58636;}
	.st20{fill:#F79A46;}
	.st21{fill:#D76334;}
	.st22{fill:#EA6B34;}
	.st23{fill:#F8A251;}
	.st24{fill:#F37B34;}
	.st25{fill:#ED4230;}
	.st26{fill:#E33930;}
	.st27{fill:#CF3330;}
	.st28{fill:#EF5331;}
	.st29{fill:#274382;}
	.st30{fill:#273A6D;}
</style>
<g class="st0">
	<g class="st1">
		<polygon class="st2" points="42.5,15.8 32.7,16 28.1,16.1 22.9,24.3 25.4,24.2 25.4,24.3 40.2,18.3 		"/>
		<polygon class="st3" points="36,22.6 40.2,18.3 25.4,24.3 22.8,28.5 29.2,29.6 		"/>
		<polygon class="st4" points="12.9,44.3 13.9,45.3 20.8,38.2 16.1,39.2 		"/>
		<polygon class="st4" points="9.3,50.2 13.9,45.3 12.9,44.3 		"/>
		<polygon class="st5" points="22.8,28.5 21.3,30.7 23.8,35.1 29.2,29.6 		"/>
		<polygon class="st6" points="19.4,33.8 16.1,39.2 20.8,38.2 22.6,36.3 23.8,35.1 21.3,30.7 		"/>
		<polygon class="st7" points="24.4,16.1 17.2,16.2 17,16.1 5.1,19.2 3.1,22 9.1,24.3 		"/>
		<polygon class="st7" points="8.7,24.5 9.3,24.5 9.5,24.5 9.1,24.3 		"/>
		<polygon class="st8" points="17.3,16 21.1,10.7 12.2,9.2 11,10.9 17,16.1 		"/>
		<polygon class="st9" points="11,10.9 5.9,18.1 5.1,19.2 17,16.1 		"/>
		<polygon class="st2" points="3.1,22 1.2,24.6 8.7,24.5 9.1,24.3 		"/>
		<polygon class="st10" points="28.2,0.7 18.9,0 22,9.4 		"/>
		<polygon class="st11" points="22,9.4 18.9,0 18.8,0 12.2,9.2 21.1,10.7 		"/>
		<polygon class="st12" points="24.4,16.1 9.1,24.3 9.5,24.5 22.9,24.3 28.1,16.1 		"/>
		<polygon class="st7" points="17.2,16.2 17.3,16 17,16.1 		"/>
	</g>
	<g class="st1">
		<polygon class="st13" points="14.1,48.3 18.4,49.4 14.1,54.5 		"/>
		<polygon class="st14" points="14.1,48.3 11.1,51.9 14.1,54.5 		"/>
		<polygon class="st13" points="14.1,48.3 11.1,51.9 8.8,49.9 		"/>
		<polygon class="st15" points="14.1,48.3 11.8,46.4 8.8,49.9 		"/>
		<polygon class="st14" points="14.1,48.3 18.4,49.4 17.5,44.3 		"/>
		<polygon class="st13" points="14.1,48.3 11.8,46.4 17.5,44.3 		"/>
		<polygon class="st16" points="15.2,42.4 11.8,46.4 17.5,44.3 		"/>
		<polygon class="st17" points="9.5,44.4 7.7,40.3 3.4,45.4 		"/>
		<polygon class="st18" points="9.5,44.4 6.5,48 3.4,45.4 		"/>
		<polygon class="st19" points="9.5,44.4 6.5,48 8.8,49.9 		"/>
		<polygon class="st20" points="9.5,44.4 11.8,46.4 8.8,49.9 		"/>
		<polygon class="st21" points="9.5,44.4 7.7,40.3 12.9,40.4 		"/>
		<polygon class="st22" points="9.5,44.4 11.8,46.4 12.9,40.4 		"/>
		<polygon class="st15" points="15.2,42.4 11.8,46.4 12.9,40.4 		"/>
		<rect x="5.5" y="54.4" transform="matrix(0.6497 -0.7601 0.7601 0.6497 -38.8645 26.5228)" class="st17" width="7.6" height="2"/>
		<rect x="-0.6" y="49.2" transform="matrix(0.65 -0.7599 0.7599 0.65 -37.018 20.0191)" class="st17" width="7.6" height="2"/>
	</g>
</g>
<g>
	<g>
		<g>
			<polygon class="st23" points="2.8,7.1 2.8,10.2 4.7,8.6 			"/>
			<polygon class="st24" points="2.8,7.1 7.9,3.5 4.7,8.6 			"/>
			<polygon class="st25" points="9.8,7.5 7.9,3.5 4.7,8.6 			"/>
			<polygon class="st26" points="9.8,7.5 7.9,3.5 12.7,1.2 			"/>
			<polygon class="st27" points="9.8,7.5 13.6,5.5 12.7,1.2 			"/>
			<polygon class="st26" points="17.6,4.6 13.6,5.5 12.7,1.2 			"/>
			<polygon class="st28" points="17.6,4.6 17.8,0.1 12.7,1.2 			"/>
			<polygon class="st23" points="17.6,4.6 17.8,0.1 20.7,4.4 			"/>
			<polygon class="st24" points="22.8,0 17.8,0.1 20.7,4.4 			"/>
			<polygon class="st23" points="22.8,0 23.8,4.5 20.7,4.4 			"/>
			<polygon class="st24" points="22.8,0 23.8,4.5 26.5,0.6 			"/>
			<polygon class="st28" points="27.5,5.5 23.8,4.5 26.5,0.6 			"/>
			<polygon class="st25" points="27.5,5.5 31.5,2.3 26.5,0.6 			"/>
			<polygon class="st26" points="27.5,5.5 31.5,2.3 31.9,7.6 			"/>
			<polygon class="st27" points="35.8,4.8 31.5,2.3 31.9,7.6 			"/>
			<polygon class="st26" points="35.8,4.8 34.6,9.7 31.9,7.6 			"/>
			<polygon class="st25" points="35.8,4.8 34.6,9.7 38.8,7.5 			"/>
			<polygon class="st28" points="36,10.7 34.6,9.7 38.8,7.5 			"/>
			<polygon class="st24" points="36,10.7 39,9.4 38.8,7.5 			"/>
			<polygon class="st23" points="36,10.7 39,9.4 37.5,10.9 			"/>
			<polygon class="st24" points="4.7,11.1 2.8,10.2 4.7,8.6 			"/>
			<polygon class="st28" points="4.7,11.1 9.8,7.5 4.7,8.6 			"/>
		</g>
		<g>
			<polygon class="st24" points="22.2,7.8 18.7,7.9 20.7,10.9 			"/>
			<g>
				<polygon class="st23" points="8.2,12.8 8.2,15 9.5,13.9 				"/>
				<polygon class="st24" points="8.2,12.8 11.7,10.3 9.5,13.9 				"/>
				<polygon class="st25" points="13.1,13.1 11.7,10.3 9.5,13.9 				"/>
				<polygon class="st26" points="13.1,13.1 11.7,10.3 15.2,8.7 				"/>
				<polygon class="st27" points="13.1,13.1 15.8,11.7 15.2,8.7 				"/>
				<polygon class="st26" points="18.6,11.1 15.8,11.7 15.2,8.7 				"/>
				<polygon class="st28" points="18.6,11.1 18.7,7.9 15.2,8.7 				"/>
				<polygon class="st23" points="18.6,11.1 18.7,7.9 20.7,10.9 				"/>
				<polygon class="st23" points="22.2,7.8 22.9,11 20.7,10.9 				"/>
				<polygon class="st24" points="22.2,7.8 22.9,11 24.8,8.2 				"/>
				<polygon class="st28" points="25.6,11.7 22.9,11 24.8,8.2 				"/>
				<polygon class="st25" points="25.6,11.7 28.3,9.4 24.8,8.2 				"/>
				<polygon class="st26" points="25.6,11.7 28.3,9.4 28.6,13.2 				"/>
				<polygon class="st27" points="31.3,11.2 28.3,9.4 28.6,13.2 				"/>
				<polygon class="st26" points="31.3,11.2 30.5,14.6 28.6,13.2 				"/>
				<polygon class="st25" points="31.3,11.2 30.5,14.6 33.4,13.1 				"/>
				<polygon class="st28" points="31.5,15.3 30.5,14.6 33.4,13.1 				"/>
				<polygon class="st24" points="31.5,15.3 33.6,14.4 33.4,13.1 				"/>
				<polygon class="st23" points="31.5,15.3 33.6,14.4 32.5,15.4 				"/>
				<polygon class="st24" points="9.5,15.6 8.2,15 9.5,13.9 				"/>
				<polygon class="st28" points="9.5,15.6 13.1,13.1 9.5,13.9 				"/>
			</g>
		</g>
	</g>
	<g>
		<g>
			<polygon class="st6" points="1,59 1,50.6 8.8,59 			"/>
			<polygon class="st3" points="8.8,50.6 1,50.6 8.8,59 			"/>
			<polygon class="st29" points="16.7,59 16.7,50.6 8.8,59 			"/>
			<polygon class="st6" points="8.8,50.6 16.7,50.6 8.8,59 			"/>
			<polygon class="st9" points="1,42.2 1,33.9 8.8,42.2 			"/>
			<polygon class="st7" points="9.8,33.9 1,33.9 8.8,42.2 			"/>
			<polygon class="st12" points="9.8,33.9 1,33.9 8.8,26.7 			"/>
			<polygon class="st7" points="9.8,33.9 16.7,33.9 8.8,26.7 			"/>
			<polygon class="st9" points="15,20.8 16.7,33.9 8.8,26.7 			"/>
			<polygon class="st8" points="15,20.8 16.7,33.9 25.6,33.9 			"/>
			<polygon class="st10" points="15,20.8 20.8,15 25.6,33.9 			"/>
			<polygon class="st8" points="28.4,22.3 20.8,15 25.6,33.9 			"/>
			<polygon class="st9" points="28.4,22.3 32.3,33.9 25.6,33.9 			"/>
			<polygon class="st7" points="28.4,22.3 32.3,33.9 41.3,33.9 			"/>
			<polygon class="st7" points="16.7,42.2 16.7,33.9 8.8,42.2 			"/>
			<polygon class="st8" points="9.8,33.9 16.7,33.9 8.8,42.2 			"/>
			<polygon class="st7" points="16.7,42.2 16.7,33.9 25.6,42.2 			"/>
			<polygon class="st9" points="25.6,33.9 16.7,33.9 25.6,42.2 			"/>
			<polygon class="st9" points="33.4,42.2 32.3,33.9 25.6,42.2 			"/>
			<polygon class="st2" points="33.4,42.2 32.3,33.9 41.3,42.2 			"/>
			<polygon class="st3" points="41.3,33.9 32.3,33.9 41.3,42.2 			"/>
			<polygon class="st8" points="25.6,33.9 32.3,33.9 25.6,42.2 			"/>
			<polygon class="st12" points="1,42.2 1,50.6 8.8,42.2 			"/>
			<polygon class="st2" points="8.8,50.6 1,50.6 8.8,42.2 			"/>
			<polygon class="st12" points="16.7,42.2 16.7,50.6 8.8,42.2 			"/>
			<rect x="16.7" y="42.2" class="st3" width="9" height="3.1"/>
			<polygon class="st3" points="8.8,50.6 16.7,50.6 8.8,42.2 			"/>
			<polygon class="st29" points="25.6,59 25.6,50.6 33.4,59 			"/>
			<polygon class="st3" points="33.4,50.6 25.6,50.6 33.4,59 			"/>
			<polygon class="st30" points="41.3,59 41.3,50.6 33.4,59 			"/>
			<polygon class="st29" points="33.4,50.6 41.3,50.6 33.4,59 			"/>
			<polygon class="st8" points="25.6,42.2 25.6,50.6 33.4,42.2 			"/>
			<polygon class="st2" points="33.4,50.6 25.6,50.6 33.4,42.2 			"/>
			<polygon class="st3" points="41.3,42.2 41.3,50.6 33.4,42.2 			"/>
			<polygon class="st6" points="33.4,50.6 41.3,50.6 33.4,42.2 			"/>
		</g>
		<polygon class="st3" points="32.3,25.7 32.3,21.2 34.8,21.2 34.7,28 		"/>
	</g>
</g>
</svg>
