<?xml version="1.0" encoding="utf-8"?>
<!-- Generator: Adobe Illustrator 20.1.0, SVG Export Plug-In . SVG Version: 6.00 Build 0)  -->
<svg version="1.1" id="Слой_1" xmlns="http://www.w3.org/2000/svg" xmlns:xlink="http://www.w3.org/1999/xlink" x="0px" y="0px"
	 viewBox="0 0 55.2 55.6" style="enable-background:new 0 0 55.2 55.6;" xml:space="preserve">
<style type="text/css">
	.st0{fill:#F8A251;}
	.st1{fill:#EF5331;}
	.st2{fill:#ED4230;}
	.st3{fill:#F37B34;}
	.st4{fill:#E33930;}
	.st5{fill:#CF3330;}
	.st6{fill:#88D3E6;}
	.st7{fill:#3DB9E9;}
	.st8{fill:#0D74AB;}
	.st9{fill:#3194CE;}
	.st10{fill:#0B6492;}
	.st11{fill:#449FD6;}
	.st12{fill:#1A88C6;}
</style>
<g>
	<g>
		<polygon class="st0" points="29.9,21.7 34.8,13.7 40,18.4 		"/>
		<polygon class="st1" points="29.9,21.7 34.7,27 40,18.4 		"/>
		<polygon class="st2" points="44.6,26.3 34.7,27 40,18.4 		"/>
		<polygon class="st3" points="43,10.5 34.8,13.7 40,18.4 		"/>
		<polygon class="st1" points="43,10.5 51.4,14 40,18.4 		"/>
		<polygon class="st2" points="55.6,21.1 51.4,14 40,18.4 		"/>
		<polygon class="st4" points="55.6,21.1 54.8,27.5 40,18.4 		"/>
		<polygon class="st5" points="49.9,35.5 54.8,27.5 40,18.4 		"/>
	</g>
	<g>
		<polygon class="st0" points="21.7,25.7 13.7,20.8 18.4,15.6 		"/>
		<polygon class="st1" points="21.7,25.7 27,20.9 18.4,15.6 		"/>
		<polygon class="st2" points="26.2,11 27,20.9 18.4,15.6 		"/>
		<polygon class="st3" points="10.5,12.5 13.7,20.8 18.4,15.6 		"/>
		<polygon class="st1" points="10.5,12.5 14,4.2 18.4,15.6 		"/>
		<polygon class="st2" points="21.1,0 14,4.2 18.4,15.6 		"/>
		<polygon class="st4" points="21.1,0 27.5,0.7 18.4,15.6 		"/>
		<polygon class="st5" points="35.5,5.6 27.5,0.7 18.4,15.6 		"/>
	</g>
	<g>
		<polygon class="st0" points="25.7,33.9 20.8,41.9 15.6,37.2 		"/>
		<polygon class="st1" points="25.7,33.9 20.9,28.6 15.6,37.2 		"/>
		<polygon class="st2" points="11,29.3 20.9,28.6 15.6,37.2 		"/>
		<polygon class="st3" points="12.5,45.1 20.8,41.9 15.6,37.2 		"/>
		<polygon class="st1" points="12.5,45.1 4.2,41.6 15.6,37.2 		"/>
		<polygon class="st2" points="0,34.5 4.2,41.6 15.6,37.2 		"/>
		<polygon class="st4" points="0,34.5 0.7,28.1 15.6,37.2 		"/>
		<polygon class="st5" points="5.6,20.1 0.7,28.1 15.6,37.2 		"/>
	</g>
	<g>
		<polygon class="st0" points="33.9,29.9 41.9,34.8 37.2,40 		"/>
		<polygon class="st1" points="33.9,29.9 28.6,34.7 37.2,40 		"/>
		<polygon class="st2" points="29.3,44.6 28.6,34.7 37.2,40 		"/>
		<polygon class="st3" points="45.1,43 41.9,34.8 37.2,40 		"/>
		<polygon class="st1" points="45.1,43 41.6,51.4 37.2,40 		"/>
		<polygon class="st2" points="34.5,55.6 41.6,51.4 37.2,40 		"/>
		<polygon class="st4" points="34.5,55.6 28.1,54.8 37.2,40 		"/>
		<polygon class="st5" points="20.1,49.9 28.1,54.8 37.2,40 		"/>
	</g>
	<g>
		<polygon class="st6" points="25.5,20.7 21.8,23.4 27.8,27.5 		"/>
		<polygon class="st7" points="27.8,27.5 21.8,23.4 21.8,23.4 20.3,27.8 27.8,27.8 		"/>
		<polygon class="st8" points="27.8,28 21.8,32.2 21.8,32.2 25.5,34.9 25.5,34.9 		"/>
		<polygon class="st9" points="27.8,27.8 20.3,27.8 21.8,32.2 27.8,28 		"/>
		<polygon class="st10" points="27.8,28 25.5,34.9 27.8,34.9 30,34.9 		"/>
		<polygon class="st7" points="27.8,20.7 25.5,20.7 27.8,27.5 30,20.7 		"/>
		<polygon class="st11" points="30,20.7 30.1,20.7 33.8,23.4 27.8,27.5 		"/>
		<polygon class="st9" points="27.8,27.5 33.8,23.4 33.8,23.4 35.3,27.8 27.8,27.8 		"/>
		<polygon class="st8" points="27.8,28 33.8,32.2 33.8,32.2 30.1,34.9 30,34.9 		"/>
		<polygon class="st12" points="27.8,27.8 35.3,27.8 33.8,32.2 27.8,28 		"/>
	</g>
</g>
</svg>
