<?xml version="1.0" encoding="utf-8"?>
<!-- Generator: Adobe Illustrator 20.1.0, SVG Export Plug-In . SVG Version: 6.00 Build 0)  -->
<svg version="1.1" id="Слой_1" xmlns="http://www.w3.org/2000/svg" xmlns:xlink="http://www.w3.org/1999/xlink" x="0px" y="0px"
	 viewBox="0 0 26.4 48.2" style="enable-background:new 0 0 26.4 48.2;" xml:space="preserve">
<style type="text/css">
	.st0{fill:#86D2E2;}
	.st1{fill:#2165AB;}
	.st2{fill:#73C7EE;}
	.st3{fill:#3DB9E9;}
	.st4{fill:#4287C4;}
	.st5{fill:#2C3675;}
	.st6{fill:#2B3D86;}
	.st7{fill:#FFFFFF;}
</style>
<g>
	<g>
		<polygon class="st0" points="13.2,13.5 6,11.6 5.8,12.1 0.1,24.8 13.2,27.7 		"/>
		<polygon class="st1" points="13.2,48.2 13.2,42.3 5.8,46 		"/>
		<polygon class="st2" points="13.2,0 6,11.6 13.2,13.5 		"/>
		<polygon class="st1" points="0,36.7 0,36.8 5.8,45.9 5.8,46 13.2,42.3 13.2,34.4 		"/>
		<polygon class="st3" points="13.2,27.7 0.1,24.8 0,24.9 0,36.7 13.2,34.4 		"/>
	</g>
	<g>
		<polygon class="st4" points="13.2,13.5 20.4,11.6 20.6,12.1 26.3,24.8 13.2,27.7 		"/>
		<polygon class="st5" points="13.2,48.2 13.2,42.3 20.5,46 		"/>
		<polygon class="st3" points="13.2,0 20.4,11.6 13.2,13.5 		"/>
		<polygon class="st6" points="26.4,36.7 26.4,36.8 20.6,45.9 20.5,46 13.2,42.3 13.2,34.4 		"/>
		<polygon class="st1" points="13.2,27.7 26.3,24.8 26.4,24.9 26.4,36.7 13.2,34.4 		"/>
	</g>
</g>
<g>
	<path class="st7" d="M11.4,28.3c0,0.6-0.1,1.2-0.3,1.7c-0.2,0.5-0.5,0.9-0.9,1.3c-0.4,0.4-0.8,0.7-1.3,0.9c-0.5,0.2-1,0.3-1.5,0.3
		c-0.6,0-1.1-0.1-1.6-0.3c-0.5-0.2-0.9-0.5-1.3-0.9c-0.4-0.4-0.6-0.8-0.8-1.3c-0.2-0.5-0.3-1.1-0.3-1.7c0-0.6,0.1-1.2,0.3-1.7
		c0.2-0.5,0.5-1,0.8-1.3c0.4-0.4,0.8-0.7,1.3-0.9c0.5-0.2,1-0.3,1.6-0.3C8,24,8.5,24.1,9,24.4c0.5,0.2,0.9,0.5,1.3,0.9
		c0.4,0.4,0.6,0.8,0.8,1.3C11.3,27.1,11.4,27.7,11.4,28.3z M16.7,24.7c0.1-0.1,0.3-0.3,0.4-0.4c0.2-0.1,0.4-0.2,0.7-0.2h2.6
		L7.8,40.6c-0.1,0.1-0.3,0.3-0.4,0.4C7.2,41,7,41.1,6.7,41.1H4L16.7,24.7z M8.7,28.3c0-0.4,0-0.7-0.1-1c-0.1-0.3-0.2-0.5-0.3-0.6
		c-0.1-0.2-0.3-0.3-0.4-0.3c-0.2-0.1-0.3-0.1-0.5-0.1c-0.2,0-0.4,0-0.5,0.1c-0.2,0.1-0.3,0.2-0.4,0.3c-0.1,0.2-0.2,0.4-0.3,0.6
		c-0.1,0.3-0.1,0.6-0.1,1c0,0.4,0,0.7,0.1,0.9c0.1,0.2,0.1,0.4,0.3,0.6c0.1,0.1,0.2,0.3,0.4,0.3c0.2,0.1,0.3,0.1,0.5,0.1
		c0.2,0,0.4,0,0.5-0.1c0.2-0.1,0.3-0.2,0.4-0.3c0.1-0.1,0.2-0.3,0.3-0.6C8.7,29,8.7,28.7,8.7,28.3z M21.1,37.1
		c0,0.6-0.1,1.2-0.3,1.7c-0.2,0.5-0.5,1-0.9,1.3c-0.4,0.4-0.8,0.7-1.3,0.9c-0.5,0.2-1,0.3-1.5,0.3c-0.6,0-1.1-0.1-1.6-0.3
		c-0.5-0.2-0.9-0.5-1.3-0.9c-0.4-0.4-0.6-0.8-0.8-1.3c-0.2-0.5-0.3-1.1-0.3-1.7c0-0.6,0.1-1.2,0.3-1.7c0.2-0.5,0.5-1,0.8-1.3
		c0.4-0.4,0.8-0.7,1.3-0.9c0.5-0.2,1-0.3,1.6-0.3c0.6,0,1.1,0.1,1.6,0.3c0.5,0.2,0.9,0.5,1.3,0.9c0.4,0.4,0.6,0.8,0.8,1.3
		C21,35.9,21.1,36.5,21.1,37.1z M18.4,37.1c0-0.4,0-0.7-0.1-1c-0.1-0.3-0.2-0.5-0.3-0.6c-0.1-0.2-0.3-0.3-0.4-0.3
		c-0.2-0.1-0.3-0.1-0.5-0.1c-0.2,0-0.4,0-0.5,0.1c-0.2,0.1-0.3,0.2-0.4,0.3c-0.1,0.2-0.2,0.4-0.3,0.6c-0.1,0.3-0.1,0.6-0.1,1
		c0,0.4,0,0.7,0.1,0.9c0.1,0.2,0.1,0.4,0.3,0.6c0.1,0.1,0.2,0.3,0.4,0.3c0.2,0.1,0.3,0.1,0.5,0.1c0.2,0,0.4,0,0.5-0.1
		c0.2-0.1,0.3-0.2,0.4-0.3c0.1-0.1,0.2-0.3,0.3-0.6C18.4,37.8,18.4,37.5,18.4,37.1z"/>
</g>
</svg>
