<?xml version="1.0" encoding="utf-8"?>
<!-- Generator: Adobe Illustrator 20.1.0, SVG Export Plug-In . SVG Version: 6.00 Build 0)  -->
<svg version="1.1" id="Слой_1" xmlns="http://www.w3.org/2000/svg" xmlns:xlink="http://www.w3.org/1999/xlink" x="0px" y="0px"
	 viewBox="0 0 18.5 18.2" style="enable-background:new 0 0 18.5 18.2;" xml:space="preserve">
<style type="text/css">
	.st0{fill:#4EA1D6;}
	.st1{fill:#3DB9E9;}
	.st2{fill:#A0DBED;}
	.st3{fill:#5DC9EB;}
	.st4{fill:#459ED5;}
	.st5{fill:#4287C4;}
	.st6{fill:#2B3C7F;}
	.st7{fill:#2B5DA6;}
	.st8{fill:#3C73B5;}
	.st9{fill:#94D7EB;}
</style>
<g>
	<g>
		<polygon class="st0" points="13,8 11.8,6.8 11.4,7.1 11.6,8.8 		"/>
		<polygon class="st1" points="15.7,2.3 14.2,1.8 13.4,4.7 15.3,3.9 		"/>
		<polygon class="st2" points="18.1,8.6 18.5,7.1 17.4,6.8 16.8,8.3 		"/>
		<polygon class="st3" points="13.8,7.5 14.5,7.7 15.5,4.7 15,5 15.3,3.9 13.4,4.7 13,6.1 11.8,6.8 13,8 		"/>
		<polygon class="st1" points="16.8,8.3 17.4,6.8 15.8,6.4 17.4,5.4 16.6,4.1 15.5,4.7 14.5,7.7 		"/>
		<polygon class="st4" points="11.6,8.8 11.4,7.1 9,8.4 10.3,9.5 		"/>
		<path class="st5" d="M0.9,9.9c0.1,0.6,0.2,1.2,0.3,1.7l0.9,0.3l2.6-1L0.9,9.9z"/>
		<path class="st6" d="M0.4,9.8L0,11.3l1.2,0.3C1.1,11.2,1,10.5,0.9,9.9L0.4,9.8z"/>
		<path class="st4" d="M2.1,11.9l0.6,0.2l-0.4,0.3l3.1,0.3l0.1-0.3l1.1-0.7c0.1-0.5,0.1-1.3,0.2-2l-2.1,1.2L2.1,11.9z"/>
		<path class="st7" d="M10.3,9.5L9,8.4L6.8,9.7c-0.1,0.7-0.1,1.4-0.2,2L10.3,9.5z"/>
		<polygon class="st1" points="2.8,16.2 4.3,16.6 3.5,13.4 		"/>
		<polygon class="st8" points="1,13 1.8,14.4 3.5,13.4 5.2,13.3 5.4,12.6 2.3,12.3 		"/>
		<polygon class="st9" points="4.3,16.6 4.3,16.6 5.2,13.3 3.5,13.4 		"/>
	</g>
	<g>
		<polygon class="st0" points="8.5,13 10.1,12.5 10.1,12 8.5,11.3 		"/>
		<polygon class="st1" points="12.1,18.2 13.3,17 11.2,14.9 10.9,17 		"/>
		<polygon class="st2" points="5.4,17 6.6,18.2 7.4,17.3 6.4,16.1 		"/>
		<polygon class="st3" points="8.5,13.9 8,14.4 10.1,16.8 10.1,16.2 10.9,17 11.2,14.9 10.1,13.9 10.1,12.5 8.5,13 		"/>
		<polygon class="st1" points="6.4,16.1 7.4,17.3 8.5,16.2 8.5,18 10.1,18 10.1,16.8 8,14.4 		"/>
		<polygon class="st4" points="8.5,11.3 10.1,12 10.1,9.3 8.5,9.9 		"/>
		<path class="st5" d="M12.9,1.5c-0.6-0.2-1.2-0.4-1.6-0.6l-0.7,0.7l-0.4,2.7L12.9,1.5z"/>
		<path class="st6" d="M13.3,1.1L12.1,0l-0.8,0.8c0.5,0.2,1.1,0.4,1.6,0.6L13.3,1.1z"/>
		<path class="st4" d="M10.6,1.5L10.1,2V1.5L8.3,4l0.2,0.2v1.3c0.4,0.3,1,0.7,1.6,1.1V4.2L10.6,1.5z"/>
		<path class="st7" d="M8.5,9.9l1.6-0.6V6.7C9.6,6.3,9,5.9,8.5,5.6V9.9z"/>
		<polygon class="st1" points="6.6,0 5.4,1.1 8.5,2 		"/>
		<polygon class="st8" points="10.1,0 8.5,0 8.5,2 7.8,3.5 8.3,4 10.1,1.5 		"/>
		<polygon class="st9" points="5.4,1.1 5.4,1.1 7.8,3.5 8.5,2 		"/>
	</g>
	<g>
		<polygon class="st0" points="12.2,11.8 12.6,10.1 12.2,9.9 10.8,10.9 		"/>
		<polygon class="st1" points="18.5,11.2 18.1,9.7 15.2,10.5 16.9,11.7 		"/>
		<polygon class="st2" points="14.2,16.5 15.7,16.1 15.4,14.9 13.8,15.2 		"/>
		<polygon class="st3" points="13,12.2 13.2,12.9 16.3,12.3 15.8,12 16.9,11.7 15.2,10.5 13.8,10.8 12.6,10.1 12.2,11.8 		"/>
		<polygon class="st1" points="13.8,15.2 15.4,14.9 15,13.4 16.6,14.3 17.4,12.9 16.3,12.3 13.2,12.9 		"/>
		<polygon class="st4" points="10.8,10.9 12.2,9.9 9.8,8.5 9.5,10.2 		"/>
		<path class="st5" d="M4.5,2.2C4,2.6,3.5,3,3.1,3.3l0.3,0.9L5.5,6L4.5,2.2z"/>
		<path class="st6" d="M4.3,1.8L2.8,2.2l0.3,1.2C3.5,3,4,2.6,4.5,2.2L4.3,1.8z"/>
		<path class="st4" d="M3.4,4.3l0.2,0.6L3.1,4.6l1.3,2.9l0.3-0.1l1.1,0.7C6.3,7.8,7,7.5,7.6,7.2L5.5,6L3.4,4.3z"/>
		<path class="st7" d="M9.5,10.2l0.3-1.7L7.6,7.2C7,7.5,6.3,7.8,5.8,8.1L9.5,10.2z"/>
		<polygon class="st1" points="0,7 0.4,8.5 2.7,6.3 		"/>
		<polygon class="st8" points="1.8,3.9 1,5.3 2.7,6.3 3.7,7.7 4.4,7.5 3.1,4.6 		"/>
		<polygon class="st9" points="0.4,8.5 0.4,8.5 3.7,7.7 2.7,6.3 		"/>
	</g>
</g>
</svg>
