<?xml version="1.0" encoding="utf-8"?>
<!-- Generator: Adobe Illustrator 20.1.0, SVG Export Plug-In . SVG Version: 6.00 Build 0)  -->
<svg version="1.1" id="Слой_1" xmlns="http://www.w3.org/2000/svg" xmlns:xlink="http://www.w3.org/1999/xlink" x="0px" y="0px"
	 viewBox="0 0 55.3 54.4" style="enable-background:new 0 0 55.3 54.4;" xml:space="preserve">
<style type="text/css">
	.st0{fill:#F27634;}
	.st1{fill:#F9EC3E;}
	.st2{fill:#FAF188;}
	.st3{fill:#FDE43C;}
	.st4{fill:#F58636;}
	.st5{fill:#F9A338;}
	.st6{fill:#EA6B34;}
	.st7{fill:#FECF3B;}
	.st8{fill:#F79A46;}
	.st9{fill:#F58853;}
	.st10{fill:#F16E33;}
	.st11{fill:#E26233;}
</style>
<g>
	<polygon class="st0" points="27.6,30.7 21.3,47.6 27.6,47.6 	"/>
	<polygon class="st1" points="27.6,8.3 21.3,8.3 27.6,25.1 	"/>
	<polygon class="st2" points="27.6,25.1 21.3,8.3 21.2,8.3 11,15.7 27.6,27.2 	"/>
	<polygon class="st3" points="27.6,27.2 11,15.7 10.8,15.8 6.9,27.9 27.6,27.9 	"/>
	<polygon class="st4" points="27.6,28.6 10.8,40 10.8,40 21.2,47.6 21.3,47.6 27.6,30.7 	"/>
	<polygon class="st5" points="27.6,27.9 6.9,27.9 10.8,40 27.6,28.6 	"/>
	<polygon class="st6" points="27.6,30.7 33.8,47.6 27.6,47.6 	"/>
	<polygon class="st7" points="27.6,8.3 33.8,8.3 27.6,25.1 	"/>
	<polygon class="st8" points="27.6,25.1 33.8,8.3 33.9,8.3 44.2,15.7 27.6,27.2 	"/>
	<polygon class="st9" points="27.6,27.2 44.2,15.7 44.3,15.8 48.2,27.9 27.6,27.9 	"/>
	<polygon class="st10" points="27.6,28.6 44.3,40 44.3,40 33.9,47.6 33.8,47.6 27.6,30.7 	"/>
	<polygon class="st11" points="27.6,27.9 48.2,27.9 44.3,40 27.6,28.6 	"/>
	<g>
		<polygon class="st8" points="27.6,0 27.6,0 27.6,6.1 33.8,6.1 		"/>
		<polygon class="st7" points="21.3,6.1 27.6,6.1 27.6,0 		"/>
	</g>
	<g>
		<polygon class="st8" points="12.4,4.5 12.4,4.5 15.7,9.7 21,6.3 		"/>
		<polygon class="st7" points="10.5,13.1 15.7,9.7 12.4,4.5 		"/>
	</g>
	<g>
		<polygon class="st8" points="2.1,16.6 2.1,16.6 7.7,19.1 10.2,13.3 		"/>
		<polygon class="st7" points="5.1,24.8 7.7,19.1 2.1,16.6 		"/>
	</g>
	<g>
		<polygon class="st8" points="0,32.3 0,32.3 6.1,31.3 5.1,25.1 		"/>
		<polygon class="st7" points="7.1,37.5 6.1,31.3 0,32.3 		"/>
	</g>
	<g>
		<polygon class="st8" points="6.8,46.6 6.8,46.6 11.4,42.5 7.2,37.8 		"/>
		<polygon class="st7" points="15.6,47.1 11.4,42.5 6.8,46.6 		"/>
	</g>
	<g>
		<polygon class="st8" points="20.3,54.9 20.3,54.9 21.9,48.9 15.9,47.3 		"/>
		<polygon class="st7" points="28,50.5 21.9,48.9 20.3,54.9 		"/>
	</g>
	<g>
		<polygon class="st8" points="36.2,54.4 36.2,54.4 34.3,48.6 28.3,50.5 		"/>
		<polygon class="st7" points="40.2,46.7 34.3,48.6 36.2,54.4 		"/>
	</g>
	<g>
		<polygon class="st8" points="49.2,45.5 49.2,45.5 44.5,41.6 40.5,46.5 		"/>
		<polygon class="st7" points="48.4,36.7 44.5,41.6 49.2,45.5 		"/>
	</g>
	<g>
		<polygon class="st8" points="55.3,30.8 55.3,30.8 49.2,30.2 48.5,36.4 		"/>
		<polygon class="st7" points="49.9,24 49.2,30.2 55.3,30.8 		"/>
	</g>
	<g>
		<polygon class="st8" points="52.4,15.2 52.4,15.2 46.9,18 49.8,23.6 		"/>
		<polygon class="st7" points="44.1,12.5 46.9,18 52.4,15.2 		"/>
	</g>
	<g>
		<polygon class="st8" points="41.5,3.7 41.5,3.7 38.4,9.1 43.9,12.2 		"/>
		<polygon class="st7" points="33,5.9 38.4,9.1 41.5,3.7 		"/>
	</g>
</g>
</svg>
