<?xml version="1.0" encoding="utf-8"?>
<!-- Generator: Adobe Illustrator 20.1.0, SVG Export Plug-In . SVG Version: 6.00 Build 0)  -->
<svg version="1.1" id="Layer_1" xmlns="http://www.w3.org/2000/svg" xmlns:xlink="http://www.w3.org/1999/xlink" x="0px" y="0px"
	 viewBox="0 0 5000 1148.2" style="enable-background:new 0 0 5000 1148.2;" xml:space="preserve">
<style type="text/css">
	.st0{fill:#0096CC;}
</style>
<g>
	<path class="st0" d="M4426.2,449.1l-11.5,3.1c1.3-0.2,2.6-0.5,3.9-0.7c4.3-1,8.5-2.1,12.8-3.1
		C4429.6,448.6,4427.9,448.8,4426.2,449.1 M4353.4,465.2c-3,0.8-6,1.7-8.9,2.5l1.2-0.2l11.2-2.8L4353.4,465.2z M4394.8,453.6
		c-6.5,1.9-13,3.6-19.5,5.5c3.4-0.6,6.8-1.2,10.2-1.8c6.4-1.7,12.9-3.4,19.3-5.1C4401.4,452.6,4398.1,453.1,4394.8,453.6z
		 M4279.2,482.7c-2.5,0.7-4.9,1.4-7.4,2.1h0.1c2.8-0.8,5.7-1.5,8.6-2.3L4279.2,482.7z M4320.2,470.7c-5.9,1.7-11.7,3.5-17.6,5.2
		c2.7-0.5,5.3-1,8-1.5c6.6-1.8,13.1-3.5,19.8-5.3C4327,469.6,4323.6,470.2,4320.2,470.7z M4363.8,457.8c-8.2,2.5-16.4,4.9-24.6,7.3
		c4.2-0.7,8.5-1.4,12.7-2.1c8.2-2.3,16.4-4.6,24.6-6.9C4372.3,456.7,4368.1,457.2,4363.8,457.8z M1074.9,255l2.9,0.6
		c2.2,0.1,4.4,0.2,6.5,0.2l-2.7-0.5C1079.3,255.2,1077.1,255.1,1074.9,255z M4201.7,501.9l-2.6,0.8c1.2-0.3,2.3-0.6,3.5-0.9
		L4201.7,501.9z M4245.2,489c-5.4,1.7-10.8,3.3-16.2,4.9c2.1-0.4,4.2-0.9,6.3-1.3c5.7-1.6,11.5-3.3,17.2-4.9
		C4250.1,488.1,4247.7,488.5,4245.2,489z M4288.4,475.7c-7.9,2.4-15.7,4.8-23.6,7.2c4.3-0.8,8.7-1.6,13-2.4
		c7.7-2.2,15.5-4.5,23.3-6.8C4296.9,474.4,4292.7,475,4288.4,475.7z M4332.7,461.9c-9.4,3-18.8,5.9-28.1,8.8
		c4.7-0.7,9.4-1.5,14.2-2.2c9.6-2.8,19.2-5.6,28.8-8.5C4342.7,460.6,4337.7,461.3,4332.7,461.9z M1050,253.6c1.7,0.4,3.3,0.9,5,1.3
		l9.6,0.3c-1.6-0.4-3.2-0.7-4.8-1.1C1056.5,254,1053.2,253.8,1050,253.6z M1035.3,249.8l3.3,0.8l6.5,0.3l-2.9-0.6
		C1039.9,250.2,1037.6,250,1035.3,249.8z M1021.7,246.4l0.5,0.1l2.1,0.1L1021.7,246.4z M4167.7,508.6c-5.1,1.6-10.2,3.1-15.3,4.7
		l7.6-1.7c5-1.4,10-3,15-4.4C4172.5,507.7,4170.1,508.1,4167.7,508.6z M4211.6,494.9c-7.4,2.4-14.9,4.8-22.2,7.1
		c3.6-0.7,7.2-1.5,10.8-2.2c7.9-2.4,15.8-4.7,23.7-7C4219.9,493.4,4215.8,494.1,4211.6,494.9z M4256.7,480.5l-27.8,8.9
		c5-0.9,9.9-1.7,14.9-2.6c9-2.7,18-5.5,27.1-8.3C4266.2,479.1,4261.5,479.8,4256.7,480.5z M4301.9,465.8
		c-10.4,3.4-20.8,6.9-31.1,10.2c5.4-0.8,10.8-1.7,16.1-2.5c10.6-3.3,21.1-6.5,31.8-9.8C4313.2,464.3,4307.5,465.1,4301.9,465.8z
		 M1025.8,252.4c2.1,0.6,4.2,1.2,6.3,1.9c3.9,0.1,7.8,0.2,11.7,0.3c-2.1-0.5-4.2-1.1-6.3-1.6
		C1033.6,252.8,1029.7,252.6,1025.8,252.4z M1011.5,248.1c1.6,0.5,3.3,1,4.9,1.5c3.2,0.1,6.3,0.3,9.5,0.5l-4.9-1.2
		C1017.8,248.6,1014.7,248.4,1011.5,248.1z M997.5,244.1l3.2,0.9c2.2,0.1,4.4,0.3,6.6,0.4c-1-0.2-2-0.5-2.9-0.7
		C1002.1,244.5,999.8,244.3,997.5,244.1z M984.3,240.3l0.7,0.2l2.6,0.2h-0.2L984.3,240.3z M4088.8,529.4c-4.6,1.4-9.1,2.9-13.7,4.3
		c1.5-0.3,3-0.7,4.4-1c5.3-1.6,10.5-3.1,15.8-4.7L4088.8,529.4z M4133.4,515.2c-7.2,2.3-14.4,4.6-21.6,6.9c3.5-0.8,7.1-1.5,10.6-2.2
		c7.3-2.2,14.7-4.5,22.1-6.8C4140.8,513.8,4137,514.5,4133.4,515.2z M4178.9,500.3c-8.8,2.9-17.7,5.9-26.4,8.7
		c4.5-0.9,9.1-1.7,13.7-2.6c9.1-2.8,18.2-5.6,27.4-8.5C4188.7,498.7,4183.8,499.5,4178.9,500.3z M4225.2,485.1
		c-10.5,3.5-20.9,6.9-31.3,10.3c5.4-0.9,10.9-1.8,16.3-2.8c10.3-3.2,20.6-6.6,31-9.9C4235.9,483.5,4230.5,484.3,4225.2,485.1z
		 M4271.9,469.3c-11.3,3.9-22.6,7.8-33.7,11.5c5.7-0.8,11.4-1.7,17.1-2.5c11.2-3.6,22.5-7.3,33.9-11
		C4283.4,467.9,4277.7,468.6,4271.9,469.3z M1002,251.3c2.3,0.8,4.5,1.6,6.8,2.4c4.5,0.1,9,0.2,13.5,0.3c-2.4-0.7-4.7-1.4-7.1-2.1
		C1010.8,251.7,1006.4,251.5,1002,251.3z M988.1,246.6c2,0.7,4.1,1.4,6.1,2.1c3.9,0.2,7.7,0.3,11.6,0.5c-2.1-0.6-4.2-1.2-6.3-1.8
		C995.7,247.1,991.9,246.8,988.1,246.6z M974.4,242c1.7,0.6,3.4,1.1,5,1.7c3.1,0.2,6.3,0.4,9.4,0.6c-1.7-0.5-3.4-1-5.1-1.4
		L974.4,242z M961.1,237.6c1.1,0.4,2.2,0.7,3.2,1.1c2.3,0.2,4.5,0.4,6.7,0.6l-3.2-0.9C965.7,238.1,963.4,237.9,961.1,237.6z
		 M948.3,233.5l1,0.3c1,0.1,1.9,0.2,2.9,0.3l-0.5-0.1C950.5,233.9,949.4,233.7,948.3,233.5z M4009.4,551.1
		c-4.5,1.5-8.9,2.8-13.4,4.2c0.9-0.2,1.9-0.4,2.8-0.7c4.8-1.5,9.7-3,14.5-4.4C4012.1,550.5,4010.7,550.8,4009.4,551.1z
		 M4053.7,536.5c-6.7,2.2-13.4,4.4-20,6.6c3.3-0.7,6.6-1.5,10-2.2c7-2.2,13.9-4.3,20.9-6.5C4061,535.1,4057.4,535.8,4053.7,536.5z
		 M4100.6,521.1c-9.1,3-18,5.9-27.1,8.9c4.6-0.9,9.2-1.9,13.8-2.9c8.8-2.8,17.6-5.6,26.4-8.4C4109.4,519.6,4105,520.4,4100.6,521.1z
		 M4146.3,505.7c-10,3.4-20,6.8-29.9,10.1c5.2-1,10.3-1.8,15.6-2.8c10.1-3.3,20.3-6.6,30.6-9.9
		C4157.1,503.9,4151.7,504.8,4146.3,505.7z M4194.5,489.3c-11.5,4-22.8,7.8-34.3,11.7c5.8-0.9,11.5-1.9,17.3-2.8
		c11.2-3.7,22.4-7.4,33.7-11.1C4205.6,487.8,4200,488.5,4194.5,489.3z M4242.1,472.6c-12.1,4.3-24.3,8.5-36.2,12.7
		c6-0.8,12-1.6,18-2.5c11.9-4,23.9-8.1,36-12.2C4253.9,471.3,4248,472,4242.1,472.6z M978.4,250.4c2.4,1,4.9,1.9,7.4,2.9
		c4.9,0.1,9.8,0.2,14.7,0.3c-2.5-0.9-5.1-1.7-7.6-2.6C988,250.8,983.2,250.6,978.4,250.4z M965.1,245.1c2.2,0.9,4.5,1.8,6.7,2.6
		c4.4,0.2,8.7,0.3,13.1,0.5c-2.3-0.8-4.6-1.6-6.8-2.3C973.7,245.6,969.4,245.4,965.1,245.1z M951.9,240c2,0.8,4,1.5,5.9,2.3
		c3.8,0.2,7.6,0.4,11.3,0.7c-2.1-0.7-4.1-1.4-6.2-2C959.2,240.6,955.5,240.3,951.9,240z M938.7,235.1c1.7,0.6,3.3,1.2,5,1.8l9.3,0.8
		c-1.7-0.5-3.4-1.1-5.1-1.6C944.8,235.8,941.8,235.5,938.7,235.1z M926,230.5c1.2,0.4,2.3,0.8,3.5,1.3c2.2,0.2,4.4,0.5,6.6,0.7
		c-1.2-0.4-2.3-0.7-3.5-1.1C930.4,231.1,928.2,230.8,926,230.5z M913.9,226.2l1.2,0.4c1,0.1,2.1,0.3,3.1,0.4l-0.8-0.3L913.9,226.2z
		 M3927,574.1c-3.6,1.2-7.2,2.3-10.7,3.5c1.4-0.3,2.7-0.7,4.1-1c3.6-1.1,7.3-2.3,11-3.5C3929.9,573.4,3928.5,573.7,3927,574.1z
		 M3973.8,558.7c-6.4,2.2-12.8,4.3-19.2,6.4c2.7-0.6,5.4-1.3,8.1-1.9c6.8-2.1,13.6-4.3,20.3-6.4
		C3979.9,557.4,3976.8,558,3973.8,558.7z M4019.5,543.3c-8.6,2.9-17.2,5.8-25.7,8.7c4.7-1,9.4-2,14.1-3.1c8.3-2.7,16.8-5.5,25.2-8.3
		C4028.6,541.5,4024,542.4,4019.5,543.3z M4067,527.1c-9.9,3.4-19.8,6.8-29.6,10.1c5-1,9.9-1.9,14.9-2.9l30.1-9.9
		C4077.2,525.4,4072.1,526.2,4067,527.1z M4114.7,510.5c-11.2,3.9-22.4,7.8-33.5,11.7c6-1.1,12-2.2,18-3.3
		c10.7-3.6,21.6-7.3,32.4-11C4126,508.8,4120.3,509.7,4114.7,510.5z M4163.5,493.4c-12.1,4.3-24.2,8.5-36.2,12.7
		c5.9-0.9,11.7-1.8,17.5-2.7c12.1-4.1,24.2-8.2,36.4-12.3C4175.3,491.9,4169.4,492.6,4163.5,493.4z M4212.5,475.8
		c-12.9,4.7-25.8,9.3-38.6,13.8c6.4-0.8,12.8-1.7,19.1-2.6c12.4-4.3,25.1-8.8,37.8-13.2C4224.7,474.5,4218.6,475.2,4212.5,475.8z
		 M980.2,261.3c122.4,58.4,232.5,130,344.7,202.9c411.6,267.6,851.6,553.5,2031.9,270.5 M955,249.5c2.5,1.1,4.9,2.3,7.4,3.4
		c5.3,0.1,10.5,0.2,15.8,0.2c-2.6-1-5.2-2.1-7.8-3.1C965.2,249.9,960.1,249.7,955,249.5z M942.2,243.8c2.4,1,4.7,2.1,7.1,3.2
		c4.8,0.2,9.6,0.3,14.5,0.5c-2.5-1-4.9-1.9-7.4-2.8C951.6,244.3,946.9,244.1,942.2,243.8z M929.6,238.3c2.2,1,4.4,1.9,6.6,2.9
		c4.3,0.2,8.6,0.5,12.8,0.7c-2.3-0.9-4.6-1.7-6.8-2.6C938,238.9,933.8,238.6,929.6,238.3z M917,232.9c1.9,0.8,3.9,1.7,5.8,2.5
		c3.7,0.3,7.3,0.5,11,0.8c-2-0.7-4-1.5-6-2.2C924.3,233.6,920.7,233.2,917,232.9z M904.6,227.7c1.6,0.7,3.2,1.3,4.9,2l9.1,0.9
		c-1.7-0.6-3.3-1.2-5-1.8L904.6,227.7z M892.3,222.7l3.5,1.4c2.2,0.3,4.4,0.6,6.6,0.8l-3.5-1.2C896.7,223.4,894.5,223.1,892.3,222.7
		z M880.9,218.2l1.4,0.5l3,0.5l-1.2-0.4C883.1,218.6,882,218.4,880.9,218.2z M3845.3,597.5c-3.1,1-6.2,2.1-9.2,3.1l0.8-0.2
		c3.8-1.2,7.5-2.4,11.3-3.6L3845.3,597.5z M3891.7,582c-6.6,2.2-13.2,4.4-19.8,6.6c3.1-0.8,6.3-1.6,9.4-2.3c6.3-2,12.8-4.2,19.2-6.2
		C3897.6,580.7,3894.7,581.3,3891.7,582z M3937.7,566.3c-7.8,2.7-15.6,5.4-23.3,8.1c3.7-0.8,7.4-1.6,11.1-2.5
		c8.7-2.8,17.3-5.6,26-8.5C3947,564.3,3942.3,565.3,3937.7,566.3z M3986,549.6l-29.4,10.2c5.2-1.1,10.5-2.2,15.8-3.3
		c9.4-3.1,18.9-6.4,28.4-9.6C3995.7,547.8,3990.9,548.7,3986,549.6z M4034.1,532.7c-10.9,3.9-21.8,7.8-32.5,11.5
		c5.5-1,11-2.1,16.5-3.2c11.2-3.8,22.3-7.5,33.6-11.3C4045.7,530.7,4039.9,531.7,4034.1,532.7z M4083.2,515.2
		c-12,4.3-23.9,8.5-35.8,12.8c6-1,12.1-2,18.2-3.1c11.6-4,23.3-8.1,35-12.2C4094.7,513.5,4089,514.4,4083.2,515.2z M4132.9,497.2
		c-12.8,4.7-25.6,9.3-38.2,13.9c6.1-0.9,12.3-1.9,18.5-2.8c12.8-4.5,25.5-8.9,38.4-13.4C4145.4,495.6,4139.1,496.5,4132.9,497.2z
		 M4183.5,478.6c-13.6,5-27.1,10-40.6,14.9c6.4-0.8,12.7-1.6,19.1-2.4c13.1-4.7,26.5-9.5,39.8-14.3
		C4195.7,477.5,4189.6,478,4183.5,478.6z M931.6,248.8c2.5,1.3,4.9,2.6,7.4,3.9c5.5,0.1,11.1,0.1,16.6,0.2c-2.6-1.2-5.2-2.4-7.8-3.6
		C942.3,249.1,936.9,249,931.6,248.8z M919.6,242.6c2.4,1.2,4.8,2.4,7.1,3.6c5.1,0.1,10.2,0.3,15.3,0.5c-2.5-1.1-5-2.2-7.5-3.3
		C929.6,243.2,924.6,242.9,919.6,242.6z M907.6,236.6c2.2,1.1,4.5,2.2,6.7,3.4c4.7,0.2,9.4,0.5,14,0.7c-2.4-1-4.7-2.1-7.1-3.1
		C916.7,237.3,912.1,236.9,907.6,236.6z M895.5,230.8c2.1,1,4.2,2,6.3,3.1c4.2,0.3,8.4,0.6,12.6,0.9c-2.2-0.9-4.4-1.9-6.7-2.8
		C903.7,231.6,899.6,231.1,895.5,230.8z M883.6,225.1c1.9,0.9,3.8,1.8,5.8,2.7c3.6,0.3,7.2,0.6,10.8,1c-2-0.8-4.1-1.6-6.1-2.4
		C890.5,225.9,887,225.5,883.6,225.1z M871.7,219.6c1.6,0.7,3.2,1.5,4.8,2.2c2.9,0.3,5.9,0.7,8.8,1c-1.6-0.6-3.3-1.3-4.9-1.9
		C877.6,220.5,874.7,220.1,871.7,219.6z M860.2,214.4c1.2,0.5,2.3,1,3.4,1.5c2.1,0.3,4.3,0.6,6.4,0.9c-1.2-0.4-2.3-0.9-3.5-1.3
		C864.4,215.2,862.3,214.8,860.2,214.4z M849.2,209.7l1.4,0.6l3.1,0.5l-1.3-0.5L849.2,209.7z M3763.6,621.5l-0.6,0.2L3763.6,621.5
		L3763.6,621.5z M3808,606.3c-5.7,2-11.5,3.9-17.2,5.9c2.4-0.6,4.7-1.2,7.1-1.8c6.7-2.2,13.1-4.2,19.8-6.4
		C3814.5,604.7,3811.2,605.5,3808,606.3z M3856.3,589.7c-8.1,2.8-16.1,5.5-24.2,8.3c3.9-0.9,7.8-1.8,11.7-2.8
		c7.8-2.6,15.6-5.2,23.4-7.8C3863.6,588.2,3860,588.9,3856.3,589.7z M3903.7,573c-9.5,3.4-19.1,6.8-28.5,10.1
		c4.9-1.1,10-2.2,14.9-3.3c9.6-3.3,19.2-6.5,28.9-9.8C3914,571,3908.9,572,3903.7,573z M3952.5,555.8c-10.9,3.9-21.6,7.6-32.5,11.5
		c5.4-1.1,10.8-2.1,16.2-3.2c10.8-3.7,21.8-7.5,32.7-11.3C3963.5,553.8,3958,554.8,3952.5,555.8z M4001.8,538
		c-11.6,4.3-23.3,8.5-34.8,12.7c5.8-1.1,11.6-2.1,17.4-3.2c11.6-4.1,23.2-8.1,35-12.2C4013.5,536.1,4007.7,537,4001.8,538z
		 M4052.1,519.6c-12.8,4.7-25.5,9.3-38.3,13.9c6.2-1,12.5-2.1,18.8-3.1c12.5-4.4,25.1-8.9,37.7-13.4
		C4064.2,517.9,4058.1,518.8,4052.1,519.6z M4102.9,500.7c-13.3,5-26.7,10-39.7,14.9c6.2-0.9,12.4-1.8,18.6-2.7
		c13.2-4.7,26.5-9.5,39.8-14.4C4115.3,499.3,4109.1,500,4102.9,500.7z M4154.7,481.4c-14.2,5.3-28.3,10.6-42.4,15.9
		c6.4-0.8,12.8-1.5,19.2-2.3c13.8-5,27.8-10.2,41.7-15.3C4167,480.2,4160.8,480.8,4154.7,481.4z M908.2,248.2
		c2.4,1.4,4.8,2.9,7.2,4.3c5.8,0,11.5,0.1,17.3,0.1c-2.5-1.3-5.1-2.7-7.6-4C919.4,248.4,913.8,248.3,908.2,248.2z M896.9,241.6
		c2.3,1.4,4.7,2.7,7,4.1c5.4,0.1,10.8,0.2,16.1,0.4c-2.5-1.3-5-2.5-7.5-3.8C907.4,242,902.2,241.8,896.9,241.6z M885.6,235.1
		c2.3,1.3,4.6,2.6,6.8,3.9c5,0.2,10,0.4,14.9,0.7c-2.4-1.2-4.9-2.4-7.3-3.6C895.3,235.8,890.4,235.5,885.6,235.1z M874.2,228.8
		c2.2,1.2,4.4,2.4,6.6,3.6c4.5,0.3,9.1,0.6,13.6,0.9c-2.3-1.1-4.6-2.2-6.9-3.3C883.1,229.6,878.6,229.2,874.2,228.8z M862.9,222.7
		c2,1.1,4,2.2,6.1,3.3c4.1,0.4,8.1,0.7,12.2,1.1c-2.1-1-4.3-2-6.4-3C870.8,223.6,866.8,223.1,862.9,222.7z M851.5,216.8
		c1.8,0.9,3.7,1.9,5.5,2.9c3.5,0.4,7,0.8,10.5,1.1c-1.9-0.9-3.9-1.7-5.8-2.6C858.3,217.7,854.9,217.2,851.5,216.8z M840.2,211
		c1.6,0.8,3.2,1.6,4.8,2.4c2.9,0.4,5.8,0.8,8.7,1.2c-1.6-0.7-3.3-1.4-5-2.1C845.8,212,843,211.5,840.2,211z M829.3,205.6
		c1.2,0.6,2.4,1.1,3.5,1.7c2.1,0.3,4.2,0.7,6.2,1c-1.2-0.5-2.4-1-3.6-1.5C833.4,206.4,831.3,206,829.3,205.6z M818.9,200.6l1.5,0.7
		c1.1,0.2,2.2,0.4,3.2,0.6c-0.4-0.2-0.9-0.4-1.3-0.5L818.9,200.6z M3677.7,647.1l-8.1,2.8l0.6-0.2c2.9-1,5.9-2,8.9-2.9L3677.7,647.1
		z M3724.9,630.9c-5,1.8-10.1,3.5-15,5.2l4.7-1.2c5.6-1.9,11.2-3.7,16.8-5.5C3729.1,630,3727,630.4,3724.9,630.9z M3772.5,614.3
		c-7.8,2.7-15.5,5.4-23.3,8.1c4.3-1,8.6-2.1,12.9-3.2c7.3-2.5,14.7-5,22.1-7.6C3780.3,612.6,3776.4,613.4,3772.5,614.3z
		 M3821.2,597.1c-9.6,3.4-19.1,6.7-28.6,10.1c4.6-1.1,9.2-2.1,13.8-3.2c9.7-3.3,19.3-6.6,29-9.9
		C3830.7,595.1,3826,596.2,3821.2,597.1z M3869.4,579.8c-10.4,3.8-20.9,7.6-31.2,11.2c5.5-1.2,11-2.3,16.6-3.5
		c10.3-3.6,20.7-7.3,31.2-11C3880.4,577.6,3874.9,578.7,3869.4,579.8z M3920.1,561.5c-12,4.4-23.7,8.6-35.6,12.9
		c5.9-1.1,11.9-2.4,17.8-3.5c11.6-4.1,23.1-8.2,34.7-12.3C3931.3,559.5,3925.7,560.5,3920.1,561.5z M3969.6,543.1
		c-12.4,4.6-24.8,9.2-37,13.7c6.1-1.1,12.2-2.1,18.4-3.2c12.3-4.4,24.8-8.9,37.3-13.5C3982.1,541.1,3975.8,542.1,3969.6,543.1z
		 M4021.7,523.7c-13.6,5.1-26.9,10-40.4,15c6.3-1,12.7-2,19.1-3c13.1-4.8,26.3-9.6,39.5-14.4
		C4033.8,522.1,4027.7,522.9,4021.7,523.7z M4073,504.1c-13.9,5.3-27.8,10.7-41.5,15.8c6.3-0.9,12.7-1.7,19.1-2.6
		c13.7-5,27.6-10.2,41.5-15.4C4085.7,502.7,4079.4,503.5,4073,504.1z M4126.1,483.9c-14.8,5.7-29.4,11.2-44.2,16.9
		c6.5-0.7,13-1.5,19.5-2.3c14.4-5.4,28.9-10.8,43.4-16.3C4138.6,482.8,4132.3,483.4,4126.1,483.9z M884.7,247.6
		c2.3,1.6,4.7,3.2,7,4.8c6,0,12,0,18,0.1c-2.5-1.5-5-3-7.5-4.4C896.3,247.9,890.5,247.7,884.7,247.6z M874.2,240.6
		c2.3,1.5,4.6,3,6.9,4.6c5.6,0.1,11.2,0.2,16.8,0.4c-2.4-1.4-4.9-2.8-7.3-4.2C885.1,241.1,879.7,240.8,874.2,240.6z M863.6,233.8
		c2.3,1.4,4.5,2.9,6.7,4.3c5.2,0.2,10.4,0.4,15.7,0.6c-2.4-1.3-4.7-2.7-7.1-4C873.8,234.4,868.7,234.1,863.6,233.8z M853,227
		c2.2,1.4,4.3,2.7,6.5,4.1c4.8,0.3,9.6,0.6,14.5,0.8c-2.3-1.3-4.6-2.5-6.9-3.8C862.4,227.8,857.7,227.4,853,227z M842.2,220.4
		c2.1,1.3,4.2,2.6,6.3,3.8c4.4,0.4,8.9,0.7,13.3,1.1c-2.2-1.2-4.5-2.4-6.7-3.5C850.8,221.4,846.5,220.9,842.2,220.4z M831.5,214
		c2,1.2,3.9,2.3,5.9,3.5c3.9,0.4,7.9,0.8,11.8,1.3c-2.1-1.1-4.2-2.2-6.3-3.2C839.1,215,835.3,214.5,831.5,214z M820.8,207.8
		c1.8,1,3.6,2,5.4,3.1c3.4,0.4,6.8,0.9,10.2,1.3c-1.8-0.9-3.7-1.9-5.5-2.8C827.5,208.9,824.1,208.4,820.8,207.8z M810.2,201.9
		c1.5,0.8,3,1.7,4.4,2.5c2.8,0.4,5.6,0.9,8.4,1.3c-1.6-0.8-3.2-1.5-4.8-2.3C815.6,202.9,812.9,202.4,810.2,201.9z M799.7,196.2
		l3.4,1.8c2,0.4,4.1,0.7,6.1,1.1l-3.5-1.6L799.7,196.2z M789.7,190.9l1.6,0.8l3.1,0.7l-1.6-0.7L789.7,190.9z M3641.1,656.2
		c-5.1,1.8-10.1,3.6-15.1,5.3l5.2-1.4c5.2-1.7,10.5-3.6,15.7-5.3C3644.9,655.3,3643,655.7,3641.1,656.2z M3688.6,639.5
		c-7.8,2.8-15.7,5.5-23.5,8.3c3.6-0.9,7.4-1.9,11-2.8c8.1-2.8,16.1-5.4,24.2-8.2C3696.4,637.6,3692.5,638.5,3688.6,639.5z
		 M3736.6,622.3c-8.8,3.2-17.6,6.4-26.3,9.5c4.4-1,8.7-2,13.2-3.1c9-3.1,18.2-6.4,27.3-9.6C3746.1,620.2,3741.3,621.3,3736.6,622.3z
		 M3786.4,604.3c-10.5,3.8-20.9,7.6-31.4,11.4c5.3-1.2,10.6-2.4,15.9-3.6c10.5-3.7,20.8-7.3,31.3-10.9
		C3796.9,602.2,3791.7,603.2,3786.4,604.3z M3836.3,585.9c-11.5,4.3-23.1,8.6-34.5,12.8c5.9-1.2,11.9-2.5,17.9-3.8
		c11.1-4,22.5-8.1,33.8-12.2C3847.8,583.8,3842,584.9,3836.3,585.9z M3887.2,567.1c-12.5,4.7-24.8,9.2-37.3,13.8
		c6-1.1,11.9-2.2,18-3.3c12.6-4.5,25-9,37.6-13.6C3899.4,565,3893.3,566.1,3887.2,567.1z M3938.6,547.6c-13.2,5-26.4,10.1-39.5,14.9
		c6.5-1.1,13-2.2,19.5-3.4c12.7-4.6,25.6-9.5,38.5-14.3C3950.9,545.9,3944.7,546.7,3938.6,547.6z M3990.8,527.7
		c-14,5.4-27.8,10.6-41.6,15.9c6.3-0.9,12.6-1.8,18.9-2.8c14-5.2,27.9-10.3,41.9-15.6C4003.6,526.1,3997.2,526.9,3990.8,527.7z
		 M4043.9,507.2c-14.6,5.7-29.2,11.3-43.6,16.9c6.6-0.8,13.3-1.8,20-2.6c14-5.3,28.3-10.8,42.6-16.2
		C4056.5,505.9,4050.2,506.6,4043.9,507.2z M4097.6,486.2c-15.1,6-30.2,11.9-45.2,17.7c6.4-0.7,12.7-1.3,19.1-2
		c15-5.7,30-11.4,45-17.2C4110.3,485.2,4104,485.7,4097.6,486.2z M861.3,247.2c2.2,1.7,4.5,3.4,6.7,5.2c6.1,0,12.2,0,18.4,0
		c-2.4-1.6-4.7-3.3-7.1-4.9C873.2,247.4,867.2,247.3,861.3,247.2z M851.5,239.8c2.2,1.7,4.4,3.3,6.6,5c5.8,0.1,11.6,0.2,17.4,0.3
		c-2.4-1.6-4.7-3.1-7.1-4.7C862.8,240.2,857.1,240,851.5,239.8z M841.7,232.5c2.2,1.6,4.3,3.2,6.4,4.8c5.5,0.2,10.9,0.4,16.4,0.6
		c-2.3-1.5-4.7-3-7.1-4.5C852.2,233.1,847,232.8,841.7,232.5z M831.7,225.4c2.1,1.5,4.3,3,6.4,4.6c5.1,0.3,10.2,0.5,15.2,0.8
		c-2.3-1.4-4.6-2.9-6.9-4.3C841.5,226.1,836.6,225.7,831.7,225.4z M821.7,218.4c2.1,1.4,4.2,2.9,6.3,4.3c4.6,0.3,9.3,0.7,13.9,1
		c-2.2-1.3-4.4-2.7-6.6-4C830.8,219.3,826.2,218.8,821.7,218.4z M811.6,211.5c2,1.3,4,2.7,6,4c4.3,0.4,8.5,0.9,12.8,1.3
		c-2.1-1.2-4.2-2.5-6.3-3.7C819.9,212.5,815.7,212,811.6,211.5z M801.5,204.9c1.9,1.2,3.7,2.4,5.5,3.7c3.8,0.5,7.6,0.9,11.4,1.4
		c-2-1.1-4-2.3-6-3.4C808.8,206,805.2,205.4,801.5,204.9z M791.2,198.4c1.7,1.1,3.5,2.2,5.2,3.3c3.3,0.5,6.6,1,10,1.5
		c-1.8-1-3.7-2-5.6-3C797.7,199.5,794.5,198.9,791.2,198.4z M781.2,192.2c1.5,0.9,3,1.8,4.5,2.7c2.7,0.5,5.3,0.9,8,1.4
		c-1.6-0.8-3.1-1.6-4.7-2.5C786.5,193.3,783.8,192.7,781.2,192.2z M771.4,186.3c1.1,0.7,2.2,1.3,3.3,2c2,0.4,3.9,0.8,5.9,1.2
		c-1.1-0.6-2.2-1.2-3.4-1.7C775.3,187.2,773.3,186.7,771.4,186.3z M762,180.8l1.6,0.9l3,0.7l-1.6-0.8C764,181.4,763,181.1,762,180.8
		z M3555.8,682.3c-4.9,1.8-9.9,3.5-14.8,5.3c2-0.6,4.1-1.2,6.2-1.7c5-1.7,10.1-3.5,15.2-5.2L3555.8,682.3z M3603.4,665.4l-21.8,7.7
		c3.3-0.9,6.6-1.7,9.9-2.5c7.8-2.7,15.6-5.3,23.4-8C3611.1,663.5,3607.2,664.5,3603.4,665.4z M3652,647.9
		c-8.6,3.1-17.2,6.3-25.6,9.3c4.5-1.1,9-2.2,13.6-3.3c8.5-3,17.2-6.1,25.8-9.1C3661.1,645.9,3656.6,646.9,3652,647.9z M3702.4,629.6
		c-10.6,3.9-21,7.6-31.5,11.5c5.5-1.3,11-2.6,16.5-3.9c10.3-3.6,20.5-7.2,30.8-10.9C3712.9,627.4,3707.6,628.5,3702.4,629.6z
		 M3752,611.1c-11.3,4.2-22.6,8.4-33.7,12.6c5.7-1.2,11.3-2.4,17.1-3.6c11.4-4.1,22.9-8.3,34.3-12.4
		C3763.8,608.8,3757.9,610,3752,611.1z M3803.3,591.9c-12.4,4.7-24.5,9.2-36.8,13.8c6.2-1.2,12.4-2.4,18.6-3.7
		c12-4.4,24.1-8.8,36.2-13.3C3815.3,589.8,3809.3,590.9,3803.3,591.9z M3855,572.3c-13.2,5-26.4,10.1-39.5,15
		c6.4-1.2,13-2.4,19.5-3.6c13-4.8,26-9.6,39-14.5C3867.7,570.2,3861.4,571.3,3855,572.3z M3907.4,552.2
		c-13.8,5.3-27.5,10.6-41.1,15.8c6.5-1.1,13-2.1,19.5-3.1c13.4-5,27.1-10.2,40.8-15.4C3920.2,550.3,3913.8,551.3,3907.4,552.2z
		 M3960.9,531.4c-14.6,5.7-29.1,11.3-43.6,16.9c6.6-0.9,13.3-2,19.9-2.9c14.4-5.4,28.6-10.8,43.1-16.3
		C3973.8,529.8,3967.4,530.6,3960.9,531.4z M4014.8,510.2c-15,5.9-30,11.9-44.7,17.7c6.5-0.8,12.9-1.5,19.5-2.4
		c14.7-5.6,29.5-11.4,44.4-17.2C4027.5,508.9,4021.1,509.5,4014.8,510.2z M4069.7,488.4c-15.7,6.3-31.2,12.4-46.9,18.6
		c6.6-0.6,13.1-1.3,19.7-2c15.3-6,30.7-12,46.2-18C4082.4,487.4,4076,487.9,4069.7,488.4z M837.7,246.9c2.1,1.9,4.2,3.7,6.3,5.6
		c6.3,0,12.6-0.1,18.8-0.1c-2.3-1.8-4.6-3.5-6.8-5.3C849.9,247,843.8,247,837.7,246.9z M828.7,239.1c2.1,1.8,4.2,3.6,6.2,5.4
		c6,0.1,11.9,0.1,17.9,0.2c-2.3-1.7-4.5-3.4-6.8-5.1C840.3,239.4,834.5,239.3,828.7,239.1z M819.6,231.4c2.1,1.7,4.2,3.5,6.3,5.2
		c5.6,0.2,11.2,0.3,16.8,0.5c-2.2-1.6-4.5-3.3-6.7-4.9C830.5,231.9,825.1,231.7,819.6,231.4z M810.4,223.8c2.1,1.7,4.1,3.3,6.2,5
		c5.3,0.2,10.5,0.5,15.8,0.8c-2.2-1.6-4.4-3.2-6.6-4.7C820.7,224.6,815.5,224.2,810.4,223.8z M801.1,216.4c2,1.6,4,3.2,6,4.8
		c4.9,0.3,9.8,0.7,14.7,1c-2.2-1.5-4.4-3-6.6-4.5C810.6,217.3,805.9,216.9,801.1,216.4z M791.7,209.1c2,1.5,3.9,3,5.9,4.5
		c4.5,0.4,9.1,0.8,13.6,1.2c-2.1-1.4-4.3-2.8-6.4-4.2C800.5,210.2,796.1,209.6,791.7,209.1z M782.2,202.1c1.9,1.4,3.8,2.8,5.7,4.2
		c4.2,0.5,8.3,1,12.4,1.5c-2-1.3-4.1-2.6-6.2-4C790.2,203.2,786.2,202.6,782.2,202.1z M772.6,195.1c1.8,1.3,3.7,2.6,5.5,3.9
		c3.6,0.5,7.3,1,10.9,1.5c-1.9-1.2-3.8-2.4-5.7-3.6C779.8,196.4,776.2,195.7,772.6,195.1z M763.2,188.5c1.6,1.1,3.2,2.2,4.8,3.4
		c3.2,0.5,6.4,1.1,9.6,1.6c-1.8-1.1-3.5-2.1-5.3-3.2C769.3,189.7,766.2,189.1,763.2,188.5z M753.6,182c1.4,0.9,2.8,1.9,4.2,2.9
		c2.6,0.5,5.2,1,7.8,1.5c-1.5-0.9-3-1.7-4.5-2.6C758.6,183.2,756.1,182.6,753.6,182z M744.2,175.9c1.1,0.7,2.2,1.4,3.2,2.1
		c1.9,0.4,3.8,0.9,5.7,1.3c-1.2-0.7-2.4-1.3-3.5-1.9C747.8,176.8,746,176.4,744.2,175.9z M735.4,170.3c0.6,0.3,1.1,0.7,1.7,1
		c1,0.3,2,0.5,2.9,0.8c-0.6-0.3-1.1-0.6-1.7-0.9C737.3,170.9,736.3,170.6,735.4,170.3z M3469.3,709.2c-4.6,1.7-9.3,3.3-14,5
		c1.7-0.5,3.4-0.9,5.2-1.4c5-1.7,10.1-3.5,15.2-5.3C3473.6,708.1,3471.4,708.7,3469.3,709.2z M3517.6,692
		c-6.8,2.5-13.5,4.8-20.3,7.3c3.3-0.9,6.6-1.7,9.9-2.6c7.1-2.5,14-4.9,21.1-7.3C3524.7,690.2,3521.1,691.1,3517.6,692z M3566.9,674
		c-8.6,3.2-17.3,6.4-25.9,9.5c4.6-1.2,9.2-2.4,13.9-3.5c8.4-3,16.9-6,25.4-9C3575.8,672,3571.4,673,3566.9,674z M3617.1,655.6
		c-10.4,3.9-20.7,7.6-31.1,11.4c5.4-1.3,10.8-2.6,16.2-3.9c10.2-3.7,20.4-7.3,30.7-11C3627.7,653.3,3622.4,654.5,3617.1,655.6z
		 M3666.8,637c-11,4.1-22,8.2-32.9,12.3c5.7-1.3,11.3-2.5,17-3.8c11.2-4.1,22.5-8.2,33.8-12.3C3678.7,634.5,3672.7,635.8,3666.8,637
		z M3718.6,617.5c-12.2,4.6-24.3,9.2-36.3,13.7c6.2-1.3,12.5-2.6,18.8-4c11.7-4.3,23.5-8.7,35.3-13.1
		C3730.5,615.3,3724.6,616.4,3718.6,617.5z M3770.7,597.6c-13.1,5-26.2,10-39.3,15c6.4-1.2,12.9-2.5,19.3-3.7
		c13.1-4.9,26-9.6,39.1-14.6C3783.5,595.4,3777.1,596.5,3770.7,597.6z M3823.2,577.3c-13.5,5.3-27.1,10.6-40.5,15.8
		c6.5-1.1,12.9-2.2,19.4-3.4c13.3-5,26.9-10.2,40.4-15.4C3836,575.3,3829.6,576.3,3823.2,577.3z M3877,556.3
		c-14.6,5.7-29,11.3-43.5,17c6.7-1,13.5-2.2,20.2-3.3c14.2-5.4,28.3-10.8,42.6-16.3C3889.9,554.5,3883.4,555.4,3877,556.3z
		 M3931,534.9c-14.9,5.9-29.8,11.9-44.6,17.7c6.6-0.9,13.1-1.7,19.7-2.7c14.7-5.7,29.5-11.4,44.4-17.2
		C3944,533.4,3937.5,534.1,3931,534.9z M3985.9,512.9c-15.6,6.3-31,12.4-46.4,18.6c6.7-0.8,13.4-1.6,20.1-2.4
		c15.1-5.9,30.5-12,45.8-18C3998.9,511.7,3992.4,512.3,3985.9,512.9z M4041.7,490.4c-16.1,6.5-32,13-48,19.4
		c6.6-0.6,13.1-1.3,19.7-1.9c15.9-6.3,31.7-12.5,47.7-18.9C4054.6,489.5,4048.2,489.9,4041.7,490.4z M814.1,246.7c2,2,3.9,4,5.9,6
		c6.4-0.1,12.8-0.1,19.2-0.2c-2.1-1.9-4.3-3.8-6.4-5.7C826.5,246.8,820.3,246.7,814.1,246.7z M805.8,238.5c2,1.9,4,3.9,5.9,5.8
		c6.1,0,12.2,0.1,18.2,0.1c-2.1-1.8-4.2-3.7-6.4-5.5C817.7,238.8,811.8,238.6,805.8,238.5z M797.5,230.4c2,1.9,3.9,3.8,5.9,5.7
		c5.8,0.1,11.5,0.3,17.3,0.4c-2.1-1.8-4.2-3.6-6.4-5.4C808.7,230.9,803.1,230.6,797.5,230.4z M789.1,222.4c2,1.8,3.9,3.7,5.8,5.5
		c5.5,0.2,10.9,0.5,16.4,0.7c-2.1-1.7-4.3-3.4-6.4-5.1C799.6,223.1,794.3,222.8,789.1,222.4z M780.5,214.6c1.9,1.7,3.8,3.5,5.8,5.2
		c5.1,0.3,10.3,0.7,15.4,1c-2.1-1.7-4.2-3.3-6.4-5C790.3,215.5,785.4,215,780.5,214.6z M771.8,207c1.9,1.7,3.9,3.3,5.8,5
		c4.7,0.4,9.5,0.8,14.2,1.2c-2.1-1.6-4.1-3.2-6.2-4.7C781,207.9,776.4,207.4,771.8,207z M763,199.4c1.9,1.6,3.8,3.1,5.6,4.7
		c4.4,0.5,8.7,0.9,13.1,1.4c-2-1.5-4-3-6-4.4C771.5,200.6,767.2,200,763,199.4z M754.1,192.1c1.8,1.5,3.5,2.9,5.3,4.4
		c4,0.5,8,1,11.9,1.6c-1.9-1.4-3.9-2.8-5.9-4.1C761.8,193.3,758,192.7,754.1,192.1z M745.1,185c1.7,1.3,3.4,2.7,5.1,4
		c3.6,0.6,7.2,1.1,10.7,1.7c-1.9-1.3-3.7-2.5-5.6-3.8C751.9,186.3,748.5,185.6,745.1,185z M736.1,178c1.6,1.2,3.2,2.4,4.7,3.6
		c3,0.6,6.1,1.1,9.1,1.7c-1.7-1.1-3.4-2.2-5.1-3.3C742,179.3,739.1,178.7,736.1,178z M727.1,171.4c1.4,1,2.7,2,4.1,3
		c2.5,0.5,5,1.1,7.5,1.7c-1.4-0.9-2.9-1.9-4.3-2.8C732,172.6,729.6,172,727.1,171.4z M718.4,165.1c1,0.7,2,1.5,3.1,2.2
		c1.8,0.5,3.6,0.9,5.4,1.4c-1.1-0.7-2.2-1.3-3.3-2C721.9,166.1,720.1,165.6,718.4,165.1z M709.8,159.2l1.6,1.1
		c0.9,0.3,1.8,0.5,2.7,0.8l-1.7-1C711.5,159.8,710.7,159.5,709.8,159.2z M3381.8,736.9c-3.8,1.4-7.7,2.8-11.5,4.1
		c1.6-0.5,3.2-0.9,4.8-1.4c4.1-1.4,8.3-2.9,12.4-4.3C3385.6,735.8,3383.7,736.4,3381.8,736.9z M3431.9,718.8
		c-6.6,2.4-13.2,4.8-19.7,7.2c3.2-0.9,6.4-1.7,9.6-2.6c6.8-2.4,13.4-4.7,20.3-7.1C3438.7,717.2,3435.3,718,3431.9,718.8z
		 M3481.2,700.8c-8.8,3.2-17.7,6.5-26.5,9.7c4.6-1.2,9.3-2.5,13.9-3.7c8.6-3.1,17.3-6.2,25.9-9.3
		C3490,698.6,3485.6,699.7,3481.2,700.8z M3530.8,682.4c-9.7,3.6-19.5,7.3-29.1,10.9c5-1.2,9.9-2.4,14.9-3.6c10-3.6,20-7.3,30.1-11
		C3541.5,679.9,3536.1,681.2,3530.8,682.4z M3581.8,663.3c-11.1,4.2-22.1,8.3-33.1,12.4c5.7-1.3,11.4-2.6,17.2-4
		c11-4,21.9-8,33-12.1C3593.1,660.9,3587.5,662.1,3581.8,663.3z M3633.2,643.7c-12.1,4.6-24.2,9.3-36.1,13.8
		c6.2-1.3,12.6-2.8,18.8-4.2c11.6-4.3,23.5-8.8,35.2-13.2C3645.2,641.3,3639.2,642.5,3633.2,643.7z M3685.5,623.6
		c-13,5-25.7,9.9-38.6,14.8c6.3-1.3,12.4-2.4,18.7-3.7c12.9-4.9,25.9-9.7,39-14.7C3698.2,621.3,3691.8,622.5,3685.5,623.6z
		 M3738.4,603c-13.6,5.3-27.2,10.6-40.6,15.8c6.5-1.2,13.1-2.4,19.6-3.6c13.3-5.1,26.7-10.2,40.1-15.3
		C3751.1,601,3744.7,602,3738.4,603z M3792.1,581.9c-14.3,5.7-28.6,11.3-42.8,16.9c6.7-1.1,13.5-2.3,20.2-3.5
		c13.9-5.4,28-10.8,42.2-16.3C3805.1,580,3798.6,580.9,3792.1,581.9z M3846.6,560.2c-14.9,6-29.8,11.8-44.6,17.7
		c6.6-1,13.2-1.9,19.9-3c14.8-5.7,29.4-11.4,44.3-17.2C3859.6,558.6,3853.1,559.4,3846.6,560.2z M3901.5,538.1
		c-15.4,6.2-30.8,12.5-45.9,18.6c6.7-0.9,13.4-1.8,20.1-2.7c15-5.9,30.3-12,45.5-18.1C3914.6,536.7,3908.1,537.4,3901.5,538.1z
		 M3957.7,515.4c-16.1,6.6-31.9,12.9-47.9,19.4c6.6-0.7,13.3-1.5,19.9-2.2c15.7-6.3,31.4-12.5,47.3-18.9
		C3970.5,514.3,3964.1,514.8,3957.7,515.4z M4014.1,492.2c-16.4,6.8-32.8,13.5-49,20.1c6.5-0.6,13-1.1,19.5-1.7
		c16.1-6.5,32.4-13,48.7-19.7C4026.9,491.4,4020.5,491.8,4014.1,492.2z M790.3,246.6c1.8,2.1,3.6,4.3,5.4,6.4
		c6.5-0.1,13-0.2,19.5-0.3c-2-2-3.9-4.1-5.9-6.1C803,246.7,796.7,246.6,790.3,246.6z M782.8,238c1.8,2.1,3.6,4.2,5.4,6.2
		c6.2,0,12.5,0,18.7,0.1c-2-2-4-4-6-5.9C794.9,238.3,788.9,238.1,782.8,238z M775.3,229.5c1.8,2,3.6,4,5.4,6.1
		c5.9,0.1,11.9,0.2,17.8,0.4c-2-1.9-4-3.8-6.1-5.8C786.7,230,781,229.7,775.3,229.5z M767.6,221.2c1.8,2,3.7,3.9,5.5,5.9
		c5.6,0.2,11.2,0.4,16.8,0.6c-2-1.9-4-3.7-6-5.6C778.4,221.8,773,221.5,767.6,221.2z M759.7,212.9c1.8,1.9,3.7,3.8,5.5,5.7
		c5.3,0.3,10.5,0.6,15.7,0.9c-2-1.8-3.9-3.6-5.9-5.4C769.9,213.8,764.8,213.3,759.7,212.9z M751.8,204.9c1.8,1.8,3.6,3.6,5.4,5.5
		c5,0.4,9.9,0.8,14.8,1.2c-2-1.7-4-3.5-6-5.2C761.3,205.8,756.5,205.4,751.8,204.9z M743.7,197c1.8,1.7,3.5,3.5,5.3,5.2
		c4.6,0.4,9.2,0.9,13.8,1.4c-1.9-1.7-3.9-3.3-5.9-4.9C752.5,198.1,748.1,197.5,743.7,197z M735.5,189.3c1.8,1.6,3.5,3.3,5.2,4.9
		c4.3,0.5,8.5,1.1,12.7,1.6c-1.9-1.6-3.9-3.1-5.8-4.7C743.6,190.5,739.5,189.9,735.5,189.3z M727.1,181.7c1.7,1.5,3.5,3.1,5.2,4.6
		c3.8,0.6,7.6,1.1,11.4,1.7c-1.8-1.4-3.6-2.9-5.5-4.3C734.5,183,730.8,182.3,727.1,181.7z M718.8,174.3c1.6,1.4,3.2,2.8,4.8,4.2
		c3.4,0.6,6.8,1.2,10.2,1.8c-1.8-1.3-3.5-2.7-5.3-4C725.3,175.7,722,175,718.8,174.3z M710.3,167.2c1.5,1.2,2.9,2.5,4.4,3.8
		c3,0.6,5.9,1.2,8.9,1.8c-1.6-1.2-3.2-2.3-4.8-3.5C715.9,168.6,713.1,167.8,710.3,167.2z M701.8,160.3c1.3,1,2.6,2.1,3.9,3.1
		c2.4,0.6,4.8,1.1,7.2,1.7c-1.4-1-2.8-1.9-4.3-2.9C706.4,161.6,704.1,161,701.8,160.3z M693.4,153.8c1,0.8,2.1,1.6,3.1,2.3
		c1.8,0.5,3.6,1,5.4,1.5c-1.1-0.7-2.3-1.5-3.4-2.2C696.8,154.9,695.1,154.3,693.4,153.8z M685.7,147.9c0.5,0.4,1,0.7,1.5,1.1
		l2.7,0.8c-0.5-0.3-1-0.7-1.5-1L685.7,147.9z M3295.9,764.2l-11.6,4.2l4.2-1.2c3.9-1.4,7.8-2.8,11.8-4.1
		C3298.8,763.5,3297.3,763.9,3295.9,764.2z M3345,746.4c-6.6,2.4-13.2,4.9-19.7,7.2c3.3-0.9,6.7-1.9,10-2.8c6.5-2.3,13.1-4.6,19.6-7
		C3351.7,744.7,3348.4,745.5,3345,746.4z M3394.7,728.1c-8.6,3.2-17.1,6.3-25.7,9.4c4.1-1.1,8-2,12.1-3.1c8.9-3.2,17.8-6.4,26.7-9.6
		C3403.5,725.9,3399.1,727,3394.7,728.1z M3443.9,709.7c-9.4,3.5-18.8,7.1-28.1,10.6c5.1-1.3,10.2-2.5,15.4-3.8
		c9.4-3.4,19-7,28.6-10.5C3454.4,707.2,3449.1,708.5,3443.9,709.7z M3495.7,690.2c-11.1,4.2-22,8.3-32.9,12.4
		c5.7-1.4,11.6-2.8,17.4-4.2c10.7-4,21.4-7.9,32.3-11.9C3506.8,687.8,3501.3,688.9,3495.7,690.2z M3547.3,670.4
		c-12.1,4.6-24.1,9.2-36.1,13.8c6.1-1.4,12.3-2.8,18.5-4.2c11.9-4.4,23.8-8.9,35.8-13.4C3559.4,667.9,3553.3,669.2,3547.3,670.4z
		 M3599.1,650.4c-12.5,4.9-25,9.8-37.3,14.5c6.3-1.3,12.5-2.6,18.8-3.9c12.5-4.7,25.1-9.5,37.8-14.4
		C3612,647.8,3605.5,649.2,3599.1,650.4z M3653,629.3c-13.7,5.4-27.3,10.6-40.9,15.9c6.6-1.3,13.3-2.6,19.9-3.9
		c13.3-5.1,26.6-10.1,40-15.3C3665.7,627.2,3659.4,628.2,3653,629.3z M3706.5,608.2c-14.1,5.6-28.2,11.3-42.2,16.7
		c6.6-1.2,13.2-2.3,19.9-3.5c13.9-5.4,28-10.9,42-16.4C3719.6,606,3713,607.1,3706.5,608.2z M3761.3,586.3
		c-14.9,6-29.6,11.8-44.3,17.7c6.7-1.1,13.4-2.1,20.1-3.2c14.5-5.7,29-11.4,43.7-17.2C3774.3,584.5,3767.8,585.4,3761.3,586.3z
		 M3816.4,564c-15.4,6.2-30.7,12.4-46,18.6c6.7-1,13.5-2,20.3-2.9c15.1-6,30.3-12,45.6-18.1C3829.7,562.3,3823,563.2,3816.4,564z
		 M3872.5,541.1c-15.9,6.5-31.7,13-47.3,19.4c6.7-0.8,13.4-1.6,20.1-2.5c15.4-6.2,31.1-12.5,46.7-18.8
		C3885.5,539.8,3879,540.4,3872.5,541.1z M3929.4,517.7c-16.5,6.8-32.7,13.5-49.1,20.2c6.6-0.7,13.2-1.3,19.8-2.1
		c16.2-6.6,32.4-13,48.7-19.7C3942.4,516.7,3935.9,517.2,3929.4,517.7z M3986.6,493.9c-16.8,7-33.6,14.1-50.1,20.9
		c6.6-0.5,13.2-1.1,19.8-1.7c16.4-6.7,33-13.5,49.6-20.4C3999.5,493.1,3993.1,493.5,3986.6,493.9z M766.5,246.7
		c1.6,2.3,3.3,4.5,4.9,6.8c6.6-0.1,13.3-0.3,19.9-0.4c-1.8-2.2-3.7-4.3-5.5-6.5C779.3,246.6,772.9,246.7,766.5,246.7z M759.8,237.7
		c1.7,2.2,3.3,4.4,4.9,6.6c6.3,0,12.7-0.1,19-0.1c-1.8-2.1-3.7-4.2-5.5-6.3C772,237.8,765.9,237.8,759.8,237.7z M752.9,228.8
		c1.7,2.2,3.4,4.3,5,6.5c6,0.1,12.1,0.2,18.1,0.3c-1.8-2.1-3.7-4.1-5.5-6.2C764.6,229.2,758.8,229,752.9,228.8z M746,220.1
		c1.7,2.1,3.4,4.2,5.1,6.3c5.7,0.2,11.4,0.4,17.2,0.6c-1.9-2-3.7-4-5.6-6C757.1,220.6,751.5,220.3,746,220.1z M738.9,211.5
		c1.7,2,3.4,4.1,5.1,6.1c5.4,0.3,10.8,0.5,16.2,0.8c-1.9-1.9-3.7-3.9-5.6-5.8C749.3,212.2,744.1,211.8,738.9,211.5z M731.7,203
		c1.7,1.9,3.3,3.9,5,5.9c5.1,0.3,10.3,0.7,15.4,1.1c-1.9-1.9-3.8-3.7-5.7-5.6C741.5,203.9,736.6,203.4,731.7,203z M724.3,194.7
		c1.7,1.9,3.4,3.8,5.1,5.7c4.8,0.4,9.5,0.9,14.3,1.3c-1.9-1.8-3.7-3.6-5.6-5.4C733.5,195.8,728.9,195.2,724.3,194.7z M716.7,186.5
		c1.7,1.8,3.4,3.6,5.1,5.4c4.4,0.5,8.8,1,13.3,1.5c-1.8-1.7-3.6-3.4-5.5-5.1C725.3,187.8,721,187.1,716.7,186.5z M709.1,178.6
		c1.7,1.7,3.3,3.4,4.9,5.1c4.1,0.6,8.2,1.1,12.2,1.7c-1.8-1.6-3.6-3.2-5.4-4.8C717,179.9,713.1,179.2,709.1,178.6z M701.4,170.8
		c1.6,1.6,3.1,3.2,4.7,4.7c3.7,0.6,7.5,1.3,11.2,1.9c-1.8-1.5-3.6-3-5.3-4.5C708.5,172.2,704.9,171.5,701.4,170.8z M693.5,163.2
		c1.5,1.5,3.1,2.9,4.6,4.4c3.3,0.6,6.6,1.2,9.9,1.9c-1.7-1.4-3.4-2.7-5-4.1C699.8,164.7,696.6,164,693.5,163.2z M685.6,155.9
		c1.4,1.3,2.9,2.6,4.3,3.9c2.8,0.6,5.7,1.3,8.5,2c-1.6-1.2-3.1-2.5-4.7-3.7C691,157.3,688.3,156.6,685.6,155.9z M677.6,148.8
		c1.2,1.1,2.5,2.2,3.7,3.3c2.3,0.6,4.6,1.2,6.9,1.8c-1.3-1-2.6-2-3.9-3C682.1,150.2,679.9,149.5,677.6,148.8z M669.9,142.2
		c0.9,0.8,1.9,1.6,2.8,2.4c1.6,0.5,3.3,0.9,4.9,1.4c-1-0.7-2-1.5-3-2.2C673,143.3,671.4,142.8,669.9,142.2z M662.1,135.9l1.6,1.3
		c0.8,0.3,1.7,0.6,2.5,0.9l-1.7-1.1C663.7,136.6,663,136.2,662.1,135.9z M3209.5,792.1c-4.3,1.6-8.4,3-12.7,4.6l2.7-0.8l13.6-4.8
		L3209.5,792.1z M3257.5,774.5c-6.6,2.4-13.2,4.9-19.7,7.3c3-0.8,6-1.7,9-2.5c6.7-2.4,13.6-4.9,20.3-7.3
		C3263.9,772.8,3260.7,773.6,3257.5,774.5z M3306.6,756.3c-7.8,2.9-15.5,5.8-23.1,8.6c4-1.1,7.9-2.1,11.9-3.2c8.3-3,16.6-6,25-9
		C3315.9,753.9,3311.2,755.1,3306.6,756.3z M3357.6,737.2c-9.6,3.6-19.1,7.2-28.7,10.8c5.1-1.3,10.3-2.6,15.4-4
		c9.2-3.4,18.5-6.8,27.7-10.2C3367.2,734.9,3362.5,736,3357.6,737.2z M3408.8,717.7c-10.9,4.2-21.9,8.4-32.6,12.5
		c5.8-1.4,11.8-3,17.7-4.4c10.5-3.9,21.1-7.9,31.7-11.9C3420,715.2,3414.4,716.4,3408.8,717.7z M3460.7,697.8
		c-11.9,4.6-23.6,9.1-35.5,13.6c5.9-1.4,11.7-2.6,17.6-4c12.1-4.5,24-9,36.2-13.6C3473,695.1,3466.8,696.5,3460.7,697.8z
		 M3513,677.4c-12.5,4.9-25.1,9.8-37.4,14.6c6.4-1.4,12.7-2.8,19.1-4.2c12.2-4.7,24.6-9.4,37-14.2
		C3525.4,674.9,3519.2,676.2,3513,677.4z M3566.6,656.3c-13.6,5.4-27.1,10.7-40.5,16c6.6-1.3,13.4-2.8,20.1-4.2
		c13.1-5.1,26.3-10.1,39.6-15.3C3579.3,654,3573,655.2,3566.6,656.3z M3620.3,635c-14,5.6-28,11.1-42,16.7c6.6-1.2,13-2.3,19.6-3.6
		c14.1-5.5,28.2-11,42.3-16.5C3633.7,632.7,3626.9,633.9,3620.3,635z M3675.2,612.9c-14.6,5.9-29.3,11.9-43.7,17.6
		c6.7-1.1,13.5-2.3,20.3-3.5c14.2-5.6,28.6-11.3,42.9-17C3688.2,611,3681.7,612,3675.2,612.9z M3730.8,590.5
		c-15.4,6.3-30.6,12.4-45.9,18.6c6.7-1,13.5-2.1,20.3-3.1c15.2-6,30.3-12,45.6-18.2C3744.1,588.6,3737.4,589.6,3730.8,590.5z
		 M3786.8,567.4c-15.8,6.5-31.5,13-47.1,19.3c6.7-0.9,13.5-1.8,20.2-2.8c15.4-6.2,30.9-12.5,46.4-18.8
		C3799.9,566,3793.4,566.7,3786.8,567.4z M3843.6,544c-16.3,6.8-32.5,13.5-48.6,20.1c6.7-0.8,13.4-1.6,20.1-2.4
		c16-6.5,32.1-13.1,48.3-19.7C3856.8,542.7,3850.2,543.4,3843.6,544z M3901.4,519.9c-16.8,7-33.5,14-50.2,20.9
		c6.7-0.6,13.4-1.3,20-2c16.5-6.8,33-13.5,49.7-20.4C3914.4,518.9,3907.9,519.4,3901.4,519.9z M3959.6,495.4
		c-17.1,7.3-34.3,14.5-51.1,21.6c6.6-0.5,13.1-1,19.7-1.5c16.7-6.9,33.7-14,50.7-21.1C3972.4,494.7,3966,495,3959.6,495.4z
		 M3900.1,517.6c17.1-7.2,34.4-14.5,51.7-21.8c-593,30.3-1135.2-43.5-1676.7-117.3c-328.9-44.8-657.5-89.5-997.1-110.9
		c291.9,26.6,573.8,72.2,857.3,118.1C2688.2,475.3,3247.5,565.8,3900.1,517.6z M3842.3,541.7c16.8-7,33.7-14,50.7-21.1
		c-650,47-1207.5-43.3-1758.8-132.5c-298.9-48.4-596-96.5-905-122.2c268.4,30.4,525.9,79.5,785.8,129
		C2569.5,500.5,3135.3,608.3,3842.3,541.7z M3356.8,734.8c11.5-4.3,23-8.7,34.6-13.1C2276.3,970.6,1814.6,706.9,1381.1,459
		c-125-71.5-247.7-141.6-383-197.6 M742.5,246.8c1.5,2.4,2.9,4.8,4.4,7.2c6.7-0.2,13.4-0.3,20.2-0.4c-1.7-2.3-3.3-4.6-5-6.9
		C755.5,246.7,749,246.8,742.5,246.8z M736.5,237.5c1.5,2.3,3,4.7,4.5,7c6.4-0.1,12.8-0.1,19.3-0.1c-1.7-2.2-3.3-4.5-5-6.7
		C749,237.5,742.8,237.5,736.5,237.5z M730.4,228.2c1.5,2.3,3.1,4.6,4.6,6.9c6.1,0,12.3,0.1,18.4,0.1c-1.7-2.2-3.4-4.4-5.1-6.5
		C742.4,228.5,736.4,228.3,730.4,228.2z M724.2,219.1c1.5,2.2,3.1,4.5,4.6,6.7c5.9,0.1,11.7,0.3,17.6,0.5c-1.7-2.1-3.5-4.3-5.2-6.4
		C735.6,219.6,729.9,219.3,724.2,219.1z M717.9,210.1c1.6,2.2,3.1,4.3,4.6,6.5c5.6,0.2,11.1,0.5,16.7,0.7c-1.7-2.1-3.5-4.2-5.3-6.3
		C728.6,210.7,723.3,210.4,717.9,210.1z M711.4,201.2c1.6,2.1,3.2,4.2,4.7,6.4c5.2,0.3,10.5,0.6,15.7,1c-1.7-2-3.4-4-5.2-6
		C721.5,202.1,716.5,201.6,711.4,201.2z M704.7,192.6c1.6,2,3.2,4,4.7,6.1c4.9,0.4,9.9,0.8,14.8,1.3c-1.7-2-3.5-3.9-5.2-5.8
		C714.3,193.6,709.5,193.1,704.7,192.6z M697.9,184c1.6,2,3.2,3.9,4.7,5.9c4.6,0.5,9.2,0.9,13.8,1.4c-1.7-1.9-3.5-3.7-5.2-5.6
		C706.8,185.2,702.4,184.6,697.9,184z M691,175.7c1.6,1.8,3.1,3.7,4.6,5.6c4.3,0.5,8.6,1.1,12.9,1.7c-1.7-1.8-3.5-3.6-5.3-5.4
		C699.2,176.9,695.1,176.3,691,175.7z M683.9,167.5c1.6,1.8,3.1,3.5,4.7,5.3c3.9,0.6,7.9,1.2,11.8,1.8c-1.7-1.7-3.4-3.3-5.1-5
		C691.5,168.9,687.7,168.2,683.9,167.5z M676.7,159.5c1.5,1.6,3.1,3.3,4.6,4.9c3.6,0.6,7.1,1.3,10.6,2c-1.6-1.6-3.2-3.1-4.9-4.7
		C683.6,161,680.1,160.3,676.7,159.5z M669.4,151.8c1.4,1.5,2.9,3,4.3,4.5c3.2,0.7,6.3,1.4,9.5,2.1c-1.6-1.4-3.1-2.9-4.7-4.3
		C675.4,153.3,672.4,152.5,669.4,151.8z M662,144.2c1.3,1.3,2.6,2.7,4,4c2.7,0.7,5.5,1.3,8.2,2c-1.4-1.3-2.9-2.5-4.4-3.7
		C667.1,145.7,664.6,145,662,144.2z M654.5,137c1.2,1.1,2.3,2.2,3.5,3.3c2.3,0.6,4.5,1.3,6.8,1.9c-1.3-1.1-2.7-2.2-4.1-3.3
		C658.6,138.3,656.6,137.7,654.5,137z M647.1,130.1c1,0.9,1.9,1.7,2.9,2.6c1.6,0.5,3.2,1,4.8,1.5c-1-0.8-2-1.6-3-2.3
		C650.2,131.3,648.6,130.7,647.1,130.1z M640.2,123.9c0.5,0.4,0.9,0.8,1.3,1.2c0.8,0.3,1.6,0.6,2.3,0.8c-0.5-0.4-1-0.7-1.4-1.1
		L640.2,123.9z M4037.6,469.7c-6.3,0.2-12.7,0.4-19,0.6c-17.7,7.6-35.1,14.9-52.6,22.3c6.4-0.3,12.9-0.7,19.3-1.1
		C4002.8,484.3,4020.1,477.1,4037.6,469.7z M4063.9,468.8c-6.3,0.2-12.6,0.5-18.9,0.7c-17.4,7.3-34.5,14.5-51.7,21.7
		c6.5-0.4,13-0.8,19.5-1.2C4029.8,482.9,4046.7,475.9,4063.9,468.8z M4090.3,467.7c-6.3,0.3-12.6,0.5-18.9,0.8
		c-16.9,7-33.7,14-50.5,20.9c6.5-0.4,12.9-0.8,19.4-1.3C4056.9,481.4,4073.6,474.5,4090.3,467.7z M4117.1,466.5
		c-6.3,0.3-12.7,0.6-19,0.9c-16.4,6.7-32.9,13.5-49.1,20.1c6.5-0.5,13-0.9,19.4-1.4C4084.4,479.7,4100.8,473,4117.1,466.5z
		 M4144,465.1c-6.3,0.3-12.6,0.6-18.9,1c-16.1,6.5-32.2,13-48.1,19.4c6.5-0.5,13-1,19.4-1.5C4112.1,477.7,4128,471.5,4144,465.1z
		 M4170.8,463.6c-6.2,0.4-12.4,0.7-18.6,1c-15.8,6.3-31.4,12.4-47,18.5c6.5-0.5,12.9-1,19.4-1.6
		C4139.9,475.8,4155.4,469.6,4170.8,463.6z M4198.2,462c-6.3,0.4-12.6,0.8-18.9,1.2c-15,5.8-30.2,11.9-45,17.6
		c6.3-0.6,12.7-1.1,19-1.7C4168.1,473.5,4183.2,467.7,4198.2,462z M4225.7,460.2c-6.2,0.4-12.5,0.8-18.7,1.2
		c-14.6,5.6-29.4,11.3-43.9,16.8c6.3-0.6,12.7-1.2,19-1.8C4196.6,471,4211.1,465.7,4225.7,460.2z M4253.4,458.2
		c-6.2,0.5-12.4,0.9-18.6,1.3c-14.2,5.3-28.3,10.6-42.3,15.8c6.2-0.6,12.4-1.2,18.6-1.8C4225.2,468.4,4239.2,463.4,4253.4,458.2z
		 M4281.5,456.1c-6.2,0.5-12.4,1-18.6,1.5c-13.7,5-27.2,9.9-40.8,14.8c6.2-0.6,12.4-1.3,18.6-2
		C4254.3,465.6,4267.7,461,4281.5,456.1z M4309.3,453.8c-6,0.5-12,1-18,1.5c-13.2,4.7-26.2,9.2-39.3,13.8c6.2-0.7,12.4-1.4,18.5-2.1
		C4283.5,462.6,4296.3,458.3,4309.3,453.8z M4337.2,451.4c-5.7,0.5-11.5,1-17.2,1.5c-12.6,4.3-24.9,8.4-37.3,12.7
		c5.9-0.7,11.9-1.4,17.8-2.1C4312.7,459.5,4324.9,455.5,4337.2,451.4z M4365.5,448.8c-5.6,0.5-11.3,1.1-16.9,1.6
		c-11.7,3.9-23.2,7.7-34.8,11.5c5.9-0.7,11.7-1.5,17.6-2.2C4342.7,456.1,4354.1,452.4,4365.5,448.8z M4393.8,446
		c-5.4,0.6-10.9,1.1-16.3,1.7c-10.8,3.5-21.5,6.8-32.2,10.2c5.7-0.7,11.4-1.5,17.1-2.3C4372.8,452.4,4383.4,449.2,4393.8,446z
		 M4422,443.1c-5,0.5-10.1,1-15.1,1.6c-9.7,3-19.3,5.9-28.9,8.8c5.1-0.7,10.3-1.4,15.4-2.1C4402.9,448.7,4412.5,445.8,4422,443.1z
		 M4450.5,439.9c-4.6,0.5-9.3,1-13.9,1.5c-8.3,2.4-16.6,4.9-24.8,7.2c4.4-0.6,8.7-1.3,13.1-1.9
		C4433.4,444.5,4441.9,442.3,4450.5,439.9z M4478,436.7c-3.8,0.5-7.7,0.9-11.5,1.4c-6.5,1.8-13.1,3.7-19.6,5.4
		c3.3-0.5,6.6-1,9.9-1.5C4463.9,440.2,4470.9,438.5,4478,436.7z M4503.1,433.7c-2,0.3-4.1,0.5-6.1,0.7c-4.2,1.1-8.4,2.2-12.6,3.3
		c1.5-0.2,3.1-0.5,4.6-0.8L4503.1,433.7z M775.2,265.2c-7.1,0.2-14.2,0.5-21.3,0.8c45.3,78.1,78.7,167.1,112.6,257.7
		c66,176.4,134.5,359.3,298.7,480.6c240.7,177.9,687.8,223.8,1635.7-75.5c-909.2,272.4-1342,213.6-1584.3,33.1
		c-156-116.2-233-282.8-307.3-444C868.1,428.9,827.8,341.4,775.2,265.2z M800.5,264.3c-7,0.2-14,0.5-21,0.7
		c52.3,76.2,92.6,163.4,133.7,252.3c74.3,160.9,151.1,327.2,306.6,443.1c249.3,185.7,701.7,241.8,1671.6-61.9
		c-934.1,277-1372.6,206.7-1624.6,17.4c-146.1-109.7-229.3-259.3-310-404.3C908.1,424.3,860.5,338.6,800.5,264.3z M825.6,263.6
		c-6.9,0.2-13.8,0.4-20.7,0.6c59.6,74.2,107.2,159.6,155.6,246.7c80.6,144.8,163.7,294.2,309.3,403.6
		c259.3,194.7,717.6,262.8,1714.4-46.8c-964.7,283.4-1409.9,199-1673.2-0.5c-134.5-101.9-221.4-233.7-305.9-361.9
		C948.7,419.8,893.3,335.9,825.6,263.6z M850.7,263c-6.8,0.2-13.7,0.3-20.5,0.5c67.3,72.1,122.4,155.7,178.6,240.9
		c84.4,128,171.2,259.7,305.3,361.3c269.6,204.3,730.7,287.3,1749.4-24.3l4.6-1.6c-995.1,288-1444.8,185.7-1720.6-25.3
		c-120.6-92.3-207.9-205.3-293.1-315.6C989.9,415.2,926.5,333.2,850.7,263z M875.5,262.5c-6.7,0.1-13.5,0.3-20.2,0.4
		c75.3,70,138.4,151.7,202.7,235c85,110.2,172.2,223.1,292.6,315.2c279,213.4,736.9,315,1761.5,11.3c4.5-1.6,8.9-3.1,13.4-4.7
		C2109.8,1104.6,1661.2,979,1372.6,755.8c-103.6-80.1-186.5-172.7-267.7-263.3C1031.7,410.7,959.9,330.5,875.5,262.5z M900.3,262.1
		c-6.6,0.1-13.2,0.2-19.8,0.3c83.7,67.8,155.2,147.6,228,229c81.1,90.6,164,183.1,267.3,263c290.9,224.9,744.9,350.3,1782.8,53.4
		c6.6-2.4,13.3-4.8,20-7.2c-1326.8,358.7-1687.4,9.5-2021.8-314.7C1074.4,406.1,993.6,327.8,900.3,262.1z M925,261.7
		c-6.5,0.1-13,0.2-19.5,0.3c92.5,65.6,172.9,143.4,254.7,222.7c336.2,325.9,699,677,2049,304.9c7.2-2.6,14.6-5.4,21.9-8.1
		c-1273.2,330.4-1660.5,2.7-2021.1-302.2C1118.1,401.5,1027.8,325.2,925,261.7z M949.4,261.5c-6.3,0.1-12.6,0.1-19,0.2
		c101.9,63.3,191.5,139,282.9,216.3C1575.4,784.2,1965,1113.3,3257,772c9.5-3.5,18.9-6.9,28.5-10.5
		c-1220.9,303.1-1634.6-3.1-2020.5-288.9C1162.8,396.9,1062.4,322.6,949.4,261.5z M973.9,261.4c-6.2,0-12.3,0-18.5,0.1
		c111.8,60.9,211.3,134.6,312.8,209.7C1655.5,758,2070.6,1065.5,3306,753.9c10.7-4,21.6-8.1,32.4-12.2
		c-1167.7,275.7-1606.1-9.1-2016.3-275.9C1208.7,392.2,1097.6,320,973.9,261.4z M1022.3,261.3c-5.7,0-11.4,0-17.1,0
		c133.6,55.8,255,125.2,378.7,195.9c434.8,248.6,898.2,513.2,2024,258.1c12.3-4.7,24.5-9.4,36.9-14.1
		C2381.9,924,1898.6,681,1443,451.9C1305.3,382.7,1170.1,314.7,1022.3,261.3z M1046.3,261.4c-5.4,0-10.9-0.1-16.3-0.1
		c145.8,53.2,279.5,120.3,415.5,188.8c456.9,229.8,941.9,473.6,2014.2,245.4c13-5,26.2-10.2,39.3-15.3
		c-1011.4,197.5-1514.8-24.9-1991.1-235.5C1356.5,377.8,1207.8,312,1046.3,261.4z M1070.2,261.6c-5,0-10-0.1-15.1-0.1
		c159,50.4,305.7,115.3,455.1,181.3c477.6,211.2,982.5,434.3,2001.6,232.3c13.9-5.4,27.7-10.8,41.8-16.4
		c-960.3,173.2-1481.6-29-1977.1-221.3C1410.1,372.8,1246.6,309.3,1070.2,261.6z M1094.1,261.9c-4.6-0.1-9.2-0.1-13.8-0.2
		c173.3,47.5,334.5,110,498.5,173.7C2075.6,628.2,2598.5,831.1,3565.5,654c14.2-5.6,28.6-11.3,43-17.1
		c-909.3,149.5-1446-32.9-1958.7-207.1C1466.7,367.6,1286.8,306.5,1094.1,261.9z M1117.8,262.3c-4-0.1-8.1-0.1-12.1-0.2
		c189.1,44.4,366.1,104.6,546,165.7c514.1,174.7,1052.4,357.7,1967.4,204.9c14.9-6,30-12,45.2-18.2
		c-858.6,126.9-1408.1-36-1935.9-192.5C1527.1,362.3,1328.8,303.6,1117.8,262.3z M1141.4,262.7c-3.2-0.1-6.5-0.1-9.7-0.2
		c206.5,41.2,401,98.9,598.5,157.5C2259.4,576.9,2810.5,740.3,3674,610.7c15.5-6.2,30.9-12.4,46.5-18.8
		C2912.8,697.1,2354,553.2,1814,414.1C1591.9,356.9,1373.1,300.5,1141.4,262.7z M1165.1,263.2l-6.7-0.2
		c226,37.8,440,92.9,657.2,148.9c541.5,139.5,1102,283.8,1913.9,176.3c15.8-6.4,31.9-13.1,47.9-19.7
		c-756.3,84.6-1320.5-40.7-1869.2-162.8C1662.7,351.1,1420.3,297.2,1165.1,263.2z M1188.5,263.7l-1.8-0.1
		c247.8,34.2,484,86.7,723,139.8c550.2,122.4,1116,248.1,1875.9,161.6c16.4-6.7,32.8-13.5,49.4-20.4
		c-704,65.2-1268.2-42.3-1821.2-147.7C1741.1,345.1,1471.2,293.7,1188.5,263.7z M2445.3,368.6C2078,327,1708.1,285,1327.9,268.6
		c322.3,22.4,635.1,65,948.1,107.6c543.3,74,1087.2,148,1682.3,116.8c17.7-7.5,35.3-14.9,53.2-22.5
		C3480.4,485.9,2965.5,427.6,2445.3,368.6z M1118.6,259.9l6.3,0.1l-2.3-0.4c-2.3-0.1-4.5-0.2-6.8-0.3L1118.6,259.9z M1094.9,259.5
		c3.2,0,6.4,0.1,9.6,0.1c-1.5-0.3-3-0.6-4.6-0.9l-9.8-0.3L1094.9,259.5z M1071.2,259.3c4,0,8,0.1,12.1,0.1c-2.1-0.5-4.3-1-6.5-1.4
		c-3.9-0.1-7.9-0.2-11.8-0.4C1067.1,258.2,1069.2,258.7,1071.2,259.3z M1047.4,259.1l13.7,0.1l-7.2-1.9c-4.5-0.1-9.1-0.3-13.6-0.4
		C1042.7,257.6,1045.1,258.3,1047.4,259.1z M1023.5,259c5,0,10.1,0,15.1,0.1c-2.6-0.8-5.1-1.6-7.7-2.4c-4.9-0.1-9.9-0.2-14.8-0.4
		C1018.5,257.2,1021,258.1,1023.5,259z M999.4,258.9c5.4,0,10.8,0,16.2,0c-2.7-1-5.4-1.9-8.1-2.9c-5.3-0.1-10.5-0.2-15.8-0.3
		C994.3,256.8,996.9,257.9,999.4,258.9z M975.3,259c5.7,0,11.3-0.1,17-0.1c-2.7-1.1-5.3-2.2-8-3.3c-5.6-0.1-11.2-0.2-16.8-0.3
		C970.2,256.6,972.8,257.8,975.3,259z M951,259.1c6,0,11.9-0.1,17.9-0.1c-2.7-1.3-5.4-2.5-8.1-3.7c-5.8-0.1-11.5-0.1-17.3-0.2
		C946,256.4,948.5,257.8,951,259.1z M926.7,259.4c6.1-0.1,12.3-0.1,18.4-0.2c-2.6-1.4-5.2-2.8-7.8-4.2c-6-0.1-12-0.1-18-0.1
		C921.8,256.4,924.3,257.8,926.7,259.4z M902.2,259.7c6.3-0.1,12.7-0.2,19-0.3c-2.5-1.5-5-3.1-7.6-4.6c-6.1,0-12.3-0.1-18.4-0.1
		C897.5,256.4,899.9,258,902.2,259.7z M877.6,260.1c6.5-0.1,12.9-0.2,19.4-0.3c-2.4-1.7-4.8-3.4-7.2-5c-6.3,0-12.6,0-18.9,0
		C873.2,256.5,875.4,258.3,877.6,260.1z M852.9,260.6c6.6-0.1,13.2-0.3,19.8-0.4c-2.3-1.8-4.5-3.6-6.8-5.4c-6.4,0-12.8,0.1-19.3,0.1
		C848.7,256.8,850.8,258.7,852.9,260.6z M828,261.2c6.7-0.2,13.5-0.3,20.2-0.5c-2.1-2-4.3-3.9-6.4-5.8c-6.5,0-13,0.1-19.6,0.2
		C824.2,257.1,826.1,259.2,828,261.2z M803,261.9c6.8-0.2,13.6-0.4,20.4-0.6c-2-2.1-3.9-4.2-5.9-6.2c-6.6,0.1-13.3,0.2-19.9,0.3
		C799.5,257.5,801.2,259.7,803,261.9z M777.9,262.7c6.9-0.2,13.8-0.5,20.7-0.7c-1.8-2.2-3.6-4.4-5.4-6.6c-6.7,0.1-13.4,0.2-20.2,0.4
		C774.7,258.1,776.3,260.4,777.9,262.7z M752.6,263.7c7-0.3,14-0.5,21-0.8c-1.6-2.3-3.3-4.7-5-7c-6.8,0.1-13.6,0.3-20.4,0.4
		C749.7,258.8,751.1,261.2,752.6,263.7z M0,342.9c256.1-45.2,505-69.5,748.4-79c-1.4-2.5-2.9-4.9-4.4-7.4
		c-238.8,6-485.3,28.1-742.9,73.5L0,327.7c257.5-45.4,503.8-67.6,742.6-73.6c-1.5-2.4-2.9-4.8-4.4-7.2c-234.1,2.4-478.1,22.3-737,68
		l-1.1-2.3c258.8-45.7,502.7-65.6,736.7-68.1c-1.5-2.4-3-4.7-4.5-7.1c-229.2-1.3-470.6,16.3-731,62.3l-1.1-2.3
		c260.2-45.9,501.5-63.6,730.6-62.4c-1.5-2.3-3.1-4.7-4.7-7c-224.3-5-463,10.3-724.8,56.5l-1.1-2.3
		c261.6-46.2,500.2-61.6,724.3-56.7c-1.5-2.3-3.1-4.5-4.7-6.8c-219.2-8.9-455.2,4.1-718.5,50.5l-1.1-2.3
		c263.1-46.4,498.9-59.4,717.9-50.7c-1.6-2.2-3.1-4.4-4.7-6.6c-214.1-12.8-447.3-2.2-712.1,44.5l-1.1-2.3
		c264.5-46.7,497.5-57.3,711.3-44.7c-1.6-2.2-3.2-4.3-4.8-6.4C497.9,184,267.6,192,1.3,239l-1.1-2.3c265.9-46.9,496-55.1,704.6-38.6
		c-1.6-2.1-3.2-4.2-4.9-6.2c-203.4-20.8-430.8-15.3-698.6,32l-1.1-2.3c267.4-47.2,494.5-52.9,697.7-32.4c-1.6-2-3.3-4-4.9-6
		c-197.9-24.9-422.2-22-691.6,25.5l-1.1-2.3c268.8-47.4,492.8-50.6,690.5-26c-1.6-1.9-3.2-3.9-4.9-5.8
		c-192.6-28.9-413.8-28.7-684.8,19.1L0,191.4c270.2-47.7,491.1-48.2,683.1-19.5c-1.6-1.8-3.2-3.7-4.8-5.5
		c-186.6-33.5-404.6-36-677.2,12.1L0,176.2c271.7-47.9,489.2-45.8,675.5-12.9c-1.6-1.8-3.2-3.5-4.9-5.2
		C489.9,120.2,275.2,115,1.1,163.3L0,161c273.1-48.2,487.3-43.4,667.7-6.2c-1.6-1.6-3.2-3.2-4.7-4.8c-174.7-42.4-386-50.5-661.8-1.9
		l-1.1-2.3c274.4-48.4,485.1-40.9,659.5,0.6c-1.5-1.5-3-3-4.5-4.4C486.6,95.1,278.8,84,1.3,132.9l-1.1-2.3
		c275.7-48.6,482.8-38.3,651,7.5c-1.4-1.3-2.7-2.6-4.1-3.9C484.8,82.6,280.6,68.4,1.4,117.7l-1.1-2.3
		c276.8-48.8,480.1-35.7,642,14.4c-1.2-1.1-2.4-2.1-3.6-3.2C482.8,70.2,282.3,53,1.4,102.5l-1.1-2.3c277.7-49,477.1-33.1,632.5,21.3
		c-1-0.8-1.9-1.6-2.9-2.4C480.6,57.9,283.9,37.6,1.4,87.4l-1.1-2.3c278.3-49.1,473.6-30.5,622.4,28c-0.5-0.4-1-0.8-1.6-1.2
		C478.5,45.6,285.8,22.1,1.4,72.2l-1.1-2.3c276.2-48.7,466.3-28.3,608.1,33C472.9,33,285,7,1.5,57l-1.1-2.3
		C270.7,7,454.5,27.9,589,89.9C460.9,19.3,279.4-7.2,1.6,41.8l-1.1-2.3c264.3-46.6,441.9-25.4,569.4,37
		C448.8,5.5,273.4-21.3,1.7,26.7l-1.1-2.3C300.4-28.5,483.7,8.8,606.1,96c7,4.2,13.8,8.5,20.5,13c7.3,4.1,14.5,8.2,21.5,12.5
		c7.5,3.9,14.8,7.9,22.1,12.1c8,3.8,15.8,7.8,23.5,11.9c8.1,3.6,16.1,7.4,24,11.2c8.7,3.6,17.3,7.3,25.7,11.1
		c8.8,3.3,17.6,6.8,26.2,10.3c9.4,3.3,18.7,6.7,28,10.1c9.9,3.1,19.7,6.3,29.4,9.6c10,2.9,19.8,5.8,29.6,8.8
		c10.6,2.7,21.1,5.6,31.6,8.5c11.2,2.6,22.4,5.3,33.4,8c11.6,2.4,23.1,4.8,34.6,7.3c11.9,2.1,23.7,4.3,35.5,6.6
		c12.4,1.9,24.8,3.9,37,6c12.9,1.7,25.8,3.5,38.6,5.3c13.4,1.5,26.8,3,40.2,4.6c13.5,1.2,27,2.5,40.5,3.8c14.6,1,29.1,2.1,43.6,3.2
		c14.8,0.7,29.6,1.5,44.4,2.4c413.2,13.2,813.5,58.5,1210.8,103.6c522,59.2,1038.5,117.7,1571.4,101.7
		c296.2-126.3,621.8-273.2,980.1-442.8l2.5,1.8c-356.4,168.7-680.4,314.9-975.3,440.7c6.3-0.2,12.7-0.4,19.1-0.6
		c288.5-121.6,605.3-263.1,953.8-426.8l2.5,1.8c-346.5,162.8-661.7,303.6-948.9,424.7c6.4-0.2,12.7-0.5,19.1-0.7
		c280.8-116.8,588.8-252.9,927.4-410.7l2.5,1.9c-336.5,156.8-642.7,292.2-922.2,408.5c6.3-0.3,12.7-0.5,19-0.8
		c273.1-112.1,572.2-242.7,900.8-394.5l2.4,1.9c-326.4,150.8-623.7,280.7-895.4,392.3c6.4-0.3,12.8-0.6,19.2-0.9
		c265.3-107.2,555.4-232.4,873.8-378.1l2.4,1.9c-316.1,144.6-604.5,269.1-868.3,375.8c6.4-0.3,12.8-0.7,19.3-1
		c257.3-102.3,538.6-222.1,846.6-361.5l2.4,1.9c-305.6,138.3-584.9,257.4-840.7,359.2c6.2-0.3,12.4-0.7,18.6-1
		c249.6-97.5,521.7-211.6,819.6-344.9l2.4,1.9c-295.4,132.2-565.5,245.5-813.4,342.5c6.4-0.4,12.7-0.8,19.1-1.2
		c241.6-92.5,504.6-201,792-328l2.4,1.9c-284.8,125.9-545.7,233.6-785.6,325.6c6.4-0.4,12.7-0.9,19.1-1.3
		c233.6-87.5,487.4-190.4,764.1-311l2.4,1.9c-274.1,119.4-525.6,221.5-757.4,308.5c6.3-0.5,12.6-0.9,18.9-1.4
		c225.5-82.5,470-179.7,736.1-293.9l2.3,1.9C4737.7,276,4495.6,372.4,4272,454.3c6.3-0.5,12.6-1,18.9-1.5
		c217.4-77.4,452.5-168.9,707.7-276.5l2.3,1.9c-252.2,106.3-484.8,197-700.1,273.8c6.3-0.5,12.6-1.1,18.9-1.6
		c209.1-72.3,434.8-158,678.9-259l2.3,1.9c-241,99.6-463.9,184.4-670.8,256.2c6.1-0.5,12.2-1.1,18.2-1.6
		c201-67.1,417.1-147,650.3-241.3l2.2,1.9c-229.6,92.9-442.7,171.8-641.1,238.3c5.8-0.5,11.6-1.1,17.4-1.6
		c192.8-62,399.3-135.9,621.5-223.5l2.2,2c-218.2,86-421.4,158.9-611.3,220.3c5.7-0.6,11.4-1.2,17.1-1.8
		c184.5-56.7,381.2-124.6,592.1-205.3l2.2,2c-206.6,79.1-399.8,146-581.1,202c5.5-0.6,11-1.2,16.6-1.8
		c176.1-51.4,363-113.2,562.4-187l2.1,2c-194.7,72.1-377.5,132.7-550,183.4c5.1-0.6,10.3-1.2,15.4-1.7
		C4634,389.7,4811,334,4998.8,267.3l2,2c-182.4,64.9-354.6,119.2-518,164.5c4.6-0.6,9.3-1.1,13.9-1.7
		c159.1-40.7,326.1-90.2,502-149.8l2,2.1c-169.6,57.5-330.8,105.4-484.7,145.3c4-0.5,7.9-1,11.9-1.5
		c150.4-35.2,307-78.4,470.8-130.7l1.9,2.1c-156,49.8-305.4,91.3-449.1,125.5c2.3-0.3,4.6-0.6,7-1
		c141.9-29.7,288.4-66.5,440.3-111.5l1.8,2.1c-139.4,41.3-274.2,75.7-405.1,104.1c131.4-24,265.7-54,403.4-91l1.6,2.2
		c-118.1,31.7-233.6,58.3-347,80.4c114-17.8,229.1-40,345.4-67.4l1.5,2.2c-138.3,32.6-274.9,57.9-409.9,77.1c-22,4-44,7.9-65.9,11.5
		c-23.4,4.7-46.6,9.2-69.7,13.6c-24,5.3-47.8,10.4-71.4,15.2c-25.1,5.9-50.1,11.6-74.7,17.1c-25.3,6.3-50.4,12.3-75.3,18.1
		c-25.3,6.5-50.5,12.9-75.4,19c-26.7,7.2-53.1,14.1-79.2,20.8c-27.7,7.7-55,15-82,22.2c-26.3,7.5-52.3,14.7-78,21.7
		c-26.2,7.7-52.2,15.1-77.9,22.3c-31.2,9.3-61.9,18.2-92.2,26.9c-27.2,8.2-54,16.2-80.5,24c-26.8,8.3-53.4,16.3-79.6,24.1
		c-31.2,9.8-61.9,19.3-92.2,28.4c-29,9.2-57.6,18.2-85.8,26.8c-29.3,9.4-58.2,18.6-86.7,27.4c-29.9,9.7-59.4,19.2-88.5,28.3
		c-29.1,9.6-57.9,18.9-86.2,27.9c-28.6,9.5-56.9,18.7-84.7,27.7c-28.7,9.6-56.9,18.9-84.8,28
		c-1072.3,362.9-1560.7,322.1-1816.9,132.7C998.1,884.2,929.6,701.1,863.4,524.4c-34-90.8-67.4-179.9-112.9-258.1
		c-243.5,9.5-492.4,33.8-748.6,79L0,342.9z"/>
</g>
</svg>
