<?xml version="1.0" encoding="utf-8"?>
<!-- Generator: Adobe Illustrator 20.1.0, SVG Export Plug-In . SVG Version: 6.00 Build 0)  -->
<svg version="1.1" id="Слой_1" xmlns="http://www.w3.org/2000/svg" xmlns:xlink="http://www.w3.org/1999/xlink" x="0px" y="0px"
	 width="404.9" height="468.1" viewBox="0 0 404.9 468.1" style="enable-background:new 0 0 404.9 468.1;" xml:space="preserve">
<style type="text/css">
	.st0{fill:#E0E0E0;}
	.st1{fill:#F05528;}
	.st2{fill:#EBEBEB;}
	.st3{fill:#FFFFFF;}
	.st4{opacity:0.3;}
	.st5{fill:#FFBE9D;}
	.st6{fill:#EB996E;}
	.st7{opacity:0.6;}
	.st8{fill:#333333;}
	.st9{fill:#455A64;}
	.st10{fill:#FAFAFA;}
	.st11{opacity:7.000000e-02;}
</style>
<g id="Background_Complete">
	<g>
		<g>
			<path class="st0" d="M79.9,343.1c-2-2.1-5-2.9-7.7-3.9c-12-4.4-21.6-14.7-25.2-26.9c-3.6-12.2-1.2-26,6.4-36.3l-0.4-2.1
				c-0.9-9.9-12.8-16.9-21.9-13s-12.2,17.4-5.7,24.9c-10.7,0.9-17.7,13-16.2,23.7c1.5,10.5,9.2,19.2,17.9,25.5
				c14.2,10.4,31.7,16.2,49.2,16.3c1.2,0,2.5,0,3.5-0.6C82.3,349.2,81.9,345.2,79.9,343.1z"/>
		</g>
	</g>
	<g>
		<g>
			<path class="st0" d="M377.3,300c2.5-4,2.8-9.3,0.3-13.3s-8-6-12.2-4c2.4-4,1-9.7-2.9-12.2c-3.9-2.4-9.7-1.2-12.2,2.7
				c-2.8,4.4-1.3,10.3,1.1,14.9s5.8,9,6.6,14.1c0.8,5.3-1.2,10.7-4.4,15c-3.2,4.3-7.4,7.7-11.5,11l-0.8,0.8c7.5,2.6,16,1.9,23-2
				c3.9-2.2,7.6-5.8,7.8-10.2c0.1-2.5-0.8-5-0.4-7.5C372.2,305.7,375.4,303.1,377.3,300z"/>
		</g>
	</g>
	<g>
		<g>
			<path class="st0" d="M162.2,463.4c-3.9-0.5-7.8-2.2-10.1-5.4c-1.5-2-2.2-4.5-3.4-6.7c-1.3-2.2-3.5-4.1-6-3.9
				c-3.9,0.4-6.5,5.7-10.2,4.8c-2.3-0.6-3.3-3.2-3.4-5.6c0-2.3,0.7-4.7,0.4-7c-0.8-6.5-9.2-9.7-15.4-7.7c-6.2,2-15.7,9.6-19.8,14.7
				c4.3,7.1,13,9.9,21.1,11.9c13.5,3.4,27.1,6.3,40.9,8.6c3.2,0.6,6.5,1.1,9.7,0.6s6.4-2.2,7.9-5.1
				C170.1,463.3,166.1,463.9,162.2,463.4z"/>
		</g>
	</g>
	<g>
		<g>
			<path class="st0" d="M317.1,413.3c-1-5.6-6.5-10.5-12-9.2c4.6-3.8,4.6-11.3,1-16s-9.9-6.7-15.8-6.5s-11.6,2.3-17.1,4.5
				c2.7-3.4-1.2-8.8-5.6-9c-4.3-0.3-8.2,2.5-11.8,5c-3.5,2.6-7.6,5.2-11.9,4.5l4,1.6c9.6,1.5,19.4,3.7,27.7,8.8
				c8.4,5,15.2,13.3,16.7,22.9c1.4,9.7-3.6,20.5-12.8,23.8c12.3,0.8,24.9-4.9,32.5-14.7C315.5,424.5,318.1,418.9,317.1,413.3z"/>
		</g>
	</g>
	<g>
		<g>
			<g>
				<g>
					<ellipse class="st0" cx="315" cy="35.9" rx="0.3" ry="9.3"/>
				</g>
			</g>
		</g>
		<g>
			<g>
				<g>
					<ellipse class="st0" cx="315" cy="35.9" rx="9.6" ry="0.3"/>
				</g>
			</g>
		</g>
	</g>
	<g>
		<g>
			<circle class="st0" cx="10.7" cy="181.6" r="5.7"/>
		</g>
	</g>
	<g>
		<g>
			<path class="st0" d="M229.7,418.8c4.7-2,9.2,2.1,8,6.7c-0.5,1.9-2,3.4-3.9,3.9c-4.7,1.2-8.8-3.3-6.7-8
				C227.5,420.3,228.5,419.3,229.7,418.8z"/>
		</g>
	</g>
	<g>
		<g>
			<path class="st0" d="M382.5,180.1c4.7-2,9.2,2.1,8,6.7c-0.5,1.9-2,3.4-3.9,3.9c-4.7,1.2-8.8-3.3-6.7-8
				C380.4,181.6,381.3,180.6,382.5,180.1z"/>
		</g>
	</g>
	<g>
		<g>
			<circle class="st1" cx="60.7" cy="393.5" r="5.7"/>
		</g>
	</g>
	<g>
		<g>
			<circle class="st0" cx="285.1" cy="316.4" r="5.7"/>
		</g>
	</g>
	<g>
		<g>
			<circle class="st1" cx="116" cy="33" r="5.7"/>
		</g>
	</g>
	<g>
		<g>
			<circle class="st0" cx="145.8" cy="369.7" r="2.8"/>
		</g>
	</g>
	<g>
		<g>
			<circle class="st0" cx="77.2" cy="355.5" r="2.8"/>
		</g>
	</g>
	<g>
		<g>
			<circle class="st0" cx="147.3" cy="38.7" r="2.8"/>
		</g>
	</g>
	<g>
		<g>
			<circle class="st0" cx="272.7" cy="192.7" r="2.8"/>
		</g>
	</g>
	<g>
		<g>
			<g>
				<g>
					<path class="st2" d="M2.2,30.3c0,0-6.3,3.3,2.5,16.5c8.9,13.3,14.7,19.7,14.7,19.7s1.7,3.1-1,4c-2.7,0.8-8.9,0.6-9.7,4.1
						c-0.9,3.7,2.1,6.7,7.6,8.9c5.5,2.3,17.4,7.7,18.4,8.2c1.1,0.5,2.2,1.9,0.5,2.8s-15.3,3.9-13.4,10.2c1.8,6.3,18.2,10.2,20,10.6
						c1.8,0.5,2.3,1.1,2.2,2.1c0,1-4.7,1.5-8.5,2.6c-3.8,1-8,2.9-6.7,6.4c1.4,3.6,11.6,10.2,34.4,9.7l10.6-0.9l4.7-9.6
						c8.8-21.1,6.3-33,3.5-35.6s-6.1,0.7-8.4,3.9c-2.3,3.2-4.6,7.3-5.5,6.9c-0.9-0.3-1.3-1-1.1-2.9c0.2-1.8,2.6-18.5-2.6-22.5
						s-13,7.5-14.4,8.8s-2.3-0.3-2.4-1.4c-0.1-1.2-0.8-14.2-0.9-20.2c-0.1-6-1.8-9.8-5.6-10.3c-3.6-0.5-5.6,5.3-7.4,7.6
						c-1.8,2.2-4.1-0.5-4.1-0.5s-3.8-7.8-13-20.9C7.5,25.4,2,30.2,2,30.2"/>
				</g>
			</g>
		</g>
		<g>
			<g>
				<g>
					<g>
						<path class="st0" d="M74.7,137.7c-6.7-9.7-18.2-27-28.2-41.9c-10-14.8-19-28.3-25.7-38c-3.3-4.8-6-8.7-7.8-11.5
							c-0.9-1.3-1.6-2.3-2.1-3c-0.2-0.4-0.4-0.6-0.5-0.8s-0.2-0.3-0.2-0.3s0.1,0.1,0.2,0.3s0.3,0.5,0.6,0.8c0.5,0.7,1.2,1.8,2.2,3.1
							c1.9,2.7,4.6,6.6,7.9,11.4c6.7,9.7,15.7,23.1,25.7,37.9c10,14.9,21.5,32.2,28.1,41.9"/>
					</g>
				</g>
			</g>
		</g>
		<g>
			<g>
				<g>
					<g>
						<path class="st0" d="M17.4,75.3c0,0,0.3,0,0.8,0.1s1.2,0.3,2,0.5c1.7,0.4,4.1,1,6.7,1.8c2.5,0.7,4.9,1.4,6.6,1.9
							c0.8,0.2,1.5,0.4,2,0.6c0.5,0.1,0.7,0.2,0.7,0.2s-0.3,0-0.8-0.1s-1.2-0.3-2-0.5c-1.7-0.4-4.1-1.1-6.6-1.8
							c-2.6-0.7-4.9-1.4-6.6-1.9c-0.8-0.2-1.5-0.4-2-0.6C17.6,75.4,17.4,75.3,17.4,75.3z"/>
					</g>
				</g>
			</g>
		</g>
		<g>
			<g>
				<g>
					<g>
						
							<ellipse transform="matrix(0.228 -0.9737 0.9737 0.228 -36.3205 91.2711)" class="st0" cx="39.4" cy="68.5" rx="11.2" ry="0.2"/>
					</g>
				</g>
			</g>
		</g>
		<g>
			<g>
				<g>
					<g>
						<path class="st0" d="M51.1,103c0,0,0.1-0.3,0.4-0.7c0.3-0.5,0.6-1.1,1-1.9c0.9-1.6,2.1-3.7,3.3-6.2c1.3-2.4,2.3-4.7,3.1-6.3
							c0.4-0.8,0.7-1.4,0.9-1.9s0.3-0.7,0.4-0.7c0,0-0.1,0.3-0.2,0.7c-0.2,0.5-0.4,1.1-0.8,2c-0.7,1.7-1.7,3.9-3,6.4
							c-1.2,2.4-2.5,4.6-3.4,6.1c-0.5,0.8-0.9,1.4-1.1,1.8C51.3,102.8,51.1,103.1,51.1,103z"/>
					</g>
				</g>
			</g>
		</g>
		<g>
			<g>
				<g>
					<g>
						<path class="st0" d="M32.7,103c0,0,0.3,0,0.7-0.1c0.5,0,1.2,0.2,2,0.1c1.7,0,4,0.1,6.5,0.1s4.8,0,6.5,0c0.8,0,1.4,0,2,0
							c0.5,0,0.7-0.2,0.7-0.1c0,0-0.3-0.1-0.7,0c-0.5,0-1.2,0-2,0.1c-1.7,0-4,0.1-6.5,0.1s-4.8,0-6.5,0c-0.8,0-1.4,0-2,0
							C32.9,103.1,32.7,103.1,32.7,103z"/>
					</g>
				</g>
			</g>
		</g>
		<g>
			<g>
				<g>
					<g>
						<path class="st0" d="M42.7,125.1c0,0,0.3,0,0.9,0c0.7,0,1.5,0,2.5,0c2.1-0.1,5.1-0.1,8.3-0.1c3.3-0.1,6.2,0,8.3,0
							c1,0,1.9,0,2.5,0s0.9,0,0.9,0s-0.3,0-0.9,0c-0.7,0-1.5,0-2.5,0c-2.1,0.1-5.1,0-8.3,0c-3.2,0.1-6.2-0.1-8.3-0.1
							c-1,0-1.9,0-2.5,0S42.7,125.1,42.7,125.1z"/>
					</g>
				</g>
			</g>
		</g>
		<g>
			<g>
				<g>
					<g>
						<path class="st0" d="M65.6,124.7c0,0,0.1-0.3,0.4-0.9s0.7-1.4,1.2-2.4c1-2,2.5-4.8,4-8c1.5-3.1,2.8-6,3.7-8.1
							c0.4-1,0.8-1.8,1.1-2.5c0.3-0.6,0.4-0.9,0.4-0.9s-0.1,0.3-0.3,0.9c-0.2,0.6-0.6,1.5-1,2.5c-0.9,2.1-2.1,5-3.6,8.2
							c-1.5,3.1-3,5.9-4.1,7.9c-0.6,1-1,1.8-1.3,2.4C65.9,124.4,65.7,124.7,65.6,124.7z"/>
					</g>
				</g>
			</g>
		</g>
	</g>
	<g>
		<g>
			<path class="st0" d="M258.7,51.8c1.8-10.4,6.8-25.6,12.7-34.4c5.9-8.7,15.1-15.7,25.6-17.1s22,3.5,26.7,12.9
				c2.5,5.1,3,10.9,4.8,16.3s5.9,10.7,11.5,11.1c5,0.4,9.8-3.2,14.7-2.3c6.4,1.2,8.9,9.2,8.9,15.7s-0.9,13.8,3.1,18.9
				c3.3,4.2,8.9,5.7,13.4,8.5c9.8,6.1,14,18.8,13,30.3s-6.3,22.2-11.9,32.3c-4.7-16.6-11.1-32.6-19.1-47.9
				c-4.5-8.7-12.9-16.1-20.2-22.7c-11.3-10-36.1-14.8-51-16.6C276.2,55,273.6,54.6,258.7,51.8"/>
		</g>
	</g>
</g>
<g id="Back_Screens">
	<g>
		<g>
			<g>
				<g>
					<g>
						<path class="st1" d="M158.8,64c-37.1,2.7-77.6,7.6-107.2,19l9.4,63.4c0,0,57.5-20.6,104.3-19.2L158.8,64z"/>
					</g>
				</g>
			</g>
			<g>
				<g>
					<g>
						<path class="st3" d="M158.8,64c-37.1,2.7-77.6,7.6-107.2,19l9.4,63.4c0,0,57.5-20.6,104.3-19.2L158.8,64z"/>
					</g>
				</g>
			</g>
		</g>
		<g>
			<g>
				<g>
					<path class="st1" d="M156.1,118.9c0,0-0.1,0-0.4,0.1c-0.3,0-0.6,0.1-1.1,0.1c-1,0.1-2.3,0.3-4,0.5c-1.8,0.2-3.9,0.5-6.4,0.8
						c-2.5,0.4-5.3,0.7-8.5,1.2c-12.5,1.9-29.7,5.1-48.4,10c-6.5,1.7-12.8,3.4-18.5,5.2l-0.3,0.1v-0.3c-2-14.5-3.9-27.1-5.4-36
						c-0.8-4.4-1.4-8-1.8-10.4c-0.2-1.2-0.4-2.1-0.5-2.8c0-0.3-0.1-0.5-0.1-0.7s0-0.2,0-0.2s0,0.1,0.1,0.2c0,0.2,0.1,0.4,0.2,0.7
						c0.1,0.7,0.3,1.6,0.6,2.8c0.5,2.4,1.1,5.9,1.9,10.4c1.6,8.9,3.6,21.4,5.6,36l-0.3-0.2c5.8-1.8,12-3.6,18.5-5.2
						c18.7-4.8,36-8,48.5-9.8c3.1-0.5,6-0.8,8.5-1.2c2.5-0.3,4.6-0.6,6.4-0.7c1.7-0.2,3.1-0.3,4.1-0.4c0.4,0,0.8-0.1,1.1-0.1
						C156,118.9,156.1,118.9,156.1,118.9z"/>
				</g>
			</g>
		</g>
		<g>
			<g>
				<g>
					<path class="st1" d="M157.4,103.5c0,0-0.1-0.4-0.4-1.3c-0.3-0.8-0.9-2-1.9-3.3s-2.5-2.7-4.5-3.9c-0.5-0.3-1.1-0.6-1.6-0.9
						c-0.6-0.2-1.2-0.5-1.8-0.7c-1.3-0.4-2.7-0.6-4.1-0.4c-1.4,0.2-2.9,0.7-4.2,1.7c-1.3,0.9-2.4,2.2-3.4,3.7
						c-2,2.9-3.2,6.4-4.7,10.1c-0.8,1.8-1.8,3.7-3.5,5c-0.8,0.7-1.8,1.2-2.9,1.4c-1.1,0.2-2.2,0-3.3-0.4c-4.2-1.7-6.1-6.5-10.4-8
						c-2.1-0.7-4.4-0.4-6.3,0.5c-1,0.5-1.8,1.1-2.5,1.9s-1.2,1.7-1.7,2.7c-1,1.9-1.7,4-3.3,5.4c-0.8,0.7-1.8,1.2-2.9,1.3
						c-1.1,0.1-2.1-0.2-3-0.6c-1.8-0.9-3.2-2.5-4.1-4.1c-1-1.6-1.5-3.4-2.2-5c-0.6-1.6-1.3-3.2-2.2-4.5c-0.9-1.3-2-2.4-3.3-3.1
						c-2.6-1.4-5.5-1.2-7.6-0.2c-2.2,0.9-3.8,2.2-4.8,3.5c-1.1,1.3-1.6,2.5-1.8,3.3c-0.3,0.8-0.3,1.3-0.3,1.3s0-0.5,0.2-1.3
						s0.7-2.1,1.8-3.4c1-1.3,2.7-2.7,4.9-3.6c2.1-1,5.2-1.3,7.9,0.2c1.4,0.7,2.6,1.8,3.5,3.2c0.9,1.4,1.6,3,2.2,4.6
						c0.7,1.6,1.3,3.3,2.2,4.9c1,1.5,2.3,3,4,3.9c0.8,0.4,1.8,0.7,2.7,0.6c1-0.1,1.9-0.5,2.6-1.2c1.5-1.3,2.2-3.4,3.2-5.3
						c0.5-1,1-1.9,1.7-2.8s1.6-1.6,2.7-2.1c2-1,4.5-1.3,6.7-0.5c2.3,0.7,3.9,2.5,5.4,4.1s3,3.2,5,4c1,0.4,2,0.5,3,0.4
						c1-0.2,1.9-0.7,2.7-1.3c1.6-1.2,2.6-3,3.4-4.8c1.5-3.6,2.8-7.2,4.8-10.1c1-1.5,2.1-2.8,3.5-3.7c1.3-1,2.9-1.5,4.4-1.7
						s3,0,4.3,0.4c0.7,0.2,1.3,0.5,1.8,0.7c0.6,0.3,1.1,0.5,1.6,0.9c2,1.3,3.5,2.7,4.5,4.1c1,1.3,1.6,2.5,1.8,3.4
						C157.3,102.9,157.4,103.2,157.4,103.5C157.4,103.4,157.4,103.5,157.4,103.5z"/>
				</g>
			</g>
		</g>
		<g>
			<g>
				<g>
					<ellipse transform="matrix(0.9824 -0.187 0.187 0.9824 -16.8167 12.5288)" class="st1" cx="58" cy="95.4" rx="1.1" ry="0.3"/>
				</g>
			</g>
		</g>
		<g>
			<g>
				<g>
					<ellipse transform="matrix(0.9066 -0.422 0.422 0.9066 -39.6445 35.2908)" class="st1" cx="59.9" cy="107.2" rx="1" ry="0.3"/>
				</g>
			</g>
		</g>
		<g>
			<g>
				<g>
					
						<ellipse transform="matrix(0.9441 -0.3296 0.3296 0.9441 -36.0271 27.0967)" class="st1" cx="61.9" cy="119.8" rx="1" ry="0.3"/>
				</g>
			</g>
		</g>
		<g>
			<g>
				<g>
					
						<ellipse transform="matrix(0.954 -0.2997 0.2997 0.954 -36.6648 25.3477)" class="st1" cx="64.3" cy="132.2" rx="1.1" ry="0.3"/>
				</g>
			</g>
		</g>
		<g>
			<g>
				<g>
					<g>
						<path class="st1" d="M135.2,72.1c0,0,0.4-0.2,1.2-0.3c0.8-0.1,2-0.3,3.4-0.5c3-0.4,7.2-1,12.3-1.6h0.2v0.2
							c0.4,4.3,0.8,9.2,1.3,14.4v0.2v0.3h-0.2c-6.1,0.7-11.8,1.4-16.6,2h-0.2v-0.2c-0.5-4.3-0.9-8-1.1-10.6
							c-0.1-1.2-0.2-2.2-0.3-2.9C135.2,72.4,135.2,72.1,135.2,72.1s0.1,0.4,0.2,1.1c0.1,0.7,0.2,1.7,0.4,2.9
							c0.3,2.6,0.8,6.2,1.3,10.5l-0.2-0.2c4.8-0.6,10.5-1.3,16.6-2.1l-0.2,0.3v-0.2c-0.5-5.2-0.9-10.1-1.3-14.4l0.3,0.2
							C142.7,71.3,137.1,71.9,135.2,72.1z"/>
					</g>
				</g>
			</g>
			<g>
				<g>
					<g>
						<path class="st1" d="M150.6,74.6c0,0.2-2.9,0.2-6.3,0.5c-3.5,0.4-6.3,1-6.3,0.8c0-0.1,2.7-1,6.2-1.3
							C147.7,74.3,150.6,74.5,150.6,74.6z"/>
					</g>
				</g>
			</g>
			<g>
				<g>
					<g>
						<path class="st1" d="M150.8,78.3c0,0.2-2.7,0.3-5.9,0.6c-3.3,0.3-5.9,0.7-5.9,0.6s2.6-0.8,5.9-1.1
							C148.1,78.1,150.8,78.2,150.8,78.3z"/>
					</g>
				</g>
			</g>
			<g>
				<g>
					<g>
						<ellipse transform="matrix(0.9921 -0.1257 0.1257 0.9921 -9.17 18.6758)" class="st1" cx="143.4" cy="82" rx="3.4" ry="0.3"/>
					</g>
				</g>
			</g>
		</g>
	</g>
	<g>
		<g>
			<g>
				<g>
					<g>
						<path class="st1" d="M339.5,82.7c-36.3-11.1-66.9-20.5-108-20.2l-6.3,64.6c42.7,3.8,57,6.6,96.4,20.8L339.5,82.7z"/>
					</g>
				</g>
			</g>
			<g>
				<g>
					<g>
						<path class="st3" d="M339.5,82.7c-36.3-11.1-66.9-20.5-108-20.2l-6.3,64.6c42.7,3.8,57,6.6,96.4,20.8L339.5,82.7z"/>
					</g>
				</g>
			</g>
		</g>
		<g>
			<g>
				<g>
					<g>
						<g>
							<g>
								<g>
									<path class="st1" d="M257.3,93.8l1.6-13.7c-3.8-0.4-7.9,0.7-11.2,3.1c-3.9,2.9-6.8,7.5-6.9,13.6c0,0.7,0,1.3,0.1,2l0,0l0,0
										l16-1.8L257.3,93.8z"/>
								</g>
							</g>
						</g>
					</g>
					<g>
						<g>
							<g>
								<g>
									<path class="st1" d="M273.9,91.6c-1.6-5.1-5.4-9.5-11.4-10.9c-0.2,0-0.3-0.1-0.5-0.1c-0.1,0-0.2,0-0.3-0.1
										c-0.3-0.1-0.6-0.1-0.9-0.1l0,0l0,0l0,0l0,0l0,0l-1.6,13.7l-0.4,3.2l15.1,5.5l0,0l0,0c0.4-1.1,0.6-2.3,0.8-3.5
										C274.9,96.8,274.7,94.1,273.9,91.6z"/>
								</g>
							</g>
						</g>
					</g>
					<g class="st4">
						<g>
							<g>
								<g>
									<path d="M273.9,91.6c-1.6-5.1-5.4-9.5-11.4-10.9c-0.2,0-0.3-0.1-0.5-0.1c-0.1,0-0.2,0-0.3-0.1c-0.3-0.1-0.6-0.1-0.9-0.1
										l0,0l0,0l0,0l0,0l0,0l-1.6,13.7l-0.4,3.2l15.1,5.5l0,0l0,0c0.4-1.1,0.6-2.3,0.8-3.5C274.9,96.8,274.7,94.1,273.9,91.6z"/>
								</g>
							</g>
						</g>
					</g>
				</g>
				<g>
					<g>
						<g>
							<g>
								<path class="st1" d="M257.6,98.9l-16,1.8c0.7,7.8,6.3,14.2,13.9,15.1c7.6,0.9,14.7-4,17.2-11.4L257.6,98.9"/>
							</g>
						</g>
					</g>
				</g>
			</g>
		</g>
		<g>
			<g>
				<g>
					<path class="st1" d="M325.5,95c0,0-0.5-0.2-1.4-0.6s-2.2-1-3.8-1.6c-3.2-1.4-7.8-3.1-12.9-4.5c-5.1-1.5-9.9-2.4-13.3-3
						c-1.7-0.3-3.1-0.5-4.1-0.6s-1.5-0.2-1.5-0.3c0,0,0.5,0,1.5,0.1s2.4,0.2,4.1,0.4c3.5,0.5,8.3,1.3,13.4,2.8
						c5.2,1.5,9.7,3.2,12.9,4.7c1.6,0.7,2.9,1.3,3.7,1.8C325,94.7,325.5,95,325.5,95z"/>
				</g>
			</g>
		</g>
		<g>
			<g>
				<g>
					<path class="st1" d="M324.4,101.8c0,0-0.5-0.2-1.4-0.6s-2.2-1-3.8-1.6c-3.2-1.4-7.8-3.1-12.9-4.5c-5.1-1.5-9.9-2.4-13.3-3
						c-1.7-0.3-3.1-0.5-4.1-0.6s-1.5-0.2-1.5-0.3c0,0,0.5,0,1.5,0.1s2.4,0.2,4.1,0.4c3.5,0.5,8.3,1.3,13.4,2.8
						c5.2,1.5,9.7,3.2,12.9,4.7c1.6,0.7,2.9,1.3,3.7,1.8C323.9,101.5,324.4,101.7,324.4,101.8z"/>
				</g>
			</g>
		</g>
		<g>
			<g>
				<g>
					<path class="st1" d="M323.3,108.5c0,0-0.5-0.2-1.4-0.6s-2.2-1-3.8-1.6c-3.2-1.4-7.8-3.1-12.9-4.5c-5.1-1.5-9.9-2.4-13.3-3
						c-1.7-0.3-3.1-0.5-4.1-0.6s-1.5-0.2-1.5-0.3c0,0,0.5,0,1.5,0.1s2.4,0.2,4.1,0.4c3.5,0.5,8.3,1.3,13.4,2.8
						c5.2,1.5,9.7,3.2,12.9,4.7c1.6,0.7,2.9,1.3,3.7,1.8C322.8,108.2,323.3,108.5,323.3,108.5z"/>
				</g>
			</g>
		</g>
		<g>
			<g>
				<g>
					<path class="st1" d="M321.1,115.3c0,0-0.5-0.2-1.4-0.6s-2.1-1-3.7-1.6c-3.1-1.3-7.5-3.1-12.5-4.5c-5-1.5-9.6-2.4-13-3
						c-1.7-0.3-3-0.5-4-0.6c-0.9-0.1-1.5-0.2-1.5-0.3c0,0,0.5,0,1.5,0.1s2.3,0.2,4,0.4c3.4,0.5,8,1.4,13,2.8c5,1.5,9.4,3.2,12.5,4.7
						c1.5,0.7,2.8,1.3,3.6,1.8C320.7,115,321.1,115.2,321.1,115.3z"/>
				</g>
			</g>
		</g>
		<g>
			<g>
				<g>
					<path class="st1" d="M316.3,120.6c0,0-0.5-0.1-1.2-0.5c-0.9-0.4-2-0.9-3.3-1.5c-2.8-1.2-6.7-2.8-11.2-4.1
						c-4.5-1.3-8.6-2-11.7-2.4c-1.4-0.2-2.6-0.4-3.6-0.5c-0.8-0.1-1.3-0.2-1.3-0.2s0.5,0,1.3,0c0.9,0,2.1,0.2,3.6,0.3
						c3,0.4,7.2,1,11.8,2.3c4.5,1.3,8.4,3,11.2,4.3c1.4,0.7,2.5,1.2,3.2,1.6C315.9,120.4,316.3,120.6,316.3,120.6z"/>
				</g>
			</g>
		</g>
		<g>
			<g>
				<g>
					<path class="st1" d="M300.2,121.4c0,0.1-1-0.2-2.6-0.5c-1.6-0.4-3.8-0.8-6.2-1.3c-2.4-0.4-4.7-0.7-6.3-1
						c-1.6-0.2-2.6-0.4-2.6-0.5s1,0,2.6,0.1s3.9,0.4,6.3,0.8c2.5,0.4,4.7,1,6.2,1.4C299.3,121,300.2,121.3,300.2,121.4z"/>
				</g>
			</g>
		</g>
		<g>
			<g>
				<g>
					<path class="st1" d="M237.8,70.1c0,0,0.3,0,0.8,0c0.6,0,1.4,0,2.5-0.1c2.2-0.1,5.4,0,9.5,0.2c8.1,0.5,19.8,1.9,33.3,6l0.2,0.1
						v0.2c-2.5,14.3-5.5,31.4-8.7,49.6c-0.1,0.7-0.3,1.5-0.4,2.2v0.3l-0.3-0.1c-7.6-2-15.1-3.5-22.2-4.6c-7.2-1.1-14-1.9-20.4-2.3
						h-0.2v-0.2c1.8-15.3,3.2-28.1,4.2-37.1c0.5-4.5,0.9-8,1.2-10.4c0.1-1.2,0.3-2.1,0.3-2.7c0-0.3,0.1-0.5,0.1-0.7
						C237.8,70.2,237.8,70.1,237.8,70.1s0,0.1,0,0.3c0,0.2,0,0.4-0.1,0.7c-0.1,0.7-0.2,1.6-0.3,2.8c-0.3,2.4-0.6,6-1.1,10.5
						c-1,9-2.4,21.8-4,37l-0.2-0.3c6.4,0.4,13.2,1.2,20.4,2.2c7.2,1.1,14.7,2.6,22.3,4.6l-0.3,0.2c0.1-0.7,0.3-1.5,0.4-2.2
						c3.2-18.2,6.2-35.2,8.7-49.6l0.1,0.2c-13.4-4.1-25.1-5.5-33.2-6.1c-4.1-0.3-7.3-0.3-9.4-0.3c-1.1,0-1.9,0-2.5,0
						C238.1,70.1,237.8,70.1,237.8,70.1z"/>
				</g>
			</g>
		</g>
	</g>
</g>
<g id="Character">
	<g>
		<g>
			<g>
				<polyline class="st1" points="198.1,202.2 233.5,210 238.9,202.2 238.1,192.1 232.7,187.2 214.1,187.2 196.8,202.8 				"/>
			</g>
		</g>
		<g class="st4">
			<g>
				<polyline points="198.1,202.2 233.5,210 238.9,202.2 238.1,192.1 232.7,187.2 214.1,187.2 196.8,202.8 				"/>
			</g>
		</g>
		<g>
			<g>
				<g>
					<g>
						<g>
							<g>
								<g>
									<g>
										<g>
											<g>
												<g>
													<path class="st5" d="M252.1,129.3l44.7-6l7-2c0,0,16.1-3.5,17.6-4.1c1.7-0.6,2.5,0.1,2.6,0.7c0.3,1-0.7,2.2-2.2,2.7
														c-0.5,0.2-8.7,3-8.7,3s0.8,0.1,2.8,0.8c2,0.7,3.8,3.2,4.8,6.1c0.9,2.9,0.9,3.8-0.2,4.3c-0.5,0.2-0.9,0-1.3-0.2
														c-0.6-0.4-1.1-1-1.3-1.7c-1.6-4.7-4.5-5.1-4.5-5.1l-0.9,0.3c0,0,3,2.1,3,4.7c0,0.4-0.1,0.8-0.2,1.1
														c0.4,1.2,0.2,2.7-0.6,3.7c-0.9,1.1-2.3,1.6-3.7,1.4c-0.6-0.1-1.3-0.5-1.4-1.1c0-0.3,0.1-0.7,0.2-1
														c0.1-0.2,0.1-0.3,0.2-0.5l-2.7,0.4c0,0-6.1,0.5-8.7,1l-41.8,12.6c-5.8,1.7-11.9-1.6-13.6-7.4l0,0
														C241.3,136.6,245.6,130.2,252.1,129.3z"/>
												</g>
											</g>
										</g>
									</g>
								</g>
							</g>
						</g>
					</g>
				</g>
				<g>
					<g>
						<g>
							<g>
								<g>
									<g>
										<g>
											<g>
												<g>
													<g>
														<path class="st5" d="M297.8,124.4c0.1,0.9,1,1.6,1.9,1.8c0.9,0.2,1.9,0.1,2.8,0.2c2.8,0.4,4.9,2.9,7.7,3.1
															c0.4,0,0.9,0,1-0.4c0.1-0.3-0.2-0.7-0.5-0.9c-2.3-2.1-4.6-4.1-7-6.2"/>
													</g>
												</g>
											</g>
										</g>
									</g>
								</g>
							</g>
						</g>
					</g>
					<g>
						<g>
							<g>
								<g>
									<g>
										<g>
											<g>
												<g>
													<g>
														<g>
															<path class="st6" d="M303.9,122c0,0,0.3,0.2,0.8,0.6s1.2,1,2.1,1.8s2,1.7,3.1,2.7c0.3,0.3,0.6,0.5,0.9,0.8
																c0.3,0.3,0.7,0.5,0.8,1.1c0,0.3-0.2,0.6-0.5,0.7c-0.3,0.1-0.5,0.1-0.8,0.1c-0.5,0-0.9-0.1-1.3-0.3
																c-1.8-0.6-3.1-1.6-4.5-2.3c-0.7-0.3-1.3-0.6-2-0.7c-0.6-0.1-1.3-0.1-1.9-0.1c-1.2,0-2.2-0.5-2.5-1.1
																c-0.4-0.6-0.3-1-0.3-1c0.1,0,0,0.4,0.5,0.8c0.4,0.5,1.3,0.9,2.4,0.9c0.6,0,1.2,0,1.9,0.1c0.7,0.1,1.4,0.3,2.1,0.7
																c1.4,0.6,2.8,1.7,4.4,2.2c0.4,0.1,0.8,0.2,1.2,0.2c0.4,0,0.7-0.1,0.7-0.3s-0.3-0.5-0.6-0.8c-0.3-0.3-0.6-0.5-0.9-0.8
																c-1.1-1-2.1-1.9-3-2.7c-0.9-0.8-1.5-1.4-2-1.9C304.1,122.3,303.9,122.1,303.9,122z"/>
														</g>
													</g>
												</g>
											</g>
										</g>
									</g>
								</g>
							</g>
						</g>
					</g>
				</g>
				<g>
					<g>
						<g>
							<g>
								<g>
									<g>
										<g>
											<g>
												<g>
													<g>
														<path class="st6" d="M312.4,128.1c0,0.1,0.7-0.3,1.8,0c0.5,0.1,1.1,0.5,1.5,1.1c0.5,0.6,0.8,1.3,1.1,2.1
															c0.3,0.8,0.6,1.6,1,2.2c0.4,0.6,0.9,1.1,1.5,1.4c0.5,0.3,1.1,0.2,1.4,0s0.4-0.3,0.4-0.3s-0.2,0.1-0.4,0.2
															c-0.3,0.1-0.7,0.1-1.2-0.1c-0.5-0.3-0.9-0.7-1.3-1.4c-0.4-0.6-0.7-1.4-1-2.2s-0.7-1.6-1.2-2.2c-0.5-0.6-1.1-1-1.7-1.1
															s-1.1,0-1.4,0C312.6,128,312.4,128.1,312.4,128.1z"/>
													</g>
												</g>
											</g>
										</g>
									</g>
								</g>
							</g>
						</g>
					</g>
				</g>
				<g>
					<g>
						<g>
							<g>
								<g>
									<g>
										<g>
											<g>
												<g>
													<g>
														<path class="st6" d="M322.5,120.4c0,0-0.6,0.2-1.6,0.6c-1.1,0.4-2.4,0.9-3.9,1.4s-2.8,1-3.9,1.4
															c-1,0.3-1.6,0.6-1.6,0.6s0.7-0.1,1.7-0.4s2.4-0.7,3.9-1.3c1.5-0.5,2.9-1.1,3.9-1.5
															C321.9,120.8,322.5,120.5,322.5,120.4z"/>
													</g>
												</g>
											</g>
										</g>
									</g>
								</g>
							</g>
						</g>
					</g>
				</g>
				<g>
					<g>
						<g>
							<g>
								<g>
									<g>
										<g>
											<g>
												<g>
													<g>
														<path class="st6" d="M311.3,130.6c0,0,0.1,0.2,0.4,0.4c0.2,0.2,0.6,0.7,0.5,1.2c0,0.3-0.2,0.5-0.5,0.7
															s-0.7,0.2-1.1,0.3s-0.9,0.2-1.2,0.6c-0.3,0.4-0.4,1-0.2,1.5c0.2,0.5,0.6,0.9,1,1.1c0.4,0.2,0.9,0.3,1.3,0.2
															c0.8-0.2,1.5-0.5,2.1-0.8s1-0.6,1.2-0.9c0.2-0.3,0.3-0.5,0.3-0.5s-0.1,0.2-0.4,0.4c-0.2,0.2-0.7,0.5-1.2,0.8
															s-1.2,0.5-2,0.7c-0.7,0.1-1.7-0.3-2-1.1c-0.1-0.4-0.1-0.9,0.1-1.2s0.6-0.4,1-0.5s0.8-0.2,1.1-0.4
															c0.4-0.2,0.6-0.5,0.6-0.9c0-0.7-0.4-1.1-0.7-1.4C311.4,130.7,311.3,130.6,311.3,130.6z"/>
													</g>
												</g>
											</g>
										</g>
									</g>
								</g>
							</g>
						</g>
					</g>
				</g>
				<g>
					<g>
						<g>
							<g>
								<g>
									<g>
										<g>
											<g>
												<g>
													<g>
														<path class="st6" d="M310.3,136.2c0,0-0.2,0-0.4,0.2c-0.2,0.2-0.5,0.6-0.5,1.2c0,0.6,0.5,1.3,1.2,1.6s1.6,0.3,2.4,0
															s1.5-0.8,1.9-1.5c0.4-0.6,0.6-1.3,0.6-1.9c0-0.6-0.1-1-0.1-1.3c-0.1-0.3-0.2-0.4-0.2-0.4c-0.1,0,0.2,0.7,0.1,1.7
															c-0.1,0.5-0.3,1.1-0.7,1.7c-0.4,0.6-1,1.1-1.8,1.3c-0.8,0.3-1.6,0.3-2.2,0s-1-0.8-1.1-1.3s0.2-0.9,0.4-1.1
															C310.2,136.3,310.3,136.2,310.3,136.2z"/>
													</g>
												</g>
											</g>
										</g>
									</g>
								</g>
							</g>
						</g>
					</g>
				</g>
				<g>
					<g>
						<g>
							<g>
								<g>
									<g>
										<g>
											<g>
												<g>
													<g>
														<path class="st6" d="M302.9,132.5c0,0,0-0.3-0.3-0.8c-0.3-0.4-0.8-1-1.6-1.3v0.3c0.3-0.2,0.7-0.3,1-0.6
															c1.9-1.2,2.9-2.9,2.8-2.9c-0.1-0.1-1.1,1.4-3,2.6c-0.3,0.2-0.7,0.4-1,0.6l-0.3,0.2l0.4,0.1c0.7,0.3,1.3,0.8,1.6,1.1
															C302.7,132.3,302.8,132.5,302.9,132.5z"/>
													</g>
												</g>
											</g>
										</g>
									</g>
								</g>
							</g>
						</g>
					</g>
				</g>
				<g>
					<g>
						<g>
							<g>
								<g>
									<g>
										<g>
											<g>
												<g>
													<g>
														<path class="st6" d="M316.8,127.8c-0.1-0.1-0.5,0.5-0.6,1.3s0.3,1.4,0.4,1.4s-0.1-0.6-0.1-1.3
															C316.6,128.3,316.9,127.8,316.8,127.8z"/>
													</g>
												</g>
											</g>
										</g>
									</g>
								</g>
							</g>
						</g>
					</g>
				</g>
			</g>
		</g>
		<g>
			<g>
				<g>
					<g>
						<g>
							<path class="st5" d="M108.3,143.3c0,0-6.5-10.6-7.7-11.5s-11.5-4.7-12.4-4.4c-0.9,0.3-13.4,2.4-12,3.9s10.2-0.1,10.2-0.1
								l1.2,0.6c0,0-7.5,1.2-9.1,2.1c-1.5,0.8-1,2.6,0.4,2.5s7.9-1.4,8.3-1.1s-7.1,1.8-7.9,2.2c-1.1,0.6-1.2,2.6,0.2,2.5
								c0.8-0.1,7.9-1.9,7.9-1.9s-5.6,2.2-6.1,2.7c-0.8,0.8-0.2,2,1,1.8c0.8-0.2,4.8-2.1,5.9-2.3c0,0,1,0.3,2,2.4
								c0.4,1,2.5,7.2,6.2,7.1c3.3-0.1,6.5,2.6,6.5,2.6L108.3,143.3z"/>
						</g>
					</g>
				</g>
				<g>
					<g>
						<g>
							<g>
								<path class="st6" d="M76.3,131.4c0,0.1,0.8,0.4,2.3,0.6c0.7,0.1,1.6,0.2,2.6,0.1c1-0.1,2-0.3,3.1-0.4
									c0.8-0.1,1.6-0.2,2.3-0.3h-0.1c3.1,1.1,5.4,1.8,5.4,1.7s-2.1-1.1-5.2-2.2h-0.1h-0.1c-0.7,0.1-1.5,0.2-2.3,0.3
									c-1.1,0.2-2.1,0.3-3.1,0.4c-0.9,0.1-1.8,0.1-2.5,0C77.2,131.5,76.3,131.3,76.3,131.4z"/>
							</g>
						</g>
					</g>
				</g>
			</g>
			<g>
				<g>
					<g>
						<g>
							<g>
								<path class="st5" d="M103.4,142c-0.8,0.7-2,0.5-2.9,0s-1.6-1.4-2.4-2c-2.5-1.8-6.2-1.4-8.7-3.3c-0.3-0.3-0.7-0.7-0.5-1.1
									c0.2-0.4,0.7-0.4,1.1-0.4c3.4,0.1,6.9,0.2,10.3,0.2"/>
							</g>
						</g>
					</g>
					<g>
						<g>
							<g>
								<g>
									<path class="st6" d="M100.3,135.6c0,0-0.4-0.1-1.1-0.1c-0.7-0.1-1.8-0.1-3-0.2c-1.3-0.1-2.9-0.1-4.5-0.2
										c-0.4,0-0.9,0-1.3,0s-1-0.1-1.5,0.3c-0.3,0.2-0.3,0.7-0.2,1c0.1,0.3,0.3,0.5,0.5,0.7c0.4,0.3,0.8,0.6,1.3,0.8
										c1.9,0.9,3.8,1,5.3,1.5c0.8,0.2,1.5,0.6,2.1,1s1.1,0.9,1.6,1.3c1,0.9,2.2,1.2,2.9,1c0.8-0.1,1-0.6,1-0.6
										c0-0.1-0.3,0.3-1,0.3c-0.7,0.1-1.7-0.2-2.6-1.1c-0.5-0.4-1-0.9-1.6-1.4s-1.4-0.8-2.2-1.1c-1.6-0.6-3.5-0.7-5.3-1.5
										c-0.4-0.2-0.8-0.5-1.2-0.7c-0.3-0.3-0.5-0.6-0.3-0.8s0.6-0.2,1.1-0.2c0.4,0,0.9,0,1.3,0c1.7,0,3.2,0,4.5,0s2.3,0,3,0
										C99.9,135.6,100.3,135.6,100.3,135.6z"/>
								</g>
							</g>
						</g>
					</g>
				</g>
			</g>
		</g>
		<g>
			<g>
				<g>
					<g>
						<g>
							<path class="st1" d="M159.1,377.5l-2.4,26.2l-7.9,20.2c-0.6,1.5,0.2,3.1,1.7,3.6l0,0c0.8,0.3,1.7,0.1,2.4-0.4
								c4.4-3.4,20.7-15.9,20.7-17.8c0.1-2.2,4.4-27.5,4.4-27.5L159.1,377.5z"/>
						</g>
					</g>
				</g>
			</g>
			<g class="st7">
				<g>
					<g>
						<g>
							<path class="st3" d="M150.6,427.5l23.4-20l-0.1,1.1c-0.1,1-0.6,1.8-1.3,2.5c-1.9,1.8-7.2,6.5-19.5,16
								C152.4,427.7,151.4,427.8,150.6,427.5L150.6,427.5z"/>
						</g>
					</g>
				</g>
			</g>
			<g class="st7">
				<g>
					<g>
						<g>
							<g>
								<path class="st3" d="M169.5,398.5c-0.7,0.4-1,1.3-0.7,2.1c0.3,0.7,1.3,1.1,2,0.7s1.1-1.5,0.7-2.2c-0.4-0.7-1.6-1-2.2-0.5"/>
							</g>
						</g>
					</g>
				</g>
			</g>
			<g>
				<g>
					<g>
						<g>
							<g>
								<path class="st8" d="M157.9,416.8c-0.2,0.1-0.6-1.4-2.1-2.3c-1.4-1-2.9-0.8-2.9-0.9s0.3-0.2,1-0.2c0.6,0,1.5,0.2,2.3,0.7
									s1.3,1.2,1.6,1.8C157.9,416.4,157.9,416.8,157.9,416.8z"/>
							</g>
						</g>
					</g>
				</g>
			</g>
			<g>
				<g>
					<g>
						<g>
							<g>
								<path class="st8" d="M155.6,420.1c-0.1,0.1-0.9-0.8-2.2-1.4s-2.5-0.5-2.5-0.6c-0.1-0.1,1.3-0.6,2.7,0.1
									C155.1,418.8,155.7,420,155.6,420.1z"/>
							</g>
						</g>
					</g>
				</g>
			</g>
			<g>
				<g>
					<g>
						<g>
							<g>
								<path class="st8" d="M161.8,412.7c-0.1,0.1-1.3-1.4-3.2-2.4c-1.9-1.1-3.8-1.2-3.8-1.3c0-0.1,2-0.3,4.1,0.8
									S162,412.6,161.8,412.7z"/>
							</g>
						</g>
					</g>
				</g>
			</g>
			<g>
				<g>
					<g>
						<g>
							<g>
								<path class="st8" d="M163.2,404.8c-0.1,0.1-1.5-0.6-3.3-0.9c-1.9-0.3-3.4,0-3.5-0.2c-0.1-0.1,1.5-0.7,3.5-0.4
									C162,403.6,163.3,404.6,163.2,404.8z"/>
							</g>
						</g>
					</g>
				</g>
			</g>
			<g>
				<g>
					<g>
						<g>
							<g>
								<path class="st8" d="M164.1,397.1c-0.1,0.1-1.5-0.9-3.4-1c-2-0.2-3.5,0.6-3.6,0.5c0-0.1,0.3-0.4,0.9-0.6
									c0.6-0.3,1.6-0.5,2.7-0.4c1.1,0.1,2,0.5,2.6,0.8C163.9,396.7,164.2,397,164.1,397.1z"/>
							</g>
						</g>
					</g>
				</g>
			</g>
			<g>
				<g>
					<g>
						<g>
							<g>
								<path class="st8" d="M160.9,394.6c0,0-0.1-0.4,0.1-1c0.1-0.6,0.4-1.5,1.1-2.5c0.3-0.5,0.7-1,1.5-1.3c0.4-0.1,0.9,0,1.2,0.4
									s0.3,0.8,0.3,1.2c-0.2,1.7-1.8,3.1-3.7,3.1s-3.5-1.3-4.1-2.8c-0.1-0.4-0.2-0.9,0.1-1.3s0.8-0.5,1.2-0.4
									c0.8,0.2,1.2,0.7,1.6,1.1c0.8,0.8,1.3,1.7,1.6,2.2c0.3,0.6,0.3,0.9,0.3,1c-0.1,0.1-0.5-1.4-2.1-2.9
									c-0.4-0.4-0.9-0.8-1.4-0.9c-0.3-0.1-0.5,0-0.6,0.2s-0.1,0.5,0,0.8c0.5,1.2,1.9,2.4,3.5,2.4s3-1.3,3.2-2.6
									c0-0.3,0-0.7-0.2-0.9c-0.1-0.2-0.4-0.3-0.7-0.2c-0.5,0.1-0.9,0.7-1.3,1.1C161.1,393.1,161,394.6,160.9,394.6z"/>
							</g>
						</g>
					</g>
				</g>
			</g>
		</g>
		<g>
			<g>
				<g>
					<path class="st8" d="M183.2,392.9l19.6-155.5l-6.3-36.1l-37,2L155,390c0,1.4,0.9,2.6,2.3,2.9l21.6,3.3
						C181,396.6,183,395.1,183.2,392.9z"/>
				</g>
			</g>
			<g>
				<g>
					<path class="st8" d="M202.3,242.7L238,278l-51.4,12.5l3.7,25.9l69.5-9.5c5.9-0.8,11.3-4,14.8-8.9l0,0
						c5.4-7.5,5.5-17.5,0.3-25.1l-54.2-79.5l-24.2,7.9L202.3,242.7z"/>
				</g>
			</g>
			<g>
				<g>
					<g>
						
							<ellipse transform="matrix(0.9768 -0.2142 0.2142 0.9768 -46.3503 48.6471)" class="st9" cx="201.3" cy="238.2" rx="0.3" ry="4.6"/>
					</g>
				</g>
			</g>
			<g>
				<g>
					<g>
						<path class="st9" d="M195.1,293.8c0,0,0.3-0.1,0.8-0.3c0.6-0.2,1.4-0.4,2.5-0.8c2.2-0.7,5.4-1.7,9.6-2.9
							c8.3-2.5,20.3-6.1,34.9-10.5l-0.1,0.3c-12.1-12.9-26.8-28.5-42.9-45.6l0.4-0.1c-0.8,7.2-1.7,14.7-2.6,22.3
							c-4.4,37-8.6,70.5-11.8,94.7c-1.6,12.1-3,21.9-4,28.7c-0.6,3.4-0.9,6-1.3,7.8c-0.2,0.9-0.3,1.5-0.4,2
							c-0.1,0.5-0.2,0.7-0.2,0.7s0-0.2,0.1-0.7s0.2-1.1,0.4-2c0.4-1.8,0.7-4.4,1.2-7.8c1-6.8,2.3-16.6,3.9-28.7
							c3.1-24.2,7.2-57.7,11.6-94.8c0.9-7.6,1.8-15.1,2.6-22.3l0.1-0.5l0.4,0.4c16.1,17.2,30.7,32.8,42.8,45.7l0.2,0.2l-0.3,0.1
							c-14.6,4.3-26.6,7.9-34.9,10.3c-4.1,1.2-7.4,2.2-9.6,2.8c-1.1,0.3-1.9,0.6-2.5,0.7C195.4,293.7,195.1,293.8,195.1,293.8z"/>
					</g>
				</g>
			</g>
			<g>
				<g>
					<g>
						<path class="st9" d="M183.6,390c-0.1,0,3.9-33,9.1-73.7c5.2-40.7,9.5-73.6,9.6-73.6s-3.9,33-9.1,73.7
							C188,357,183.7,390,183.6,390z"/>
					</g>
				</g>
			</g>
			<g>
				<g>
					<g>
						<path class="st9" d="M196.5,217.2c0.1,0,0.4,0.9,0.8,2.4c0.4,1.5,1,3.6,1.5,6c0.5,2.3,0.9,4.5,1.1,6c0.2,1.6,0.3,2.5,0.3,2.5
							c-0.1,0-0.3-0.9-0.6-2.5c-0.4-1.7-0.8-3.7-1.3-6c-0.5-2.2-1-4.3-1.3-6C196.6,218.2,196.4,217.3,196.5,217.2z"/>
					</g>
				</g>
			</g>
			<g>
				<g>
					<g>
						<path class="st9" d="M198.8,214.2c-0.1,0,0.5-0.5,1.5-0.2c0.4,0.2,1,0.6,1.1,1.3c0.1,0.6-0.1,1.5-0.8,1.9s-1.5,0.2-2.1-0.2
							c-0.5-0.4-0.6-1.2-0.5-1.6c0.1-0.5,0.4-0.8,0.7-0.9c0.2-0.1,0.4-0.1,0.4-0.1c0,0.1-0.5,0.3-0.7,1.1c-0.1,0.4,0,0.9,0.4,1.2
							s1,0.4,1.5,0.1c0.5-0.3,0.7-0.9,0.6-1.4c-0.1-0.5-0.4-0.8-0.8-1C199.4,214,198.8,214.3,198.8,214.2z"/>
					</g>
				</g>
			</g>
			<g>
				<g>
					<g>
						<path class="st9" d="M248.5,284.1c-0.1,0.1-2.1-1.7-5-3.4c-2.9-1.7-5.5-2.5-5.4-2.7c0-0.1,2.7,0.5,5.7,2.2
							C246.7,281.9,248.6,284,248.5,284.1z"/>
					</g>
				</g>
			</g>
		</g>
		<g>
			<g>
				<g>
					<path class="st1" d="M171.3,95.4l-20.5,9.9l8.8,61.7l-3.5,27.7c-0.4,3.6,0.9,7.1,3.6,9.5l0,0l33.1-0.7l23.2-12.7l10.6-1.8
						l-4.4-21.1l2-29.9l24.2,12.9c1.9,1,4,1.3,6.1,0.7l44.4-11.5l-2.3-17.1l-40.2,4.5l-30.6-27.1L203,95.3l-4.1-6.7h-23.3l-1.6,1.2
						c-0.8,0.6-1.4,1.4-1.7,2.3L171.3,95.4z"/>
				</g>
			</g>
			<g>
				<g>
					<g>
						<path class="st1" d="M150.8,105.3c0,0-6.7,4.3-9.2,12c-2.3,7.3-7.6,36.7-7.6,36.7l-23.3-14.5l-13.4,14.1l31.1,27.4
							c4.8,4.2,11.6,5.1,17.3,2.4l0,0c4.8-2.3,8.1-6.8,8.8-12.1l3.8-27.9L150.8,105.3z"/>
					</g>
				</g>
				<g>
					<g>
						<polygon class="st5" points="220.8,193.4 219.3,191.3 204,194.1 201.2,200.7 						"/>
					</g>
				</g>
				<g>
					<g>
						<path class="st1" d="M159.8,204.1c13.7,5.5,28.3,3.5,41.4-3.4c3.9-2.1,7.6-4.7,11.5-6.7c4-2.1,8.3-3.6,12.8-3.3
							c4.4,0.3,8.9,2.8,10.7,6.9c1.8,4.1,0,9.7-4.2,11.2c0.5,0.4,1,0.9,1.5,1.3c6.2-2.9,9.1-11.1,6.1-17.2
							c-2.3-4.7-7.1-7.4-10.7-11.3c-5.2-5.6-5.8-16.4-5.8-24.9"/>
					</g>
				</g>
				<g>
					<g>
						<g>
							<path class="st8" d="M189.9,107.3c0,0-0.4,0-1,0.1s-1.6,0.2-2.4,1.1c-0.8,0.9-1.2,2.3-1.2,3.9s0.3,3.5,1.1,5.2l0.4,0.9
								l-0.8-0.6c-1.7-1.3-3.5-2.8-5.2-4.6c-4-4.1-6.6-8.7-7.9-12.2c-0.7-1.7-1.1-3.2-1.3-4.2s-0.3-1.6-0.2-1.6s0.4,2.3,1.9,5.7
								c1.4,3.4,4.1,7.9,8,11.9c1.7,1.7,3.4,3.3,5.1,4.5l-0.4,0.3c-0.4-0.9-0.7-1.9-0.9-2.8s-0.3-1.8-0.2-2.7c0-1.7,0.5-3.2,1.4-4.1
								s2-1,2.6-1.1C189.5,107.2,189.9,107.3,189.9,107.3z"/>
						</g>
					</g>
				</g>
				<g>
					<g>
						<g>
							<path class="st1" d="M191.1,107.3c1.7-0.7,4.2,0.3,5.4,1.7c0.8,0.9,1.3,2.2,2.3,2.8c1.1,0.6,4.4,1.1,5.4,0.3
								c0,0,0.6-2.8,0.9-4c1.2-4.7,1.8-8.9,2.3-13.7c-3.2-1.6-2.3-3.6-8.1-3.2c0,0,1.5,4.3,0.2,8.2"/>
						</g>
					</g>
					<g>
						<g>
							<g>
								<path class="st8" d="M199.4,99.4c-0.1,0,0.2-0.8,0.3-2.2c0.1-1.4,0-3.5-0.7-5.9l-0.1-0.2h0.2c1.3-0.1,2.8-0.2,4.3,0.4
									c0.8,0.3,1.4,0.9,2,1.4s1.2,1,2,1.4l0.2,0.1v0.2c-0.3,2.4-0.6,5.1-1,7.8c-0.3,1.8-0.7,3.5-1.1,5.2c-0.4,1.7-0.7,3.2-1.1,4.7
									v0.1h-0.1c-0.6,0.4-1.2,0.4-1.7,0.4c-0.6,0-1.1,0-1.6-0.1s-1-0.2-1.5-0.3c-0.5-0.1-1-0.4-1.3-0.7c-0.7-0.7-1.1-1.5-1.5-2.1
									c-0.5-0.6-1-1.1-1.6-1.4c-1.1-0.7-2.2-0.9-2.9-0.9s-1.1,0.2-1.1,0.2s0.3-0.2,1.1-0.3c0.7-0.1,1.8,0.1,3,0.8
									c0.6,0.3,1.2,0.8,1.7,1.5c0.5,0.6,0.9,1.4,1.5,2s1.6,0.7,2.6,0.9c0.5,0.1,1,0.1,1.5,0.1s1.1-0.1,1.4-0.3l-0.1,0.1
									c0.3-1.5,0.7-3.1,1.1-4.8c0.4-1.6,0.8-3.4,1.1-5.1c0.5-2.7,0.8-5.4,1-7.8l0.1,0.2c-0.8-0.4-1.5-0.9-2.1-1.5
									s-1.2-1.1-1.8-1.4c-1.4-0.5-2.8-0.5-4.1-0.4l0.2-0.3c0.7,2.5,0.7,4.6,0.6,6.1c-0.1,0.7-0.2,1.3-0.3,1.6
									C199.5,99.2,199.4,99.4,199.4,99.4z"/>
							</g>
						</g>
					</g>
				</g>
				<g>
					<g>
						<g>
							<path class="st8" d="M233.6,193.8c0,0,0-0.4,0-1.1c-0.1-0.7-0.3-1.9-1-3.1c-0.7-1.2-1.9-2.5-3.7-3.6c-1.7-1-4-1.6-6.6-1.8
								c-2.5-0.2-5.4-0.1-8.4-0.3s-6.3-0.7-9.5-2s-6.3-3.4-8.5-6.4c-1.1-1.5-2-3.3-2.5-5.1c-0.5-1.9-0.6-3.9-0.6-5.8
								c0.2-4,1.1-7.7,1.6-11.3c0.6-3.6,0.9-7.2,1-10.6c0.2-6.8-0.4-12.9-1.3-17.9c-0.9-5-2.1-9-2.9-11.8c-0.4-1.4-0.8-2.4-1.1-3.1
								c-0.1-0.3-0.2-0.6-0.3-0.8c-0.1-0.2-0.1-0.3-0.1-0.3s0.1,0.1,0.1,0.3c0.1,0.2,0.2,0.5,0.3,0.8c0.3,0.7,0.7,1.7,1.2,3.1
								c0.9,2.7,2.2,6.7,3.1,11.8c1,5.1,1.6,11.2,1.4,18c-0.1,3.4-0.4,7-1,10.6c-0.5,3.7-1.4,7.4-1.6,11.3
								c-0.2,3.9,0.7,7.7,2.9,10.6c2.2,2.9,5.2,5,8.3,6.2c3.1,1.3,6.3,1.8,9.3,2s5.8,0.1,8.4,0.4c2.6,0.2,4.9,0.8,6.7,1.9
								c1.8,1.1,3,2.4,3.7,3.7s0.9,2.4,0.9,3.2c0,0.4,0,0.7,0,0.9C233.6,193.7,233.6,193.8,233.6,193.8z"/>
						</g>
					</g>
				</g>
				<g>
					<g>
						<g>
							<path class="st8" d="M218.6,175.5c0,0-0.4,0.4-1.2,1.2c-0.4,0.4-0.9,0.8-1.4,1.3c-0.6,0.5-1.2,1.1-2,1.6
								c-1.5,1.2-3.4,2.5-5.5,3.8c-2.2,1.3-4.7,2.6-7.3,3.7c-2.7,1.1-5.4,2-7.8,2.6c-2.5,0.6-4.7,1-6.6,1.3
								c-0.9,0.1-1.8,0.2-2.6,0.3s-1.4,0.1-1.9,0.1c-1.1,0-1.7,0-1.7,0s0.6-0.1,1.6-0.2c0.5,0,1.2-0.1,1.9-0.2
								c0.8-0.1,1.6-0.2,2.5-0.3c1.9-0.3,4.1-0.7,6.5-1.4s5.1-1.5,7.7-2.6c2.7-1.1,5.1-2.4,7.3-3.7s4-2.6,5.6-3.7
								c0.8-0.5,1.4-1.1,2-1.6s1.1-0.9,1.5-1.2C218.1,175.9,218.6,175.5,218.6,175.5z"/>
						</g>
					</g>
				</g>
				<g>
					<g>
						<g>
							<path class="st8" d="M212.2,142.7c0,0,0,0.2-0.1,0.6c-0.1,0.4-0.2,0.9-0.3,1.6c-0.1,0.7-0.4,1.5-0.7,2.4s-0.6,2-1.1,3.2
								c-0.2,0.6-0.5,1.2-0.7,1.8s-0.6,1.3-0.9,1.9c-0.6,1.3-1.3,2.7-2.1,4.2c-1.6,2.9-3.7,5.9-6.1,8.8c-2.5,2.9-5.1,5.4-7.6,7.5
								c-1.3,1-2.5,2-3.7,2.8c-0.6,0.4-1.2,0.8-1.8,1.2c-0.6,0.3-1.1,0.7-1.7,1c-1,0.7-2.1,1.1-2.9,1.6c-0.9,0.5-1.6,0.8-2.3,1.1
								c-0.6,0.2-1.1,0.5-1.5,0.6c-0.3,0.1-0.5,0.2-0.5,0.2s0.2-0.1,0.5-0.3c0.4-0.2,0.9-0.4,1.4-0.7c0.6-0.3,1.4-0.7,2.2-1.2
								c0.9-0.5,1.9-1,2.9-1.7c0.5-0.3,1.1-0.7,1.6-1c0.6-0.4,1.1-0.8,1.7-1.2c1.2-0.8,2.4-1.8,3.7-2.8c2.5-2.1,5.1-4.6,7.5-7.5
								s4.4-5.9,6.1-8.7c0.8-1.4,1.5-2.8,2.1-4.1c0.3-0.7,0.6-1.3,0.9-1.9c0.3-0.6,0.5-1.2,0.7-1.8c0.5-1.1,0.8-2.2,1.1-3.1
								c0.3-0.9,0.6-1.7,0.7-2.4c0.2-0.6,0.3-1.1,0.4-1.5C212.1,142.9,212.2,142.7,212.2,142.7z"/>
						</g>
					</g>
				</g>
				<g>
					<g>
						<g>
							<path class="st8" d="M170,209.1c0,0-0.8-0.4-1.8-1.4s-2.2-2.5-3.1-4.5c-0.8-2-1.1-4-1.1-5.4s0.3-2.3,0.3-2.3
								c0.1,0,0,0.9,0.1,2.2c0.1,1.4,0.4,3.3,1.2,5.2s1.9,3.5,2.9,4.5C169.4,208.5,170.1,209.1,170,209.1z"/>
						</g>
					</g>
				</g>
				<g>
					<g>
						<g>
							<path class="st8" d="M169.3,201.3c0.1,0-0.1,1.3,0,2.9c0.1,1.6,0.6,2.8,0.5,2.9c-0.1,0.1-0.9-1.1-1-2.8
								C168.6,202.6,169.1,201.3,169.3,201.3z"/>
						</g>
					</g>
				</g>
				<g>
					<g>
						<g>
							<path class="st8" d="M159.4,165.5c0,0-0.1-0.2-0.1-0.5c-0.1-0.4-0.1-0.8-0.2-1.4c-0.2-1.3-0.5-3-0.8-5
								c-0.7-4.2-1.7-10.1-2.9-16.5s-2.4-12.2-3.2-16.4c-0.4-2-0.8-3.7-1-5c-0.1-0.5-0.2-1-0.3-1.4c-0.1-0.3-0.1-0.5-0.1-0.5
								s0.1,0.2,0.2,0.5c0.1,0.4,0.2,0.8,0.4,1.3c0.3,1.2,0.7,2.9,1.2,4.9c1,4.2,2.2,10,3.4,16.4c1.2,6.4,2.1,12.3,2.7,16.5
								c0.3,2.1,0.5,3.8,0.7,5c0.1,0.5,0.1,1,0.2,1.4C159.4,165.4,159.4,165.5,159.4,165.5z"/>
						</g>
					</g>
				</g>
				<g>
					<g>
						<g>
							<path class="st8" d="M223.4,165.5c0,0,0-0.2-0.1-0.5c0-0.4,0-0.9,0-1.4c0-1.2,0-3,0-5.2c0-4.4,0.2-10.5,0.7-17.2
								s1.2-12.8,1.7-17.1c0.3-2.1,0.5-3.9,0.7-5.2c0.1-0.6,0.2-1,0.2-1.4c0.1-0.3,0.1-0.5,0.1-0.5s0,0.2,0,0.5
								c0,0.4-0.1,0.9-0.1,1.4c-0.1,1.3-0.3,3.1-0.5,5.2c-0.4,4.4-1,10.4-1.6,17.1c-0.5,6.7-0.8,12.8-0.9,17.2
								c-0.1,2.1-0.1,3.9-0.1,5.2c0,0.6,0,1-0.1,1.4C223.4,165.4,223.4,165.5,223.4,165.5z"/>
						</g>
					</g>
				</g>
				<g>
					<g>
						<g>
							<path class="st8" d="M143.4,168.1c-0.2,0.1-1.5-3.6-4-7.5c-2.6-4-5.5-6.5-5.4-6.6c0,0,0.8,0.5,2,1.6c1.1,1.1,2.6,2.7,3.9,4.7
								c1.3,2,2.2,4,2.8,5.4C143.2,167.2,143.5,168.1,143.4,168.1z"/>
						</g>
					</g>
				</g>
				<g>
					<g>
						<g>
							<path class="st8" d="M145.2,163.8c-0.1,0-0.4-0.8-1.1-1.9c-0.7-1.2-1.8-2.7-3.5-4c-1.6-1.3-3.3-2.2-4.6-2.8s-2.1-0.9-2-1
								c0-0.1,0.9,0.1,2.2,0.6s3.1,1.4,4.8,2.7c1.7,1.4,2.8,3,3.4,4.3C145,162.9,145.2,163.8,145.2,163.8z"/>
						</g>
					</g>
				</g>
				<g>
					<g>
						<g>
							<path class="st10" d="M239.2,193.9c-0.1,0-0.2-0.4-0.6-0.9c-0.3-0.5-0.9-1.2-1.8-1.6c-0.8-0.5-1.7-0.6-2.3-0.7
								c-0.6,0-1,0.1-1,0s0.4-0.3,1-0.3c0.7-0.1,1.6,0.1,2.6,0.6c0.9,0.5,1.5,1.3,1.8,1.9C239.2,193.4,239.2,193.8,239.2,193.9z"/>
						</g>
					</g>
				</g>
				<g>
					<g>
						<g>
							<path class="st10" d="M197.9,188.8c0,0.1-1.2,0.7-3.1,1.8c-1.9,1.1-4.6,2.7-6.8,5.3c-2.2,2.5-3.4,5.5-3.6,7.6
								c-0.3,2.2,0.2,3.5,0.1,3.6c0,0-0.2-0.3-0.3-0.9c-0.1-0.6-0.2-1.5-0.1-2.7c0.1-2.3,1.3-5.4,3.6-7.9c2.3-2.6,5-4.2,7-5.2
								c1-0.5,1.8-0.9,2.4-1.1C197.5,188.8,197.8,188.7,197.9,188.8z"/>
						</g>
					</g>
				</g>
				<g class="st4">
					<g>
						<g>
							<path d="M183.3,192c-1,0.4-0.9,1.9-0.1,2.6s1.9,0.7,3,0.6c11.7-0.6,23-6.9,29.6-16.6c-9,7.4-20.9,10.2-32.3,12.8"/>
						</g>
					</g>
				</g>
				<g class="st4">
					<g>
						<g>
							<path d="M181.5,181.8c-1-1.5-0.3-3.6,0.9-4.9c1.3-1.3,3-2,4.6-2.8c5.9-2.9,10.7-7.9,13.5-13.8c1.8-3.9,3.2-8.8,7.2-10.4
								c-2.1,13.9-12.4,26.2-25.7,30.7"/>
						</g>
					</g>
				</g>
				<g class="st4">
					<g>
						<g>
							<path d="M153.1,130c1,10.9,0.2,22-2.3,32.7c-0.5,2.3-1.2,4.6-1.1,6.9c0,2.3,1.5,5,3.3,6.5c1.7-3.8,1.7-7.5,2.4-11.6
								c0.6-3.7,1.7-12.4,1.7-12.5c0.1-7.6-1.6-14.1-4.6-20.9"/>
						</g>
					</g>
				</g>
				<g class="st4">
					<g>
						<g>
							<path d="M171.9,97.2c1.5,8,5.5,15.5,11.3,21.2c2.2,2.2,5,4.1,8,4c-1.8-3.6-2.3-7.8-1.5-11.8c2.6,1.7,5.3,3.3,8.2,4.5
								c2.9,1.1,6.1,1.7,9.2,1c0.6-5.5,1.3-11.1,1.9-16.6c0.1-0.6,0.1-1.3-0.2-1.9s-1.2-0.8-1.6-0.4c-0.2,0.2-0.3,0.5-0.3,0.7
								c-1.1,4.9-1.8,9.2-2.9,14.1c-0.8,0.8-3.3,0.5-4.9-0.1c-1.4-0.5-2-1.7-2.9-2.9c-0.9-1.2-0.8-1-2.2-1.6
								c-2.6-1.1-7.5-0.2-8.6,2.1c-1.1,2.3-0.3,5.4,0.5,7.6c-7.1-4.6-12.5-12-14.6-20.2"/>
						</g>
					</g>
				</g>
				<g class="st4">
					<g>
						<path d="M226.5,120.6c-0.2,0.4,6.2,22.1,6.2,22.1l-8.3-4.7L226.5,120.6z"/>
					</g>
				</g>
			</g>
		</g>
		<g>
			<g>
				<g>
					<g>
						<g>
							<g>
								<g>
									<g>
										<g>
											<g>
												<g>
													<g>
														<g>
															<g>
																<g>
																	<path class="st5" d="M174.7,57.7v34.5c0,2,0.7,3.9,2,5.4l0,0c1.9,2.3,4.3,4.3,6.9,5.7l7,3.9l5.8-5.1
																		c1.7-1.5,2.7-3.6,2.8-5.9c0.1-2.5,0.1-5,0.1-5s9.8-0.7,10.7-10.3c0.4-4.5,0.6-13.8,0.6-22.4
																		c0-9.8-7.5-17.9-17.2-18.7h-0.3C183,39.5,174.7,47.6,174.7,57.7z"/>
																</g>
															</g>
														</g>
													</g>
												</g>
											</g>
										</g>
									</g>
								</g>
							</g>
							<g>
								<g>
									<g>
										<g>
											<g>
												<g>
													<g>
														<g>
															<g>
																<g>
																	<path class="st6" d="M199.2,91.2c0,0-6.1-0.1-12.2-4.7c0,0,2.5,7.3,12.2,7.2V91.2z"/>
																</g>
															</g>
														</g>
													</g>
												</g>
											</g>
										</g>
									</g>
								</g>
							</g>
						</g>
					</g>
				</g>
				<g>
					<g>
						<g>
							<g>
								<g>
									<g>
										<g>
											<g>
												<g>
													<g>
														<g>
															<g>
																<g>
																	<g>
																		<g>
																			<g>
																				<path class="st8" d="M207.6,64.7c0,0.7-0.7,1.3-1.4,1.3c-0.8,0-1.3-0.6-1.3-1.4c0-0.7,0.7-1.3,1.4-1.3
																					C207.1,63.3,207.7,63.9,207.6,64.7z"/>
																			</g>
																		</g>
																	</g>
																</g>
															</g>
														</g>
													</g>
												</g>
											</g>
										</g>
										<g>
											<g>
												<g>
													<g>
														<g>
															<g>
																<g>
																	<g>
																		<g>
																			<g>
																				<g>
																					<path class="st8" d="M208,62.4c-0.2,0.2-1.2-0.7-2.6-0.8c-1.5-0.1-2.6,0.5-2.8,0.3c-0.1-0.1,0.1-0.4,0.6-0.7
																						s1.3-0.6,2.2-0.5s1.7,0.5,2.1,0.9C208,62,208.1,62.3,208,62.4z"/>
																				</g>
																			</g>
																		</g>
																	</g>
																</g>
															</g>
														</g>
													</g>
												</g>
											</g>
										</g>
									</g>
									<g>
										<g>
											<g>
												<g>
													<g>
														<g>
															<g>
																<g>
																	<g>
																		<g>
																			<g>
																				<path class="st8" d="M193.7,64c0,0.7-0.7,1.3-1.4,1.3c-0.8,0-1.3-0.6-1.3-1.4c0-0.7,0.7-1.3,1.4-1.3
																					C193.1,62.6,193.7,63.2,193.7,64z"/>
																			</g>
																		</g>
																	</g>
																</g>
															</g>
														</g>
													</g>
												</g>
											</g>
										</g>
										<g>
											<g>
												<g>
													<g>
														<g>
															<g>
																<g>
																	<g>
																		<g>
																			<g>
																				<g>
																					<path class="st8" d="M193.4,61.4c-0.2,0.2-1.2-0.7-2.6-0.8c-1.5-0.1-2.6,0.5-2.8,0.3c-0.1-0.1,0.1-0.4,0.6-0.7
																						s1.3-0.6,2.2-0.5s1.7,0.5,2.1,0.9C193.4,61,193.5,61.4,193.4,61.4z"/>
																				</g>
																			</g>
																		</g>
																	</g>
																</g>
															</g>
														</g>
													</g>
												</g>
											</g>
										</g>
									</g>
									<g>
										<g>
											<g>
												<g>
													<g>
														<g>
															<g>
																<g>
																	<g>
																		<g>
																			<g>
																				<path class="st8" d="M197.9,72.9c0-0.1,0.9-0.2,2.4-0.2c0.4,0,0.7-0.1,0.8-0.3c0.1-0.3,0-0.7-0.2-1.1
																					c-0.3-0.9-0.6-1.9-0.9-3c-1.2-4.2-2.1-7.7-1.9-7.7c0.2,0,1.3,3.3,2.5,7.6c0.3,1,0.6,2,0.8,3
																					c0.1,0.4,0.3,0.9,0.1,1.5c-0.1,0.3-0.4,0.5-0.7,0.5c-0.2,0.1-0.5,0-0.6,0C198.8,73,197.9,73,197.9,72.9z"/>
																			</g>
																		</g>
																	</g>
																</g>
															</g>
														</g>
													</g>
												</g>
											</g>
										</g>
									</g>
									<g>
										<g>
											<g>
												<g>
													<g>
														<g>
															<g>
																<g>
																	<g>
																		<g>
																			<g>
																				<path class="st8" d="M193.5,73.5c0.2,0,0.1,1.6,1.4,2.9c1.3,1.3,3,1.2,3,1.4c0,0.1-0.4,0.3-1.1,0.2
																					c-0.7,0-1.7-0.3-2.5-1.1c-0.8-0.8-1.1-1.7-1.1-2.4C193.1,73.9,193.4,73.5,193.5,73.5z"/>
																			</g>
																		</g>
																	</g>
																</g>
															</g>
														</g>
													</g>
												</g>
											</g>
										</g>
									</g>
								</g>
							</g>
						</g>
						<g>
							<g>
								<g>
									<g>
										<g>
											<g>
												<g>
													<g>
														<g>
															<g>
																<path class="st8" d="M194.3,55.7c-0.2,0.4-1.6,0.1-3.4,0.1c-1.8,0-3.2,0.4-3.4,0c-0.1-0.2,0.2-0.5,0.8-0.9
																	c0.6-0.3,1.5-0.6,2.6-0.7c1.1,0,2,0.2,2.6,0.5C194.1,55.1,194.4,55.5,194.3,55.7z"/>
															</g>
														</g>
													</g>
												</g>
											</g>
										</g>
									</g>
								</g>
							</g>
						</g>
						<g>
							<g>
								<g>
									<g>
										<g>
											<g>
												<g>
													<g>
														<g>
															<g>
																<path class="st8" d="M207.8,58c-0.3,0.3-1.3-0.1-2.5-0.2c-1.2-0.2-2.3,0-2.5-0.3c-0.1-0.2,0.1-0.5,0.6-0.8
																	s1.2-0.5,2.1-0.4c0.8,0.1,1.5,0.5,1.9,0.8C207.8,57.5,208,57.9,207.8,58z"/>
															</g>
														</g>
													</g>
												</g>
											</g>
										</g>
									</g>
								</g>
							</g>
						</g>
					</g>
				</g>
				<g>
					<g>
						<g>
							<g>
								<path class="st8" d="M186,48L186,48c-1.7,1.1-2.8,2.8-3.3,4.7c0,0.1,0,0.1,0,0.2c-0.6,2.7-0.8,5.5-1.4,8.2
									c-0.6,2.7-0.5,4.8-3.2,5.4c-1.7,0.4-3.2-0.6-3.8-1.5c-0.2-0.4-0.2-0.8-0.2-1.3c0-6.7-1.3-9.3-0.7-16.2
									c0.2-1.9,1.2-3.6,2.8-4.6c1.5-0.9,3.4-1.9,5-1s3.4,4.1,4.5,5.5"/>
							</g>
						</g>
					</g>
				</g>
				<g>
					<g>
						<g>
							<g>
								<g>
									<g>
										<g>
											<g>
												<g>
													<g>
														<g>
															<path class="st5" d="M177.6,62.3c-0.2-0.1-6.5-2.5-6.8,4.1s6.4,5.6,6.4,5.4C177.2,71.6,177.6,62.3,177.6,62.3z"/>
														</g>
													</g>
												</g>
											</g>
										</g>
									</g>
								</g>
							</g>
						</g>
					</g>
					<g>
						<g>
							<g>
								<g>
									<g>
										<g>
											<g>
												<g>
													<g>
														<g>
															<g>
																<path class="st6" d="M175.3,69.2c0,0-0.1,0.1-0.3,0.2s-0.5,0.1-0.9,0c-0.7-0.3-1.2-1.4-1.2-2.6
																	c0-0.6,0.2-1.2,0.4-1.6c0.2-0.5,0.6-0.8,0.9-0.8c0.4-0.1,0.6,0.2,0.7,0.3c0.1,0.2,0,0.3,0.1,0.3
																	c0,0,0.1-0.1,0.1-0.4c0-0.1-0.1-0.3-0.2-0.4c-0.2-0.1-0.4-0.2-0.6-0.2c-0.5,0-1,0.5-1.3,1s-0.5,1.1-0.5,1.8
																	c0,1.3,0.6,2.6,1.5,2.9c0.5,0.1,0.9,0,1.1-0.1C175.3,69.4,175.3,69.2,175.3,69.2z"/>
															</g>
														</g>
													</g>
												</g>
											</g>
										</g>
									</g>
								</g>
							</g>
						</g>
					</g>
				</g>
				<g>
					<g>
						<g>
							<g>
								<path class="st8" d="M180.8,43c-1.4-2.8,3.4-6.2,6.7-6.9c3.3-0.8,7.5,1.2,10.6,2.5c2,0.8,3.9,2,6.1,2
									c1.4,0.1,2.9-0.4,4.3-0.7c1.4-0.4,2.9-0.7,4.3-0.5c1.4,0.2,2.8,1.1,3.3,2.5c0.4,1.4-0.5,3.1-1.9,3.2
									c1.9-0.9,4.4,0.7,4.6,2.8c0.1,2.1-2.2,3.9-4.2,3.3c1-0.6,2.3,0.7,2.1,1.8c-0.2,1.2-1.3,1.9-2.5,2.3c-2.8,1-6,0.3-8.8-0.9
									s-5.3-2.9-8-4.2s-7.3-3.5-10.2-2.7c-2.1,0.6-3.8,3-4.9,2.3c-1.1-0.6-1.7-1.9-1.8-3.1C180.2,45.5,180.5,44.2,180.8,43"/>
							</g>
						</g>
					</g>
				</g>
				<g>
					<g>
						<g>
							<g>
								<g>
									<path class="st9" d="M214.9,45c-0.1,0-0.4,0.5-1.2,1.2s-2,1.6-3.9,2.1c-1.8,0.5-4.1,0.5-6.3-0.8c-2.2-1.2-3.9-3.4-6-5.4
										c-2-2.1-4.5-3.7-7.1-4.2s-5,0.3-6.5,1.7s-1.9,3.1-1.8,4.1c0,0.5,0.1,1,0.2,1.2c0.1,0.3,0.2,0.4,0.2,0.4
										c0.1,0-0.2-0.6-0.1-1.6c0.1-1,0.5-2.6,1.9-3.8s3.7-1.9,6.1-1.4c2.4,0.5,4.8,2,6.8,4s3.8,4.3,6.1,5.5
										c2.3,1.3,4.8,1.2,6.7,0.7s3.2-1.5,3.9-2.3c0.4-0.4,0.6-0.7,0.8-1C214.9,45.2,214.9,45,214.9,45z"/>
								</g>
							</g>
						</g>
					</g>
				</g>
				<g>
					<g>
						<g>
							<g>
								<g>
									<path class="st9" d="M175.9,61.9c0,0,0.3-0.2,0.6-0.7s0.6-1.3,0.5-2.4c0-2.1-1.7-4.6-1.7-7.5c0-1.5,0.3-2.9,1.1-3.9
										c0.7-1,1.7-1.6,2.6-1.9c0.9-0.3,1.7-0.2,2.2-0.1c0.5,0.1,0.8,0.3,0.8,0.2c0,0-0.2-0.3-0.8-0.5c-0.5-0.2-1.4-0.3-2.4-0.1
										s-2.2,0.9-3,2s-1.2,2.7-1.2,4.2c0,1.6,0.5,3,0.9,4.3c0.5,1.2,0.8,2.3,0.9,3.3C176.8,60.9,175.8,61.9,175.9,61.9z"/>
								</g>
							</g>
						</g>
					</g>
				</g>
			</g>
		</g>
	</g>
</g>
<g id="Lines">
	<g>
		<g>
			<g>
				<g>
					<path class="st1" d="M203.1,252.6c0,0-0.5,0-1.5,0s-2.5,0-4.4,0.1c-3.8,0.1-9.5,0.2-16.8,0.6c-7.3,0.4-16.2,1-26.5,2.2
						c-5.1,0.6-10.6,1.3-16.4,2.3c-5.8,0.9-11.9,2.1-18.2,3.5c-6.4,1.4-13,3.2-19.7,5.4c-6.7,2.2-13.7,4.9-20.4,8.4
						c-3.4,1.8-6.7,3.8-9.8,6.3c-3.1,2.4-6,5.3-8,8.8c-0.2,0.4-0.5,0.9-0.7,1.3l-0.6,1.4l-0.3,0.7c-0.1,0.2-0.1,0.5-0.2,0.7
						l-0.4,1.5c-0.2,2-0.3,4.1,0.3,6.1c1,4.1,3.7,7.5,6.7,10.5c6.3,5.9,14.3,10,22.5,13.4c8.3,3.4,17.2,6.1,26.3,8.3
						c18.2,4.4,37.5,7,57.3,8.4s39.3,1.3,58,0.2c18.7-1.1,36.7-3.4,53.6-7c8.4-1.8,16.5-4,24.3-6.5c7.7-2.6,15.1-5.7,21.7-9.5
						c3.3-1.9,6.4-4.1,9.2-6.5c2.7-2.4,5.1-5.2,6.6-8.4l0.5-1.2c0.2-0.4,0.3-0.8,0.4-1.2l0.3-1.3c0-0.2,0.1-0.4,0.1-0.6l0.1-0.6
						c0.2-1.7,0.1-3.4-0.4-5s-1.3-3.1-2.1-4.5c-0.9-1.4-2-2.7-3.1-3.8c-2.3-2.3-4.8-4.3-7.3-6c-2.6-1.7-5.2-3.3-7.8-4.6
						c-5.2-2.8-10.3-4.9-15.1-6.7c-9.7-3.7-18.3-6-25.4-7.8s-12.6-2.9-16.4-3.6c-1.9-0.4-3.3-0.6-4.3-0.8c-1-0.2-1.5-0.3-1.5-0.3
						s2,0.3,5.8,1s9.3,1.8,16.4,3.5s15.7,4.1,25.4,7.7c4.8,1.8,10,4,15.2,6.7c2.6,1.4,5.2,2.9,7.8,4.6c2.6,1.7,5.1,3.7,7.4,6.1
						c1.2,1.2,2.2,2.5,3.1,3.9s1.7,2.9,2.2,4.6s0.6,3.4,0.4,5.2l-0.1,0.7c0,0.2-0.1,0.4-0.1,0.6l-0.3,1.3c-0.1,0.4-0.3,0.8-0.4,1.3
						l-0.5,1.2c-1.5,3.3-3.9,6.1-6.7,8.6c-2.8,2.5-5.9,4.6-9.2,6.6c-6.7,3.8-14,6.9-21.8,9.5s-15.9,4.8-24.3,6.6
						c-16.9,3.6-34.9,5.9-53.6,7s-38.2,1.1-58.1-0.2c-19.8-1.4-39.2-4-57.4-8.5c-9.1-2.2-18-4.9-26.3-8.3
						c-8.3-3.5-16.3-7.6-22.7-13.5c-3.1-3-5.8-6.5-6.8-10.7c-0.6-2.1-0.5-4.2-0.3-6.3l0.4-1.5c0.1-0.3,0.1-0.5,0.2-0.8l0.3-0.7
						l0.6-1.4c0.2-0.5,0.5-0.9,0.8-1.4c2.1-3.6,5-6.5,8.2-8.9c3.1-2.4,6.5-4.5,9.9-6.3c6.8-3.6,13.8-6.2,20.5-8.4
						c6.8-2.2,13.4-3.9,19.8-5.4c6.4-1.4,12.5-2.6,18.3-3.5c5.8-1,11.3-1.6,16.4-2.2c10.3-1.1,19.2-1.8,26.5-2.1s12.9-0.4,16.8-0.5
						c1.9,0,3.4,0,4.4,0C202.6,252.6,203.1,252.6,203.1,252.6z"/>
				</g>
			</g>
		</g>
		<g>
			<g>
				<g>
					<path class="st1" d="M121.4,176.9c0,0-0.6,0.1-1.7,0.3s-2.8,0.5-4.9,1c-4.3,0.9-10.7,2.3-18.8,4.5c-8.1,2.3-18,5.3-28.9,10.2
						c-2.7,1.2-5.5,2.6-8.3,4.2c-2.8,1.6-5.6,3.3-8.3,5.3s-5.4,4.3-7.7,7s-4.3,5.9-5.2,9.5c-1,3.6-0.7,7.6,0.8,11.2
						c1.5,3.6,4,6.9,6.9,9.7c5.9,5.7,13.4,10,21.4,13.7c16.1,7.3,34.5,12.2,54,15.9c19.6,3.6,40.4,5.9,62,6.8
						c21.6,1,44.1,0.7,66.9-1.2c22.9-1.9,45.1-5.3,66.1-10.8c10.5-2.8,20.6-6.1,30.1-10.3c4.7-2.1,9.3-4.5,13.6-7.3
						c4.3-2.8,8.2-5.9,11.5-9.7c3.2-3.7,5.5-8.3,5.7-13.1c0.1-0.6,0-1.2-0.1-1.8s0-1.2-0.2-1.8l-0.4-1.7c-0.1-0.6-0.4-1.1-0.6-1.7
						c-0.8-2.2-2.1-4.2-3.4-6.1c-2.9-3.7-6.4-6.7-10.1-9.4c-3.7-2.6-7.7-4.8-11.6-6.8c-7.9-3.9-16-6.9-23.8-9.3
						c-7.8-2.5-15.5-4.4-22.8-6c-29.4-6.3-53.8-8.1-70.6-9c-8.4-0.4-14.9-0.5-19.4-0.6c-2.2,0-3.9-0.1-5-0.1s-1.7-0.1-1.7-0.1
						s0.6,0,1.7,0c1.1,0,2.8,0,5,0.1c4.4,0.1,11,0.1,19.4,0.5c16.8,0.9,41.2,2.5,70.7,8.8c7.4,1.6,15,3.6,22.9,6
						c7.8,2.4,15.9,5.4,23.9,9.3c4,2,7.9,4.2,11.7,6.8c3.7,2.6,7.3,5.7,10.3,9.5c1.4,1.9,2.7,4,3.5,6.2c0.2,0.6,0.5,1.1,0.6,1.7
						l0.4,1.8c0.2,0.6,0.1,1.2,0.2,1.8c0,0.6,0.1,1.2,0.1,1.8c-0.1,2.5-0.7,4.9-1.7,7.2s-2.4,4.4-4,6.3c-3.2,3.8-7.3,7-11.6,9.8
						c-4.3,2.8-8.9,5.1-13.7,7.3c-9.5,4.3-19.7,7.6-30.2,10.4c-21,5.5-43.2,8.9-66.1,10.8s-45.4,2.1-67,1.2c-21.6-1-42.5-3.2-62-6.9
						c-19.5-3.7-38-8.6-54.1-16c-8-3.7-15.6-8-21.5-13.8c-3-2.9-5.5-6.1-7-9.8s-1.8-7.8-0.8-11.4c0.9-3.7,3-6.9,5.3-9.6
						c2.3-2.8,5-5,7.7-7.1c2.7-2,5.5-3.8,8.3-5.3c2.8-1.6,5.6-2.9,8.3-4.2c10.9-4.9,20.8-7.9,28.9-10.1c8.1-2.2,14.5-3.5,18.9-4.4
						C119.1,177.2,121.4,176.9,121.4,176.9z"/>
				</g>
			</g>
		</g>
		<g>
			<g>
				<g>
					<path class="st1" d="M156.4,327.8c-0.3,0.1-1.8,0.3-5,0.8c-3.3,0.5-8.1,1.4-14.2,2.7c-6.1,1.4-13.6,3.2-22,6.2
						c-4.2,1.5-8.6,3.3-13.1,5.7c-2.2,1.2-4.5,2.5-6.6,4.1c-2.2,1.6-4.3,3.3-6.1,5.4c-0.9,1.1-1.7,2.2-2.4,3.5
						c-0.7,1.2-1.2,2.6-1.5,4c-0.1,0.4-0.1,0.7-0.2,1.1l-0.1,1.1c0,0.7,0.1,1.5,0.2,2.2c0.2,0.7,0.3,1.5,0.6,2.2l0.4,1.1l0.2,0.5
						l0.3,0.5c1.4,2.7,3.6,5,6,7.1s5.2,3.8,8.1,5.4c5.8,3.2,12.2,5.7,18.9,7.9c6.7,2.2,13.7,3.9,21,5.4c14.6,2.9,30.1,4.7,46.3,5.5
						s32.9,0.6,50-0.9s33.7-4.1,49.3-8.5c7.8-2.2,15.3-4.9,22.2-8.5c3.4-1.8,6.7-3.8,9.7-6.2c0.8-0.6,1.4-1.3,2.1-1.9
						s1.3-1.4,1.9-2.1c1.1-1.5,2.2-3,2.8-4.8c1.5-3.4,1.1-7.3-0.4-10.5c-1.6-3.2-4.2-5.8-6.9-8c-5.5-4.4-11.8-7.3-17.9-9.8
						c-6.1-2.4-12.3-4.3-18.2-5.8c-5.9-1.5-11.7-2.7-17.2-3.7c-22.2-3.9-40.4-4.6-53-4.8c-12.5-0.1-18.8-0.1-19.5-0.1
						c0,0,7-0.1,19.5,0c12.6,0.2,30.8,0.9,53,4.8c5.5,1,11.3,2.2,17.3,3.7c5.9,1.5,12.1,3.4,18.2,5.8c6.1,2.5,12.4,5.4,18,9.8
						c2.7,2.2,5.3,4.8,7,8.1c1.6,3.3,2,7.3,0.5,10.8c-0.6,1.8-1.7,3.3-2.9,4.8c-0.6,0.7-1.2,1.4-1.9,2.1c-0.7,0.6-1.4,1.3-2.1,1.9
						c-2.9,2.4-6.3,4.5-9.7,6.3c-6.9,3.6-14.5,6.2-22.2,8.5c-15.6,4.4-32.2,7-49.3,8.5s-33.9,1.6-50.1,0.9
						c-16.2-0.8-31.7-2.6-46.3-5.6c-7.3-1.5-14.3-3.2-21-5.4c-6.7-2.2-13.1-4.7-18.9-7.9c-2.9-1.6-5.7-3.4-8.1-5.4
						c-2.4-2.1-4.6-4.4-6.1-7.2l-0.3-0.5l-0.2-0.5l-0.4-1.1c-0.3-0.7-0.4-1.5-0.6-2.2c-0.1-0.8-0.2-1.5-0.2-2.3l0.1-1.1
						c0-0.4,0.1-0.7,0.2-1.1c0.3-1.5,0.8-2.8,1.5-4.1c0.7-1.3,1.5-2.4,2.4-3.5c1.9-2.1,4-3.9,6.2-5.5s4.4-2.9,6.7-4.1
						c4.5-2.4,8.9-4.2,13.1-5.7c8.4-3,15.9-4.8,22.1-6.2c6.1-1.3,11-2.1,14.2-2.6C154.7,328,156.4,327.8,156.4,327.8z"/>
				</g>
			</g>
		</g>
		<g>
			<g>
				<g>
					<path class="st1" d="M287,419.2c-0.1,0,0.1-1.4-0.8-3.6c-0.9-2.3-3.4-5.1-7.3-7.7c-7.9-5.2-21-9.5-37.5-12.2
						c-8.3-1.3-17.4-2.3-27.3-2.7c-9.9-0.4-20.4-0.3-31.5,0.6c-5.5,0.4-11.2,1.1-16.9,2s-11.6,2.1-17.4,3.7
						c-2.9,0.8-5.8,1.7-8.7,2.7c-2.9,1.1-5.7,2.3-8.5,3.7c-2.7,1.5-5.4,3.2-7.7,5.3c-2.3,2.1-4.1,5-4.2,8.2c0,3.2,1.9,6.1,4.2,8.2
						c2.3,2.2,4.9,3.9,7.7,5.3s5.6,2.6,8.5,3.7s5.8,2,8.7,2.7c5.8,1.6,11.6,2.7,17.4,3.7c5.7,0.9,11.4,1.5,16.9,2
						c11.1,0.9,21.6,1,31.5,0.6s19-1.3,27.3-2.7c16.5-2.7,29.7-7,37.5-12.2c3.9-2.6,6.4-5.4,7.3-7.7
						C287.1,420.6,286.9,419.2,287,419.2c0,0.2,0,0.4-0.1,1c0,0.3-0.1,0.7-0.2,1.2s-0.3,1-0.5,1.5c-0.9,2.3-3.4,5.2-7.3,7.8
						c-7.9,5.2-21,9.6-37.5,12.2c-8.3,1.4-17.4,2.3-27.3,2.7c-9.9,0.4-20.4,0.3-31.5-0.6c-5.5-0.4-11.2-1.1-16.9-2
						s-11.6-2.1-17.4-3.7c-2.9-0.8-5.8-1.7-8.7-2.8c-2.9-1.1-5.7-2.3-8.5-3.7c-2.8-1.5-5.4-3.2-7.7-5.4c-1.1-1.1-2.2-2.3-2.9-3.7
						c-0.8-1.4-1.3-3-1.3-4.6s0.5-3.2,1.3-4.6s1.8-2.6,3-3.7c2.3-2.2,5-3.9,7.7-5.4c2.8-1.5,5.6-2.7,8.5-3.7c2.9-1.1,5.8-2,8.7-2.8
						c5.8-1.6,11.7-2.7,17.4-3.7c5.7-0.9,11.4-1.5,16.9-2c11.1-0.9,21.6-1,31.5-0.6s19,1.3,27.3,2.7c16.5,2.7,29.7,7,37.5,12.2
						c3.9,2.6,6.4,5.5,7.3,7.8c0.2,0.6,0.4,1.1,0.5,1.5c0.1,0.5,0.2,0.8,0.2,1.2C287,418.8,287,419.1,287,419.2z"/>
				</g>
			</g>
		</g>
		<g>
			<g>
				<circle class="st1" cx="62.9" cy="264.1" r="3.2"/>
			</g>
		</g>
		<g>
			<g>
				<circle class="st1" cx="351.6" cy="266.3" r="3.2"/>
			</g>
		</g>
		<g>
			<g>
				<circle class="st1" cx="221.4" cy="383.9" r="3.2"/>
			</g>
		</g>
		<g>
			<g>
				<circle class="st1" cx="126" cy="301.9" r="1.6"/>
			</g>
		</g>
		<g>
			<g>
				<circle class="st1" cx="324.6" cy="340.6" r="1.6"/>
			</g>
		</g>
		<g>
			<g>
				<circle class="st1" cx="198.5" cy="414.4" r="1.6"/>
			</g>
		</g>
	</g>
	<g>
		<g>
			<circle class="st1" cx="116.8" cy="134.9" r="0.8"/>
		</g>
	</g>
</g>
<g id="Front_Screens">
	<g>
		<g>
			<g>
				<path class="st1" d="M260.7,257.7c-38.8,10.3-76.1,9.5-116.9,0l-4.8-74.5c42.1,8.2,84.3,7.2,121.6-1.8v76.3H260.7z"/>
			</g>
		</g>
		<g>
			<g>
				<g>
					<path class="st3" d="M260.7,257.7c-38.8,10.3-76.1,9.5-116.9,0l-4.8-74.5c42.1,8.2,84.3,7.2,121.6-1.8v76.3H260.7z"/>
				</g>
			</g>
			<g>
				<g>
					<g>
						<path class="st1" d="M254.7,246.4c0,0-0.1,0-0.2,0.1c-0.2,0.1-0.4,0.2-0.7,0.3c-0.6,0.3-1.6,0.7-2.8,1.1
							c-2.5,0.9-6.1,2.2-10.7,3.4c-9.2,2.4-22.3,4.4-36.8,4.2s-27.5-2.2-36.9-3.9c-4.7-0.9-8.4-1.7-11-2.3c-1.3-0.3-2.3-0.5-3-0.7
							c-0.3-0.1-0.6-0.1-0.8-0.2c-0.2,0-0.3-0.1-0.3-0.1s0.1,0,0.3,0s0.5,0.1,0.8,0.1c0.7,0.1,1.7,0.4,3,0.6c2.6,0.5,6.4,1.3,11,2.1
							c9.3,1.7,22.3,3.6,36.8,3.8s27.5-1.7,36.7-4c4.6-1.2,8.3-2.3,10.8-3.2c1.3-0.4,2.2-0.8,2.9-1
							C254.1,246.6,254.4,246.5,254.7,246.4C254.6,246.4,254.7,246.4,254.7,246.4z"/>
					</g>
				</g>
			</g>
			<g>
				<g>
					<path class="st1" d="M197.8,249.4c-4.9,1.4-9.9,1.1-14.9-0.5v-26.5c5-1,10-1,14.9,0V249.4z"/>
				</g>
			</g>
			<g>
				<g>
					<g>
						<path class="st1" d="M221.9,247.9c0,0,0-0.1,0-0.2c0-0.2,0-0.3,0-0.6c0-0.5,0-1.3-0.1-2.2c0-2-0.1-4.7-0.2-8.2
							c-0.1-7-0.3-16.9-0.4-28.3l0.2,0.2c-4.8-1-10.1-1-15.4,0l0.2-0.3c0,0.2,0,0.3,0,0.5c0.2,15.7,0.3,29.8,0.4,39.9l-0.1-0.2
							c2.4,0.5,4.6,0.8,6.5,0.8s3.6-0.2,4.9-0.4c1.3-0.3,2.3-0.6,3-0.8c0.3-0.1,0.6-0.2,0.8-0.3
							C221.8,247.9,221.9,247.8,221.9,247.9c0,0-0.1,0-0.2,0.1c-0.2,0.1-0.4,0.2-0.8,0.3c-0.7,0.2-1.7,0.6-3,0.9
							c-1.3,0.3-3,0.5-5,0.5c-1.9,0-4.2-0.2-6.6-0.7h-0.1v-0.1c-0.1-10.1-0.3-24.2-0.6-39.9c0-0.2,0-0.4,0-0.5v-0.2h0.2
							c5.4-1,10.8-1,15.6,0h0.2v0.2c0.1,11.5,0.2,21.3,0.2,28.4c0,3.5,0,6.2,0,8.2c0,0.9,0,1.6,0,2.2c0,0.2,0,0.4,0,0.6
							C221.9,247.8,221.9,247.9,221.9,247.9z"/>
					</g>
				</g>
			</g>
			<g>
				<g>
					<path class="st1" d="M244.8,244.7c-4,2.2-9.3,2.5-14.9,2.1V203c5.1-1.1,10.1-1.3,14.9,0V244.7z"/>
				</g>
			</g>
			<g>
				<g>
					<g>
						<path class="st1" d="M174.1,247.3c0,0,0-0.4-0.1-1.1c0-0.8,0-1.8-0.1-3.1c0-2.7-0.1-6.4-0.1-10.7l0.1,0.2
							c-4-1.5-9-2.9-14.4-2.4l0,0l0.2-0.3c0,5.5,0,10.6,0,14.9l-0.1-0.2c2,0.9,4,1.3,5.8,1.6s3.3,0.5,4.6,0.6c1.2,0.1,2.2,0.2,3,0.3
							C173.7,247.2,174,247.3,174.1,247.3c0,0-0.3,0-1.1,0c-0.7,0-1.7,0-3-0.1s-2.9-0.2-4.6-0.5c-1.8-0.3-3.8-0.7-5.9-1.6l-0.1-0.1
							v-0.2c0-4.4,0-9.5,0-14.9v-0.2h0.2l0,0c5.5-0.5,10.6,1,14.6,2.5l0.1,0.1v0.2c0,4.5-0.1,8.2-0.1,10.9c0,1.2,0,2.3-0.1,3
							C174.1,246.9,174.1,247.3,174.1,247.3z"/>
					</g>
				</g>
			</g>
			<g>
				<g>
					<g>
						<g>
							<path class="st1" d="M181.1,208.5c0,0.1-1.1,0.2-2.9,0.2c-1.8,0-4.3,0-7.1-0.2s-5.2-0.4-7-0.7c-1.8-0.2-2.9-0.5-2.9-0.5
								c0-0.1,1.1,0,2.9,0.2c1.8,0.1,4.3,0.3,7,0.5s5.2,0.3,7,0.3C180,208.4,181.1,208.5,181.1,208.5z"/>
						</g>
					</g>
				</g>
				<g>
					<g>
						<g>
							<path class="st1" d="M178.9,211.8c0,0.1-1,0.1-2.6,0s-3.8-0.2-6.2-0.4s-4.6-0.4-6.2-0.5c-1.6-0.2-2.5-0.3-2.5-0.4
								c0-0.1,1-0.1,2.6,0s3.8,0.2,6.2,0.4s4.6,0.4,6.2,0.5C177.9,211.6,178.9,211.7,178.9,211.8z"/>
						</g>
					</g>
				</g>
				<g>
					<g>
						<g>
							<path class="st1" d="M184.3,216.1c0,0,0-0.3,0-0.9c0-0.6,0.1-1.5,0.1-2.6c0.1-2.3,0.3-5.4,0.4-9.3l0.2,0.2
								c-7.2,0.1-17-0.2-27.6-1.5c-0.3,0.2,0.4-0.3,0.3-0.2l0,0l0,0l0,0l0,0v0.1v0.1v0.2v0.4v0.8c0,0.6-0.1,1.1-0.1,1.7
								c-0.1,1.1-0.1,2.2-0.2,3.3c-0.1,2.1-0.3,4.2-0.4,6.2l-0.2-0.3c8,1,14.9,1.4,19.8,1.6c2.4,0.1,4.3,0.1,5.7,0.2
								c0.6,0,1.1,0,1.5,0C184.1,216,184.3,216.1,184.3,216.1s-0.2,0-0.5,0s-0.9,0-1.6,0c-1.3,0-3.3,0-5.7,0
								c-4.9-0.1-11.8-0.5-19.8-1.4h-0.2v-0.2c0.1-2,0.2-4.1,0.4-6.2c0.1-1.1,0.1-2.2,0.2-3.3c0-0.6,0.1-1.1,0.1-1.7v-0.8v-0.4v-0.2
								v-0.1v-0.1l0,0l0,0l0,0l0,0c-0.1,0.1,0.6-0.5,0.3-0.2c10.6,1.3,20.4,1.7,27.6,1.7h0.2v0.2c-0.3,3.9-0.5,7.2-0.6,9.4
								c-0.1,1.1-0.1,1.9-0.2,2.5C184.4,215.8,184.3,216.1,184.3,216.1z"/>
						</g>
					</g>
				</g>
			</g>
			<g>
				<g>
					<g>
						<path class="st1" d="M187.7,221.7c-0.1,0.1-1-1.1-1.9-2.7c-1-1.5-1.6-2.9-1.5-2.9c0.1-0.1,1,1.1,1.9,2.7
							C187.2,220.3,187.9,221.6,187.7,221.7z"/>
					</g>
				</g>
			</g>
		</g>
	</g>
	<g>
		<g>
			<g>
				<path class="st1" d="M25.7,124.7l12.7,76.7c0,0,19.3,36.2,70.7,44.4l-8.3-68.4C100.9,177.3,53.3,162.6,25.7,124.7z"/>
			</g>
		</g>
		<g>
			<g>
				<path class="st3" d="M25.7,124.7l12.7,76.7c0,0,19.3,36.2,70.7,44.4l-8.3-68.4C100.9,177.3,53.3,162.6,25.7,124.7z"/>
			</g>
		</g>
		<g>
			<g>
				<g>
					<path class="st1" d="M102.5,240.3c0,0-0.1,0-0.3-0.1c-0.2-0.1-0.6-0.2-0.9-0.3c-0.9-0.3-2.1-0.6-3.6-1.1
						c-1.6-0.5-3.5-1-5.7-1.9c-1.1-0.4-2.3-0.9-3.5-1.3c-1.2-0.5-2.6-1-3.9-1.6c-2.7-1.2-5.6-2.5-8.7-4.2c-3.1-1.6-6.2-3.5-9.5-5.6
						c-6.5-4.3-13.2-9.8-19.1-16.6c-2.6-3.1-5-6.2-6.9-9.6l0,0l0,0c-2.3-14.9-4.3-28.1-5.8-37.5c-0.7-4.7-1.3-8.4-1.7-11.1
						c-0.2-1.3-0.3-2.3-0.4-3c0-0.3-0.1-0.6-0.1-0.8s0-0.3,0-0.3s0,0.1,0.1,0.3c0,0.2,0.1,0.4,0.1,0.8c0.1,0.7,0.3,1.7,0.5,3
						c0.4,2.6,1,6.4,1.8,11c1.5,9.4,3.6,22.5,6,37.5v-0.1c1.8,3.3,4.2,6.5,6.8,9.5c5.9,6.7,12.5,12.2,19,16.5
						c3.3,2.1,6.4,4.1,9.5,5.6c3,1.7,6,3,8.6,4.2c1.3,0.6,2.6,1.2,3.9,1.6c1.2,0.5,2.4,0.9,3.5,1.4c2.2,0.9,4.1,1.5,5.6,2
						s2.7,0.9,3.6,1.2c0.4,0.1,0.7,0.2,0.9,0.3C102.4,240.3,102.5,240.3,102.5,240.3z"/>
				</g>
			</g>
		</g>
		<g>
			<g>
				<g>
					<path class="st1" d="M98,218.1c0,0-0.1,0.1-0.2,0.2c-0.1,0.1-0.3,0.3-0.5,0.4c-0.5,0.4-1.2,1-2.1,1.7c-1.9,1.5-4.6,3.6-8.1,6.2
						l-0.1,0.1l-0.1-0.1c-2.7-3.8-6.1-8.4-9.9-13.7l0.3,0.1c-2.4,1.7-4.9,3.5-7.6,5.4l-0.3,0.2l-0.1-0.3c-3-8-6.3-17-9.8-26.5
						c-0.5-1.3-0.9-2.6-1.4-3.8h0.5c-2.1,4.2-4.2,8.3-6.2,12.2l-0.3,0.5l-0.2-0.6C46.5,184.6,42,171.5,39,163h0.3
						c-0.8,3.4-1.4,6.1-1.9,8c-0.2,0.9-0.4,1.6-0.5,2.1c-0.1,0.2-0.1,0.4-0.1,0.5s-0.1,0.2-0.1,0.2s0-0.1,0-0.2
						c0-0.1,0.1-0.3,0.1-0.5c0.1-0.5,0.3-1.2,0.4-2.1c0.4-1.9,1-4.6,1.8-8l0.1-0.5l0.2,0.5c3,8.5,7.6,21.6,13.1,37.1h-0.5
						c2-3.9,4-8,6.2-12.2l0.3-0.5l0.2,0.6c0.5,1.3,0.9,2.5,1.4,3.8c3.5,9.5,6.8,18.5,9.7,26.5l-0.4-0.1c2.7-1.9,5.2-3.7,7.6-5.4
						l0.2-0.1l0.1,0.2c3.8,5.3,7.1,10,9.8,13.7h-0.2c3.5-2.6,6.2-4.6,8.2-6.1c0.9-0.7,1.7-1.2,2.2-1.6c0.2-0.2,0.4-0.3,0.6-0.4
						C97.9,218.1,98,218.1,98,218.1z"/>
				</g>
			</g>
		</g>
		<g>
			<g>
				<g>
					<path class="st1" d="M96.2,181.3c0,0-0.4-0.1-1.1-0.2c-0.7-0.2-1.7-0.5-2.9-0.9c-2.4-0.8-5.7-2-9.2-3.6s-6.6-3.3-8.8-4.5
						c-1.1-0.6-2-1.2-2.6-1.6c-0.6-0.4-0.9-0.6-0.9-0.6s0.4,0.1,1,0.5c0.7,0.4,1.6,0.9,2.6,1.4c2.2,1.2,5.3,2.8,8.9,4.4
						c3.5,1.6,6.8,2.9,9.1,3.7c1.1,0.4,2,0.8,2.8,1C95.9,181.1,96.2,181.3,96.2,181.3z"/>
				</g>
			</g>
		</g>
		<g>
			<g>
				<g>
					<path class="st1" d="M98.3,184.5c0,0.1-1-0.1-2.5-0.4c-1.5-0.4-3.6-0.9-5.8-1.7c-2.2-0.8-4.2-1.7-5.6-2.3
						c-1.4-0.7-2.2-1.2-2.2-1.2c0-0.1,0.9,0.3,2.3,0.9c1.4,0.6,3.4,1.4,5.6,2.2s4.3,1.4,5.7,1.9C97.4,184.1,98.3,184.4,98.3,184.5z"
						/>
				</g>
			</g>
		</g>
		<g>
			<g>
				<ellipse class="st1" cx="77.2" cy="212.8" rx="0.9" ry="1.1"/>
			</g>
		</g>
		<g>
			<g>
				<ellipse class="st1" cx="58.4" cy="188.6" rx="0.9" ry="1.1"/>
			</g>
		</g>
		<g>
			<g>
				<ellipse class="st1" cx="39.4" cy="163.3" rx="0.9" ry="1.1"/>
			</g>
		</g>
	</g>
	<g>
		<g>
			<g>
				<path class="st1" d="M361.1,138.4l-6.4,77.9c0,0-18.5,33.3-69.6,34.6l6.3-78.4C291.4,172.4,336,170.6,361.1,138.4z"/>
			</g>
		</g>
		<g class="st11">
			<g>
				<path class="st1" d="M360.1,134.3c-1.7-5.4-5.7-13.1-15.3-14.7l-11.4,104.8c0,0,21.3-4.3,21.9-15.9c0-1,4.3-53.1,5.4-66
					C361,139.7,361,137,360.1,134.3z"/>
			</g>
		</g>
		<g>
			<g>
				<path class="st3" d="M361.1,138.4l-6.4,77.9c0,0-18.5,33.3-69.6,34.6l6.3-78.4C291.4,172.4,336,170.6,361.1,138.4z"/>
			</g>
		</g>
		<g>
			<g>
				<path class="st1" d="M359.5,158.2c-5.1,7.4-8,16.2-8.1,25.2c-0.1,2.6,0.1,5.3-0.9,7.7s-3.5,4.4-6,3.7c-2.6-0.7-3.8-3.8-6.1-5.2
					c-2-1.3-4.8-1.1-6.8,0.1c-2.1,1.2-3.5,3.3-4.5,5.5c-1.9,4.3-2,9.1-3.3,13.5c-1.4,4.5-4.7,8.9-9.4,9.1c-1.7,0.1-3.4-0.4-5.1-0.4
					c-3.6,0.1-6.7,2.8-8.4,6c-1.7,3.2-2.2,6.8-2.7,10.4c0,0,27.2,2.6,57.8-33.5L359.5,158.2z"/>
			</g>
		</g>
		<g>
			<g>
				<ellipse class="st1" cx="315.2" cy="205.5" rx="1.1" ry="1.7"/>
			</g>
		</g>
		<g>
			<g>
				<ellipse class="st1" cx="328" cy="173.1" rx="1.1" ry="1.7"/>
			</g>
		</g>
		<g>
			<g>
				<g>
					<path class="st1" d="M358.9,162c0,0,0,0.2-0.2,0.4c-0.1,0.3-0.3,0.7-0.6,1.3c-0.5,1.1-1.3,2.7-2.2,4.8c-2,4.1-4.8,9.9-8.1,16.9
						l-0.1,0.2l-0.2-0.1c-5.7-3.6-12.2-7.7-19.3-12.2l0.4-0.1c-0.3,0.6-0.5,1.3-0.8,2c-4.8,11.7-9.1,22.3-12.4,30.4l-0.1,0.2
						l-0.2-0.1c-4.8-2.7-8.7-4.9-11.4-6.3c-1.4-0.7-2.4-1.3-3.2-1.7c-0.3-0.2-0.6-0.3-0.8-0.4c-0.2-0.1-0.3-0.1-0.3-0.1
						c0-0.1,1.6,0.6,4.4,2s6.7,3.5,11.5,6.2l-0.3,0.1c3.3-8.1,7.6-18.8,12.3-30.5c0.3-0.7,0.5-1.3,0.8-2l0.1-0.3l0.3,0.2
						c7,4.5,13.6,8.6,19.2,12.2l-0.3,0.1c3.4-6.9,6.3-12.7,8.3-16.8c1-2,1.8-3.6,2.4-4.7c0.3-0.5,0.5-0.9,0.6-1.2
						C358.8,162.1,358.9,162,358.9,162z"/>
				</g>
			</g>
		</g>
	</g>
</g>
</svg>
