<?xml version="1.0" encoding="utf-8"?>
<!-- Generator: Adobe Illustrator 20.1.0, SVG Export Plug-In . SVG Version: 6.00 Build 0)  -->
<svg version="1.1" id="Слой_1" xmlns="http://www.w3.org/2000/svg" xmlns:xlink="http://www.w3.org/1999/xlink" x="0px" y="0px"
	 width="491.1" height="340.2" viewBox="0 0 491.1 340.2" style="enable-background:new 0 0 491.1 340.2;" xml:space="preserve">
<style type="text/css">
	.st0{fill:#E0E0E0;}
	.st1{fill:none;stroke:#333333;stroke-width:0.9977;stroke-miterlimit:10;}
	.st2{fill:#FFFFFF;}
	.st3{fill:none;}
	.st4{fill:#333333;}
	.st5{fill:#F05828;}
	.st6{fill:#E6E6E6;}
	.st7{opacity:0.2;}
	.st8{opacity:0.1;}
</style>
<g id="Background_Complete">
	<g>
		<polygon class="st0" points="455.2,212.6 461.2,223.1 467.3,233.6 473.3,223.1 479.4,212.7 471,212.6 471.1,172.2 463.6,172.1 
			463.6,212.6 		"/>
	</g>
	<g>
		<polygon class="st0" points="476.7,184.8 480.3,191.1 483.9,197.3 487.5,191.1 491.1,184.8 486.1,184.8 486.2,160.7 481.7,160.7 
			481.7,184.8 		"/>
	</g>
	<g>
		<polygon class="st0" points="102.6,21 96.5,10.5 90.5,0 84.4,10.5 78.4,21 86.7,21 86.7,61.5 94.1,61.5 94.2,21 		"/>
	</g>
	<g>
		<polygon class="st0" points="78.7,47.6 75.1,41.3 71.4,34.9 67.8,41.3 64.1,47.6 69.2,47.6 69.1,72.1 73.6,72.1 73.7,47.6 		"/>
	</g>
</g>
<path class="st1" d="M415.5,277.6h-287c-5.5,0-10-4.5-10-10V35.2h307v232.4C425.5,273.1,421,277.6,415.5,277.6z"/>
<g id="Windows">
	<g>
		<g>
			<path class="st2" d="M118.5,275.2"/>
			<line class="st3" x1="118.5" y1="36" x2="425.9" y2="36"/>
			<g>
				<g>
					<path class="st4" d="M118.3,36v-0.3h0.3l0,0c114,0,219.9,0,307.3,0h0.2v0.2"/>
					<path class="st4" d="M118.5,275.4h-0.2v-0.2"/>
					<path class="st4" d="M118.9,275.1l-0.2-0.2"/>
					<path class="st4" d="M425.7,36l0.2,0.2c-87.5,0-193.3,0-307.3,0l0,0l0.3-0.3"/>
				</g>
			</g>
		</g>
		<g>
			<g>
				<g>
					<path class="st4" d="M203,255.1c-0.1,0-0.3-26-0.3-58.1s0.1-58.1,0.3-58.1c0.1,0,0.3,26,0.3,58.1S203.2,255.1,203,255.1z"/>
				</g>
			</g>
			<g>
				<g>
					<path class="st4" d="M336.4,255.1c-0.1,0-0.3-26-0.3-58.1s0.1-58.1,0.3-58.1s0.3,26,0.3,58.1
						C336.7,229.1,336.6,255.1,336.4,255.1z"/>
				</g>
			</g>
			<g>
				<g>
					<path class="st4" d="M248.6,255.1c-0.1,0-0.3-33.2-0.3-74.2s0.1-74.2,0.3-74.2s0.3,33.2,0.3,74.2
						C248.8,221.9,248.7,255.1,248.6,255.1z"/>
				</g>
			</g>
			<g>
				<g>
					<path class="st4" d="M156.3,255.1c-0.1,0-0.3-33.2-0.3-74.2s0.1-74.2,0.3-74.2s0.3,33.2,0.3,74.2
						C156.5,221.9,156.4,255.1,156.3,255.1z"/>
				</g>
			</g>
			<g>
				<g>
					<path class="st4" d="M388.8,255.1c-0.1,0-0.3-33.2-0.3-74.2s0.1-74.2,0.3-74.2c0.1,0,0.3,33.2,0.3,74.2
						C389.1,221.9,388.9,255.1,388.8,255.1z"/>
				</g>
			</g>
			<g>
				<g>
					<path class="st4" d="M288.5,255.1c-0.1,0-0.3-38.4-0.3-85.7s0.1-85.7,0.3-85.7s0.3,38.4,0.3,85.7
						C288.8,216.8,288.7,255.1,288.5,255.1z"/>
				</g>
			</g>
			<g>
				<circle class="st4" cx="203" cy="139" r="1.1"/>
			</g>
			<g>
				<circle class="st4" cx="248.6" cy="106.7" r="1.1"/>
			</g>
			<g>
				<path class="st4" d="M248.6,110.5c-2.1,0-3.8-1.7-3.8-3.8c0-2.1,1.7-3.8,3.8-3.8s3.8,1.7,3.8,3.8
					C252.4,108.8,250.7,110.5,248.6,110.5z M248.6,103.1c-2,0-3.6,1.6-3.6,3.6s1.6,3.6,3.6,3.6s3.6-1.6,3.6-3.6
					C252.2,104.7,250.6,103.1,248.6,103.1z"/>
			</g>
			<g>
				<circle class="st4" cx="288.5" cy="83.7" r="1.1"/>
			</g>
			<g>
				<circle class="st4" cx="336.4" cy="140.1" r="1.1"/>
			</g>
			<g>
				<circle class="st4" cx="388.8" cy="106.7" r="1.1"/>
			</g>
			<g>
				<circle class="st4" cx="156.3" cy="107.8" r="1.1"/>
			</g>
			<g>
				<g>
					<path class="st5" d="M399.1,159.2c0,0-0.3,0.1-0.9,0.3c-0.6,0.1-1.4,0.4-2.5,0.8c-2.1,0.9-5,2.8-7.9,6c-3,3.2-5.9,7.7-9.7,12.7
						c-1.9,2.5-4,5.2-6.6,7.6c-1.3,1.3-2.7,2.4-4.3,3.5c-1.6,1.1-3.3,2-5.1,2.8c-3.7,1.5-8,2.3-12.3,2.1c-2.2-0.1-4.4-0.3-6.6-0.8
						s-4.5-1.4-6.4-2.8c-2-1.4-3.6-3.2-5-5.2s-2.6-4.1-3.8-6.3c-2.4-4.3-4.9-8.7-7.7-13.1c-2.8-4.4-5.3-9.1-8.2-13.7
						c-2.9-4.6-6-9.2-10.1-13c-2-1.9-4.3-3.6-6.8-4.8c-2.5-1.3-5.2-2.1-8-2.4c-2.8-0.3-5.7-0.1-8.5,0.5s-5.6,1.6-8.1,3.1
						c-5.1,2.9-9.2,7.2-12.7,11.8s-6.3,9.6-9.1,14.6c-2.7,5-5.6,9.8-8.8,14.3s-6.6,8.6-10.6,12.1c-1,0.9-2,1.7-3.1,2.5
						c-1,0.8-2.2,1.5-3.3,2.1c-2.3,1.2-4.6,2.3-7.1,2.9c-1.2,0.4-2.5,0.5-3.7,0.7c-0.6,0.1-1.2,0.1-1.9,0.1c-0.6,0-1.2,0-1.8,0
						c-2.5-0.1-4.8-0.6-7.1-1.3c-4.5-1.5-8.4-3.8-12-6.3s-6.8-5-10-7.3s-6.3-4.3-9.5-5.8c-3.2-1.4-6.4-2.4-9.5-2.7s-5.9-0.1-8.5,0.5
						c-0.7,0.1-1.2,0.4-1.8,0.6c-0.6,0.2-1.2,0.4-1.7,0.7c-1.1,0.6-2.1,1-3,1.7c-1.9,1.1-3.3,2.5-4.5,3.6c-0.6,0.6-1.1,1.2-1.6,1.7
						s-0.9,1-1.3,1.5c-0.7,0.9-1.2,1.6-1.6,2.1c-0.4,0.5-0.6,0.7-0.6,0.7s0.1-0.3,0.5-0.8c0.3-0.5,0.8-1.2,1.5-2.2
						c0.3-0.5,0.7-1,1.2-1.5s1-1.1,1.5-1.8c1.2-1.2,2.6-2.6,4.5-3.8c0.9-0.7,2-1.2,3-1.8c0.5-0.3,1.2-0.5,1.8-0.7s1.2-0.5,1.9-0.6
						c2.6-0.8,5.6-1,8.8-0.7s6.5,1.2,9.8,2.6c3.3,1.4,6.5,3.5,9.7,5.8s6.5,4.8,10,7.2s7.4,4.6,11.7,6c2.2,0.7,4.4,1.1,6.8,1.2
						c0.6,0,1.2,0,1.7,0c0.6,0,1.2,0,1.8-0.1c1.2-0.2,2.4-0.3,3.5-0.7c4.7-1.2,9-3.9,12.8-7.3c3.9-3.4,7.2-7.5,10.4-11.9
						c3.1-4.4,5.9-9.2,8.7-14.1c2.8-4.9,5.6-10,9.2-14.8c3.5-4.7,7.8-9.2,13.2-12.3c2.7-1.5,5.6-2.6,8.6-3.2c3-0.6,6-0.8,9-0.5
						s5.9,1.2,8.6,2.5s5,3.1,7.1,5.1c4.2,4,7.4,8.7,10.3,13.3c2.9,4.7,5.4,9.3,8.2,13.7c2.8,4.4,5.3,8.8,7.7,13.2
						c2.4,4.3,4.7,8.5,8.4,11.1c1.8,1.3,3.8,2.2,6,2.7c2.1,0.6,4.3,0.7,6.4,0.8c4.2,0.2,8.3-0.5,11.9-1.9c1.8-0.7,3.4-1.7,5-2.7
						c1.5-1.1,2.9-2.2,4.2-3.4c2.6-2.4,4.7-5,6.6-7.4c3.8-5,6.8-9.4,9.9-12.6c3-3.2,6.1-5.1,8.3-5.9c1.1-0.4,2-0.6,2.6-0.7
						C398.8,159.2,399.1,159.2,399.1,159.2z"/>
				</g>
			</g>
			<g>
				<rect x="155.2" y="62.9" class="st4" width="53.6" height="3"/>
			</g>
			<g>
				<rect x="155.2" y="69.9" class="st4" width="26.5" height="3"/>
			</g>
			<g>
				<path class="st4" d="M417.9,16.5H126.2c-4.5,0-8.2,3.7-8.2,8.2v11.2c0,0.1,0.1,0.1,0.1,0.1h307.8c0.1,0,0.1-0.1,0.1-0.1V24.6
					C426,20.1,422.4,16.5,417.9,16.5z"/>
			</g>
			<g>
				<circle class="st2" cx="132" cy="26.7" r="2.1"/>
			</g>
			<g>
				<circle class="st2" cx="141.2" cy="26.7" r="2.1"/>
			</g>
			<g>
				<circle class="st2" cx="150.3" cy="26.7" r="2.1"/>
			</g>
		</g>
	</g>
	<g>
		<g>
			<path class="st6" d="M118.2,212.2H8c-4.4,0-8-3.6-8-8v-19.3c0-4.4,3.6-8,8-8h110.2c4.4,0,8,3.6,8,8v19.3
				C126.2,208.6,122.6,212.2,118.2,212.2z"/>
		</g>
		<g>
			
				<ellipse transform="matrix(0.6256 -0.7802 0.7802 0.6256 -144.8999 89.3406)" class="st2" cx="20.6" cy="195.6" rx="7.7" ry="7.7"/>
		</g>
		<g>
			<g>
				<path class="st4" d="M24.9,193c0.1,0.1-1.8,2.1-4.2,4.4c-0.3,0.3-0.7,0.7-1,1l-0.2,0.2l-0.2-0.2c-1.9-1.9-3.2-3.4-3.1-3.5
					s1.6,1.2,3.5,3.1h-0.4c0.3-0.3,0.7-0.6,1-1C22.8,194.7,24.8,192.9,24.9,193z"/>
			</g>
		</g>
		<g>
			<g>
				<ellipse class="st4" cx="78.1" cy="191.9" rx="35.8" ry="0.3"/>
			</g>
		</g>
		<g>
			<g>
				<ellipse class="st4" cx="63.8" cy="198.9" rx="20.7" ry="0.3"/>
			</g>
		</g>
	</g>
	<g>
		<g>
			<path class="st0" d="M153.7,143.2H45.3c-4.4,0-8-3.6-8-8V99.5c0-4.4,3.6-8,8-8h108.4c4.4,0,8,3.6,8,8v35.7
				C161.7,139.6,158.1,143.2,153.7,143.2z"/>
		</g>
		<g>
			<g>
				<circle class="st5" cx="57.3" cy="107.9" r="5.8"/>
			</g>
			<g>
				<rect x="68.9" y="103.9" class="st5" width="40.4" height="2.2"/>
			</g>
			<g>
				<rect x="68.9" y="109" class="st2" width="78.6" height="2.2"/>
			</g>
		</g>
		<g>
			<g>
				<circle class="st5" cx="57.3" cy="125.7" r="5.8"/>
			</g>
			<g>
				<rect x="68.9" y="121.7" class="st5" width="20.6" height="2.2"/>
			</g>
			<g>
				<rect x="68.9" y="126.8" class="st2" width="78.6" height="2.2"/>
			</g>
		</g>
	</g>
	<g>
		<g>
			<path class="st0" d="M211.6,295.7H67.3c-4.5,0-8.1-3.6-8.1-8.1v-52.1c0-4.5,3.6-8.1,8.1-8.1h144.4c4.5,0,8.1,3.6,8.1,8.1v52.1
				C219.7,292,216.1,295.7,211.6,295.7z"/>
		</g>
		<g>
			<g>
				<g>
					<path class="st5" d="M88.6,260.4l-0.1-13.8c-4.1,0-8.2,1.6-11.4,4.5c-3.8,3.3-6.2,8.3-5.5,14.3c0.1,0.7,0.2,1.3,0.3,2l0,0l0,0
						l16.7-3.8C88.6,263.6,88.6,260.4,88.6,260.4z"/>
				</g>
				<g>
					<g>
						<path class="st5" d="M105.7,256.1c-2.3-4.9-6.9-8.8-13.5-9.4c-0.2,0-0.4,0-0.5,0s-0.2,0-0.3,0c-0.3,0-0.7,0-1,0l0,0l0,0l0,0
							l0,0l0,0l0.1,13.8v3.3l16.7,3.6l0,0l0,0c0.3-1.2,0.4-2.4,0.4-3.6C107.5,261.2,106.9,258.5,105.7,256.1z"/>
					</g>
					<g class="st7">
						<path d="M105.7,256.1c-2.3-4.9-6.9-8.8-13.5-9.4c-0.2,0-0.4,0-0.5,0s-0.2,0-0.3,0c-0.3,0-0.7,0-1,0l0,0l0,0l0,0l0,0l0,0
							l0.1,13.8v3.3l16.7,3.6l0,0l0,0c0.3-1.2,0.4-2.4,0.4-3.6C107.5,261.2,106.9,258.5,105.7,256.1z"/>
					</g>
				</g>
			</g>
			<g>
				<g>
					<path class="st5" d="M89.4,265.4l-16.7,3.8c1.7,7.6,8.5,13.3,16.7,13.3s15-5.8,16.7-13.5L89.4,265.4"/>
				</g>
				<g class="st8">
					<path d="M89.4,265.4l-16.7,3.8c1.7,7.6,8.5,13.3,16.7,13.3s15-5.8,16.7-13.5L89.4,265.4"/>
				</g>
			</g>
		</g>
		<g>
			<rect x="118.7" y="250.7" class="st2" width="84.7" height="3.8"/>
		</g>
		<g>
			<rect x="118.7" y="260.8" class="st2" width="84.7" height="3.8"/>
		</g>
		<g>
			<rect x="118.7" y="272" class="st2" width="45.8" height="3.8"/>
		</g>
	</g>
	<g>
		<g>
			<path class="st6" d="M404.5,340.2H255.6c-5.1,0-9.3-4.1-9.3-9.3V188.3c0-5.1,4.1-9.3,9.3-9.3h148.9c5.1,0,9.3,4.1,9.3,9.3V331
				C413.7,336.1,409.6,340.2,404.5,340.2z"/>
		</g>
		<g>
			<g>
				<g>
					<rect x="258" y="289.4" class="st4" width="5.5" height="1.6"/>
				</g>
				<g>
					<rect x="270.4" y="297.9" class="st4" width="7" height="1.6"/>
				</g>
				<g>
					<rect x="294.9" y="297.9" class="st4" width="7" height="1.6"/>
				</g>
				<g>
					<rect x="319.4" y="297.9" class="st4" width="7" height="1.6"/>
				</g>
				<g>
					<rect x="343.8" y="297.9" class="st4" width="7" height="1.6"/>
				</g>
				<g>
					<rect x="368.3" y="297.9" class="st4" width="7" height="1.6"/>
				</g>
				<g>
					<rect x="392.7" y="297.9" class="st4" width="7" height="1.6"/>
				</g>
				<g>
					<rect x="258" y="268.3" class="st4" width="5.5" height="1.6"/>
				</g>
				<g>
					<rect x="258" y="228.5" class="st4" width="5.5" height="1.6"/>
				</g>
				<g>
					<rect x="258" y="208.5" class="st4" width="5.5" height="1.6"/>
				</g>
				<g>
					<rect x="258.3" y="248.4" class="st4" width="5.5" height="1.6"/>
				</g>
				<g>
					<g>
						<path class="st4" d="M399.6,291c0,0-0.2,0-0.6,0s-1,0-1.7,0c-1.5,0-3.8,0-6.6,0c-5.8,0-14.1,0-24.4,0.1
							c-20.7,0-49.2,0-80.7,0.1c-6.5,0-13,0-19.1,0h-0.3v-0.3c0-27,0.1-50.7,0.1-67.7c0-8.5,0.1-15.3,0.1-20c0-2.3,0-4.1,0-5.4
							c0-0.6,0-1.1,0-1.4c0-0.3,0-0.5,0-0.5s0,0.2,0,0.5s0,0.8,0,1.4c0,1.2,0,3.1,0,5.4c0,4.7,0,11.5,0.1,20c0,17,0.1,40.7,0.1,67.7
							l-0.3-0.3c6.1,0,12.6,0,19.1,0c31.5,0,60,0.1,80.7,0.1c10.3,0,18.7,0.1,24.4,0.1c2.9,0,5.1,0,6.6,0c0.7,0,1.3,0,1.7,0
							C399.4,291,399.6,291,399.6,291z"/>
					</g>
				</g>
				<g>
					<g>
						<path class="st4" d="M401.1,249.2c0,0.1-29,0.3-64.7,0.3s-64.7-0.1-64.7-0.3s29-0.3,64.7-0.3S401.1,249,401.1,249.2z"/>
					</g>
				</g>
				<g>
					<g>
						<path class="st4" d="M401.1,229.3c0,0.1-29,0.3-64.7,0.3s-64.7-0.1-64.7-0.3c0-0.1,29-0.3,64.7-0.3S401.1,229.2,401.1,229.3z"
							/>
					</g>
				</g>
				<g>
					<g>
						<path class="st4" d="M401.1,209.3c0,0.1-29,0.3-64.7,0.3s-64.7-0.1-64.7-0.3c0-0.1,29-0.3,64.7-0.3S401.1,209.2,401.1,209.3z"
							/>
					</g>
				</g>
				<g>
					<g>
						<path class="st4" d="M401.1,269.1c0,0.1-29,0.3-64.7,0.3s-64.7-0.1-64.7-0.3c0-0.1,29-0.3,64.7-0.3
							C372.1,268.8,401.1,268.9,401.1,269.1z"/>
					</g>
				</g>
				<g>
					<path class="st5" d="M273,286.7c0-3.3,0-17.7,0-17.7l11-17.1l7.5,5.7l15.3-23.8l9,6.4l12.6-22l10.2,8.3l15.3-29.1l16.5,32.6
						l13.4-16.3l15.7-4.5v77.4H273V286.7z"/>
				</g>
			</g>
			<g>
				<g>
					<path class="st4" d="M401.1,203c0,0-0.1,0-0.3,0c-0.2,0-0.5,0-0.8,0c-0.7,0-1.8,0-3.2,0c-2.8,0-6.9,0-12.1,0.1l0.1-0.1
						c-3.5,4.6-7.9,10.3-12.9,16.9l-0.1,0.1h-0.1c-9.4,0-20.4,0-32.4,0l0.2-0.1c-4.3,7.1-8.9,14.7-13.6,22.7
						c-4.6,7.7-9.1,15.2-13.4,22.2l-0.2,0.3l-0.2-0.3c-6.4-8.8-12.3-16.9-17.5-24.1h0.4c-6.7,10.4-12.2,18.9-16,24.9
						c-1.9,3-3.4,5.3-4.5,6.9c-0.5,0.8-0.9,1.4-1.2,1.8c-0.3,0.4-0.4,0.6-0.4,0.6s0.1-0.2,0.4-0.6s0.6-1,1.1-1.8
						c1-1.6,2.5-4,4.4-6.9c3.8-6,9.2-14.6,15.8-25l0.2-0.3l0.2,0.3c5.2,7.2,11.2,15.3,17.6,24.1h-0.4c4.2-7,8.7-14.5,13.3-22.2
						c4.8-7.9,9.4-15.6,13.6-22.6l0.1-0.1h0.1c12,0,23,0,32.4,0l-0.2,0.1c5.1-6.6,9.5-12.2,13-16.8V203h0.1c5.2,0,9.2,0.1,12.1,0.1
						c1.4,0,2.4,0,3.2,0c0.3,0,0.6,0,0.8,0C401,203,401.1,203,401.1,203z"/>
				</g>
			</g>
			<g>
				<ellipse class="st4" cx="299" cy="246.3" rx="1.2" ry="1.2"/>
			</g>
			<g>
				<ellipse class="st4" cx="336.3" cy="225.1" rx="1.2" ry="1.2"/>
			</g>
			<g>
				<ellipse class="st4" cx="365.3" cy="219.9" rx="1.2" ry="1.2"/>
			</g>
		</g>
		<g>
			<ellipse class="st2" cx="278.5" cy="319.1" rx="8" ry="7.7"/>
		</g>
		<g>
			<rect x="298.4" y="313.9" class="st2" width="94.3" height="2.9"/>
		</g>
		<g>
			<rect x="298.4" y="321.1" class="st2" width="39.2" height="2.9"/>
		</g>
	</g>
	<g>
		<g>
			<path class="st6" d="M462.9,146h-95c-4.4,0-8.1-3.6-8.1-8.1v-76c0-4.4,3.6-8.1,8.1-8.1h95c4.4,0,8.1,3.6,8.1,8.1V138
				C471,142.4,467.4,146,462.9,146z"/>
		</g>
		<g>
			<g>
				<rect x="379.2" y="90.8" class="st5" width="6" height="45.2"/>
			</g>
			<g>
				<rect x="406.4" y="87.1" class="st5" width="6" height="48.9"/>
			</g>
			<g>
				<rect x="434.7" y="80.9" class="st5" width="6" height="55.1"/>
			</g>
			<g>
				<g>
					<rect x="421.4" y="114" class="st5" width="6" height="22"/>
				</g>
				<g class="st7">
					<rect x="421.4" y="114" width="6" height="22"/>
				</g>
			</g>
			<g>
				<g>
					<rect x="386.2" y="85.9" class="st5" width="6" height="50.1"/>
				</g>
				<g class="st8">
					<rect x="386.2" y="85.9" width="6" height="50.1"/>
				</g>
			</g>
			<g>
				<g>
					<rect x="413.9" y="75.4" class="st5" width="6" height="60.6"/>
				</g>
				<g class="st8">
					<rect x="413.9" y="75.4" width="6" height="60.6"/>
				</g>
			</g>
			<g>
				<g>
					<rect x="450.1" y="75.4" class="st5" width="6" height="60.6"/>
				</g>
				<g class="st7">
					<rect x="450.1" y="75.4" width="6" height="60.6"/>
				</g>
			</g>
			<g>
				<g>
					<rect x="442.3" y="63.5" class="st5" width="6" height="72.5"/>
				</g>
				<g class="st8">
					<rect x="442.3" y="63.5" width="6" height="72.5"/>
				</g>
			</g>
			<g>
				<g>
					<rect x="393.5" y="104.2" class="st5" width="6" height="31.8"/>
				</g>
				<g class="st7">
					<rect x="393.5" y="104.2" width="6" height="31.8"/>
				</g>
			</g>
			<g>
				<g>
					<path class="st4" d="M464.7,138.7c0,0.1-21.4,0.3-47.7,0.3c-26.4,0-47.7-0.1-47.7-0.3c0-0.1,21.4-0.3,47.7-0.3
						C443.3,138.5,464.7,138.6,464.7,138.7z"/>
				</g>
			</g>
			<g>
				<rect x="366.4" y="127.9" class="st4" width="3.7" height="1.2"/>
			</g>
			<g>
				<rect x="366.4" y="111.8" class="st4" width="3.7" height="1.2"/>
			</g>
			<g>
				<rect x="366.4" y="81.6" class="st4" width="3.7" height="1.2"/>
			</g>
			<g>
				<rect x="366.4" y="66.3" class="st4" width="3.7" height="1.2"/>
			</g>
			<g>
				<rect x="366.6" y="96.7" class="st4" width="3.7" height="1.2"/>
			</g>
		</g>
	</g>
	<g>
		<g>
			<path class="st5" d="M338.5,78.3h-99.3c-4.1,0-7.4-3.3-7.4-7.4V53.7c0-4.1,3.3-7.4,7.4-7.4h99.3c4.1,0,7.4,3.3,7.4,7.4V71
				C345.8,75,342.5,78.3,338.5,78.3z"/>
		</g>
		<g>
			
				<ellipse transform="matrix(0.6256 -0.7802 0.7802 0.6256 45.9162 218.2986)" class="st2" cx="250.4" cy="61.3" rx="6.9" ry="6.9"/>
			<path class="st4" d="M250.4,68.3c-1.6,0-3.1-0.5-4.3-1.5c-1.5-1.2-2.4-2.8-2.6-4.7c-0.2-1.9,0.3-3.7,1.5-5.1
				c1.2-1.5,2.8-2.4,4.7-2.6c0.3,0,0.5,0,0.8,0c1.6,0,3.1,0.5,4.3,1.5c1.5,1.2,2.4,2.8,2.6,4.7s-0.3,3.7-1.5,5.1l0,0
				c-1.2,1.5-2.8,2.4-4.7,2.6C251,68.3,250.7,68.3,250.4,68.3z M250.5,54.4c-0.3,0-0.5,0-0.8,0c-1.8,0.2-3.5,1.1-4.6,2.5
				c-1.2,1.4-1.7,3.2-1.5,5.1c0.2,1.8,1.1,3.5,2.5,4.6c1.4,1.2,3.2,1.7,5.1,1.5c1.8-0.2,3.5-1.1,4.6-2.5l0,0
				c1.2-1.4,1.7-3.2,1.5-5.1c-0.2-1.8-1.1-3.5-2.5-4.6C253.5,54.9,252,54.4,250.5,54.4z"/>
		</g>
		<g>
			<g>
				<path class="st5" d="M254.4,59c0.1,0.1-1.6,1.9-3.7,4c-0.3,0.3-0.6,0.6-0.9,0.9l-0.2,0.2l-0.2-0.2c-1.7-1.7-2.9-3.1-2.8-3.2
					c0.1-0.1,1.4,1.1,3.2,2.8h-0.4c0.3-0.3,0.6-0.6,0.9-0.9C252.4,60.5,254.3,58.9,254.4,59z"/>
			</g>
		</g>
		<g>
			<g>
				<ellipse class="st2" cx="302.3" cy="59" rx="32.4" ry="0.3"/>
			</g>
		</g>
		<g>
			<g>
				<ellipse class="st2" cx="289.5" cy="65.3" rx="18.7" ry="0.3"/>
			</g>
		</g>
	</g>
</g>
</svg>
