<?xml version="1.0" encoding="utf-8"?>
<!-- Generator: Adobe Illustrator 20.1.0, SVG Export Plug-In . SVG Version: 6.00 Build 0)  -->
<svg version="1.1" id="Layer_1" xmlns="http://www.w3.org/2000/svg" xmlns:xlink="http://www.w3.org/1999/xlink" x="0px" y="0px"
	 viewBox="0 0 512 337.5" style="enable-background:new 0 0 512 337.5;" xml:space="preserve">
<style type="text/css">
	.st0{fill:#B9411E;}
	.st1{fill:#F05528;}
</style>
<g>
	<g>
		<path class="st0" d="M484.5,98.4c-1-1.3-2-2.6-3-3.8c-1-1.3-2.1-2.5-3.2-3.7c-3.1-3.6-6.6-7.2-10.3-10.7c-3.4-3.3-7.2-6.5-11-9.7
			c-3.7-3-7.6-5.9-11.7-8.8c-3.9-2.7-8-5.4-12.2-7.9c-4-2.4-8.2-4.8-12.6-7.2c-4.2-2.2-8.5-4.4-13-6.4c-4.3-2-8.8-4-13.2-5.8
			c-4.4-1.8-8.9-3.6-13.5-5.2c-1.4-0.5-2.9-1-4.3-1.3c-1.5-0.4-3-0.7-4.4-1c-1.5-0.3-3-0.5-4.4-0.6c-1.5-0.1-2.9-0.2-4.3-0.3h-1
			c-0.9,0-1.7,0-2.5,0.1c-1.1,0-2.2,0.2-3.3,0.3c-1.1,0.1-2.1,0.4-3.1,0.6c-1,0.2-1.8,0.5-2.6,0.8l0.5,1.6l2.4,2.4
			c0.8,0.2,1.6,0.5,2.3,0.7c1.7,0.5,3.4,1,5.1,1.6c1.7,0.5,3.4,1.1,5.1,1.7c1.7,0.6,3.4,1.2,5,1.8c4.2,1.6,8.2,3.1,12.1,4.7
			c4,1.7,7.9,3.5,11.7,5.3c4,2,7.9,3.9,11.4,5.9c3.7,2.1,7.4,4.2,11,6.5c3.6,2.2,7.1,4.7,10.5,7.1c3.5,2.6,6.8,5.2,9.9,7.8
			c3.2,2.7,6.3,5.6,9.2,8.6c3,3.1,5.8,6.2,8.4,9.4c1.5,1.8,3.4,3.7,5.8,5.3c2.3,1.6,5,3.2,8,4.6c2.9,1.4,6.1,2.6,9.4,3.6
			c2.6,0.8,5.1,1.4,7.7,1.8l2.6-1.2l1-1.4c-0.7-1.1-1.5-2.3-2.3-3.4C486.5,101,485.6,99.7,484.5,98.4z"/>
		<path class="st0" d="M143.3,205.3c-2.5-1.6-5-3.1-7.3-4.7s-4.7-3.2-6.9-4.8c-2.2-1.6-4.3-3.3-6.4-5c-5-4-9.5-8.2-13.6-12.5
			c-4-4.1-7.6-8.4-10.7-12.8c-3.1-4.2-5.7-8.5-7.9-12.8c-2.1-4.2-3.9-8.5-5.2-12.7c-1.3-4.2-2.2-8.3-2.6-12.5
			c-0.5-4-0.6-8.1-0.3-12.1c0.3-3.9,0.9-7.9,1.9-11.7c1-3.8,2.3-7.5,3.9-11.2c1-2.2,1.3-4.4,0.8-6.5c-0.5-2-1.6-3.8-3.2-5.4
			c-1.6-1.5-3.7-2.7-6.2-3.8c-1.4-0.5-2.9-1-4.5-1.4l-4.2,0.8l-3.6,2c-0.2,0.3-0.4,0.5-0.6,0.8c-1,1.3-1.9,2.6-2.7,3.9
			c-0.9,1.3-1.7,2.7-2.6,4.1c-0.8,1.4-1.6,2.8-2.4,4.2c-2.4,4.3-4.3,8.8-5.8,13.2c-1.6,4.6-2.8,9.3-3.5,14.1
			c-0.8,4.8-1.1,9.8-1,14.7c0.1,5.1,0.8,10.3,1.9,15.3c1.1,5.2,2.8,10.6,5,15.7c2.2,5.3,5,10.7,8.3,16c3.4,5.4,7.3,10.7,11.7,15.9
			c4.6,5.3,9.7,10.6,15.3,15.6c1.8,1.6,3.9,3,6.2,4.2c2.2,1.2,4.7,2.2,7.4,2.9c2.6,0.7,5.4,1.3,8.3,1.6c2.1,0.2,4.2,0.4,6.4,0.4
			c0.8,0,1.6,0,2.4,0c2.5-0.1,5.1-0.4,7.6-0.7c2.5-0.4,5.1-0.9,7.6-1.6c2.5-0.7,5-1.5,7.3-2.5c1-0.4,1.8-0.9,2.7-1.3l3.4-3.4
			l0.4-1.7C148.2,208.2,145.7,206.8,143.3,205.3z"/>
		<path class="st0" d="M274.5,55.7c-9.1-0.1-17.8,0.7-25.7,2.2c-8,1.6-15.2,4-21.5,7c-6.4,3.1-11.7,7-15.5,11.4
			c-3.9,4.6-6.3,9.9-6.6,15.6c-0.3,6,1.7,11.9,5.8,17.4c4.1,5.8,10.4,11,18.2,15.7c8.1,4.7,17.8,8.5,28.5,11.1
			c10.9,2.6,22.7,4.1,34.8,3.9c12-0.2,22.9-1.9,32.2-4.8c9.1-2.8,16.7-6.8,22.2-11.4c5.4-4.5,8.9-9.7,10.4-15.2
			c1.4-5.3,0.9-11-1.7-16.7c-2.5-5.5-6.8-10.5-12.3-14.9c-5.3-4.3-11.9-8.1-19.1-11.2c-7.1-3.1-15.1-5.5-23.5-7.3
			C292.5,56.7,283.6,55.8,274.5,55.7"/>
	</g>
	<g>
		<path class="st1" d="M166.8,23.6c-1.6,0-3.1,0-4.7,0.1c-1.6,0.1-3.1,0.2-4.7,0.5c-1.6,0.2-3.1,0.5-4.5,0.8
			c-1.5,0.3-2.9,0.7-4.2,1.2c-4.5,1.6-8.9,3.2-13.3,5c-4.4,1.8-8.7,3.7-12.9,5.8c-4.2,2.1-8.4,4.3-12.4,6.6c-4.1,2.4-8,4.9-11.8,7.5
			c-2.6,1.8-5.1,3.7-7.5,5.6c-2.5,2-4.8,3.9-7.1,6c-2.3,2.1-4.6,4.3-6.7,6.5c-2.1,2.3-4.2,4.6-6.2,7c3.1,0.5,5.8,1.2,8.1,2.1
			c2.3,1,4.2,2.1,5.7,3.5c1.4,1.4,2.4,2.9,2.7,4.6c0.4,1.7,0.2,3.5-0.7,5.5c-1.7,3.8-3.1,7.6-4.1,11.5c-1,3.9-1.6,7.9-2,12
			c-0.3,4.1-0.2,8.3,0.3,12.4c0.5,4.2,1.4,8.5,2.7,12.7c1.3,4.3,3.1,8.7,5.3,13c2.2,4.4,4.9,8.8,8,13.1c3.2,4.4,6.8,8.7,10.9,13
			c4.2,4.3,8.7,8.5,13.7,12.6c2.1,1.7,4.2,3.4,6.5,5c2.2,1.6,4.6,3.3,6.9,4.9c2.4,1.6,4.9,3.2,7.4,4.7c2.6,1.6,5.2,3.1,7.9,4.6
			c0.4-0.2,0.8-0.5,1.2-0.7c0.4-0.2,0.8-0.5,1.2-0.7c0.4-0.2,0.8-0.5,1.2-0.7c0.4-0.3,0.8-0.5,1.1-0.8c4.7-3.3,8.4-6.9,11-10.7
			c2.6-3.7,4-7.5,4.5-11.3c0.5-3.7-0.1-7.2-1.6-10.5c-1.5-3.2-4-6.2-7.4-8.6c-4.1-2.9-7.8-5.9-11.3-9c-3.4-3.1-6.5-6.2-9.3-9.4
			c-2.7-3.1-5.2-6.3-7.3-9.6c-2.1-3.2-3.8-6.4-5.3-9.7c-1.4-3.2-2.6-6.4-3.3-9.7c-0.8-3.1-1.3-6.3-1.5-9.5c-0.2-3.1-0.1-6.2,0.3-9.3
			c0.4-3.1,1-6.1,2-9.1c0.9-3,2.1-5.8,3.5-8.5c1.4-2.7,3-5.3,4.8-7.8c1.8-2.5,3.7-4.8,5.9-7.1c2.1-2.2,4.4-4.4,6.8-6.4
			c2.4-2.1,4.9-4,7.6-5.8c2.6-1.8,5.4-3.6,8.3-5.2c2.9-1.6,5.8-3.2,8.9-4.7c3-1.5,6.2-2.8,9.4-4.1c2.7-1.1,4.7-2.3,6.2-3.7
			c1.4-1.3,2.2-2.7,2.4-4.1c0.2-1.4-0.3-2.7-1.3-4c-1-1.3-2.6-2.5-4.9-3.5c-1.1-0.5-2.3-1-3.6-1.4c-1.3-0.4-2.6-0.7-4-1
			c-1.4-0.3-2.9-0.5-4.4-0.6C169.9,23.7,168.3,23.6,166.8,23.6"/>
		<path class="st1" d="M351.3,29.4c-0.1,0-0.3,0.1-0.5,0.2c-0.1,0-0.3,0.1-0.4,0.2s-0.3,0.1-0.4,0.2c-0.1,0.1-0.3,0.1-0.4,0.2
			c-1.6,0.9-2.6,2-3.1,3.1c-0.5,1.2-0.3,2.5,0.4,3.8c0.7,1.3,2,2.7,3.8,4c1.8,1.3,4.2,2.6,7,3.7c3.4,1.3,6.7,2.7,10,4.2
			c3.3,1.5,6.5,3,9.7,4.6c3.1,1.6,6.3,3.3,9.3,5.1c3,1.8,6,3.7,8.8,5.6c2.9,2,5.6,4,8.3,6.1c2.7,2.1,5.2,4.3,7.7,6.6
			c2.5,2.3,4.8,4.7,7,7.2c2.2,2.5,4.2,5.1,6.2,7.8c1.9,2.7,3.6,5.5,5,8.3c1.5,2.8,2.7,5.7,3.7,8.4c1,2.9,1.8,5.8,2.3,8.6
			c0.5,2.9,0.8,5.9,0.8,8.8c0,3-0.2,5.9-0.8,8.9c-0.5,3-1.3,6-2.4,8.9c-1.1,3-2.5,5.9-4.2,8.8c-1.7,2.9-3.7,5.8-6,8.6
			c-2,2.4-3,5.2-3,8.2c0,3.1,0.8,6.3,2.6,9.7c1.8,3.4,4.5,6.8,8,10c3.6,3.3,8,6.4,13.1,9c2.6,1.3,5.2,2.5,7.9,3.5
			c2.6,1,5.3,1.8,7.9,2.5c2.6,0.6,5.2,1.1,7.8,1.4c2.6,0.3,5,0.4,7.3,0.3c2.3-0.1,4.6-0.4,6.6-0.8c2.1-0.5,4-1,5.7-1.9
			c1.7-0.8,3.2-1.7,4.5-2.9c1.3-1.1,2.3-2.4,3.1-3.8c2.5-4.7,4.5-9.4,6.1-14.2c1.6-4.7,2.6-9.4,3.2-14.1c0.6-4.6,0.9-9.2,0.6-13.9
			c-0.2-4.5-0.8-9-1.7-13.5c-0.6-2.9-1.4-5.8-2.3-8.8c-0.9-2.8-2-5.7-3.2-8.5c-1.2-2.8-2.6-5.5-4-8.3c-1.5-2.7-3.1-5.4-4.8-8
			c-3.3-0.5-6.6-1.2-9.8-2.2c-3.2-1-6.3-2.2-9.2-3.5c-2.9-1.4-5.5-2.9-7.7-4.5s-4.1-3.3-5.5-5.1c-2.6-3.3-5.5-6.4-8.5-9.5
			c-2.9-3-6-5.9-9.3-8.7c-3.2-2.7-6.5-5.3-10-7.9c-3.4-2.5-6.9-4.9-10.5-7.2c-3.6-2.3-7.3-4.5-11-6.5c-3.7-2.1-7.5-4-11.5-5.9
			c-3.8-1.9-7.8-3.7-11.8-5.3c-4-1.7-8-3.3-12.1-4.8c-1.7-0.6-3.4-1.2-5.1-1.8c-1.7-0.6-3.4-1.2-5.1-1.7c-1.7-0.5-3.4-1.1-5.2-1.6
			C354.8,30.4,353.1,29.9,351.3,29.4"/>
		<path class="st1" d="M262.6,0c-2.8-0.1-5.4,0-7.8,0.4c-2.4,0.3-4.5,0.8-6.3,1.5c-1.8,0.6-3.2,1.5-4.1,2.4c-1,0.9-1.4,2-1.3,3.1
			c0.1,1.1,0.9,2.3,2.1,3.3c1.2,1,2.9,2,5,2.8s4.6,1.6,7.3,2.1c2.7,0.5,5.6,0.8,8.6,0.9c4.7,0.1,9.5,0.3,14.2,0.6
			c4.7,0.3,9.3,0.7,13.8,1.2s9.1,1,13.6,1.7c4.5,0.6,8.9,1.4,13.3,2.2c2.6,0.5,5.2,1,7.8,1.6c2.6,0.5,5.1,1.1,7.7,1.7
			c2.6,0.6,5.1,1.2,7.6,1.9c2.5,0.6,5,1.4,7.5,2.1c0.8-0.3,1.6-0.6,2.6-0.8c0.9-0.2,1.9-0.4,2.9-0.5c1-0.1,2.1-0.2,3.1-0.3
			c1.1,0,2.2-0.1,3.4,0c1.4,0,2.8,0.1,4.2,0.3c1.4,0.1,2.9,0.4,4.3,0.6c1.5,0.3,2.9,0.6,4.3,1c1.4,0.4,2.8,0.8,4.2,1.3
			c4.5,1.6,9,3.3,13.4,5.2c4.5,1.8,8.9,3.7,13.1,5.8c4.4,2.1,8.7,4.2,12.9,6.4c4.3,2.3,8.5,4.7,12.5,7.1c4.2,2.5,8.2,5.2,12.1,7.9
			c4,2.8,7.9,5.7,11.6,8.7c3.8,3.1,7.4,6.3,11,9.6c3.6,3.4,7,6.9,10.1,10.5c1.1,1.2,2.1,2.5,3.1,3.7c1,1.2,2,2.5,3,3.8
			c1,1.3,1.9,2.6,2.8,3.8c0.9,1.3,1.8,2.6,2.6,3.9c0.7,0.1,1.3,0.2,2,0.3c0.7,0.1,1.3,0.1,2,0.2c0.6,0,1.3,0.1,2,0.1
			c0.6,0,1.3,0,1.9,0c3.7,0,6.8-0.5,9.2-1.4s4.1-2.1,5.1-3.5c1-1.5,1.2-3.1,0.7-5c-0.5-1.8-1.8-3.8-3.8-5.9
			c-4.1-4.2-8.4-8.3-12.9-12.1c-4.4-3.8-8.9-7.4-13.6-10.9c-4.6-3.4-9.3-6.7-14.1-9.8c-4.7-3.1-9.5-6-14.5-8.8
			c-4.8-2.7-9.8-5.4-14.7-7.9c-4.9-2.5-10-4.8-15-7.1c-5-2.2-10.1-4.3-15.2-6.3c-5.1-2-10.2-3.9-15.4-5.7c-5.1-1.7-10.3-3.4-15.5-5
			c-5.2-1.6-10.4-3-15.7-4.4s-10.5-2.6-15.8-3.8c-5.3-1.1-10.6-2.2-16.1-3.2c-5.4-1-10.8-1.8-16.3-2.6c-5.4-0.8-11-1.5-16.5-2
			c-5.6-0.5-11.1-1-16.8-1.4C274.1,0.5,268.4,0.2,262.6,0"/>
		<path class="st1" d="M62.6,75.7c-4.4,0-8.8,0.4-13.1,1.1c-4.3,0.8-8.5,1.9-12.4,3.3c-3.9,1.5-7.4,3.2-10.5,5.2
			c-3.1,2-5.5,4.2-7.1,6.6c-3.4,5.1-6.4,10.2-9,15.5c-2.6,5.5-4.8,11-6.5,16.7C2.4,130,1.2,136,0.6,142c-0.7,6.2-0.8,12.6-0.3,18.9
			c0.5,6.6,1.6,13.2,3.4,19.8c1.8,6.8,4.3,13.7,7.6,20.5c3.3,7,7.3,14,12.1,20.8c4.9,7.1,10.5,14,17,20.8c6.6,7,14,13.7,22.1,20.3
			c8.4,6.7,17.4,13.1,27.3,19.1c10,6.2,20.9,12,32.3,17.3c11.7,5.5,24.1,10.4,37,14.8c13.1,4.5,26.7,8.4,40.9,11.6
			c14.2,3.3,28.8,5.9,43.8,7.8c15,1.9,30.1,3.1,45.4,3.4c15.2,0.4,30.4,0,45.5-1.2c7.2-0.5,13.7-2.6,19.3-5.7
			c5.5-3.1,9.9-7.3,13.2-12.1c3.2-4.8,5.2-10.3,6-16.1c0.7-5.7,0.2-11.7-1.7-17.8c-1.9-5.9-4.8-11.4-8.6-16.2
			c-3.7-4.7-8.3-8.8-13.3-12.1c-5-3.3-10.5-5.8-16.2-7.4c-5.7-1.6-11.7-2.4-17.8-2.1c-9.7,0.5-19.3,0.5-28.9,0.2
			c-9.6-0.4-19.2-1.1-28.6-2.2c-9.4-1.1-18.7-2.6-27.7-4.5c-9-1.9-17.8-4.1-26.2-6.6c-5-1.5-9.9-3.1-14.6-4.7
			c-4.7-1.7-9.3-3.4-13.8-5.3c-4.5-1.8-8.8-3.8-13-5.8c-4.2-2-8.2-4.1-12.1-6.3c-2.2,1.2-4.4,2.3-6.8,3.2c-2.3,1-4.7,1.8-7.2,2.4
			c-2.5,0.7-4.9,1.2-7.4,1.6c-2.5,0.4-5,0.6-7.4,0.7c-2.9,0.1-5.8,0-8.6-0.3c-2.8-0.3-5.5-0.8-8-1.6c-2.6-0.7-4.9-1.6-7.1-2.8
			c-2.2-1.1-4.2-2.5-5.9-4c-5.6-5-10.7-10.2-15.2-15.4c-4.4-5.2-8.3-10.4-11.6-15.7c-3.2-5.2-6-10.5-8.1-15.7
			c-2.1-5.2-3.8-10.3-4.9-15.5c-1.1-5-1.7-10-1.9-15c-0.1-4.8,0.2-9.7,0.9-14.5c0.7-4.7,1.9-9.2,3.5-13.7c1.5-4.4,3.4-8.7,5.8-13
			c0.7-1.4,1.6-2.8,2.4-4.1c0.8-1.3,1.6-2.6,2.6-4c0.9-1.3,1.8-2.6,2.7-3.8c0.9-1.2,1.9-2.5,2.9-3.7c-0.6-0.1-1.3-0.2-1.9-0.3
			c-0.7,0-1.3-0.1-2-0.2c-0.7,0-1.4-0.1-2.1-0.1C64,75.7,63.3,75.7,62.6,75.7"/>
	</g>
</g>
</svg>
