<?xml version="1.0" encoding="utf-8"?>
<!-- Generator: Adobe Illustrator 20.1.0, SVG Export Plug-In . SVG Version: 6.00 Build 0)  -->
<svg version="1.1" id="Слой_1" xmlns="http://www.w3.org/2000/svg" xmlns:xlink="http://www.w3.org/1999/xlink" x="0px" y="0px"
	 width="539.6" height="482.2" viewBox="0 0 539.6 482.2" style="enable-background:new 0 0 539.6 482.2;" xml:space="preserve">
<style type="text/css">
	.st0{fill:#F5F5F5;}
	.st1{fill:#E5E5E5;}
	.st2{fill:#E0E0E0;}
	.st3{fill:#FFFFFF;}
	.st4{fill:#333333;}
	.st5{fill:#F05828;}
	.st6{opacity:0.3;}
	.st7{fill:#263238;}
	.st8{fill:#455A64;}
	.st9{fill:#FAFAFA;stroke:#333333;stroke-width:0.5;stroke-miterlimit:10;}
	.st10{fill:#263238;stroke:#333333;stroke-width:0.5;stroke-miterlimit:10;}
	.st11{fill:#455A64;stroke:#333333;stroke-width:0.5;stroke-miterlimit:10;}
	.st12{fill:#F05828;stroke:#333333;stroke-width:0.5;stroke-miterlimit:10;}
	.st13{fill:#E0E0E0;stroke:#333333;stroke-width:0.5;stroke-miterlimit:10;}
	.st14{fill:#333333;stroke:#333333;stroke-width:0.5;stroke-miterlimit:10;}
	.st15{fill:#FFFFFF;stroke:#333333;stroke-width:0.5;stroke-miterlimit:10;}
	.st16{display:none;}
	.st17{display:inline;}
	.st18{fill:none;}
</style>
<g id="Background_Complete">
	<g>
		<g>
			<g>
				<path class="st0" d="M155.5,23.5c1.8-1.1,3.7-1.9,5.7-2.5l1.2-5.7l9.6-0.2l1.4,5.6c2,0.5,4,1.3,5.8,2.3l4.8-3.2l6.9,6.6l-3,4.9
					c1.1,1.8,1.9,3.7,2.5,5.7l5.7,1.2l0.2,9.6l-5.6,1.4c-0.5,2-1.3,4-2.3,5.8l3.2,4.8l-6.6,6.9l-4.9-3c-1.8,1.1-3.7,1.9-5.7,2.5
					l-1.2,5.7l-9.6,0.2l-1.4-5.6c-2-0.5-4-1.3-5.8-2.3l-4.8,3.2l-6.9-6.6l3-4.9c-1.1-1.8-1.9-3.7-2.5-5.7l-5.7-1.2l-0.2-9.6l5.6-1.4
					c0.5-2,1.3-4,2.3-5.8l-3.2-4.8l6.6-6.9L155.5,23.5L155.5,23.5z M160.6,36.2c-3.9,4.1-3.8,10.6,0.3,14.5s10.6,3.8,14.5-0.3
					s3.8-10.6-0.3-14.5S164.5,32.1,160.6,36.2z"/>
			</g>
		</g>
	</g>
	<g>
		<g>
			<g>
				<path class="st0" d="M285.9,39.8c1.1-0.7,2.4-1.2,3.6-1.6l0.7-3.6l6-0.1l0.9,3.5c1.3,0.3,2.5,0.8,3.7,1.4l3-2l4.3,4.2l-1.9,3.1
					c0.7,1.1,1.2,2.4,1.6,3.6l3.6,0.7l0.1,6l-3.5,0.9c-0.3,1.3-0.8,2.5-1.4,3.7l2,3.1l-4.2,4.3l-3.1-1.9c-1.1,0.7-2.4,1.2-3.6,1.6
					l-0.7,3.6l-6,0.1l-1-3.4c-1.3-0.3-2.5-0.8-3.7-1.4l-3,2l-4.3-4.2l1.9-3.1c-0.7-1.1-1.2-2.4-1.6-3.6l-3.6-0.7l-0.1-6l3.5-0.9
					c0.3-1.3,0.8-2.5,1.4-3.7l-2-3.1l4.2-4.3L285.9,39.8L285.9,39.8z M289.1,47.9c-2.5,2.6-2.4,6.7,0.2,9.2s6.7,2.4,9.2-0.2
					c2.5-2.6,2.4-6.7-0.2-9.2S291.6,45.3,289.1,47.9z"/>
			</g>
		</g>
	</g>
	<g>
		<g>
			<g>
				<path class="st0" d="M367,132.1c1.9-1.1,3.9-2,6-2.6l1.2-5.9l10-0.2l1.4,5.8c2.1,0.5,4.1,1.3,6,2.4l5-3.3l7.2,6.9l-3.1,5.1
					c1.1,1.9,2,3.9,2.6,6l5.9,1.2l0.2,10l-5.8,1.4c-0.5,2.1-1.3,4.1-2.4,6l3.3,5l-6.9,7.2l-5.1-3.1c-1.9,1.1-3.9,2-6,2.6l-1.2,5.9
					l-10,0.2l-1.4-5.8c-2.1-0.5-4.1-1.3-6-2.4l-5,3.3l-7.2-6.9l3.1-5.1c-1.1-1.9-2-3.9-2.6-6l-5.9-1.2l-0.2-10l5.8-1.4
					c0.5-2.1,1.3-4.1,2.4-6l-3.3-5l6.9-7.2L367,132.1L367,132.1z M372.3,145.4c-4.1,4.2-4,11,0.3,15.1c4.2,4.1,11,4,15.1-0.3
					c4.1-4.2,4-11-0.3-15.1C383.2,141,376.4,141.1,372.3,145.4z"/>
			</g>
		</g>
	</g>
	<g>
		<g>
			<g>
				<path class="st1" d="M484.9,197.5c1.9-1.1,3.9-2,6-2.6l1.2-5.9l10-0.2l1.4,5.8c2.1,0.5,4.1,1.3,6,2.4l5-3.3l7.2,6.9l-3.1,5.1
					c1.1,1.9,2,3.9,2.6,6l5.9,1.2l0.2,10l-5.8,1.4c-0.5,2.1-1.3,4.1-2.4,6l3.3,5l-6.9,7.2l-5.1-3.1c-1.9,1.1-3.9,2-6,2.6l-1.2,5.9
					l-10,0.2l-1.4-5.8c-2.1-0.5-4.1-1.3-6-2.4l-5,3.3l-7.2-6.9l3.1-5.1c-1.1-1.9-2-3.9-2.6-6l-5.9-1.2l-0.2-10l5.8-1.4
					c0.5-2.1,1.3-4.1,2.4-6l-3.3-5l6.9-7.2L484.9,197.5L484.9,197.5z M490.2,210.8c-4.1,4.2-4,11,0.3,15.1c4.2,4.1,11,4,15.1-0.3
					c4.1-4.2,4-11-0.3-15.1C501.1,206.4,494.3,206.5,490.2,210.8z"/>
			</g>
		</g>
	</g>
	<g>
		<g>
			<g>
				<path class="st1" d="M137,427.2c1.9-1.1,3.9-2,6-2.6l1.2-5.9l10-0.2l1.4,5.8c2.1,0.5,4.1,1.3,6,2.4l5-3.3l7.2,6.9l-3.1,5.1
					c1.1,1.9,2,3.9,2.6,6l5.9,1.2l0.2,10l-5.8,1.4c-0.5,2.1-1.3,4.1-2.4,6l3.3,5l-6.9,7.2l-5.1-3.1c-1.9,1.1-3.9,2-6,2.6l-1.2,5.9
					l-10,0.2l-1.4-5.8c-2.1-0.5-4.1-1.3-6-2.4l-5,3.3l-7.2-6.9l3.1-5.1c-1.1-1.9-2-3.9-2.6-6l-5.9-1.2l-0.2-10l5.8-1.4
					c0.5-2.1,1.3-4.1,2.4-6l-3.3-5l6.9-7.2L137,427.2L137,427.2z M142.4,440.5c-4.1,4.2-4,11,0.3,15.1c4.2,4.1,11,4,15.1-0.3
					c4.1-4.2,4-11-0.3-15.1C153.2,436.2,146.5,436.3,142.4,440.5z"/>
			</g>
		</g>
	</g>
	<g>
		<polygon class="st2" points="399.1,251.4 405.2,261.9 411.2,272.4 417.3,262 423.3,251.5 415,251.5 415.1,211 407.6,211 
			407.5,251.4 		"/>
	</g>
	<g>
		<polygon class="st2" points="420.6,223.6 424.2,229.9 427.8,236.2 431.4,229.9 435.1,223.7 430.1,223.7 430.1,199.5 425.7,199.5 
			425.6,223.6 		"/>
	</g>
	<g>
		<polygon class="st2" points="85.1,82.6 79.1,72.1 73,61.6 66.9,72 60.9,82.5 69.2,82.5 69.2,123 76.6,123 76.7,82.6 		"/>
	</g>
	<g>
		<polygon class="st2" points="61.2,109.2 57.6,102.9 53.9,96.5 50.3,102.8 46.6,109.2 51.7,109.2 51.6,133.7 56.1,133.7 
			56.2,109.2 		"/>
	</g>
</g>
<g id="Tab">
	<g>
		<g>
			<g>
				<g>
					<g>
						<path class="st3" d="M352.8,403.4H136.1c-4.4,0-8-3.6-8-8V95.3c0-4.4,3.6-8,8-8h216.7c4.4,0,8,3.6,8,8v300.1
							C360.8,399.8,357.2,403.4,352.8,403.4z"/>
					</g>
					<g>
						<path class="st4" d="M360.8,116.1H128.1V94.9c0-4.2,3.4-7.5,7.5-7.5h216.1c5,0,9.1,4.1,9.1,9.1L360.8,116.1L360.8,116.1z"/>
					</g>
					<g>
						<ellipse class="st3" cx="143.8" cy="101.2" rx="3.8" ry="3.6"/>
					</g>
					<g>
						<ellipse class="st3" cx="156.7" cy="101.2" rx="3.8" ry="3.6"/>
					</g>
					<g>
						<ellipse class="st3" cx="169.6" cy="101.2" rx="3.8" ry="3.6"/>
					</g>
				</g>
				<g>
					<g>
						<g>
							<g>
								<g>
									<g>
										<rect x="162.9" y="167.6" class="st5" width="9.4" height="68.5"/>
									</g>
								</g>
							</g>
						</g>
						<g>
							<g>
								<g>
									<g>
										<rect x="181" y="190.9" class="st5" width="9.4" height="45.2"/>
									</g>
								</g>
							</g>
						</g>
						<g>
							<g>
								<g>
									<g>
										<rect x="199.1" y="176.1" class="st5" width="9.4" height="60.3"/>
									</g>
								</g>
							</g>
						</g>
						<g>
							<g>
								<g>
									<g>
										<rect x="217.2" y="170.3" class="st5" width="9.4" height="65.9"/>
									</g>
								</g>
							</g>
						</g>
						<g>
							<g>
								<g>
									<g>
										<rect x="235.3" y="192.3" class="st5" width="9.4" height="43.9"/>
									</g>
								</g>
							</g>
						</g>
						<g>
							<g>
								<g>
									<g>
										<rect x="253.3" y="200.9" class="st5" width="9.4" height="35.3"/>
									</g>
								</g>
							</g>
						</g>
						<g>
							<g>
								<g>
									<g>
										<rect x="271.4" y="174.7" class="st5" width="9.4" height="61.5"/>
									</g>
								</g>
							</g>
						</g>
						<g>
							<g>
								<g>
									<g>
										<rect x="289.5" y="185.7" class="st5" width="9.4" height="50.4"/>
									</g>
								</g>
							</g>
						</g>
						<g>
							<g>
								<g>
									<g>
										<rect x="307.6" y="176.9" class="st5" width="9.4" height="59.3"/>
									</g>
								</g>
							</g>
						</g>
						<g>
							<g>
								<g>
									<g>
										<rect x="325.7" y="195.8" class="st5" width="9.4" height="40.4"/>
									</g>
								</g>
							</g>
						</g>
						<g class="st6">
							<g>
								<g>
									<g>
										<rect x="181" y="190.9" class="st3" width="9.4" height="45.2"/>
									</g>
								</g>
							</g>
						</g>
						<g class="st6">
							<g>
								<g>
									<g>
										<rect x="217.2" y="170.3" class="st3" width="9.4" height="65.9"/>
									</g>
								</g>
							</g>
						</g>
						<g class="st6">
							<g>
								<g>
									<g>
										<rect x="253.3" y="200.9" class="st3" width="9.4" height="35.3"/>
									</g>
								</g>
							</g>
						</g>
						<g class="st6">
							<g>
								<g>
									<g>
										<rect x="289.5" y="185.7" class="st3" width="9.4" height="50.4"/>
									</g>
								</g>
							</g>
						</g>
						<g class="st6">
							<g>
								<g>
									<g>
										<rect x="325.7" y="195.8" class="st3" width="9.4" height="40.4"/>
									</g>
								</g>
							</g>
						</g>
					</g>
					<g>
						<g>
							<path class="st7" d="M153.3,170.3c0,0,0,0.1,0,0.3s0,0.5,0,0.9c0,0.8,0,2,0,3.6c0,3.1,0,7.7,0.1,13.5c0,11.6,0.1,28.2,0.1,48
								l-0.2-0.2c18.2,0,39.5,0,62.1,0c35.4,0,67.5,0.1,90.8,0.1c11.6,0,21,0.1,27.5,0.1c3.2,0,5.8,0,7.5,0c0.8,0,1.5,0,1.9,0
								s0.7,0,0.7,0s-0.2,0-0.7,0s-1.1,0-1.9,0c-1.7,0-4.2,0-7.5,0c-6.5,0-15.9,0-27.5,0.1c-23.2,0-55.3,0-90.8,0.1
								c-22.7,0-44,0-62.1,0h-0.2v-0.2c0-19.8,0.1-36.4,0.1-48c0-5.8,0-10.3,0.1-13.5c0-1.5,0-2.7,0-3.6c0-0.4,0-0.7,0-0.9
								C153.2,170.4,153.3,170.3,153.3,170.3z"/>
						</g>
					</g>
				</g>
				<g>
					<path class="st2" d="M206.8,150.2h-50.5c-1.4,0-2.6-1.1-2.6-2.6V147c0-1.4,1.1-2.6,2.6-2.6h50.5c1.4,0,2.6,1.1,2.6,2.6v0.6
						C209.4,149,208.2,150.2,206.8,150.2z"/>
				</g>
				<g>
					<path class="st2" d="M328.9,266.1H151.1c-1.4,0-2.6-1.1-2.6-2.6v-0.6c0-1.4,1.1-2.6,2.6-2.6h177.8c1.4,0,2.6,1.1,2.6,2.6v0.6
						C331.4,265,330.3,266.1,328.9,266.1z"/>
				</g>
				<g>
					<path class="st2" d="M328.9,298.1H151.1c-1.4,0-2.6-1.1-2.6-2.6v-0.6c0-1.4,1.1-2.6,2.6-2.6h177.8c1.4,0,2.6,1.1,2.6,2.6v0.6
						C331.4,297,330.3,298.1,328.9,298.1z"/>
				</g>
				<g>
					<path class="st2" d="M245.3,282h-94.2c-1.4,0-2.6-1.1-2.6-2.6v-0.6c0-1.4,1.1-2.6,2.6-2.6h94.2c1.4,0,2.6,1.1,2.6,2.6v0.6
						C247.8,280.9,246.7,282,245.3,282z"/>
				</g>
				<g>
					<path class="st2" d="M327.7,282h-66.4c-1.4,0-2.6-1.1-2.6-2.6v-0.6c0-1.4,1.1-2.6,2.6-2.6h66.4c1.4,0,2.6,1.1,2.6,2.6v0.6
						C330.2,280.9,329.1,282,327.7,282z"/>
				</g>
				<g>
					<path class="st2" d="M218.7,314.2h-66.4c-1.4,0-2.6-1.1-2.6-2.6V311c0-1.4,1.1-2.6,2.6-2.6h66.4c1.4,0,2.6,1.1,2.6,2.6v0.6
						C221.3,313.1,220.1,314.2,218.7,314.2z"/>
				</g>
			</g>
			<g>
				<g>
					<path class="st7" d="M352.4,403.4c0-0.1,1,0.1,2.7-0.5c0.9-0.3,1.9-0.8,2.9-1.8c1-0.9,1.9-2.3,2.4-4c0.2-0.9,0.3-1.8,0.3-2.8
						s0-2.1,0-3.2c0-2.2,0-4.7,0-7.3c0-5.3,0-11.4,0-18.2c0-27.4,0-67.1-0.1-116.1c0-24.5,0-51.4,0-80.2c0-14.4,0-29.3,0-44.7
						c0-7.7,0-15.5,0-23.4v-3c0-1,0-2-0.1-2.9c-0.2-1.9-1.1-3.8-2.4-5.2c-1.4-1.4-3.2-2.3-5.1-2.6c-1-0.1-2-0.1-3-0.1h-3
						c-64.8,0-136.1,0-210.9,0c-2.3-0.1-4.5,0.9-6,2.6c-0.7,0.9-1.2,1.9-1.5,3s-0.2,2.2-0.2,3.4c0,4.6,0,9.3,0,13.9
						c0,9.2,0,18.4,0,27.5c0,18.2,0,36.2,0,53.8c0,35.3,0,69.3,0,101.7s0,63.2,0,92c0,3.6,0,7.2,0,10.7c0.1,1.7,0.8,3.4,2,4.6
						s2.8,2.1,4.5,2.2c0.8,0.1,1.7,0,2.6,0.1c0.9,0,1.7,0,2.6,0c1.7,0,3.4,0,5.1,0c3.4,0,6.8,0,10.1,0c13.4,0,26.2,0,38.5,0
						c49,0,88.7,0.1,116.1,0.1c13.7,0,24.3,0,31.6,0c3.6,0,6.4,0,8.2,0C351.5,403.4,352.4,403.4,352.4,403.4s-0.9,0-2.8,0
						s-4.6,0-8.2,0c-7.2,0-17.9,0-31.6,0c-27.4,0-67.1,0-116.1,0.1c-12.3,0-25.1,0-38.5,0c-3.3,0-6.7,0-10.1,0c-1.7,0-3.4,0-5.1,0
						c-0.9,0-1.7,0-2.6,0c-0.9,0-1.7,0-2.6-0.1c-1.8-0.2-3.5-1.1-4.7-2.4c-1.3-1.3-2-3.1-2.1-4.9c-0.1-3.6,0-7.1,0-10.7
						c0-28.8,0-59.6,0-92s0-66.4,0-101.7c0-17.6,0-35.6,0-53.8c0-9.1,0-18.3,0-27.5c0-4.6,0-9.3,0-13.9v-1.7c0-0.6,0.1-1.2,0.2-1.8
						c0.3-1.2,0.8-2.3,1.6-3.2c0.8-0.9,1.8-1.7,2.9-2.2c1.1-0.5,2.3-0.7,3.5-0.7c74.8,0,146,0,210.9,0h3c1,0,2,0,3.1,0.1
						c2.1,0.2,4,1.3,5.4,2.7c1.4,1.5,2.3,3.4,2.6,5.4c0.1,1,0.1,2,0.1,3v3c0,7.9,0,15.7,0,23.4c0,15.4,0,30.3,0,44.7
						c0,28.8,0,55.7,0,80.2c0,49-0.1,88.7-0.1,116.1c0,6.9,0,12.9,0,18.2c0,2.6,0,5.1,0,7.3c0,1.1,0,2.2,0,3.2s0,2-0.3,2.9
						c-0.5,1.8-1.4,3.1-2.4,4s-2.1,1.5-2.9,1.8c-0.9,0.3-1.6,0.4-2,0.4C352.7,403.4,352.4,403.4,352.4,403.4z"/>
				</g>
			</g>
		</g>
		<g>
			<g>
				<g>
					<path class="st2" d="M203.4,359.3c0.2,13.4-10.5,24.5-23.8,24.7s-24.4-10.5-24.6-23.9c-0.2-13.4,10.5-24.5,23.8-24.7
						C192.2,335.2,203.2,345.9,203.4,359.3z M167.6,359.9c0.1,6.4,5.4,11.5,11.8,11.4c6.4-0.1,11.5-5.4,11.4-11.8
						s-5.4-11.5-11.8-11.4C172.6,348.2,167.5,353.5,167.6,359.9z"/>
				</g>
			</g>
			<g>
				<g>
					<path class="st8" d="M203.4,359.3c0.2,13.4-10.5,24.5-23.8,24.7l-0.2-12.7c6.4-0.1,11.5-5.4,11.4-11.8s-5.4-11.5-11.8-11.4
						l-0.2-12.7C192.2,335.2,203.2,345.9,203.4,359.3z"/>
				</g>
			</g>
			<g>
				<g id="XMLID_00000129923332422805153770000007384058460614980520_">
					<path class="st5" d="M181.8,386c-15.6,0.3-28.1-11.9-28.3-27.5l14.8-0.2c0.1,7.5,5.8,12.2,13.3,12.1L181.8,386z"/>
				</g>
			</g>
		</g>
		<g>
			<g>
				<g>
					<path class="st8" d="M220.3,362c-0.2-13.4,10.5-24.5,23.8-24.7c13.3-0.2,24.4,10.5,24.6,23.9s-10.5,24.5-23.8,24.7
						C231.5,386.2,220.5,375.4,220.3,362z M256,361.5c-0.1-6.4-5.4-11.5-11.8-11.4c-6.4,0.1-11.5,5.4-11.4,11.8s5.4,11.5,11.8,11.4
						C251,373.2,256.1,367.9,256,361.5z"/>
				</g>
			</g>
			<g>
				<g>
					<path class="st5" d="M220.3,362c-0.2-13.4,10.5-24.5,23.8-24.7l0.2,12.7c-6.4,0.1-11.5,5.4-11.4,11.8s5.4,11.5,11.8,11.4
						l0.2,12.7C231.5,386.2,220.5,375.4,220.3,362z"/>
				</g>
			</g>
			<g>
				<g id="XMLID_00000109024965915770669250000014356526799498296705_">
					<path class="st2" d="M241.9,335.4c15.6-0.3,28.1,11.9,28.3,27.5l-14.8,0.2c-0.1-7.5-5.8-12.2-13.3-12.1L241.9,335.4z"/>
				</g>
			</g>
		</g>
		<g>
			<g>
				<g>
					<path class="st8" d="M312.4,335.7c13.4-0.2,24.5,10.5,24.7,23.8s-10.5,24.4-23.9,24.6s-24.5-10.5-24.7-23.8
						C288.2,346.9,298.9,335.9,312.4,335.7z M312.9,371.5c6.4-0.1,11.5-5.4,11.4-11.8s-5.4-11.5-11.8-11.4s-11.5,5.4-11.4,11.8
						S306.5,371.6,312.9,371.5z"/>
				</g>
			</g>
			<g>
				<g>
					<path class="st5" d="M312.4,335.7c13.4-0.2,24.5,10.5,24.7,23.8l-12.7,0.2c-0.1-6.4-5.4-11.5-11.8-11.4s-11.5,5.4-11.4,11.8
						l-12.7,0.2C288.2,346.9,298.9,335.9,312.4,335.7z"/>
				</g>
			</g>
			<g>
				<g id="XMLID_00000110445462143519336620000007879229520819041685_">
					<path class="st2" d="M339,357.3c0.3,15.6-11.9,28.1-27.5,28.3l-0.2-14.8c7.5-0.1,12.2-5.8,12.1-13.3L339,357.3z"/>
				</g>
			</g>
		</g>
	</g>
</g>
<g id="Chart">
	<g>
		<g>
			<g>
				<g>
					<path class="st9" d="M66.6,382.2v64.2c0,2.4,1.9,4.3,4.3,4.3h68.9c2.4,0,4.3-1.9,4.3-4.3v-64.2c0-2.4-1.9-4.3-4.3-4.3H70.9
						C68.5,377.8,66.6,379.8,66.6,382.2z"/>
				</g>
			</g>
			<g>
				<g>
					<g>
						<g>
							<g>
								<g>
									<g>
										<ellipse class="st10" cx="105" cy="440" rx="19.8" ry="0.2"/>
									</g>
								</g>
							</g>
						</g>
					</g>
					<g>
						<g>
							<g>
								<g>
									<g>
										<ellipse class="st10" cx="105" cy="443.6" rx="11" ry="0.2"/>
									</g>
								</g>
							</g>
						</g>
					</g>
				</g>
			</g>
		</g>
		<g>
			<g>
				<g>
					<g>
						<g>
							<path class="st11" d="M106.5,411.7l19.7,0.3c-0.2,10.5-9,19-19.7,19h-0.1L106.5,411.7z"/>
						</g>
					</g>
				</g>
			</g>
			<g>
				<g>
					<g>
						<g>
							<path class="st12" d="M103.4,408.9l-0.3,19.3c-10.7-0.1-19.4-8.8-19.4-19.3c0-10.6,8.9-19.3,19.7-19.3s19.7,8.7,19.7,19.3
								H103.4z"/>
						</g>
					</g>
				</g>
			</g>
		</g>
	</g>
	<g>
		<g>
			<g>
				<path class="st13" d="M178.1,319.8H8.6c-4.4,0-8-3.6-8-8V189.1c0-4.4,3.6-8,8-8h169.5c4.4,0,8,3.6,8,8v122.7
					C186.1,316.2,182.5,319.8,178.1,319.8z"/>
			</g>
		</g>
		<g>
			<g>
				<path class="st14" d="M185.5,198.3H0v-9.1c0-4.4,3.6-8,8-8h169.5c4.4,0,8,3.6,8,8V198.3z"/>
			</g>
		</g>
		<g>
			<g>
				<circle class="st15" cx="10.2" cy="189.7" r="2.5"/>
			</g>
		</g>
		<g>
			<g>
				<circle class="st15" cx="18.5" cy="189.7" r="2.5"/>
			</g>
		</g>
		<g>
			<g>
				<circle class="st15" cx="26.8" cy="189.7" r="2.5"/>
			</g>
		</g>
		<g class="st16">
			<g class="st17">
				<g>
					<path class="st10" d="M185.5,319.8c0,0,0-0.9,0-2.5c0-1.7,0-4.1,0-7.4c0-6.5,0-15.9-0.1-28c0-24.2-0.1-58.8-0.1-100.7l0.2,0.2
						c-52.3,0-116.4,0-185.5,0l0,0l0.3-0.3c0,49.8,0,97,0,138.7L0,319.6c54.9,0,101.3,0.1,133.9,0.1c16.3,0,29.2,0,38,0.1
						c4.4,0,7.8,0,10.1,0c1.1,0,2,0,2.6,0C185.2,319.8,185.5,319.8,185.5,319.8s-0.3,0-0.9,0c-0.6,0-1.4,0-2.6,0c-2.3,0-5.7,0-10,0
						c-8.8,0-21.7,0-38,0.1c-32.7,0-79.1,0.1-134,0.1h-0.2v-0.2c0-41.6,0-88.8,0-138.7v-0.3H0l0,0c69.1,0,133.2,0,185.5,0h0.2v0.2
						c0,42-0.1,76.7-0.1,100.9c0,12.1,0,21.5-0.1,28c0,3.2,0,5.7,0,7.3C185.5,319,185.5,319.8,185.5,319.8z"/>
				</g>
			</g>
		</g>
		<g>
			<g>
				<g>
					<path class="st13" d="M175.3,264.7c0,0.1-36.9,0.3-82.4,0.3s-82.4-0.1-82.4-0.3s36.9-0.3,82.4-0.3
						C138.4,264.4,175.3,264.6,175.3,264.7z"/>
				</g>
			</g>
		</g>
		<g>
			<g>
				<g>
					<path class="st14" d="M175.3,250.5c0,0.1-36.9,0.3-82.4,0.3s-82.4-0.1-82.4-0.3c0-0.1,36.9-0.3,82.4-0.3
						S175.3,250.3,175.3,250.5z"/>
				</g>
			</g>
		</g>
		<g>
			<g>
				<g>
					<path class="st13" d="M175.3,236.2c0,0.1-36.9,0.3-82.4,0.3s-82.4-0.1-82.4-0.3c0-0.1,36.9-0.3,82.4-0.3
						C138.4,236,175.3,236.1,175.3,236.2z"/>
				</g>
			</g>
		</g>
		<g>
			<g>
				<g>
					<path class="st14" d="M175.3,222c0,0.1-36.9,0.3-82.4,0.3s-82.4-0.1-82.4-0.3s36.9-0.3,82.4-0.3S175.3,221.8,175.3,222z"/>
				</g>
			</g>
		</g>
		<g>
			<g>
				<rect x="24.3" y="258.2" class="st12" width="13.7" height="27.6"/>
			</g>
		</g>
		<g>
			<g>
				<rect x="73.6" y="258.2" class="st11" width="13.7" height="27.6"/>
			</g>
		</g>
		<g>
			<g>
				<rect x="148.3" y="267.6" class="st11" width="13.7" height="18.2"/>
			</g>
		</g>
		<g>
			<g>
				<rect x="122.8" y="245.2" class="st15" width="13.7" height="40.7"/>
			</g>
		</g>
		<g>
			<g>
				<rect x="97.6" y="229.4" class="st12" width="13.7" height="56.5"/>
			</g>
		</g>
		<g>
			<g>
				<rect x="48" y="245.2" class="st15" width="13.7" height="40.7"/>
			</g>
		</g>
		<g>
			<g>
				<g>
					<path class="st10" d="M173.3,285.8c0,0-0.2,0-0.6,0c-0.4,0-1,0-1.8,0c-1.6,0-3.9,0-6.9,0c-6,0-14.7,0-25.5,0.1
						c-21.5,0-51.2,0-84,0.1c-15.7,0-30.7,0-44.3,0H10v-0.2c0-21.8,0.1-40.5,0.1-53.7c0-6.6,0.1-11.8,0.1-15.4c0-1.8,0-3.1,0-4.1
						c0-0.5,0-0.8,0-1.1c0-0.2,0-0.4,0-0.4s0,0.1,0,0.4c0,0.3,0,0.6,0,1.1c0,0.9,0,2.3,0,4.1c0,3.6,0,8.8,0.1,15.4
						c0,13.2,0.1,31.8,0.1,53.7l-0.2-0.2c13.6,0,28.6,0,44.3,0c32.8,0,62.5,0.1,84,0.1c10.7,0,19.4,0.1,25.5,0.1c3,0,5.3,0,6.9,0
						c0.8,0,1.4,0,1.8,0S173.3,285.8,173.3,285.8z"/>
				</g>
			</g>
		</g>
		<g>
			<g>
				<g>
					<path class="st12" d="M42,305.9L42,305.9c-1.7,0-3-1.3-3-3l0,0c0-1.7,1.3-3,3-3l0,0c1.7,0,3,1.3,3,3l0,0
						C45,304.5,43.7,305.9,42,305.9z"/>
				</g>
			</g>
			<g>
				<g>
					<path class="st15" d="M78.8,305.7L78.8,305.7c-1.7,0-3-1.3-3-3l0,0c0-1.7,1.3-3,3-3l0,0c1.7,0,3,1.3,3,3l0,0
						C81.9,304.3,80.5,305.7,78.8,305.7z"/>
				</g>
			</g>
			<g>
				<g>
					<path class="st11" d="M118.7,305.9L118.7,305.9c-1.7,0-3-1.3-3-3l0,0c0-1.7,1.3-3,3-3l0,0c1.7,0,3,1.3,3,3l0,0
						C121.7,304.5,120.4,305.9,118.7,305.9z"/>
				</g>
			</g>
			<g>
				<g>
					<g>
						<ellipse class="st10" cx="56.8" cy="302.6" rx="8.2" ry="0.3"/>
					</g>
				</g>
			</g>
			<g>
				<g>
					<g>
						<ellipse class="st10" cx="93.3" cy="302.6" rx="8.2" ry="0.3"/>
					</g>
				</g>
			</g>
			<g>
				<g>
					<g>
						<ellipse class="st10" cx="132.3" cy="302.6" rx="8.2" ry="0.3"/>
					</g>
				</g>
			</g>
		</g>
	</g>
	<g>
		<g>
			<g>
				<path class="st13" d="M432.2,148.9H249c-4.4,0-8-3.6-8-8V8c0-4.4,3.6-8,8-8h183.2c4.4,0,8,3.6,8,8v132.9
					C440.2,145.4,436.6,148.9,432.2,148.9z"/>
			</g>
		</g>
		<g>
			<g>
				<path class="st14" d="M440.2,18.4H241V8c0-4.4,3.6-8,8-8h183.2c4.4,0,8,3.6,8,8V18.4z"/>
			</g>
		</g>
		<g>
			<g>
				<circle class="st15" cx="251.9" cy="9.2" r="2.7"/>
			</g>
		</g>
		<g>
			<g>
				<circle class="st15" cx="260.8" cy="9.2" r="2.7"/>
			</g>
		</g>
		<g>
			<g>
				<circle class="st15" cx="269.8" cy="9.2" r="2.7"/>
			</g>
		</g>
		<g class="st16">
			<g class="st17">
				<g>
					<path class="st10" d="M440.2,148.9c0,0,0-0.9,0-2.7s0-4.4,0-7.9c0-6.9,0-17.1-0.1-30.1c0-26-0.1-63.2-0.1-108.2l0.2,0.2
						c-56.2,0-125,0-199.2,0l0,0l0.3-0.3c0,53.5,0,104.2,0,148.9l-0.2-0.2c59,0,108.8,0.1,143.8,0.1c17.5,0,31.4,0,40.8,0.1
						c4.7,0,8.4,0,10.8,0c1.2,0,2.2,0,2.8,0C439.9,148.9,440.2,148.9,440.2,148.9s-0.3,0-0.9,0s-1.6,0-2.8,0c-2.5,0-6.1,0-10.8,0
						c-9.5,0-23.3,0-40.8,0.1c-35.1,0-84.9,0.1-144,0.1h-0.2v-0.2c0-44.7,0-95.4,0-148.9v-0.3h0.3l0,0c74.2,0,143,0,199.2,0h0.2v0.2
						c0,45.1-0.1,82.4-0.1,108.4c0,13,0,23.1-0.1,30c0,3.4,0,6.1,0,7.9C440.2,148,440.2,148.9,440.2,148.9z"/>
				</g>
			</g>
		</g>
		<g>
			<g>
				<g>
					<path class="st14" d="M429.2,89.8c0,0.1-39.7,0.3-88.6,0.3S252,90,252,89.8c0-0.1,39.6-0.3,88.6-0.3S429.2,89.6,429.2,89.8z"/>
				</g>
			</g>
		</g>
		<g>
			<g>
				<g>
					<path class="st14" d="M429.2,74.5c0,0.1-39.7,0.3-88.6,0.3S252,74.7,252,74.5c0-0.1,39.6-0.3,88.6-0.3S429.2,74.3,429.2,74.5z"
						/>
				</g>
			</g>
		</g>
		<g>
			<g>
				<g>
					<path class="st14" d="M429.2,59.2c0,0.1-39.7,0.3-88.6,0.3S252,59.4,252,59.2c0-0.1,39.6-0.3,88.6-0.3S429.2,59,429.2,59.2z"/>
				</g>
			</g>
		</g>
		<g>
			<g>
				<g>
					<path class="st14" d="M429.2,43.9c0,0.1-39.7,0.3-88.6,0.3S252,44.1,252,43.9s39.6-0.3,88.6-0.3
						C389.6,43.6,429.2,43.7,429.2,43.9z"/>
				</g>
			</g>
		</g>
		<g>
			<g>
				<path class="st12" d="M416.8,89.2c-3.5-8.3-5.8-17.4-8.5-26.1c-2.3-7.5-2.5-11-4.5-17.4c-3.1-10-11.4-11.1-17.4-8.4
					c-5.3,2.4-7.6,8.7-9.4,14.3c-2.1,6.8-4.2,13.5-6.4,20.3c-1,3.2-2,6.5-3.9,9.2c-1.8,2.8-4.7,5.1-7.9,5.5
					c-5.4,0.7-10.3-3.8-12.6-8.8c-2.3-5-3-10.7-5-15.8s-6.3-10-11.8-10.1c-6.7-0.1-11.3,6.7-14.1,12.9c-3.5,7.8-6.4,15.9-8.5,24.2
					c-0.7,2.8-1.4,5.7-2.8,8.3c-1.4,2.5-3.8,4.7-6.7,5.1c-3.7,0.5-7.1-2.2-9.3-5.3c-2.1-3.1-3.5-6.7-5.7-9.7s-5.7-5.6-9.4-4.9
					c-3.3,0.6-5.6,3.5-7.6,6.2c-5.3,7.4-9.8,15.4-13.6,23.7h183.2C426.6,109.6,420.2,97.5,416.8,89.2z"/>
			</g>
		</g>
		<g>
			<g>
				<path class="st12" d="M299,133.1L299,133.1c-2.4,0-4.3-1.9-4.3-4.3l0,0c0-2.4,1.9-4.3,4.3-4.3l0,0c2.4,0,4.3,1.9,4.3,4.3l0,0
					C303.3,131.2,301.4,133.1,299,133.1z"/>
			</g>
		</g>
		<g>
			<g>
				<path class="st10" d="M357.4,128.8h-45.1c-0.5,0-1-0.4-1-1l0,0c0-0.5,0.4-1,1-1h45.1c0.5,0,1,0.4,1,1l0,0
					C358.4,128.3,358,128.8,357.4,128.8z"/>
			</g>
		</g>
		<g>
			<g>
				<g>
					<path class="st10" d="M427.1,112.5c0,0-0.2,0-0.7,0s-1.1,0-1.9,0c-1.7,0-4.2,0-7.4,0c-6.5,0-15.8,0-27.4,0.1
						c-23.1,0-55,0-90.3,0.1c-16.9,0-33,0-47.6,0h-0.2v-0.2c0-23.5,0.1-43.5,0.1-57.6c0-7.1,0.1-12.7,0.1-16.5c0-1.9,0-3.4,0-4.4
						c0-0.5,0-0.9,0-1.1c0-0.3,0-0.4,0-0.4s0,0.1,0,0.4c0,0.3,0,0.6,0,1.1c0,1,0,2.5,0,4.4c0,3.9,0,9.5,0.1,16.5
						c0,14.2,0.1,34.2,0.1,57.6l-0.2-0.2c14.7,0,30.7,0,47.6,0c35.2,0,67.1,0.1,90.3,0.1c11.5,0,20.9,0.1,27.4,0.1
						c3.2,0,5.7,0,7.4,0c0.8,0,1.5,0,1.9,0C426.9,112.4,427.1,112.5,427.1,112.5z"/>
				</g>
			</g>
		</g>
		<g class="st6">
			<g>
				<polygon class="st15" points="405.6,52.5 340.6,112.5 373.1,112.5 412.2,76.2 				"/>
			</g>
		</g>
		<g class="st6">
			<g>
				<polyline class="st15" points="348.3,81.3 312.5,112.5 303.3,112.5 345.6,76.2 349.3,82.5 				"/>
			</g>
		</g>
		<g>
			<g>
				<g>
					<path class="st10" d="M251.9,112.5c0,0,1.8-4.4,6-12c2.1-3.7,4.9-8.3,8.5-13.2c0.9-1.2,2-2.4,3.3-3.4s3-1.6,4.8-1.6
						c1.8,0.1,3.5,0.8,5,2c1.5,1.1,2.8,2.6,3.8,4.2c2.1,3.2,3.5,7.2,6.3,10.3c1.4,1.5,3.2,2.8,5.2,3.4c1,0.2,2.1,0.3,3.2,0
						c1.1-0.2,2.1-0.7,2.9-1.4c1.8-1.3,3.1-3.3,3.9-5.5c0.9-2.2,1.4-4.5,2-6.8c1.2-4.7,2.7-9.4,4.5-14.2c0.9-2.4,1.8-4.8,2.9-7.2
						c1-2.4,2.1-4.8,3.6-7.1c1.4-2.3,3.1-4.5,5.4-6.1c1.1-0.8,2.4-1.5,3.8-1.8s2.8-0.4,4.2-0.1c2.8,0.5,5.3,2.3,7.1,4.5
						c1.8,2.2,3.2,4.8,4,7.6c0.9,2.7,1.6,5.6,2.3,8.3c0.8,2.8,1.7,5.6,3.4,8c1.6,2.4,3.8,4.5,6.4,5.6s5.7,0.8,8.1-0.7
						s4.2-3.8,5.4-6.2c1.2-2.5,2-5.2,2.9-7.8c1.7-5.3,3.3-10.5,4.9-15.6c0.8-2.5,1.5-5.1,2.5-7.5c0.9-2.5,2-4.8,3.6-6.9
						c0.8-1,1.7-2,2.7-2.7c1-0.8,2.2-1.3,3.4-1.7c1.2-0.4,2.4-0.6,3.7-0.7c1.2-0.1,2.5,0,3.7,0.3c2.4,0.6,4.5,2,6,3.9
						c1.5,1.8,2.5,4,3.1,6.2c1.3,4.4,2.1,8.7,3.2,12.7c0.5,2,1.1,4,1.7,5.9s1.1,3.8,1.7,5.7c2.2,7.4,4.2,14.1,6.7,19.7
						c2.4,5.6,5,10.2,7.6,13.7s5.1,5.7,7,6.9c1,0.6,1.7,1,2.3,1.2c0.5,0.2,0.8,0.4,0.8,0.4s-0.3-0.1-0.8-0.3
						c-0.6-0.2-1.3-0.6-2.3-1.2c-1.9-1.2-4.5-3.4-7.1-6.9c-2.6-3.4-5.2-8.1-7.7-13.7s-4.6-12.3-6.8-19.7c-0.6-1.8-1.1-3.7-1.7-5.7
						c-0.6-1.9-1.2-3.9-1.7-5.9c-1.1-4.1-1.8-8.4-3.2-12.7c-0.7-2.1-1.6-4.3-3-6.1s-3.5-3.1-5.8-3.7c-1.2-0.2-2.4-0.4-3.6-0.3
						c-1.2,0.1-2.4,0.3-3.6,0.7c-2.3,0.8-4.4,2.3-5.9,4.3s-2.6,4.4-3.5,6.8c-0.9,2.4-1.6,5-2.4,7.5c-1.6,5.1-3.2,10.3-4.9,15.6
						c-0.8,2.6-1.6,5.3-2.9,7.9c-1.3,2.5-3.1,4.9-5.6,6.5c-1.3,0.7-2.7,1.3-4.2,1.4s-3-0.1-4.4-0.7c-2.8-1.1-5-3.3-6.6-5.8
						c-1.7-2.5-2.6-5.3-3.4-8.1c-0.8-2.8-1.4-5.6-2.3-8.3c-0.9-2.7-2.2-5.3-3.9-7.4c-1.8-2.1-4.1-3.8-6.8-4.3
						c-1.3-0.3-2.7-0.2-4,0.1s-2.5,1-3.6,1.7c-2.2,1.6-3.9,3.7-5.3,5.9s-2.5,4.6-3.5,7s-2,4.8-2.9,7.2c-1.8,4.8-3.3,9.5-4.5,14.2
						c-0.6,2.3-1.1,4.7-2,6.9c-0.9,2.2-2.2,4.2-4,5.6c-0.9,0.7-2,1.2-3.1,1.5s-2.3,0.2-3.4,0c-2.2-0.6-4-1.9-5.4-3.5
						c-2.9-3.2-4.2-7.1-6.3-10.4c-1-1.6-2.2-3-3.7-4.1c-1.4-1.1-3.1-1.8-4.8-1.9c-1.7-0.1-3.3,0.5-4.6,1.5c-1.3,0.9-2.4,2.1-3.3,3.3
						c-3.6,4.9-6.4,9.4-8.6,13.1s-3.7,6.7-4.7,8.8c-0.5,1-0.9,1.8-1.1,2.3C252,112.2,251.9,112.5,251.9,112.5z"/>
				</g>
			</g>
		</g>
	</g>
</g>
<g id="Speech_Bubble">
	<g>
		<g>
			<g>
				<path class="st2" d="M531.6,482.2H287.2c-4.4,0-8-3.6-8-8V302.3c0-4.4,3.6-8,8-8h244.4c4.4,0,8,3.6,8,8v171.9
					C539.6,478.7,536,482.2,531.6,482.2z"/>
			</g>
		</g>
		<g>
			<g>
				<path class="st3" d="M492.7,380.2H431c-10.3,0-18.6-8.3-18.6-18.6v-6.2c0-10.3,8.3-18.6,18.6-18.6h61.7
					c10.3,0,18.6,8.3,18.6,18.6v6.2C511.3,371.9,502.9,380.2,492.7,380.2z"/>
			</g>
		</g>
		<g>
			<g>
				<g>
					<g>
						<path class="st3" d="M297.8,385.3c-0.4-22.3,17.4-40.8,39.6-41.1c22.2-0.4,40.6,17.5,40.9,39.8c0.4,22.3-17.4,40.8-39.6,41.1
							C316.6,425.5,298.2,407.6,297.8,385.3z M357.4,384.3c-0.2-10.7-8.9-19.2-19.6-19c-10.6,0.2-19.1,9-19,19.7
							c0.2,10.7,8.9,19.2,19.6,19C349,403.8,357.5,395,357.4,384.3z"/>
					</g>
				</g>
			</g>
			<g>
				<g>
					<g>
						<path class="st8" d="M297.8,385.3c-0.4-22.3,17.4-40.8,39.6-41.1l0.3,21.1c-10.6,0.2-19.1,9-19,19.7
							c0.2,10.7,8.9,19.2,19.6,19l0.3,21.1C316.6,425.5,298.2,407.6,297.8,385.3z"/>
					</g>
				</g>
			</g>
			<g>
				<g>
					<g>
						<g>
							<path class="st18" d="M297.8,385.3c-0.4-22.3,17.4-40.8,39.6-41.1c22.2-0.4,40.6,17.5,40.9,39.8
								c0.4,22.3-17.4,40.8-39.6,41.1C316.6,425.5,298.2,407.6,297.8,385.3z M357.4,384.3c-0.2-10.7-8.9-19.2-19.6-19
								c-10.6,0.2-19.1,9-19,19.7c0.2,10.7,8.9,19.2,19.6,19C349,403.8,357.5,395,357.4,384.3z"/>
						</g>
					</g>
					<g>
						<g>
							<g>
								<path class="st7" d="M357.4,384.3c0,0,0,0.1,0,0.3c0,0.2,0,0.5,0,0.9s0,0.9-0.1,1.5s-0.1,1.3-0.3,2c-0.3,1.5-0.9,3.3-2,5.2
									c-1.1,1.9-2.6,3.9-4.8,5.7c-2.2,1.7-4.9,3.2-8.1,3.8c-3.2,0.6-6.8,0.6-10.3-0.7c-0.9-0.3-1.7-0.7-2.6-1.1
									c-0.8-0.5-1.7-0.9-2.4-1.5c-0.8-0.5-1.5-1.2-2.2-1.9c-0.7-0.7-1.4-1.4-1.9-2.2c-1.2-1.6-2.2-3.4-2.9-5.3c-0.7-2-1-4-1.1-6.2
									c0-2.1,0.3-4.2,0.9-6.2s1.6-3.8,2.7-5.4c0.6-0.8,1.2-1.6,1.9-2.3c0.7-0.7,1.4-1.4,2.2-1.9c0.7-0.6,1.6-1.1,2.4-1.6
									c0.8-0.4,1.7-0.9,2.5-1.2c3.4-1.4,7-1.5,10.2-1s6,1.9,8.2,3.6s3.9,3.6,5,5.5s1.8,3.7,2.2,5.2c0.2,0.7,0.3,1.4,0.4,2
									s0.1,1.1,0.1,1.5s0,0.7,0,0.9C357.4,384.2,357.4,384.3,357.4,384.3s0-0.1,0-0.3c0-0.2-0.1-0.5-0.1-0.9s-0.1-0.9-0.2-1.5
									s-0.2-1.3-0.4-2c-0.4-1.5-1.1-3.2-2.2-5.1c-1.1-1.8-2.8-3.7-5-5.4c-2.2-1.6-4.9-2.9-8.1-3.4c-3.1-0.5-6.7-0.3-10,1
									c-0.9,0.3-1.6,0.7-2.5,1.1c-0.8,0.5-1.6,0.9-2.3,1.6c-0.8,0.5-1.4,1.2-2.1,1.9c-0.6,0.7-1.3,1.4-1.8,2.2
									c-1.1,1.6-2.1,3.4-2.6,5.3c-0.6,1.9-0.9,4-0.9,6c0.1,4.1,1.5,8.1,3.9,11.2c0.6,0.8,1.2,1.5,1.9,2.2c0.7,0.6,1.4,1.3,2.2,1.8
									c0.7,0.6,1.6,1,2.4,1.5c0.8,0.4,1.6,0.8,2.5,1.1c3.4,1.2,6.9,1.3,10,0.7c3.1-0.6,5.8-2,8-3.7c2.1-1.7,3.7-3.6,4.8-5.5
									c1.1-1.9,1.7-3.6,2.1-5.1c0.2-0.7,0.3-1.4,0.4-2s0.1-1.1,0.2-1.5c0-0.4,0-0.7,0.1-0.9C357.4,384.4,357.4,384.3,357.4,384.3z
									"/>
							</g>
						</g>
					</g>
					<g>
						<g>
							<g>
								<path class="st7" d="M297.8,385.3c0,0,0,0.2,0.1,0.7c0,0.4,0.1,1.1,0.2,1.9c0,0.4,0.1,0.9,0.1,1.4c0.1,0.5,0.2,1.1,0.3,1.7
									c0.1,0.6,0.2,1.3,0.3,2c0.1,0.7,0.4,1.4,0.6,2.2c0.8,3.1,2.3,6.8,4.6,10.6c2.4,3.9,5.8,7.9,10.4,11.3
									c0.6,0.4,1.2,0.8,1.8,1.3c0.6,0.4,1.3,0.8,1.9,1.1c0.7,0.4,1.3,0.8,2,1.1c0.7,0.3,1.4,0.6,2.1,1c0.4,0.2,0.7,0.3,1.1,0.5
									c0.4,0.1,0.7,0.3,1.1,0.4c0.7,0.3,1.5,0.5,2.3,0.8c0.8,0.2,1.6,0.4,2.4,0.6s1.6,0.4,2.4,0.5c1.7,0.2,3.3,0.5,5.1,0.5
									c0.9,0,1.7,0.1,2.6,0.1c0.9-0.1,1.8-0.1,2.7-0.2c0.4,0,0.9,0,1.3-0.1l1.3-0.2c0.9-0.2,1.8-0.3,2.7-0.5
									c1.8-0.5,3.6-0.9,5.3-1.7c1.8-0.6,3.5-1.5,5.2-2.4c0.8-0.5,1.6-1,2.5-1.5c0.8-0.5,1.6-1.1,2.4-1.7c1.6-1.2,3-2.6,4.5-4
									c0.7-0.8,1.3-1.5,2-2.3l0.5-0.6l0.4-0.6l0.9-1.2l0.9-1.3l0.8-1.3l0.8-1.3l0.4-0.7l0.3-0.7c0.4-0.9,0.9-1.9,1.3-2.9
									c0.3-1,0.7-2,1-3c1.2-4,1.9-8.3,1.9-12.7c-0.1-4.4-0.9-8.6-2.3-12.6c-0.4-1-0.8-2-1.1-3c-0.5-0.9-0.9-1.9-1.4-2.8l-0.4-0.7
									l-0.4-0.7l-0.8-1.3l-0.8-1.3l-0.9-1.2l-0.9-1.2l-0.5-0.6l-0.5-0.6c-0.7-0.7-1.4-1.5-2.1-2.2c-1.5-1.3-3-2.7-4.6-3.8
									c-0.8-0.6-1.6-1.2-2.4-1.6c-0.8-0.5-1.7-1-2.5-1.5c-1.8-0.8-3.5-1.7-5.3-2.2c-1.8-0.7-3.6-1-5.4-1.5
									c-0.9-0.2-1.8-0.3-2.7-0.4l-1.3-0.2c-0.4-0.1-0.9,0-1.3-0.1c-0.9,0-1.8-0.1-2.7-0.1c-0.9,0-1.7,0.1-2.6,0.1
									c-1.7,0-3.4,0.4-5.1,0.7c-0.8,0.1-1.6,0.4-2.4,0.6s-1.6,0.4-2.4,0.7c-0.8,0.3-1.5,0.6-2.2,0.9c-0.4,0.1-0.7,0.3-1.1,0.4
									c-0.4,0.2-0.7,0.4-1,0.5c-0.7,0.3-1.4,0.7-2.1,1s-1.3,0.8-1.9,1.2c-0.6,0.4-1.3,0.8-1.9,1.2c-0.6,0.4-1.1,0.9-1.7,1.3
									c-4.5,3.5-7.8,7.7-10,11.6s-3.6,7.7-4.3,10.8c-0.2,0.8-0.4,1.5-0.5,2.2s-0.2,1.4-0.3,2c-0.1,0.6-0.2,1.2-0.2,1.7
									s0,1-0.1,1.4c0,0.8-0.1,1.5-0.1,1.9C297.9,385.1,297.8,385.3,297.8,385.3s0-0.2,0-0.7s0-1.1,0-1.9c0-0.4,0-0.9,0-1.4
									s0.1-1.1,0.2-1.7s0.2-1.3,0.3-2c0.1-0.7,0.3-1.4,0.5-2.2c0.6-3.2,2-6.9,4.2-10.9s5.5-8.2,10-11.7c0.6-0.4,1.1-0.9,1.7-1.3
									s1.2-0.8,1.9-1.2c0.6-0.4,1.3-0.8,2-1.2c0.7-0.3,1.4-0.7,2.1-1.1c0.4-0.2,0.7-0.4,1.1-0.5s0.7-0.3,1.1-0.4
									c0.7-0.3,1.5-0.6,2.3-0.9s1.6-0.5,2.4-0.7s1.6-0.5,2.4-0.6c1.7-0.3,3.4-0.7,5.1-0.7c0.9,0,1.8-0.1,2.6-0.2
									c0.9,0,1.8,0.1,2.7,0.1c0.5,0,0.9,0,1.4,0.1l1.4,0.2c0.9,0.1,1.8,0.2,2.7,0.4c1.8,0.5,3.7,0.8,5.4,1.5
									c1.8,0.6,3.6,1.4,5.3,2.3c0.9,0.5,1.7,1,2.6,1.5s1.7,1.1,2.5,1.7c1.7,1.1,3.1,2.5,4.7,3.9c0.7,0.7,1.4,1.5,2.1,2.2l0.5,0.6
									l0.5,0.6l0.9,1.2l1,1.2l0.8,1.3l0.8,1.3l0.4,0.7l0.4,0.7c0.5,0.9,0.9,1.9,1.4,2.8c0.4,1,0.8,2,1.1,3
									c1.4,4.1,2.2,8.4,2.3,12.8c0,4.4-0.6,8.8-1.9,12.9c-0.4,1-0.7,2-1.1,3s-0.9,1.9-1.3,2.9l-0.3,0.7l-0.4,0.7l-0.8,1.4
									l-0.8,1.4l-0.9,1.3l-0.9,1.3l-0.5,0.6l-0.5,0.6c-0.7,0.8-1.4,1.5-2,2.3c-1.5,1.4-2.9,2.8-4.5,4c-0.8,0.6-1.6,1.2-2.4,1.7
									s-1.7,1.1-2.5,1.6c-1.7,0.9-3.4,1.8-5.3,2.4c-1.8,0.8-3.6,1.2-5.4,1.7c-0.9,0.2-1.8,0.3-2.7,0.5l-1.4,0.2
									c-0.4,0.1-0.9,0.1-1.4,0.1c-0.9,0.1-1.8,0.1-2.7,0.2c-0.9,0-1.8,0-2.6-0.1c-1.8,0-3.5-0.3-5.1-0.5c-0.8-0.1-1.6-0.4-2.5-0.5
									c-0.8-0.2-1.6-0.4-2.4-0.6c-0.8-0.3-1.5-0.5-2.3-0.8c-0.4-0.1-0.8-0.3-1.1-0.4c-0.4-0.2-0.7-0.3-1.1-0.5
									c-0.7-0.3-1.4-0.7-2.1-1s-1.3-0.8-2-1.1c-0.6-0.4-1.3-0.7-1.9-1.2c-0.6-0.4-1.2-0.9-1.8-1.3c-4.6-3.4-8-7.5-10.4-11.4
									c-2.3-3.9-3.8-7.6-4.6-10.7c-0.2-0.8-0.5-1.5-0.5-2.2c-0.1-0.7-0.2-1.4-0.3-2c-0.1-0.6-0.2-1.2-0.3-1.7c0-0.5-0.1-1-0.1-1.4
									c0-0.8-0.1-1.5-0.1-1.9C297.8,385.5,297.8,385.3,297.8,385.3z"/>
							</g>
						</g>
					</g>
				</g>
			</g>
			<g>
				<g>
					<g>
						<g>
							<path class="st5" d="M333.9,340.9c26-0.4,46.7,19.7,47.1,45.9l-24.6,0.4c-0.2-12.5-9.7-20.3-22.1-20.1L333.9,340.9z"/>
						</g>
					</g>
					<g>
						<g>
							<g>
								<path class="st7" d="M333.9,340.9c0,0,0,0.2,0,0.5s0,0.8,0,1.4c0,1.2,0.1,3,0.1,5.2c0.1,4.5,0.2,11,0.4,19l-0.2-0.2
									c2.4,0,4.9,0.2,7.4,0.9c2.5,0.7,5.1,1.8,7.3,3.6c2.3,1.7,4.2,4,5.6,6.8c1.3,2.7,2,5.9,2.1,9.1l-0.3-0.2
									c6-0.1,12.4-0.2,19-0.3c1.9,0,3.8-0.1,5.5-0.1l-0.3,0.3c-0.1-5.1-1-10-2.5-14.5c-0.4-1.1-0.8-2.2-1.2-3.3
									c-0.5-1.1-1-2.1-1.5-3.1c-0.5-1.1-1.1-2-1.7-3c-0.6-0.9-1.1-1.9-1.8-2.8c-0.7-0.9-1.3-1.7-2-2.6c-0.7-0.8-1.4-1.6-2.1-2.3
									c-0.4-0.4-0.7-0.8-1-1.1c-0.4-0.3-0.8-0.7-1.1-1c-0.8-0.7-1.5-1.3-2.2-2c-3.1-2.3-6.1-4.3-9.1-5.6c-0.7-0.3-1.5-0.7-2.2-1
									s-1.5-0.5-2.1-0.8c-0.7-0.2-1.4-0.5-2-0.7c-0.7-0.2-1.3-0.3-2-0.5c-0.6-0.2-1.2-0.3-1.8-0.4c-0.3-0.1-0.6-0.1-0.9-0.2
									s-0.6-0.1-0.8-0.1c-1.1-0.2-2.1-0.3-3-0.4c-0.9-0.2-1.7-0.1-2.4-0.2c-0.7,0-1.3-0.1-1.8-0.1s-0.8,0-1.1-0.1
									C334,340.9,333.9,340.9,333.9,340.9s0.1,0,0.4,0s0.6,0,1.1,0s1.1,0,1.8,0c0.7,0,1.5,0,2.4,0.1s1.9,0.2,3,0.4
									c0.3,0,0.6,0.1,0.8,0.1c0.3,0.1,0.6,0.1,0.9,0.2c0.6,0.1,1.2,0.3,1.8,0.4c0.6,0.2,1.3,0.3,2,0.5s1.3,0.5,2,0.7
									s1.4,0.5,2.2,0.7c0.7,0.3,1.5,0.7,2.2,1c3,1.3,6.1,3.3,9.2,5.6c0.7,0.6,1.5,1.3,2.2,2c0.4,0.3,0.8,0.7,1.1,1
									c0.4,0.4,0.7,0.8,1.1,1.1c0.7,0.8,1.5,1.5,2.2,2.3c0.7,0.9,1.3,1.7,2,2.6c0.7,0.8,1.2,1.8,1.8,2.8c0.6,1,1.2,1.9,1.7,3
									c0.5,1,1.1,2.1,1.5,3.2s0.8,2.2,1.3,3.4c1.5,4.6,2.4,9.6,2.5,14.7v0.3h-0.3c-1.8,0-3.6,0.1-5.5,0.1c-6.6,0.1-13,0.2-19,0.3
									H356v-0.3c0-3.1-0.7-6.2-2-8.9c-1.3-2.7-3.2-4.9-5.4-6.6c-2.2-1.7-4.7-2.8-7.2-3.5s-4.9-0.9-7.3-0.9h-0.2V367
									c-0.1-8-0.2-14.6-0.2-19.1c0-2.2,0-4,0-5.2c0-0.6,0-1,0-1.3C333.8,341.1,333.8,340.9,333.9,340.9z"/>
							</g>
						</g>
					</g>
				</g>
			</g>
		</g>
		<g>
			<g>
				<path class="st4" d="M539.6,319.4H279.2v-17.1c0-4.4,3.6-8,8-8h244.4c4.4,0,8,3.6,8,8V319.4z"/>
			</g>
		</g>
		<g>
			<g>
				<path class="st7" d="M499.6,351.5h-73.2c-0.9,0-1.6-0.7-1.6-1.6l0,0c0-0.9,0.7-1.6,1.6-1.6h73.2c0.9,0,1.6,0.7,1.6,1.6l0,0
					C501.2,350.8,500.5,351.5,499.6,351.5z"/>
			</g>
		</g>
		<g>
			<g>
				<path class="st7" d="M499.6,359.8h-73.2c-0.9,0-1.6-0.7-1.6-1.6l0,0c0-0.9,0.7-1.6,1.6-1.6h73.2c0.9,0,1.6,0.7,1.6,1.6l0,0
					C501.2,359.1,500.5,359.8,499.6,359.8z"/>
			</g>
		</g>
		<g>
			<g>
				<path class="st7" d="M459.7,368.1h-33.3c-0.9,0-1.6-0.7-1.6-1.6l0,0c0-0.9,0.7-1.6,1.6-1.6h33.3c0.9,0,1.6,0.7,1.6,1.6l0,0
					C461.3,367.4,460.6,368.1,459.7,368.1z"/>
			</g>
		</g>
		<g>
			<g>
				<path class="st3" d="M492.7,433.3H431c-10.3,0-18.6-8.3-18.6-18.6v-6.2c0-10.3,8.3-18.6,18.6-18.6h61.7
					c10.3,0,18.6,8.3,18.6,18.6v6.2C511.3,424.9,502.9,433.3,492.7,433.3z"/>
			</g>
		</g>
		<g>
			<g>
				<path class="st3" d="M501.7,460.3H420c-4.7,0-8.6-3.8-8.6-8.6l0,0c0-4.7,3.8-8.6,8.6-8.6h81.7c4.7,0,8.6,3.8,8.6,8.6l0,0
					C510.2,456.4,506.4,460.3,501.7,460.3z"/>
			</g>
		</g>
		<g>
			<g>
				<path class="st7" d="M499.1,404.8H426c-0.9,0-1.6-0.7-1.6-1.6l0,0c0-0.9,0.7-1.6,1.6-1.6h73.2c0.9,0,1.6,0.7,1.6,1.6l0,0
					C500.7,404.2,500,404.8,499.1,404.8z"/>
			</g>
		</g>
		<g>
			<g>
				<path class="st7" d="M496,453.5h-73.2c-0.9,0-1.6-0.7-1.6-1.6l0,0c0-0.9,0.7-1.6,1.6-1.6H496c0.9,0,1.6,0.7,1.6,1.6l0,0
					C497.6,452.8,496.9,453.5,496,453.5z"/>
			</g>
		</g>
		<g>
			<g>
				<path class="st7" d="M499.1,413.2H426c-0.9,0-1.6-0.7-1.6-1.6l0,0c0-0.9,0.7-1.6,1.6-1.6h73.2c0.9,0,1.6,0.7,1.6,1.6l0,0
					C500.7,412.5,500,413.2,499.1,413.2z"/>
			</g>
		</g>
		<g>
			<g>
				<path class="st7" d="M459.2,421.5H426c-0.9,0-1.6-0.7-1.6-1.6l0,0c0-0.9,0.7-1.6,1.6-1.6h33.3c0.9,0,1.6,0.7,1.6,1.6l0,0
					C460.8,420.8,460.1,421.5,459.2,421.5z"/>
			</g>
		</g>
		<g>
			<g>
				<g>
					<path class="st7" d="M407.3,346.2c0,0-0.5,0.1-1.4,0.1c-1,0-2.2,0-3.7,0.1c-3.2,0-7.5,0.1-12.3,0.1c-2,0-3.9,0-5.6,0l0.2-0.1
						c-2.4,2.4-4.6,4.5-6.1,5.9c-0.7,0.7-1.3,1.2-1.8,1.7c-0.4,0.4-0.7,0.6-0.7,0.6s0.2-0.3,0.6-0.7c0.5-0.5,1-1.1,1.7-1.8
						c1.4-1.5,3.5-3.6,5.9-6.1l0.1-0.1h0.1c1.7,0,3.6,0,5.6,0c4.8,0,9.2,0,12.3,0.1c1.5,0,2.7,0.1,3.7,0.1
						C406.8,346.1,407.3,346.1,407.3,346.2z"/>
				</g>
			</g>
		</g>
		<g>
			<g>
				<circle class="st7" cx="406.2" cy="346.3" r="2.1"/>
			</g>
		</g>
		<g>
			<g>
				<circle class="st7" cx="406.2" cy="408.8" r="2.1"/>
			</g>
		</g>
		<g>
			<g>
				<g>
					<path class="st7" d="M404.8,409.1c0,0.1-1.3,0.1-3.5,0.2c-2.2,0-5.1,0-8.4,0c-3.2,0-6.1-0.1-8.4-0.1c-1,0-1.8,0-2.6-0.1
						c-0.6,0-0.9,0-0.9,0c0-0.1,1.3-0.2,3.5-0.3c2.2-0.1,5.1-0.1,8.4-0.1s6.3,0.1,8.4,0.1C403.5,409,404.8,409.1,404.8,409.1z"/>
				</g>
			</g>
		</g>
		<g>
			<g>
				<g>
					<path class="st8" d="M314.3,461.7L314.3,461.7c-1.9,0-3.4-1.5-3.4-3.4l0,0c0-1.9,1.5-3.4,3.4-3.4l0,0c1.9,0,3.4,1.5,3.4,3.4
						l0,0C317.7,460.1,316.2,461.7,314.3,461.7z"/>
				</g>
			</g>
			<g>
				<g>
					<path class="st3" d="M337.1,461.7L337.1,461.7c-1.9,0-3.4-1.5-3.4-3.4l0,0c0-1.9,1.5-3.4,3.4-3.4l0,0c1.9,0,3.4,1.5,3.4,3.4
						l0,0C340.6,460.1,339,461.7,337.1,461.7z"/>
				</g>
			</g>
			<g>
				<g>
					<path class="st5" d="M362,461.7L362,461.7c-1.9,0-3.4-1.5-3.4-3.4l0,0c0-1.9,1.5-3.4,3.4-3.4l0,0c1.9,0,3.4,1.5,3.4,3.4l0,0
						C365.4,460.1,363.8,461.7,362,461.7z"/>
				</g>
			</g>
		</g>
		<g>
			<g>
				<ellipse class="st3" cx="293.4" cy="306.9" rx="3.5" ry="3.6"/>
			</g>
		</g>
		<g>
			<g>
				<ellipse class="st3" cx="305.1" cy="306.9" rx="3.5" ry="3.6"/>
			</g>
		</g>
		<g>
			<g>
				<ellipse class="st3" cx="316.8" cy="306.9" rx="3.5" ry="3.6"/>
			</g>
		</g>
		<g class="st16">
			<g class="st17">
				<g>
					<path class="st7" d="M539.6,482.2c0-1.7-0.1-73.9-0.2-187.9l0.2,0.2c-72.9,0-163,0-260.4,0l0,0l0.3-0.3c0,67.4,0,131.2,0,187.9
						l-0.2-0.2C433.2,482.2,537.5,482.2,539.6,482.2c-2.1,0-106.4,0.1-260.4,0.2H279v-0.2c0-56.7,0-120.6,0-187.9V294h0.3l0,0
						c97.4,0,187.5,0,260.4,0h0.2v0.2C539.7,408.3,539.6,480.5,539.6,482.2z"/>
				</g>
			</g>
		</g>
	</g>
</g>
</svg>
