<?xml version="1.0" encoding="utf-8"?>
<!-- Generator: Adobe Illustrator 20.1.0, SVG Export Plug-In . SVG Version: 6.00 Build 0)  -->
<svg version="1.1" id="Ebene_1" xmlns="http://www.w3.org/2000/svg" xmlns:xlink="http://www.w3.org/1999/xlink" x="0px" y="0px"
	 viewBox="0 0 512.1 512" style="enable-background:new 0 0 512.1 512;" xml:space="preserve">
<style type="text/css">
	.st0{fill:#363E42;}
</style>
<g>
	<g>
		<g>
			<path class="st0" d="M483.3,452.9c-17.8-69-45.4-126.1-82.2-169.6c-1.2-1.5-2.5-2.8-3.8-4.2C371.7,326.3,263.7,484.3,0,410.9
				c0,0,130,194.6,483.8,43.9L483.3,452.9z"/>
		</g>
		<g>
			<path class="st0" d="M291.5,7.5L290,8.9c-50.7,49.9-86.1,102.5-105.3,156.2c-0.6,1.8-1.1,3.5-1.7,5.3
				c53.7-1.2,244,13.8,312.4,279.4C495.4,449.8,598.3,239.6,291.5,7.5z"/>
		</g>
		<g>
			<path class="st0" d="M3.3,398.8c68.5,19.1,131.6,23.6,187.5,13.4c1.9-0.3,3.6-0.8,5.5-1.2c-27.9-46.1-110-218.9,85-411
				c0,0-233,15.7-279.8,398.3L3.3,398.8z"/>
		</g>
	</g>
</g>
</svg>
